<svg width="108" height="137" viewBox="0 0 108 137" fill="none" xmlns="http://www.w3.org/2000/svg">
<path fill-rule="evenodd" clip-rule="evenodd" d="M46.9364 44.1889C48.2915 43.506 49.8338 43.0351 51.545 42.8168C52.009 42.759 52.3465 42.2345 52.301 41.6458C52.2537 41.0593 51.8403 40.629 51.3779 40.6868C49.4963 40.9266 47.8021 41.4489 46.3137 42.2003C45.88 42.4165 45.6691 43.0394 45.8412 43.5895C46.0133 44.1375 46.5044 44.4073 46.9364 44.1889Z" fill="#738BAB"/>
<path fill-rule="evenodd" clip-rule="evenodd" d="M55.6788 42.7764C57.6735 42.9669 59.4994 43.0076 61.1666 42.9177C61.6324 42.8942 61.9952 42.3954 61.9749 41.8046C61.9564 41.2138 61.5615 40.7557 61.0974 40.7792C59.4892 40.8648 57.7292 40.8242 55.8054 40.6401C55.3413 40.5973 54.9364 41.0382 54.9009 41.6269C54.8655 42.2177 55.2148 42.7315 55.6788 42.7764Z" fill="#738BAB"/>
<path fill-rule="evenodd" clip-rule="evenodd" d="M65.7228 42.2837C67.6904 41.8149 69.3594 41.1214 70.7617 40.2672C71.1819 40.0104 71.3591 39.3703 71.1566 38.8394C70.9557 38.3064 70.4512 38.0817 70.031 38.3364C68.7451 39.1199 67.2146 39.7514 65.4106 40.1816C64.9533 40.2908 64.6512 40.8495 64.7373 41.4317C64.8234 42.0119 65.2655 42.3929 65.7228 42.2837Z" fill="#738BAB"/>
<path fill-rule="evenodd" clip-rule="evenodd" d="M74.2012 37.2942C75.7132 35.4425 76.6008 33.3105 77.0007 31.142C77.107 30.5662 76.8235 29.9903 76.3713 29.8555C75.9173 29.7206 75.4634 30.0803 75.3571 30.6539C75.0263 32.4542 74.2838 34.2181 73.03 35.7529C72.6942 36.1639 72.6841 36.8425 73.0081 37.2663C73.3321 37.6923 73.8653 37.7052 74.2012 37.2942Z" fill="#738BAB"/>
<path fill-rule="evenodd" clip-rule="evenodd" d="M76.5997 23.7716C75.9297 21.5154 74.794 19.5995 73.4103 18.3879C73.0272 18.054 72.5024 18.176 72.2375 18.6619C71.9725 19.1479 72.0687 19.8157 72.4535 20.1518C73.5723 21.1301 74.4785 22.697 75.0202 24.5251C75.1838 25.0774 75.6698 25.3578 76.1069 25.1502C76.5423 24.9425 76.7633 24.3239 76.5997 23.7716Z" fill="#738BAB"/>
<path fill-rule="evenodd" clip-rule="evenodd" d="M54.6147 18.3838C55.5411 12.8696 59.2334 10.1874 61.8962 10.1681C62.7704 10.1617 63.528 10.4228 63.9212 11.0907C64.1541 11.4867 64.225 12.0176 64.1355 12.6683C64.0562 13.2506 64.365 13.805 64.824 13.9056C65.283 14.0062 65.7201 13.6145 65.7994 13.0323C65.9817 11.6944 65.7522 10.6219 65.2729 9.81061C64.603 8.66966 63.3745 8.01677 61.8878 8.02747C58.6461 8.05102 54.0915 11.2256 52.9643 17.9386C52.8664 18.5165 53.1567 19.0838 53.6123 19.208C54.0679 19.3321 54.5168 18.9618 54.6147 18.3838Z" fill="#738BAB"/>
<path fill-rule="evenodd" clip-rule="evenodd" d="M52.9702 18.3882C54.1127 25.0669 58.6504 28.2265 61.8836 28.2522C63.485 28.2629 64.7827 27.5072 65.4172 26.1993C65.8003 25.4116 65.9674 24.4076 65.7885 23.181C65.5691 21.6719 64.7861 19.7389 63.1475 17.4442C62.8354 17.0053 62.3004 16.9711 61.9562 17.3671C61.6102 17.7653 61.5832 18.4417 61.8971 18.8805C63.0379 20.4796 63.7145 21.8432 64.0115 22.9884C64.236 23.8618 64.2309 24.5617 63.9812 25.0776C63.755 25.5422 63.35 25.8226 62.8624 25.9767C62.2498 26.1694 61.5157 26.1544 60.7412 25.9467C58.2656 25.2831 55.4272 22.6566 54.6206 17.9344C54.521 17.3564 54.0722 16.9904 53.6165 17.1145C53.1609 17.2408 52.8724 17.8102 52.9702 18.3882Z" fill="#738BAB"/>
<path fill-rule="evenodd" clip-rule="evenodd" d="M53.5664 20.3018H64.8642C65.7957 20.3018 66.5517 19.3428 66.5517 18.1611C66.5517 16.9795 65.7957 16.0205 64.8642 16.0205H53.5664C52.6349 16.0205 51.8789 16.9795 51.8789 18.1611C51.8789 19.3428 52.6349 20.3018 53.5664 20.3018Z" fill="#2D74FF"/>
<path fill-rule="evenodd" clip-rule="evenodd" d="M19.4062 103.863V115.87C19.4062 118.233 20.628 120.316 22.4134 120.995C29.1937 123.576 48.2659 130.835 52.7884 132.554C53.5781 132.856 54.4219 132.856 55.2116 132.554C59.7341 130.835 78.8062 123.576 85.5866 120.995C87.372 120.316 88.5938 118.233 88.5938 115.87C88.5938 110.155 88.5938 98.7515 88.5938 98.7515C88.5938 98.1607 88.2158 97.6812 87.75 97.6812C87.2842 97.6812 86.9062 98.1607 86.9062 98.7515V115.87C86.9062 117.287 86.1722 118.537 85.1023 118.946C78.3219 121.526 59.2481 128.784 54.7273 130.505C54.2531 130.685 53.7469 130.685 53.2727 130.505L22.8977 118.946C21.8278 118.537 21.0938 117.287 21.0938 115.87V103.863C21.0938 103.272 20.7157 102.793 20.25 102.793C19.7843 102.793 19.4062 103.272 19.4062 103.863Z" fill="#738BAB"/>
<path fill-rule="evenodd" clip-rule="evenodd" d="M17.4414 79.6098C17.4414 79.6098 13.1686 87.6457 10.985 91.7514C10.5412 92.5863 10.4315 93.6395 10.6914 94.592C10.9496 95.5446 11.5452 96.2895 12.3012 96.5999L42.6678 109.116C43.7411 109.557 44.9139 109.048 45.5467 107.864C47.8096 103.625 54.698 90.7346 54.698 90.7346C54.8465 90.4563 54.8836 90.1053 54.7976 89.7863C54.7115 89.4674 54.5124 89.2191 54.2593 89.1163L20.5092 75.2237C20.0671 75.0417 19.5912 75.35 19.4461 75.9129C19.3027 76.4738 19.5457 77.0774 19.9895 77.2615L52.6713 90.7132L44.1494 106.663C43.9385 107.057 43.547 107.228 43.1893 107.08L12.8227 94.5642C12.5712 94.4593 12.3721 94.2131 12.2861 93.8942C12.2 93.5774 12.2371 93.2263 12.3839 92.948L18.8403 80.8064C19.1019 80.3162 18.9989 79.6505 18.6125 79.3208C18.2277 78.989 17.7029 79.1196 17.4414 79.6098Z" fill="#738BAB"/>
<path fill-rule="evenodd" clip-rule="evenodd" d="M82.6879 77.1997L53.7389 89.1166C53.2951 89.2985 53.0521 89.9022 53.1955 90.4652C53.3406 91.026 53.8165 91.3343 54.2586 91.1523L83.2077 79.2376C83.6515 79.0557 83.8945 78.4499 83.7511 77.889C83.6059 77.326 83.1301 77.0178 82.6879 77.1997Z" fill="#738BAB"/>
<path fill-rule="evenodd" clip-rule="evenodd" d="M55.6903 95.2066C55.6903 95.2066 60.5857 104.369 62.4521 107.864C63.0849 109.048 64.2577 109.557 65.331 109.116C70.3074 107.066 89.2867 99.2417 95.6976 96.6002C96.4536 96.2898 97.0492 95.5449 97.3074 94.5923C97.5673 93.6397 97.4576 92.5865 97.0138 91.7517C94.3678 86.7747 88.4497 75.6435 88.4497 75.6435C88.1882 75.1554 87.6634 75.0248 87.2769 75.3545C86.8922 75.6863 86.7892 76.352 87.0491 76.8422C87.0491 76.8422 92.9689 87.9713 95.6149 92.9483C95.7617 93.2266 95.7988 93.5776 95.7127 93.8944C95.6267 94.2134 95.4276 94.4596 95.1761 94.5645L64.8096 107.081C64.4518 107.228 64.0603 107.057 63.8494 106.663L57.0876 94.0058C56.826 93.5155 56.3012 93.3893 55.9147 93.7211C55.53 94.0507 55.4287 94.7186 55.6903 95.2066Z" fill="#738BAB"/>
<path fill-rule="evenodd" clip-rule="evenodd" d="M25.6366 75.1445L54.2617 63.324C54.5131 63.2191 54.7122 62.9708 54.7983 62.6518C54.8844 62.3328 54.8472 61.9818 54.6971 61.7035C54.6971 61.7035 48.6356 50.3946 46.5279 46.4623C45.8951 45.2828 44.7239 44.7733 43.6524 45.2143L13.2841 57.7305C12.5281 58.043 11.9324 58.7858 11.6726 59.7406C11.4144 60.6931 11.5241 61.7442 11.9679 62.5812C14.4046 67.1642 19.5498 76.842 19.5498 76.842C19.8114 77.3301 20.3362 77.4606 20.7226 77.1288C21.1074 76.7992 21.2103 76.1335 20.9504 75.6433C20.9504 75.6433 15.8036 65.9676 13.3668 61.3846C13.2183 61.1041 13.1829 60.7552 13.2689 60.4363C13.355 60.1194 13.5541 59.8711 13.8056 59.7662L44.1738 47.25C44.5316 47.1023 44.9214 47.2736 45.1323 47.6653L52.6704 61.7292L25.1152 73.1088C24.6714 73.2907 24.4301 73.8965 24.5735 74.4573C24.7186 75.0182 25.1945 75.3264 25.6366 75.1445Z" fill="#738BAB"/>
<path fill-rule="evenodd" clip-rule="evenodd" d="M53.7383 63.324L87.4883 77.2594C87.846 77.4071 88.2392 77.238 88.4501 76.842C88.4501 76.842 93.5953 67.1642 96.0321 62.5812C96.4759 61.7442 96.5856 60.6931 96.3274 59.7406C96.0675 58.7858 95.4718 58.043 94.7158 57.7305L64.3476 45.2143C63.276 44.7733 62.1049 45.2828 61.4721 46.4623L55.5692 57.4736C55.3077 57.9638 55.4072 58.6296 55.792 58.9614C56.1784 59.2932 56.7032 59.1669 56.9648 58.6788L62.8677 47.6653C63.0786 47.2736 63.4684 47.1023 63.8262 47.25L94.1944 59.7662C94.4458 59.8711 94.645 60.1194 94.731 60.4363C94.8171 60.7552 94.7816 61.1041 94.6331 61.3846L87.4056 74.9754L54.2614 61.2882C53.8176 61.1041 53.3417 61.4124 53.1983 61.9754C53.0532 62.5362 53.2962 63.1399 53.7383 63.324Z" fill="#738BAB"/>
<path fill-rule="evenodd" clip-rule="evenodd" d="M79.5606 76.2385L54 86.7576L28.4395 76.2385L54 65.6831L79.5606 76.2385Z" fill="#2D74FF"/>
<path fill-rule="evenodd" clip-rule="evenodd" d="M45.5593 62.2065C45.1054 61.3952 44.7156 60.5796 44.3882 59.764C44.1773 59.2374 43.6693 59.0277 43.2542 59.2974C42.8391 59.565 42.6737 60.2093 42.8847 60.7359C43.2475 61.6414 43.6795 62.5468 44.184 63.4481C44.454 63.9297 44.9805 64.041 45.3602 63.7006C45.7399 63.3581 45.8293 62.6881 45.5593 62.2065Z" fill="#738BAB"/>
<path fill-rule="evenodd" clip-rule="evenodd" d="M43.2174 55.3115C43.0655 54.0914 43.0587 52.899 43.1921 51.7559C43.2596 51.1715 42.9406 50.6278 42.4799 50.5422C42.0192 50.4566 41.5906 50.8611 41.5214 51.4455C41.3662 52.7941 41.3712 54.2027 41.5501 55.6433C41.6227 56.2277 42.0547 56.6259 42.5154 56.5338C42.9744 56.4418 43.2899 55.8938 43.2174 55.3115Z" fill="#738BAB"/>
</svg>
