<svg width="160" height="118" viewBox="0 0 160 118" fill="none" xmlns="http://www.w3.org/2000/svg">
<path d="M149.558 42.9127C151.389 43.2134 153.248 43.5414 155.08 43.8421C155.708 43.9515 156.337 44.0608 157.021 44.1701C156.884 44.0335 156.775 44.0061 156.665 43.9515C154.943 43.3227 153.194 42.8033 151.444 42.3113C149.093 41.6552 146.715 41.1085 144.337 40.6164C142.532 40.261 140.701 39.9057 138.869 39.6323C137.366 39.3863 135.862 39.1676 134.359 38.9762C132.965 38.7849 131.598 38.6482 130.204 38.5115C128.673 38.3475 127.142 38.2108 125.584 38.1015C124.217 37.9921 122.85 37.9374 121.483 37.8554C118.996 37.7188 116.535 37.6914 114.048 37.7188C111.943 37.7188 109.838 37.6914 107.76 37.8281C106.312 37.9101 104.835 37.9374 103.387 38.0468C101.692 38.1561 100.024 38.2928 98.3294 38.4568C96.7712 38.5935 95.1857 38.7302 93.6275 38.9216C91.6046 39.1676 89.5544 39.4409 87.5315 39.7416C85.1805 40.097 82.8569 40.4797 80.5334 40.9171C77.7724 41.4365 74.9841 42.0379 72.2504 42.694C69.8448 43.268 67.4392 43.8968 65.0609 44.5529C62.4913 45.2636 59.9217 46.0017 57.3794 46.8218C54.8645 47.6419 52.3495 48.462 49.8619 49.3914C48.7411 49.8288 47.593 50.2115 46.4449 50.6489C44.8867 51.2503 43.3285 51.8517 41.7977 52.4804C40.2395 53.1091 38.6813 53.7926 37.1505 54.4213C36.4944 54.6947 35.8383 54.9954 35.1549 55.2687C35.1549 53.1638 35.1549 51.1683 35.1549 49.1454C35.1549 42.8033 35.1549 36.4886 35.1549 30.1466C35.1549 30.0646 35.1549 29.9825 35.1549 29.8732C35.1276 29.7092 35.1823 29.6819 35.3736 29.6819C38.0799 29.7092 40.8136 29.7092 43.5199 29.7092C51.4474 29.7365 59.4023 29.6545 67.3299 29.7639C69.9268 29.7912 72.4965 29.7912 75.0934 29.7912C78.5925 29.7912 82.0915 29.7912 85.5906 29.8185C85.946 29.8185 86.0553 29.7365 86.0553 29.3811C86.0826 21.6449 85.9733 13.9087 86.11 6.17254C86.1373 4.75104 86.0826 3.32955 86.1373 1.90806C86.1373 1.44334 86.0006 1.36133 85.5906 1.36133C59.5117 1.36133 33.4327 1.36133 7.35379 1.36133C7.18977 1.36133 7.05309 1.38866 6.97108 1.416V1.38866H1.09375V116.229H6.88907C6.88907 116.229 7.16243 115.081 7.4358 114.425C8.41991 112.183 9.59537 110.024 10.7708 107.891C12.3837 104.939 14.1059 102.069 15.9101 99.253C18.6437 95.0432 21.6234 91.0247 24.8218 87.1703C26.6806 84.9287 28.6215 82.7145 30.6444 80.6096C32.9953 78.1766 35.4009 75.7984 37.9432 73.5294C39.9661 71.7252 42.0164 69.9757 44.1486 68.3082C46.4175 66.504 48.7684 64.7818 51.1467 63.1416C54.5911 60.7633 58.1448 58.6038 61.8079 56.5535C65.6897 54.394 69.6808 52.4531 73.7813 50.7309C77.2803 49.2547 80.8614 47.9152 84.4698 46.7671C86.5474 46.111 88.6523 45.4823 90.7572 44.9356C94.4202 43.9788 98.1107 43.1587 101.856 42.53C103.933 42.1746 106.011 41.8465 108.116 41.6005C109.701 41.4092 111.287 41.2451 112.9 41.1358C114.622 40.9991 116.344 40.8898 118.094 40.8078C120.39 40.6984 122.659 40.6711 124.955 40.6984C127.087 40.7258 129.219 40.7804 131.352 40.9171C132.363 40.9718 133.402 40.9991 134.413 41.1085C136.409 41.2998 138.377 41.4912 140.345 41.7099C141.904 41.8739 143.434 42.0379 144.965 42.2566C146.496 42.4206 148.027 42.6666 149.558 42.9127Z" fill="white"/>
<path d="M132.145 107.016C131.953 106.743 131.953 106.606 132.281 106.47C132.965 106.169 133.593 105.732 134.14 105.212C135.562 103.818 136.3 102.151 136.436 100.155C136.573 97.9954 135.999 96.1638 134.605 94.5783C132.746 92.4734 130.286 91.79 127.607 91.7353C124.572 91.6807 121.538 91.7353 118.531 91.708C118.039 91.708 117.902 91.8174 117.902 92.3367C117.93 99.7449 117.902 107.18 117.902 114.589C117.902 115.6 117.902 115.627 118.886 115.791C120.39 116.065 121.893 115.791 123.37 115.709C123.78 115.682 123.807 115.518 123.807 115.19C123.807 113.003 123.807 110.816 123.807 108.629C123.807 107.59 123.807 107.645 124.846 107.563C125.666 107.508 126.185 107.7 126.65 108.465C128.044 110.761 129.548 113.003 131.024 115.245C131.188 115.491 131.352 115.764 131.625 115.737C132.09 115.709 132.527 115.873 132.965 115.873C134.523 115.873 136.108 115.791 137.721 115.655C137.612 115.463 137.557 115.327 137.475 115.217C135.698 112.484 133.921 109.75 132.145 107.016ZM127.579 102.643C126.459 102.67 125.338 102.643 124.217 102.643C123.862 102.643 123.78 102.506 123.78 102.178C123.807 101.33 123.78 100.456 123.78 99.6082C123.78 98.8155 123.807 97.9954 123.78 97.2026C123.752 96.7106 123.944 96.6286 124.381 96.6286C125.393 96.6559 126.431 96.6286 127.443 96.6286C129.247 96.6286 130.422 97.722 130.45 99.4989C130.477 101.385 129.411 102.588 127.579 102.643Z" fill="white"/>
<path d="M110.63 110.707C107.405 110.734 104.179 110.707 100.953 110.734C100.543 110.734 100.407 110.625 100.434 110.215C100.461 108.985 100.461 107.754 100.434 106.552C100.434 106.142 100.543 106.005 100.953 106.005C102.43 106.032 103.878 106.005 105.355 106.005C106.749 106.005 108.115 106.005 109.51 106.005C109.728 106.005 109.974 106.087 110.029 105.704C110.193 104.365 110.248 103.025 110.056 101.658C109.974 101.112 109.783 101.084 109.346 101.084C106.585 101.084 103.824 101.084 101.035 101.112C100.598 101.112 100.407 101.057 100.434 100.538C100.489 99.4442 100.461 98.3234 100.434 97.23C100.434 96.7652 100.543 96.6286 101.008 96.6286C104.234 96.6559 107.459 96.6286 110.685 96.6559C111.04 96.6559 111.205 96.6012 111.259 96.2185C111.451 94.879 111.451 93.5122 111.259 92.1727C111.205 91.79 111.013 91.708 110.63 91.708C105.464 91.7353 100.27 91.7353 95.1034 91.708C94.5566 91.708 94.502 91.872 94.502 92.3367C94.5293 96.1092 94.502 99.8816 94.502 103.654C94.502 107.454 94.502 111.281 94.502 115.081C94.502 115.518 94.6113 115.655 95.076 115.655C100.27 115.627 105.464 115.627 110.658 115.655C111.122 115.655 111.232 115.463 111.287 115.108C111.478 113.85 111.451 112.566 111.287 111.281C111.259 110.898 111.122 110.707 110.63 110.707Z" fill="white"/>
<path d="M60.6596 103.872C59.1287 103.736 57.5979 103.681 56.0671 103.872C55.6297 103.927 55.4657 104.036 55.4657 104.529C55.493 106.606 55.4657 108.656 55.493 110.734C55.493 111.089 55.411 111.253 55.0283 111.308C53.9075 111.472 52.7867 111.472 51.6659 111.226C49.7797 110.816 48.1942 109.886 47.1007 108.274C46.0073 106.688 45.6246 104.911 45.7886 102.998C45.9253 101.221 46.5267 99.6353 47.8115 98.3778C50.3264 95.9449 53.3334 95.7536 56.5591 96.6283C57.7893 96.9564 58.9374 97.4757 60.0035 98.1591C60.3589 98.3778 60.5776 98.4599 60.6869 97.8858C60.9056 96.3276 60.8236 94.7694 60.6049 93.2386C60.5776 93.1019 60.4956 92.9926 60.3589 92.9379C59.7575 92.6645 59.2108 92.3365 58.6093 92.1178C55.821 91.1064 53.0054 90.997 50.1077 91.4891C47.6201 91.9265 45.4059 92.9106 43.547 94.6054C42.0982 95.9176 41.0867 97.5578 40.458 99.3893C39.6105 101.795 39.5559 104.283 40.1026 106.77C40.7313 109.613 42.2895 111.909 44.5858 113.659C46.5267 115.108 48.7409 115.846 51.0918 116.147C52.5953 116.338 54.0988 116.283 55.6297 116.092C57.4612 115.846 59.2108 115.408 60.8783 114.643C61.2063 114.479 61.343 114.288 61.343 113.932C61.3157 112.401 61.343 110.843 61.343 109.312C61.343 107.754 61.3157 106.196 61.3703 104.611C61.3157 104.009 61.097 103.9 60.6596 103.872Z" fill="white"/>
<path d="M88.2694 103.873C87.586 103.845 86.9299 103.763 86.2465 103.736C85.3444 103.709 84.4423 103.763 83.5402 103.845C83.0755 103.9 82.8841 104.009 82.8841 104.529C82.9114 106.524 82.8568 108.547 82.9114 110.543C82.9388 111.171 82.6381 111.335 82.146 111.335C81.4626 111.335 80.7792 111.445 80.0685 111.363C78.2642 111.171 76.6514 110.515 75.3393 109.258C73.8357 107.809 73.207 106.005 73.1523 103.955C73.0977 102.232 73.453 100.62 74.4918 99.1981C76.3507 96.6285 79.0023 95.9177 81.982 96.1911C83.9776 96.3551 85.7818 97.1752 87.4766 98.214C87.8867 98.46 87.996 98.3233 88.0507 97.9406C88.2694 96.4644 88.16 94.9883 88.0233 93.5394C87.996 93.2114 87.832 92.9927 87.504 92.8287C85.5904 91.7899 83.5402 91.3525 81.4079 91.2432C78.7836 91.1065 76.214 91.4892 73.8358 92.6647C72.2229 93.4574 70.8287 94.5236 69.708 95.945C68.1771 97.8586 67.357 100.073 67.111 102.451C67.0016 103.49 67.0016 104.583 67.193 105.677C67.4117 106.852 67.6577 108 68.1498 109.067C69.0519 110.98 70.3367 112.593 72.0589 113.796C73.9724 115.135 76.1047 115.901 78.4009 116.174C79.9044 116.338 81.4626 116.311 82.9934 116.092C84.7977 115.819 86.5472 115.436 88.2147 114.643C88.5701 114.479 88.6521 114.288 88.6521 113.905C88.6247 112.374 88.6521 110.816 88.6521 109.285C88.6521 107.672 88.6521 106.087 88.6521 104.474C88.7341 104.037 88.6247 103.9 88.2694 103.873Z" fill="white"/>
<path d="M158.523 105.677C157.676 103.572 155.927 102.506 153.931 101.686C152.482 101.084 150.924 100.756 149.475 100.128C148.546 99.7177 147.89 98.8156 148.026 98.1048C148.245 96.902 148.983 96.1913 150.049 96.1366C151.443 96.0546 152.783 96.3006 154.04 96.9294C154.997 97.4214 155.954 97.9135 156.911 98.4055C157.293 98.5969 157.457 98.5422 157.539 98.1048C157.758 96.6286 157.621 95.1525 157.512 93.6763C157.485 93.2116 157.293 92.8836 156.829 92.6649C153.986 91.2434 151.006 90.7513 147.89 91.4621C146.441 91.7901 145.156 92.4462 144.117 93.5123C142.942 94.6878 142.368 96.1913 142.094 97.8588C141.93 98.9249 142.067 99.909 142.34 100.92C143.078 103.435 144.965 104.72 147.234 105.65C148.655 106.224 150.159 106.606 151.58 107.208C152.783 107.727 153.33 108.602 152.947 109.723C152.728 110.379 152.209 110.789 151.58 111.008C150.405 111.418 149.229 111.281 148.054 110.98C146.413 110.57 144.965 109.805 143.516 108.957C143.188 108.766 142.832 108.684 142.86 109.149C142.887 109.887 142.641 110.625 142.723 111.336C142.805 112.019 142.805 112.73 142.832 113.413C142.86 113.987 143.051 114.479 143.68 114.753C145.73 115.627 147.835 116.174 149.666 116.147C151.389 116.229 153.111 115.955 154.56 115.381C158.824 113.714 159.945 109.203 158.523 105.677Z" fill="white"/>
<path d="M35.8375 96.4645C35.8375 95.0157 35.8375 93.5668 35.8375 92.1453C35.8375 91.872 35.8101 91.7626 35.4821 91.708C33.7873 91.4346 32.1197 91.4893 30.4249 91.6533C30.0695 91.6806 29.9055 91.8173 29.9328 92.2547C29.9602 96.0544 29.9602 99.8815 29.9602 103.681C29.9602 107.317 29.9602 110.953 29.9602 114.561C29.9602 114.944 29.8235 115.354 30.0422 115.682C30.2609 115.983 30.6436 115.737 30.9443 115.791C32.4204 116.119 33.8693 115.737 35.3454 115.764C35.8101 115.764 35.8922 115.518 35.8922 115.081C35.8375 108.848 35.8375 102.67 35.8375 96.4645Z" fill="white"/>
</svg>
