<svg version="1.2" xmlns="http://www.w3.org/2000/svg" viewBox="0 0 160 118" width="160" height="118">
	<title>Figgers-Logo</title>
	<style>
		.s0 { fill: #ffffff } 
	</style>
	<filter id="f0">
		<feFlood flood-color="#0049a3" flood-opacity="1" />
		<feBlend mode="normal" in2="SourceGraphic"/>
		<feComposite in2="SourceAlpha" operator="in" />
	</filter>
	<g id="Folder 1" filter="url(#f0)">
		<path id="Layer" class="s0" d="m149.6 42.9c1.8 0.3 3.6 0.6 5.5 0.9q0.9 0.2 1.9 0.4c-0.1-0.2-0.2-0.2-0.3-0.2-1.8-0.7-3.5-1.2-5.3-1.7q-3.5-1-7.1-1.7c-1.8-0.3-3.6-0.7-5.4-1q-2.3-0.3-4.5-0.6c-1.4-0.2-2.8-0.4-4.2-0.5q-2.3-0.2-4.6-0.4c-1.4-0.1-2.8-0.2-4.1-0.2-2.5-0.2-5-0.2-7.5-0.2-2.1 0-4.2 0-6.2 0.1-1.5 0.1-3 0.1-4.4 0.2q-2.5 0.2-5.1 0.5c-1.5 0.1-3.1 0.2-4.7 0.4q-3 0.4-6.1 0.8-3.5 0.6-7 1.2c-2.7 0.5-5.5 1.1-8.2 1.8q-3.7 0.9-7.2 1.9-3.9 1-7.7 2.2c-2.5 0.8-5.1 1.7-7.5 2.6-1.2 0.4-2.3 0.8-3.5 1.2q-2.3 0.9-4.6 1.9c-1.6 0.6-3.1 1.3-4.6 1.9q-1 0.4-2 0.9c0-2.1 0-4.1 0-6.2q0-9.5 0-19 0-0.1 0-0.2c-0.1-0.2 0-0.2 0.2-0.2q4 0 8.1 0c7.9 0 15.9 0 23.8 0.1q3.9 0 7.8 0 5.2 0 10.5 0c0.3 0 0.5-0.1 0.5-0.4 0-7.8-0.1-15.5 0-23.2 0-1.4 0-2.9 0-4.3 0-0.5-0.1-0.5-0.5-0.5q-39.1 0-78.2 0-0.3 0-0.4 0h-5.9v114.8h5.8c0 0 0.3-1.1 0.5-1.8 1-2.2 2.2-4.4 3.4-6.5q2.4-4.4 5.1-8.6 4.1-6.4 8.9-12.1c1.9-2.3 3.8-4.5 5.8-6.6 2.4-2.4 4.8-4.8 7.3-7.1q3.1-2.7 6.2-5.2 3.5-2.7 7-5.2c3.5-2.3 7-4.5 10.7-6.5q5.8-3.3 12-5.9c3.5-1.4 7.1-2.8 10.7-3.9q3.1-1 6.3-1.9 5.4-1.4 11.1-2.4 3.1-0.5 6.2-0.9 2.4-0.3 4.8-0.5 2.6-0.2 5.2-0.3 3.4-0.1 6.9-0.1 3.2 0 6.4 0.2c1 0.1 2 0.1 3 0.2q3 0.3 5.9 0.6 2.4 0.2 4.7 0.6c1.5 0.1 3 0.4 4.6 0.6z"/>
		<path id="Layer" fill-rule="evenodd" class="s0" d="m137.5 115.2c0.1 0.1 0.1 0.3 0.2 0.5q-2.4 0.2-4.7 0.2c-0.5 0-0.9-0.2-1.4-0.2-0.2 0.1-0.4-0.2-0.6-0.5-1.5-2.2-3-4.4-4.3-6.7-0.5-0.8-1-1-1.9-0.9-1 0-1 0-1 1q0 3.3 0 6.6c0 0.3 0 0.5-0.4 0.5-1.5 0.1-3 0.4-4.5 0.1-1-0.2-1-0.2-1-1.2 0-7.4 0-14.9 0-22.3 0-0.5 0.1-0.6 0.6-0.6 3 0 6.1 0 9.1 0 2.7 0.1 5.1 0.8 7 2.9 1.4 1.6 2 3.4 1.8 5.6-0.1 2-0.8 3.6-2.3 5q-0.8 0.8-1.8 1.3c-0.3 0.1-0.3 0.2-0.2 0.5q2.7 4.1 5.4 8.2zm-7.1-15.7c0-1.8-1.2-2.9-3-2.9-1 0-2 0.1-3 0-0.5 0-0.6 0.1-0.6 0.6 0 0.8 0 1.6 0 2.4 0 0.9 0 1.7 0 2.6 0 0.3 0.1 0.4 0.4 0.4 1.1 0 2.3 0.1 3.4 0 1.8 0 2.9-1.2 2.8-3.1z"/>
		<path id="Layer" class="s0" d="m110.6 110.7c-3.2 0-6.4 0-9.6 0-0.5 0-0.6-0.1-0.6-0.5q0.1-1.8 0-3.6c0-0.5 0.1-0.6 0.6-0.6 1.4 0 2.9 0 4.4 0q2 0 4.1 0c0.2 0 0.5 0.1 0.5-0.3 0.2-1.3 0.2-2.7 0.1-4-0.1-0.6-0.3-0.6-0.8-0.6q-4.1 0-8.3 0c-0.4 0-0.6 0-0.6-0.6 0.1-1.1 0.1-2.2 0-3.3 0-0.4 0.1-0.6 0.6-0.6 3.2 0.1 6.5 0 9.7 0.1 0.3 0 0.5-0.1 0.6-0.5q0.2-2 0-4c-0.1-0.4-0.3-0.5-0.7-0.5q-7.7 0-15.5 0c-0.5 0-0.6 0.2-0.6 0.6 0 3.8 0 7.6 0 11.4q0 5.7 0 11.4c0 0.4 0.1 0.6 0.6 0.6q7.8-0.1 15.6 0c0.4 0 0.5-0.2 0.6-0.6 0.2-1.3 0.2-2.5 0-3.8 0-0.4-0.2-0.6-0.7-0.6z"/>
		<path id="Layer" class="s0" d="m60.7 103.9c-1.6-0.2-3.1-0.2-4.6 0-0.5 0-0.6 0.1-0.6 0.6 0 2.1 0 4.2 0 6.2 0 0.4-0.1 0.6-0.5 0.6-1.1 0.2-2.2 0.2-3.3-0.1-1.9-0.4-3.5-1.3-4.6-2.9-1.1-1.6-1.5-3.4-1.3-5.3 0.1-1.8 0.7-3.4 2-4.6 2.5-2.5 5.5-2.6 8.8-1.8q1.8 0.5 3.4 1.6c0.4 0.2 0.6 0.3 0.7-0.3 0.2-1.6 0.1-3.1-0.1-4.7q0-0.2-0.2-0.3c-0.6-0.2-1.2-0.6-1.8-0.8-2.8-1-5.6-1.1-8.5-0.6-2.5 0.4-4.7 1.4-6.6 3.1-1.4 1.3-2.4 3-3 4.8-0.9 2.4-0.9 4.9-0.4 7.4 0.6 2.8 2.2 5.1 4.5 6.9 1.9 1.4 4.1 2.1 6.5 2.4 1.5 0.2 3 0.2 4.5 0 1.9-0.3 3.6-0.7 5.3-1.5 0.3-0.1 0.4-0.3 0.4-0.7 0-1.5 0-3.1 0-4.6 0-1.5 0-3.1 0.1-4.7-0.1-0.6-0.3-0.7-0.7-0.7z"/>
		<path id="Layer" class="s0" d="m88.3 103.9c-0.7-0.1-1.4-0.1-2.1-0.2q-1.3 0-2.7 0.1c-0.4 0.1-0.6 0.2-0.6 0.7 0 2 0 4 0 6 0 0.7-0.3 0.8-0.8 0.8-0.6 0-1.3 0.1-2 0.1-1.8-0.2-3.4-0.9-4.8-2.1-1.5-1.5-2.1-3.3-2.1-5.3-0.1-1.8 0.3-3.4 1.3-4.8 1.9-2.6 4.5-3.3 7.5-3 2 0.2 3.8 1 5.5 2 0.4 0.3 0.5 0.1 0.6-0.3 0.2-1.4 0.1-2.9-0.1-4.4q0-0.4-0.5-0.7c-1.9-1-4-1.4-6.1-1.6-2.6-0.1-5.2 0.3-7.6 1.5-1.6 0.8-3 1.8-4.1 3.2-1.5 2-2.3 4.2-2.6 6.6-0.1 1-0.1 2.1 0.1 3.2 0.2 1.2 0.5 2.3 0.9 3.4 1 1.9 2.2 3.5 4 4.7 1.9 1.3 4 2.1 6.3 2.4 1.5 0.1 3.1 0.1 4.6-0.1 1.8-0.3 3.5-0.7 5.2-1.5 0.4-0.1 0.5-0.3 0.5-0.7-0.1-1.5 0-3.1 0-4.6q0-2.4 0-4.8c0-0.5-0.1-0.6-0.4-0.6z"/>
		<path id="Layer" class="s0" d="m158.5 105.7c-0.8-2.1-2.6-3.2-4.6-4-1.4-0.6-3-0.9-4.4-1.6-1-0.4-1.6-1.3-1.5-2 0.2-1.2 1-1.9 2-2q2.1-0.1 4 0.8 1.5 0.8 2.9 1.5c0.4 0.2 0.6 0.1 0.6-0.3 0.3-1.5 0.1-2.9 0-4.4 0-0.5-0.2-0.8-0.7-1-2.8-1.5-5.8-1.9-8.9-1.2-1.5 0.3-2.7 0.9-3.8 2-1.2 1.2-1.7 2.7-2 4.4-0.2 1 0 2 0.2 3 0.8 2.5 2.7 3.8 4.9 4.8 1.5 0.5 3 0.9 4.4 1.5 1.2 0.5 1.7 1.4 1.3 2.5-0.2 0.7-0.7 1.1-1.3 1.3-1.2 0.4-2.4 0.3-3.5 0-1.7-0.4-3.1-1.2-4.6-2-0.3-0.2-0.7-0.3-0.6 0.1 0 0.8-0.3 1.5-0.2 2.2 0.1 0.7 0.1 1.4 0.1 2.1 0.1 0.6 0.3 1.1 0.9 1.4 2 0.8 4.1 1.4 6 1.3 1.7 0.1 3.4-0.1 4.9-0.7 4.2-1.7 5.3-6.2 3.9-9.7z"/>
		<path id="Layer" class="s0" d="m35.8 96.5q0-2.2 0-4.4c0-0.2 0-0.3-0.3-0.4-1.7-0.3-3.4-0.2-5.1 0-0.3 0-0.5 0.1-0.5 0.6q0.1 5.7 0.1 11.4 0 5.4 0 10.9c0 0.3-0.2 0.8 0 1.1 0.3 0.3 0.6 0 0.9 0.1 1.5 0.3 3-0.1 4.4 0 0.5 0 0.6-0.3 0.6-0.7-0.1-6.3-0.1-12.4-0.1-18.6z"/>
	</g>
</svg>