<svg width="162" height="120" viewBox="0 0 162 120" fill="none" xmlns="http://www.w3.org/2000/svg">
<g clip-path="url(#clip0_145_2348)">
<path d="M162 101.033C161.874 101.518 161.717 101.994 161.531 102.459C160.824 103.968 159.538 104.761 157.96 105.091C155.802 105.548 153.551 105.242 151.595 104.225C151.515 104.187 151.443 104.133 151.385 104.066C151.328 103.999 151.285 103.92 151.261 103.835C151.227 102.759 151.227 101.686 151.224 100.61C151.238 100.537 151.265 100.467 151.304 100.403C152.051 100.77 152.768 101.156 153.515 101.476C154.447 101.938 155.495 102.119 156.53 101.996C156.819 101.951 157.098 101.859 157.357 101.723C158.151 101.3 158.345 99.977 157.357 99.5106C156.687 99.1974 155.99 98.9809 155.314 98.7043C154.533 98.4317 153.771 98.109 153.033 97.7382C152.423 97.3993 151.898 96.9294 151.494 96.3628C151.091 95.7961 150.82 95.1471 150.701 94.463C150.581 93.7788 150.617 93.0769 150.806 92.4083C150.994 91.7398 151.33 91.1215 151.79 90.5987C152.246 90.0639 152.805 89.6245 153.434 89.306C154.062 88.9875 154.748 88.7961 155.451 88.743C157.231 88.5221 159.036 88.8784 160.596 89.7591C160.736 89.8271 160.843 89.9467 160.895 90.0923C161.093 91.2087 161.105 92.35 160.931 93.4705C160.912 93.5149 160.886 93.5564 160.854 93.5937C160.328 93.3172 159.803 93.0374 159.273 92.7675C158.506 92.3264 157.653 92.0527 156.771 91.9646C156.321 91.9494 155.873 92.0172 155.448 92.1645C155.206 92.253 154.998 92.4161 154.856 92.6301C154.714 92.8441 154.644 93.0977 154.657 93.3539C154.636 93.5831 154.687 93.8134 154.803 94.0123C154.92 94.2113 155.096 94.369 155.307 94.4633C155.92 94.7465 156.573 94.953 157.2 95.2095C158.127 95.5449 159.034 95.9332 159.916 96.3722C160.465 96.6725 160.935 97.0977 161.287 97.613C161.64 98.1283 161.864 98.7192 161.943 99.3373C161.962 99.3995 161.986 99.4597 162.017 99.5172L162 101.033Z" fill="white"/>
<path d="M157.662 119.503C157.203 119.367 156.734 119.257 156.289 119.084C156.208 119.04 156.138 118.978 156.085 118.904C156.032 118.829 155.996 118.744 155.98 118.654C155.937 118.221 155.98 117.784 155.98 117.281C156.315 117.445 156.583 117.614 156.868 117.721C157.344 117.974 157.888 118.072 158.422 118.001C158.571 117.99 158.711 117.929 158.82 117.828C158.928 117.726 158.998 117.591 159.019 117.445C159.069 117.111 158.838 116.928 158.563 116.822C158.081 116.628 157.575 116.488 157.103 116.275C155.867 115.722 155.401 114.609 155.91 113.417C156.07 113.046 156.328 112.726 156.658 112.491C156.987 112.256 157.375 112.115 157.779 112.084C158.552 111.958 159.345 112.09 160.034 112.461C160.107 112.505 160.17 112.565 160.22 112.636C160.269 112.706 160.302 112.786 160.318 112.87C160.355 113.303 160.318 113.743 160.318 114.253C160.056 114.102 159.784 113.969 159.504 113.853C159.095 113.701 158.672 113.59 158.242 113.52C158.158 113.506 158.072 113.509 157.989 113.528C157.906 113.548 157.828 113.584 157.759 113.635C157.691 113.685 157.633 113.749 157.59 113.822C157.547 113.895 157.519 113.976 157.508 114.06C157.438 114.433 157.689 114.623 157.997 114.726C158.432 114.889 158.885 115.016 159.317 115.192C160.539 115.695 161.039 116.658 160.707 117.878C160.476 118.727 159.853 119.16 159.032 119.383C158.918 119.413 158.808 119.45 158.697 119.487L157.662 119.503Z" fill="white"/>
<path d="M148.661 119.503C148.219 119.363 147.767 119.247 147.341 119.07C147.265 119.03 147.199 118.973 147.148 118.904C147.097 118.834 147.062 118.755 147.046 118.67C147.01 118.224 147.046 117.774 147.046 117.315C147.517 117.541 148 117.74 148.494 117.911C148.841 117.995 149.2 118.018 149.555 117.977C149.692 117.97 149.821 117.913 149.919 117.817C150.016 117.721 150.075 117.594 150.085 117.458C150.105 117.324 150.076 117.187 150.001 117.074C149.927 116.96 149.814 116.877 149.683 116.841C149.15 116.632 148.597 116.465 148.078 116.225C147.812 116.12 147.57 115.961 147.369 115.758C147.168 115.555 147.011 115.313 146.909 115.047C146.807 114.78 146.762 114.496 146.776 114.211C146.791 113.927 146.864 113.648 146.993 113.393C147.155 113.032 147.412 112.721 147.737 112.491C148.062 112.262 148.442 112.124 148.839 112.091C149.611 111.96 150.405 112.092 151.093 112.464C151.171 112.513 151.239 112.578 151.29 112.654C151.342 112.73 151.378 112.816 151.394 112.907C151.435 113.327 151.394 113.756 151.394 114.259C151.21 114.169 151.076 114.096 150.939 114.04C150.527 113.854 150.106 113.69 149.676 113.55C149.445 113.489 149.2 113.507 148.979 113.6C148.884 113.65 148.801 113.72 148.735 113.805C148.67 113.89 148.624 113.988 148.601 114.093C148.605 114.199 148.634 114.302 148.685 114.396C148.735 114.489 148.806 114.57 148.892 114.633C149.186 114.788 149.494 114.915 149.813 115.009C150.038 115.092 150.269 115.159 150.483 115.256C151.488 115.695 151.941 116.432 151.853 117.454C151.823 117.918 151.64 118.358 151.332 118.707C151.024 119.055 150.609 119.293 150.152 119.383L149.78 119.503H148.661Z" fill="white"/>
<path d="M137.335 39.3462C135.01 38.9531 132.689 38.54 130.361 38.1802C128.351 37.8737 126.341 37.6171 124.331 37.3606C122.767 37.1607 121.206 36.9741 119.642 36.8209C118.191 36.681 116.741 36.5577 115.287 36.4877C112.697 36.3578 110.105 36.2279 107.512 36.1812C105.723 36.1513 103.931 36.2545 102.152 36.3145C100.99 36.3545 99.8275 36.4044 98.6684 36.4877C97.2984 36.591 95.9283 36.7209 94.5616 36.8609C93.3925 36.9841 92.2167 37.1207 91.0677 37.284C89.4565 37.5105 87.8452 37.7371 86.2474 38.0203C82.7971 38.6333 79.3814 39.3995 76.0003 40.319C68.9135 42.2449 62.0249 44.8305 55.4258 48.0416C48.3621 51.4734 41.6634 55.6031 35.4308 60.3684C31.5889 63.309 27.9319 66.481 24.4803 69.8666C17.3034 76.8989 11.055 84.8104 5.8855 93.4108C3.81817 96.8434 1.92973 100.38 0.22767 104.005C0.170723 104.128 0.103736 104.252 0.0065918 104.435V0.490234H72.5433C72.5433 0.656812 72.5701 0.823394 72.5701 0.993303C72.5701 9.28222 72.5623 17.57 72.5467 25.8567C72.5467 26.2199 72.4529 26.3298 72.0777 26.3265C68.9322 26.3098 65.7834 26.3265 62.6379 26.3098C53.0106 26.2876 43.3832 26.261 33.7559 26.2299C31.1732 26.2299 28.5905 26.2299 25.9475 26.2299V49.5874C26.3897 49.4009 26.8151 49.2243 27.2372 49.0411C36.498 44.99 46.0643 41.6683 55.8479 39.1064C59.9413 38.0369 64.0683 37.1074 68.2422 36.3645C70.9856 35.8847 73.7325 35.425 76.486 35.0318C78.4122 34.752 80.3517 34.5488 82.2912 34.3655C84.6998 34.1457 87.1116 33.9757 89.5201 33.7992C93.771 33.4893 98.0253 33.5293 102.28 33.586C104.457 33.6159 106.634 33.7359 108.808 33.9191C111.374 34.1223 113.937 34.3988 116.493 34.6954C121.281 35.2456 126.024 36.1318 130.686 37.3473C132.86 37.917 135 38.6166 137.154 39.2596C137.216 39.2806 137.276 39.3051 137.335 39.3329V39.3462Z" fill="white"/>
<path d="M138.528 98.9807C139.818 100.98 141.087 102.919 142.444 105.001C141.342 105.001 140.35 105.001 139.359 105.054C138.461 105.104 137.915 104.754 137.456 103.961C136.652 102.569 135.707 101.253 134.837 99.8969C134.782 99.7855 134.694 99.6937 134.585 99.6341C134.476 99.5744 134.351 99.5498 134.227 99.5637C133.868 99.5904 133.503 99.5637 133.095 99.5637V104.868C132.284 105.121 130.2 105.134 129.179 104.898V89.0693C129.293 89.0693 129.393 89.046 129.497 89.046C131.547 89.046 133.594 89.0227 135.644 89.046C137.429 89.0693 139.064 89.5424 140.303 90.915C140.813 91.4957 141.184 92.1833 141.389 92.9266C141.595 93.6699 141.628 94.4496 141.488 95.2076C141.348 95.9657 141.038 96.6825 140.58 97.3047C140.123 97.9268 139.53 98.4383 138.846 98.8008C138.752 98.8541 138.662 98.9108 138.528 98.9807ZM133.111 92.3176V96.3155C134.016 96.3155 134.887 96.3621 135.751 96.3155C136.877 96.2389 137.536 95.4759 137.547 94.3599C137.557 93.2438 136.913 92.4242 135.872 92.3609C134.954 92.271 134.036 92.3176 133.111 92.3176Z" fill="white"/>
<path d="M75.173 93.424C74.5968 93.1375 74.0609 92.8443 73.4981 92.6011C72.1352 91.9514 70.5934 91.772 69.1165 92.0914C67.9915 92.3339 66.9889 92.9641 66.2858 93.8706C65.5827 94.7771 65.2245 95.9016 65.2743 97.0454C65.3145 99.3242 66.5137 101.067 68.5504 101.786C69.5979 102.156 70.7294 102.222 71.8131 101.976V98.8411C71.8131 98.388 71.8131 97.9349 71.8131 97.4818C71.8131 97.3685 71.9237 97.1753 72.0041 97.1487C73.2186 96.9666 74.4545 96.9779 75.6654 97.182V97.6017C75.6654 99.6273 75.6654 101.653 75.6654 103.679C75.6788 103.808 75.6464 103.939 75.5737 104.048C75.501 104.157 75.3925 104.237 75.2668 104.275C74.0985 104.786 72.8536 105.102 71.582 105.211C69.5721 105.408 67.5991 105.211 65.7567 104.302C64.3211 103.604 63.127 102.497 62.3269 101.121C61.5268 99.7458 61.157 98.1644 61.2646 96.579C61.5091 92.3878 64.457 89.2828 68.6576 88.7831C70.7613 88.5332 72.7946 88.6998 74.7208 89.6593C74.8652 89.7083 74.9906 89.8012 75.079 89.925C75.1673 90.0488 75.2143 90.1971 75.2132 90.349C75.2132 91.2285 75.24 92.1047 75.2433 92.9809C75.2367 93.1307 75.2131 93.2794 75.173 93.424Z" fill="white"/>
<path d="M95.3288 102.003C95.3288 100.497 95.3288 99.0577 95.3288 97.6218C95.3288 97.2619 95.4226 97.112 95.7911 97.1154C96.796 97.1154 97.801 97.1154 98.8059 97.1154C99.1007 97.1154 99.2179 97.232 99.2146 97.5485C99.2146 99.614 99.2146 101.68 99.2146 103.745C99.2271 103.849 99.2041 103.953 99.1494 104.042C99.0947 104.131 99.0114 104.199 98.9131 104.235C97.5581 104.849 96.0964 105.196 94.6086 105.258C92.6641 105.433 90.7103 105.043 88.9843 104.135C85.9862 102.492 84.6295 99.4241 84.8473 96.3258C85.1287 92.3746 88.0396 89.3295 92.2905 88.7865C94.2062 88.5028 96.1635 88.7483 97.9484 89.4961C98.491 89.7293 98.8495 90.0025 98.8193 90.6521C98.7825 91.475 98.7992 92.3179 98.7858 93.1241C98.7703 93.2297 98.7445 93.3334 98.7088 93.434C98.3939 93.2641 98.1125 93.1008 97.8211 92.9542C96.4041 92.2346 94.9335 91.7949 93.3089 91.9714C92.6464 92.0275 92.002 92.2157 91.4142 92.5249C90.8264 92.834 90.3073 93.2577 89.8877 93.7708C89.4682 94.2838 89.1568 94.8756 88.9722 95.5109C88.7877 96.1462 88.7337 96.812 88.8134 97.4685C89.1183 100.437 91.4196 102.339 94.4143 102.096L95.3288 102.003Z" fill="white"/>
<path d="M108.959 104.911V89.0728H120.014C120.278 89.6791 120.261 91.5115 120.037 92.2977H112.889V95.2694H119.216C119.411 96.3436 119.411 97.4436 119.216 98.5177H112.872V101.669H120.037C120.258 102.739 120.258 103.842 120.037 104.911H108.959Z" fill="white"/>
<path d="M31.8668 104.998H27.9375V89.0728H39.0421C39.2531 90.1409 39.2531 91.2396 39.0421 92.3077H31.8668V95.4427H32.5368C34.2653 95.4427 35.9904 95.4427 37.7189 95.4427C38.0874 95.4427 38.2917 95.496 38.285 95.9191C38.285 96.832 38.285 97.7448 38.285 98.701H31.8668V104.998Z" fill="white"/>
<path d="M48.1736 88.9863H52.0527V104.931C50.7671 105.126 49.4592 105.126 48.1736 104.931V88.9863Z" fill="white"/>
<path d="M94.843 115.202C94.431 116.455 94.0123 117.631 93.6605 118.83C93.5366 119.253 93.3255 119.423 92.9169 119.4H92.7159C92.0459 119.4 92.0459 119.4 91.8483 118.787C91.1359 116.741 90.4235 114.695 89.7111 112.647C89.6676 112.524 89.6408 112.394 89.5872 112.197C90.1633 112.197 90.7026 112.197 91.242 112.214C91.3257 112.214 91.4363 112.407 91.4765 112.53C91.8751 113.796 92.2603 115.069 92.6489 116.342C92.6723 116.412 92.7025 116.482 92.7695 116.675C92.9671 116.032 93.138 115.485 93.3054 114.939C93.55 114.139 93.8012 113.34 94.0323 112.534C94.05 112.43 94.1044 112.337 94.1855 112.27C94.2667 112.204 94.3693 112.168 94.4745 112.171C95.4996 112.081 95.5532 112.107 95.8446 113.063C96.1729 114.143 96.5079 115.223 96.8495 116.305C96.8797 116.405 96.9199 116.502 96.9869 116.678L97.9918 113.413C98.089 113.097 98.1727 112.773 98.29 112.464C98.3268 112.36 98.4474 112.217 98.5378 112.214C99.0638 112.19 99.593 112.214 100.179 112.214L98.9566 115.639C98.5646 116.768 98.166 117.897 97.7875 119.034C97.7138 119.25 97.6099 119.367 97.3721 119.367C97.3057 119.371 97.2396 119.38 97.1745 119.393C96.3303 119.457 96.2432 119.393 95.9853 118.62C95.6235 117.51 95.264 116.41 94.9067 115.322C94.8966 115.305 94.8799 115.282 94.843 115.202Z" fill="white"/>
<path d="M112.018 116.971V119.34H110.299V112.27C111.478 112.27 112.644 112.184 113.793 112.297C114.281 112.328 114.744 112.523 115.106 112.85C115.468 113.177 115.707 113.616 115.786 114.096C115.974 115.182 115.585 115.995 114.583 116.611C114.563 116.611 114.547 116.648 114.496 116.691L116.211 119.357C115.572 119.357 115.006 119.357 114.439 119.357C114.329 119.357 114.198 119.21 114.125 119.103C113.736 118.527 113.334 117.961 112.992 117.358C112.957 117.266 112.903 117.183 112.833 117.114C112.764 117.044 112.681 116.99 112.589 116.953C112.498 116.917 112.4 116.9 112.302 116.903C112.203 116.906 112.107 116.929 112.018 116.971ZM112.044 115.439C112.47 115.439 112.878 115.469 113.284 115.439C113.388 115.434 113.49 115.409 113.584 115.365C113.678 115.321 113.763 115.258 113.832 115.181C113.902 115.105 113.956 115.015 113.991 114.917C114.025 114.819 114.04 114.716 114.034 114.613C114.048 114.506 114.04 114.399 114.012 114.295C113.983 114.192 113.935 114.096 113.869 114.011C113.803 113.927 113.721 113.856 113.627 113.803C113.534 113.75 113.431 113.716 113.324 113.703C112.898 113.678 112.47 113.678 112.044 113.703V115.439Z" fill="white"/>
<path d="M139.784 115.019H142.621V116.441H139.777V117.877H140.809C141.426 117.877 142.039 117.877 142.655 117.877C142.903 117.877 143.033 117.944 143.03 118.211C143.03 118.577 143.03 118.943 143.03 119.323H138.029V112.227H138.595C139.935 112.227 141.298 112.227 142.648 112.227C142.923 112.227 143.043 112.307 143.033 112.584C143.033 112.937 143.033 113.293 143.033 113.673H139.787L139.784 115.019Z" fill="white"/>
<path d="M121.93 116.462C121.93 116.885 121.909 117.268 121.946 117.651C121.946 117.734 122.151 117.864 122.265 117.868C123.092 117.868 123.923 117.898 124.753 117.868C125.112 117.868 125.233 117.981 125.216 118.317C125.199 118.654 125.216 118.954 125.216 119.317H120.221V112.257H125.176V113.66H121.976V115.009H124.827V116.462H121.93Z" fill="white"/>
<path d="M133.969 117.878V119.304H129.239V118.917C129.239 116.812 129.239 114.709 129.239 112.607C129.239 112.274 129.326 112.137 129.657 112.147C129.989 112.157 130.301 112.147 130.622 112.147C130.944 112.147 131.028 112.271 131.024 112.581C131.024 114.18 131.024 115.776 131.007 117.371C131.007 117.794 131.135 117.888 131.53 117.874C132.317 117.858 133.118 117.878 133.969 117.878Z" fill="white"/>
<path d="M105.82 119.347H104.145C104.145 119.187 104.119 119.07 104.119 118.954C104.119 116.838 104.119 114.726 104.119 112.624C104.119 112.29 104.219 112.16 104.544 112.17C104.869 112.18 105.268 112.17 105.623 112.197C105.723 112.197 105.884 112.36 105.884 112.45C105.884 114.722 105.884 116.998 105.884 119.27C105.874 119.27 105.861 119.28 105.82 119.347Z" fill="white"/>
</g>
<defs>
<clipPath id="clip0_145_2348">
<rect width="162" height="119" fill="white" transform="translate(0 0.5)"/>
</clipPath>
</defs>
</svg>
