<svg width="78" height="103" viewBox="0 0 78 103" fill="none" xmlns="http://www.w3.org/2000/svg">
<path d="M39.3016 102.448C32.9476 102.6 26.2661 102.145 19.6938 100.78C13.0366 99.3917 6.68257 97.2566 1.7109 92.4382C0.777195 91.5282 0.0496331 90.5015 0.025381 89.2298C-0.0716273 82.8246 0.0496315 76.4428 1.46838 70.1427C3.44492 61.3575 9.52007 56.4807 18.1296 54.0423C21.5855 53.0623 25.0778 52.2922 28.6307 51.6972C29.4553 51.5572 30.0252 51.6389 30.5345 52.2456C33.2143 55.4423 36.9007 55.839 40.7567 55.4773C43.5093 55.2206 46.0922 54.404 47.7292 51.9889C47.9717 51.6389 48.2749 51.5456 48.7235 51.6272C55.4535 52.7239 62.1107 54.0306 67.9918 57.659C72.915 60.7041 75.4493 65.2775 76.6377 70.621C77.9837 76.6995 78.02 82.883 77.9958 89.0664C77.9958 90.2681 77.4016 91.2948 76.5164 92.1932C72.8058 95.9383 68.1737 98.085 63.1171 99.555C55.4535 101.772 47.6322 102.577 39.3016 102.448Z" fill="#0686D8"/>
<path d="M60.9838 23.8841C61.481 29.9393 59.941 35.5977 56.5214 40.7079C53.211 45.6546 48.6153 49.1197 42.4916 50.1464C34.1246 51.5465 27.516 48.4314 22.5079 42.0729C18.7246 37.2544 16.9057 31.7593 16.9299 25.6925C16.9542 21.3641 17.0269 17.0706 18.3972 12.8939C20.5677 6.2904 25.0301 2.03196 32.1845 0.713598C38.0899 -0.383094 44.0074 -0.371427 49.6702 1.85696C54.8965 3.91034 58.0008 7.8771 59.6257 12.9639C60.7656 16.499 61.2385 20.1274 60.9838 23.8841Z" fill="#0686D8"/>
</svg>
