<svg version="1.2" xmlns="http://www.w3.org/2000/svg" viewBox="0 0 193 124" width="193" height="124"><style>.a{fill:#3b497c}</style><path fill-rule="evenodd" class="a" d="m154 124h-146.7c-0.7 0-1.3-0.2-1.8-0.5-0.6-0.3-1-0.7-1.3-1.3-0.3-0.5-0.5-1.1-0.5-1.7 0-0.7 0.2-1.3 0.5-1.8l32.4-56.7-32.4-56.7c-0.3-0.5-0.5-1.1-0.5-1.8 0-0.6 0.2-1.2 0.5-1.7 0.3-0.6 0.7-1 1.3-1.3 0.5-0.3 1.1-0.5 1.8-0.5h146.7c0.6 0 1.2 0.2 1.8 0.5 0.5 0.3 0.9 0.7 1.3 1.3l33.4 58.4q0.5 0.8 0.5 1.8 0 0.9-0.5 1.8l-33.4 58.4c-0.4 0.6-0.8 1-1.3 1.3q-0.9 0.5-1.8 0.5zm-140.6-7.1h138.5l31.5-54.9-31.5-54.9h-138.5l30.4 53.1q0.5 0.9 0.5 1.8 0 0.9-0.5 1.8z"/></svg>