<svg width="41" height="124" viewBox="0 0 41 124" fill="none" xmlns="http://www.w3.org/2000/svg">
<path d="M36.5311 123.364C35.899 123.365 35.278 123.197 34.7324 122.877C34.1868 122.557 33.7364 122.097 33.4277 121.545L0 61.6404L33.4359 2.43025C33.8989 1.60923 34.6686 1.00602 35.5757 0.753335C36.4827 0.500653 37.4528 0.619191 38.2726 1.08286C39.0924 1.54654 39.6947 2.31739 39.947 3.2258C40.1993 4.13422 40.081 5.1058 39.618 5.92682L8.1382 61.6652L39.618 118.081C39.9179 118.621 40.072 119.23 40.0652 119.848C40.0585 120.466 39.891 121.071 39.5794 121.605C39.2677 122.138 38.8227 122.58 38.2882 122.889C37.7536 123.197 37.148 123.361 36.5311 123.364Z" fill="#EBEBEB"/>
</svg>
