<svg width="19" height="18" viewBox="0 0 19 18" fill="none" xmlns="http://www.w3.org/2000/svg">
<g clip-path="url(#clip0_537_5527)">
<path d="M18.6135 0.351562C18.6135 0.157379 18.4562 0 18.262 0C16.5857 0 14.9506 0.325332 13.4019 0.966658C12.4145 1.37576 11.4936 1.90091 10.6482 2.53468C10.6371 2.53358 10.6257 2.53303 10.6143 2.53303C10.6111 2.53303 10.608 2.53303 10.6048 2.53317C8.45079 2.59002 6.42533 3.46027 4.90181 4.98394L3.02878 6.85697C2.89145 6.99429 2.89145 7.2169 3.02878 7.35423L4.58664 8.91195L5.66206 9.98738C4.67974 11.0715 4.03526 12.4469 3.83655 13.8984L3.75992 14.4577C3.74495 14.5666 3.78189 14.6762 3.85962 14.7539C3.92608 14.8204 4.01562 14.8569 4.10818 14.8569C4.12398 14.8569 4.13991 14.8558 4.15584 14.8536L4.71518 14.7771C6.1666 14.5784 7.54209 13.9339 8.62616 12.9516L9.70159 14.0269L11.2593 15.5848C11.328 15.6534 11.4181 15.6878 11.508 15.6878C11.598 15.6878 11.6879 15.6534 11.7566 15.5848L13.6296 13.7119C15.1531 12.1882 16.0235 10.1629 16.0804 8.00888C16.0808 7.99419 16.08 7.97977 16.0786 7.96562C16.7125 7.12022 17.2378 6.19916 17.6467 5.21177C18.2883 3.66297 18.6135 2.0278 18.6135 0.351562ZM5.39894 5.48107C6.57612 4.30402 8.08014 3.55256 9.70612 3.31471C9.56206 3.44627 9.42034 3.58112 9.28163 3.71969L4.8352 8.16612L3.77461 7.10553L5.39894 5.48107ZM4.61987 14.0805L4.51934 14.0942L4.53308 13.9938C4.71106 12.6936 5.28482 11.4605 6.1596 10.4851L8.12862 12.4539C7.15304 13.3287 5.91996 13.9025 4.61987 14.0805ZM13.1323 13.2146L11.508 14.8391L10.4473 13.7783L11.3884 12.8372C11.5256 12.7 11.5256 12.4774 11.3884 12.3401C11.2511 12.2028 11.0285 12.2028 10.8911 12.3401L9.95015 13.2811L8.88105 12.2121L5.33233 8.66339L9.7789 4.21696C11.9605 2.03521 14.8343 0.797331 17.9052 0.708205C17.8162 3.77929 16.5783 6.65303 14.3966 8.83464L12.9916 10.2396C12.8542 10.377 12.8542 10.5996 12.9916 10.7369C13.1289 10.8741 13.3514 10.8741 13.4887 10.7369L14.8937 9.33191C15.0324 9.1932 15.1673 9.05148 15.2987 8.90742C15.061 10.5334 14.3095 12.0374 13.1323 13.2146Z" fill="#0049A3"/>
<path d="M12.1719 11.2061C12.079 11.2061 11.9887 11.2433 11.923 11.3091C11.8575 11.3744 11.8203 11.4648 11.8203 11.5576C11.8203 11.65 11.8575 11.7408 11.923 11.8062C11.9887 11.8716 12.079 11.9092 12.1719 11.9092C12.2643 11.9092 12.3547 11.8716 12.4204 11.8062C12.4858 11.7408 12.5234 11.65 12.5234 11.5576C12.5234 11.4648 12.4858 11.3744 12.4204 11.3091C12.3547 11.2433 12.264 11.2061 12.1719 11.2061Z" fill="#0049A3"/>
<path d="M11.4461 7.16743C11.1142 6.83537 10.6726 6.65259 10.2031 6.65259C9.73373 6.65259 9.29222 6.83537 8.9603 7.16743C8.62823 7.49936 8.44531 7.94087 8.44531 8.4104C8.44531 8.87979 8.62823 9.3213 8.9603 9.65322C9.29222 9.98528 9.73373 10.1682 10.2031 10.1682C10.6726 10.1682 11.1142 9.98528 11.4461 9.65322C11.7781 9.3213 11.9609 8.87979 11.9609 8.4104C11.9609 7.94087 11.7781 7.49936 11.4461 7.16743ZM10.949 9.15609C10.7497 9.35536 10.4849 9.46508 10.2031 9.46508C9.92146 9.46508 9.65655 9.35536 9.45743 9.15609C9.25816 8.95697 9.14844 8.69206 9.14844 8.4104C9.14844 8.1286 9.25816 7.86383 9.45743 7.66456C9.65655 7.4653 9.92146 7.35571 10.2031 7.35571C10.4849 7.35571 10.7497 7.4653 10.949 7.66456C11.1481 7.86383 11.2578 8.1286 11.2578 8.4104C11.2578 8.69206 11.1481 8.95697 10.949 9.15609Z" fill="#0049A3"/>
<path d="M13.7383 6.63403C14.2078 6.63403 14.6493 6.4511 14.9812 6.11918C15.3133 5.78712 15.4961 5.34574 15.4961 4.87622C15.4961 4.40669 15.3133 3.96518 14.9812 3.63325C14.6493 3.30119 14.2078 3.11841 13.7383 3.11841C13.2688 3.11841 12.8274 3.30119 12.4953 3.63325C12.1634 3.96518 11.9805 4.40669 11.9805 4.87622C11.9805 5.34574 12.1634 5.78712 12.4953 6.11918C12.8274 6.4511 13.2688 6.63403 13.7383 6.63403ZM12.9926 4.13038C13.1917 3.93112 13.4566 3.82153 13.7383 3.82153C14.0201 3.82153 14.2848 3.93112 14.4841 4.13038C14.6834 4.32965 14.793 4.59442 14.793 4.87622C14.793 5.15788 14.6834 5.42279 14.4841 5.62191C14.2848 5.82118 14.0201 5.9309 13.7383 5.9309C13.4566 5.9309 13.1917 5.82118 12.9926 5.62191C12.7933 5.42279 12.6836 5.15788 12.6836 4.87622C12.6836 4.59442 12.7933 4.32965 12.9926 4.13038Z" fill="#0049A3"/>
<path d="M8.72418 14.5082L6.32175 16.9105C6.18442 17.0478 6.18442 17.2705 6.32175 17.4078C6.39041 17.4763 6.48036 17.5106 6.57031 17.5106C6.66026 17.5106 6.75021 17.4763 6.81888 17.4078L9.22131 15.0053C9.35864 14.8682 9.35864 14.6455 9.22131 14.5082C9.08412 14.371 8.86151 14.3709 8.72418 14.5082Z" fill="#0049A3"/>
<path d="M2.61564 11.7265L0.925262 13.4169C0.787933 13.5541 0.787933 13.7767 0.925262 13.914C0.993927 13.9827 1.08388 14.017 1.17383 14.017C1.26378 14.017 1.35373 13.9827 1.42239 13.914L3.11277 12.2238C3.2501 12.0865 3.2501 11.8639 3.11277 11.7265C2.97544 11.5892 2.75297 11.5892 2.61564 11.7265Z" fill="#0049A3"/>
<path d="M3.89104 11.2991C3.98346 11.2991 4.07382 11.2614 4.1396 11.1961C4.20497 11.1307 4.2426 11.0401 4.2426 10.9475C4.2426 10.8551 4.20497 10.7643 4.1396 10.6989C4.07382 10.6336 3.98346 10.5959 3.89104 10.5959C3.79848 10.5959 3.70784 10.6336 3.64206 10.6989C3.57669 10.7643 3.53906 10.8551 3.53906 10.9475C3.53906 11.0401 3.57669 11.1307 3.64206 11.1961C3.70784 11.2614 3.79848 11.2991 3.89104 11.2991Z" fill="#0049A3"/>
<path d="M5.32263 15.8032L3.72604 17.3998C3.58871 17.5371 3.58871 17.7596 3.72604 17.8969C3.79471 17.9656 3.88466 17.9999 3.97461 17.9999C4.06456 17.9999 4.15451 17.9656 4.22317 17.8969L5.81976 16.3003C5.95709 16.1631 5.95709 15.9405 5.81976 15.8032C5.68243 15.6659 5.45996 15.6659 5.32263 15.8032Z" fill="#0049A3"/>
</g>
<defs>
<clipPath id="clip0_537_5527">
<rect width="18" height="18" fill="white" transform="translate(0.716797)"/>
</clipPath>
</defs>
</svg>
