<svg width="24" height="24" viewBox="0 0 24 24" fill="none" xmlns="http://www.w3.org/2000/svg">
<path d="M7.99952 3.15328L7.99979 3.15319L9.07521 2.80937C9.07529 2.80935 9.07538 2.80932 9.07546 2.80929C9.69084 2.61325 10.3847 2.9182 10.677 3.60481C10.6771 3.605 10.6772 3.60518 10.6772 3.60537L11.5358 5.63232C11.5358 5.63232 11.5358 5.63233 11.5358 5.63233C11.7918 6.23668 11.6431 6.9398 11.1962 7.36368L11.196 7.36387L9.30203 9.16187L9.03295 9.41732L9.07272 9.7862C9.20117 10.9777 9.60084 12.1359 10.2526 13.2573C10.878 14.3516 11.7164 15.3094 12.7184 16.074L13.0342 16.315L13.411 16.1892L15.6851 15.4295C15.6852 15.4295 15.6852 15.4294 15.6853 15.4294C16.2152 15.2533 16.8099 15.448 17.1581 15.9603L17.1586 15.9611L18.3913 17.7707C18.8075 18.3825 18.7268 19.2286 18.2221 19.7355C18.2221 19.7355 18.2221 19.7355 18.222 19.7355L17.4041 20.5565L17.9354 21.0858L17.4041 20.5565C16.7811 21.1818 15.907 21.398 15.1071 21.148L15.1067 21.1478C12.8452 20.4424 10.6349 18.2993 8.53903 14.4521C6.44444 10.6066 5.78476 7.48068 6.35328 5.01106L6.35332 5.0109C6.56177 4.10445 7.19964 3.40867 7.99952 3.15328Z" stroke="#0686D8" stroke-width="1.5"/>
</svg>
