<svg width="24" height="24" viewBox="0 0 24 24" fill="none" xmlns="http://www.w3.org/2000/svg">
<path d="M7.7714 2.43881L8.8474 2.09481C9.8574 1.77281 10.9344 2.29381 11.3674 3.31181L12.2264 5.33981C12.6004 6.22281 12.3934 7.26181 11.7124 7.90781L9.8184 9.70581C9.9344 10.7818 10.2964 11.8408 10.9024 12.8828C11.4782 13.891 12.2504 14.7734 13.1734 15.4778L15.4484 14.7178C16.3114 14.4308 17.2504 14.7618 17.7784 15.5388L19.0114 17.3488C19.6264 18.2528 19.5164 19.4988 18.7534 20.2648L17.9354 21.0858C17.1214 21.9028 15.9584 22.1998 14.8834 21.8638C12.3444 21.0718 10.0104 18.7208 7.8804 14.8108C5.7474 10.8948 4.9944 7.57081 5.6224 4.84281C5.8864 3.69481 6.7034 2.77981 7.7714 2.43881Z" fill="#707991"/>
</svg>
