<svg width="20" height="20" viewBox="0 0 20 20" fill="none" xmlns="http://www.w3.org/2000/svg">
<path d="M18.4832 1.51843C17.6662 0.700433 16.5792 0.250488 15.4212 0.250488C14.2652 0.250488 13.1782 0.700433 12.3592 1.51843L1.82617 12.0515C1.41817 12.4585 1.15219 12.9754 1.05719 13.5444L0.267209 18.2825C0.200209 18.6835 0.331198 19.0935 0.619198 19.3805C0.857198 19.6185 1.17917 19.7495 1.51117 19.7495C1.57917 19.7495 1.64922 19.7445 1.71722 19.7325L6.45617 18.9425C7.02417 18.8485 7.54018 18.5824 7.94818 18.1744L18.4812 7.64148C19.2992 6.82348 19.7502 5.73647 19.7502 4.57947C19.7502 3.42247 19.3022 2.33643 18.4832 1.51843ZM6.89019 17.1145C6.70419 17.3005 6.47022 17.4205 6.21222 17.4635L1.8042 18.1975L2.5382 13.7905C2.5812 13.5315 2.7022 13.2975 2.8872 13.1125L10.9702 5.02954L14.9722 9.03149L6.89019 17.1145ZM17.4232 6.58154L16.0332 7.97144L12.0312 3.96948L13.4212 2.57947C13.9562 2.04547 14.6662 1.75049 15.4222 1.75049C16.1782 1.75049 16.8892 2.04447 17.4232 2.57947C17.9572 3.11447 18.2522 3.82444 18.2522 4.58044C18.2522 5.33644 17.9572 6.04654 17.4232 6.58154Z" fill="#8A6BE2" stroke="#8A6BE2" stroke-width="0.5"/>
</svg>
