<svg width="12" height="18" viewBox="0 0 12 18" fill="none" xmlns="http://www.w3.org/2000/svg">
<g clip-path="url(#clip0_1881_17321)">
<path d="M10.9241 0.0146484L11.0988 0.0845343C11.2832 0.150393 11.4449 0.267634 11.5649 0.422422C11.6849 0.57721 11.758 0.763083 11.7758 0.958107C11.7802 1.04104 11.7802 1.12414 11.7758 1.20708C11.7758 6.41939 11.7758 11.6303 11.7758 16.8397C11.7783 16.9979 11.7562 17.1556 11.7103 17.307C11.6377 17.5227 11.4962 17.7084 11.3075 17.8355C11.1188 17.9626 10.8935 18.024 10.6664 18.0103H1.14878C0.99497 18.0244 0.839942 18.0044 0.694692 17.9519C0.549443 17.8994 0.417531 17.8155 0.308316 17.7063C0.1991 17.5971 0.115257 17.4652 0.0627335 17.32C0.0102102 17.1747 -0.0097059 17.0197 0.00439805 16.8659C0.00439805 11.6244 0.00439805 6.39027 0.00439805 1.1634C-0.0109326 0.899199 0.0686827 0.638222 0.228874 0.42757C0.389066 0.216918 0.619282 0.0704666 0.877971 0.0146484L10.9241 0.0146484ZM1.07452 1.07604V12.8343H10.7188V1.07604H1.07452ZM10.7188 13.9001H1.07016V16.9576H10.7188V13.9001Z" fill="#0049A3"/>
<path d="M5.92001 3.24238C7.08722 3.23811 8.2437 3.46525 9.32258 3.91067C9.42983 3.94308 9.52439 4.00795 9.59323 4.09634C9.66207 4.18474 9.7018 4.29231 9.70695 4.40423C9.70938 4.494 9.68908 4.58292 9.64794 4.66274C9.6068 4.74256 9.54616 4.81069 9.47164 4.8608C9.39713 4.91091 9.31116 4.94138 9.22172 4.94938C9.13228 4.95737 9.04227 4.94264 8.96005 4.90654C8.44393 4.72039 7.91744 4.56434 7.38325 4.43918C5.88622 4.14081 4.33435 4.29281 2.92366 4.87596C2.78647 4.93635 2.63605 4.96041 2.48687 4.94585C2.37464 4.93518 2.26963 4.88574 2.18992 4.80602C2.1102 4.7263 2.06075 4.6213 2.05009 4.50906C2.02888 4.38556 2.05545 4.25862 2.1244 4.15398C2.19334 4.04935 2.29951 3.97485 2.42136 3.94561C2.9733 3.74369 3.53619 3.57307 4.10735 3.43457C4.70138 3.3079 5.31288 3.26859 5.91128 3.19434L5.92001 3.24238Z" fill="#0049A3"/>
<path d="M5.87863 5.3477C6.7051 5.34467 7.52517 5.49269 8.29843 5.78449C8.3966 5.81236 8.4843 5.86874 8.55039 5.9465C8.61649 6.02426 8.65801 6.11989 8.6697 6.22127C8.68228 6.3137 8.66976 6.4078 8.63345 6.49372C8.59715 6.57964 8.53839 6.65421 8.46334 6.7096C8.3883 6.76499 8.29973 6.79917 8.20692 6.80854C8.11412 6.81792 8.02051 6.80215 7.9359 6.76289C7.22605 6.50245 6.47276 6.38085 5.71702 6.40473C5.14234 6.42359 4.57386 6.52962 4.03102 6.71921C3.96551 6.74105 3.89999 6.76726 3.83447 6.78473C3.70183 6.82933 3.55691 6.81941 3.43158 6.75716C3.30625 6.6949 3.21079 6.58541 3.16619 6.45277C3.12159 6.32013 3.13151 6.17521 3.19376 6.04988C3.25601 5.92455 3.3655 5.82909 3.49814 5.78449C4.25865 5.49598 5.06524 5.34798 5.87863 5.3477Z" fill="#0049A3"/>
<path d="M5.90963 7.40918C6.34642 7.48343 6.78321 7.54022 7.18068 7.63194C7.2517 7.64343 7.31949 7.66978 7.37963 7.70927C7.43976 7.74876 7.49088 7.8005 7.52963 7.86111C7.56839 7.92172 7.59391 7.98983 7.60453 8.06099C7.61515 8.13214 7.61063 8.20473 7.59126 8.27402C7.57444 8.34434 7.54313 8.41039 7.49934 8.46793C7.45554 8.52546 7.40022 8.57323 7.33691 8.60817C7.27361 8.64312 7.2037 8.66446 7.13168 8.67086C7.05965 8.67725 6.98708 8.66854 6.91861 8.64529C6.26115 8.46394 5.56686 8.46394 4.90939 8.64529C4.8398 8.66942 4.76598 8.67898 4.69253 8.67337C4.61908 8.66777 4.54757 8.64712 4.48244 8.61271C4.41731 8.5783 4.35995 8.53087 4.31392 8.47335C4.2679 8.41584 4.23419 8.34948 4.2149 8.27838C4.19705 8.20673 4.1944 8.13212 4.20715 8.05938C4.21989 7.98664 4.24774 7.91738 4.28889 7.85606C4.33004 7.79474 4.38359 7.74273 4.44608 7.70338C4.50857 7.66402 4.57861 7.6382 4.65169 7.62757C5.06664 7.54458 5.49032 7.48343 5.90963 7.40918Z" fill="#0049A3"/>
<path d="M5.91011 9.56746C5.97894 9.5663 6.04733 9.57871 6.11136 9.60399C6.1754 9.62927 6.23383 9.66691 6.28331 9.71478C6.3328 9.76264 6.37237 9.81978 6.39977 9.88294C6.42716 9.94609 6.44185 10.014 6.44299 10.0829C6.44189 10.2224 6.38659 10.3559 6.28877 10.4554C6.19096 10.5548 6.05829 10.6123 5.91884 10.6157C5.84969 10.6169 5.781 10.6042 5.71687 10.5783C5.65275 10.5523 5.59449 10.5138 5.54558 10.4649C5.49668 10.416 5.45811 10.3577 5.43219 10.2936C5.40627 10.2294 5.39352 10.1608 5.3947 10.0916C5.39294 10.023 5.405 9.9548 5.43017 9.89098C5.45533 9.82717 5.49309 9.76908 5.54119 9.72017C5.58928 9.67125 5.64674 9.63253 5.71012 9.60629C5.7735 9.58005 5.84151 9.56685 5.91011 9.56746Z" fill="#0049A3"/>
<path d="M5.90087 14.8389H6.25467C6.38646 14.8432 6.51177 14.8971 6.60561 14.9897C6.69946 15.0823 6.75494 15.2069 6.76101 15.3386C6.76707 15.4703 6.72326 15.5995 6.63832 15.7004C6.55338 15.8012 6.43355 15.8664 6.30272 15.8828C6.03511 15.9003 5.76664 15.9003 5.49903 15.8828C5.36799 15.8661 5.24808 15.8006 5.16328 15.6993C5.07848 15.598 5.03505 15.4685 5.04168 15.3365C5.0483 15.2046 5.10449 15.0801 5.19901 14.9878C5.29353 14.8955 5.4194 14.8423 5.55144 14.8389H5.90087Z" fill="#0049A3"/>
</g>
<defs>
<clipPath id="clip0_1881_17321">
<rect width="11.7791" height="18" fill="white" transform="translate(0 0.0146484)"/>
</clipPath>
</defs>
</svg>
