<svg width="18" height="18" viewBox="0 0 18 18" fill="none" xmlns="http://www.w3.org/2000/svg">
<path d="M3.20473 0C3.24306 0.0502903 3.28391 0.0986173 3.32712 0.144796C4.7867 1.60784 6.24629 3.06787 7.70587 4.52489C7.75397 4.56417 7.80556 4.59901 7.85999 4.62896L5.19013 7.31674C6.7585 9.41177 8.49459 11.3258 10.7202 12.7466L13.3357 10.1584L18 14.8009L17.8912 14.9276C17.1796 15.6516 16.477 16.3846 15.7562 17.0995C15.4108 17.4423 14.9916 17.702 14.5305 17.8588C14.0695 18.0156 13.5787 18.0654 13.0954 18.0045C11.739 17.8545 10.4366 17.3896 9.29237 16.6471C6.94717 15.1882 4.87609 13.3306 3.173 11.1584C2.1724 9.96863 1.33548 8.65079 0.684462 7.23982C0.344698 6.52595 0.122748 5.76195 0.0271972 4.97738C0.0221643 4.93586 0.0130547 4.89494 0 4.8552L0 4.11312L0.0271972 4.0724C0.099238 3.32469 0.448416 2.63079 1.0063 2.1267C1.73609 1.42986 2.44775 0.710407 3.173 0H3.20473ZM3.12314 1.47511C2.58373 2.02715 2.03526 2.57466 1.50944 3.14027C1.37511 3.29473 1.2706 3.4727 1.20121 3.66516C1.02483 4.1851 1.00591 4.7454 1.14681 5.27602C1.39546 6.33811 1.82475 7.34976 2.41602 8.26697C3.33783 9.74666 4.43014 11.1134 5.67061 12.3394C7.05452 13.811 8.65855 15.0596 10.4256 16.0407C11.2607 16.5247 12.1863 16.8327 13.1453 16.9457C13.5022 16.9902 13.8645 16.9504 14.2031 16.8293C14.5417 16.7083 14.847 16.5094 15.0944 16.2489C15.4389 15.8869 15.7925 15.5385 16.1415 15.1855C16.2639 15.0633 16.3908 14.9548 16.4996 14.8552L13.2813 11.6425C13.2484 11.6904 13.2121 11.7358 13.1725 11.7783L10.965 13.9955C10.897 14.0633 10.8471 14.1086 10.7429 14.0362C10.1264 13.6109 9.48728 13.2127 8.88895 12.7647C7.2653 11.4933 5.82536 10.0041 4.60992 8.33937C4.31982 7.9638 4.07958 7.55656 3.8212 7.16742L6.28255 4.66968L3.12314 1.47511Z" fill="#0049A3"/>
</svg>
