<svg width="16" height="22" viewBox="0 0 16 22" fill="none" xmlns="http://www.w3.org/2000/svg">
<path d="M14.6557 4.96655L11.2417 1.55261C10.8637 1.17461 10.3617 0.966553 9.82768 0.966553H4.24168C2.03568 0.966553 0.241683 2.76055 0.241683 4.96655C0.241683 9.46655 0.241667 8.80592 0.241667 10.9666C0.241667 13.6812 0.131903 14.2544 0.241628 16.9666C0.241683 19.7298 1.9917 20.9666 4.24168 21.0335C6.4917 20.9666 8.87333 20.9666 10.2417 20.9666H11.2417C13.4477 20.9666 15.2417 19.1726 15.2417 16.9666V6.38049C15.2417 5.85449 15.0287 5.33855 14.6557 4.96655ZM10.2417 3.38049L12.8277 5.96655H11.5067C10.8087 5.96655 10.2417 5.39954 10.2417 4.70154V3.38049ZM11.2417 18.9666H4.24168C3.13868 18.9666 2.24168 18.0696 2.24168 16.9666V4.96655C2.24168 3.86355 3.13868 2.96655 4.24168 2.96655H8.24168V4.70154C8.24168 6.50154 9.7067 7.96655 11.5067 7.96655H13.2417V16.9666C13.2417 18.0696 12.3447 18.9666 11.2417 18.9666Z" fill="#409EFF"/>
</svg>
