<svg width="24" height="24" viewBox="0 0 24 24" fill="none" xmlns="http://www.w3.org/2000/svg">
<g clip-path="url(#clip0_1227_6639)">
<path d="M17.0001 24.046H3C1.34601 24.046 0 22.7 0 21.046V7.0459C0 5.39191 1.34601 4.0459 3 4.0459H11.0001C11.553 4.0459 12 4.49396 12 5.04602C12 5.5979 11.553 6.04596 11.0001 6.04596H3C2.44794 6.04596 2.00006 6.49493 2.00006 7.0459V21.046C2.00006 21.5969 2.44794 22.0459 3 22.0459H17.0001C17.5519 22.0459 18 21.5969 18 21.046V13.0459C18 12.494 18.447 12.046 18.9999 12.046C19.5529 12.046 20.0001 12.494 20.0001 13.0459V21.046C20.0001 22.7 18.6541 24.046 17.0001 24.046Z" fill="#607D8B"/>
<path d="M17.2873 3.22363L9.37515 11.1356C9.3052 11.2056 9.25815 11.2946 9.23819 11.3905L8.53122 14.9266C8.49826 15.0905 8.55026 15.2595 8.66818 15.3785C8.76321 15.4736 8.8912 15.5245 9.02231 15.5245C9.05417 15.5245 9.08731 15.5215 9.12027 15.5146L12.6553 14.8076C12.7533 14.7875 12.8423 14.7406 12.9113 14.6705L20.8233 6.75848L17.2873 3.22363Z" fill="#42A5F5"/>
<path d="M23.2666 0.778152C22.2917 -0.196884 20.7057 -0.196884 19.7316 0.778152L18.3477 2.16206L21.8827 5.6971L23.2666 4.313C23.7386 3.84206 23.9987 3.214 23.9987 2.54604C23.9987 1.87807 23.7386 1.25002 23.2666 0.778152Z" fill="#42A5F5"/>
</g>
<defs>
<clipPath id="clip0_1227_6639">
<rect width="24" height="24" fill="white"/>
</clipPath>
</defs>
</svg>
