<svg width="24" height="24" viewBox="0 0 24 24" fill="none" xmlns="http://www.w3.org/2000/svg">
<path d="M15.2143 13.9652L15.2243 13.9587L15.234 13.9517L20.75 10.0377V15C20.75 17.0658 19.0658 18.75 17 18.75H7C4.93421 18.75 3.25 17.0658 3.25 15V10.0358L8.79664 13.9622L8.80522 13.9683L8.81396 13.9741C9.77858 14.6172 10.8836 14.9399 11.99 14.9399C13.1043 14.9399 14.2289 14.6184 15.2143 13.9652ZM10.7822 11.0899L4.25419 6.4558C4.93852 5.71509 5.9212 5.25 7 5.25H17C18.0789 5.25 19.0557 5.70866 19.7432 6.44798L13.2361 11.0711C12.4793 11.5679 11.515 11.565 10.7822 11.0899Z" stroke="#843C9F" stroke-width="1.5"/>
</svg>
