<svg width="36" height="35" viewBox="0 0 36 35" fill="none" xmlns="http://www.w3.org/2000/svg">
<path d="M33.8077 13.6521C33.7609 13.5621 33.6889 13.4937 33.6169 13.4217C33.1741 12.9717 32.7097 12.5433 32.2453 12.1113C31.8349 11.7333 31.4461 11.3337 31.0393 10.9485C30.7189 10.6497 30.3877 10.3653 30.0637 10.0701C29.6497 9.69213 29.2357 9.31773 28.8325 8.92893C28.7029 8.80293 28.5121 8.68413 28.5301 8.47533C28.5733 7.91373 28.5337 7.35573 28.5517 6.79413C28.5553 6.62493 28.5265 6.46293 28.4833 6.30093C28.4185 6.05973 28.0801 5.87253 27.8389 5.93373C27.4645 6.03093 27.2557 6.30453 27.2557 6.71133C27.2557 10.4337 27.2557 14.1561 27.2557 17.8785C27.2557 17.9793 27.2593 18.0765 27.2557 18.1773C27.2521 18.2925 27.2053 18.3897 27.1189 18.4689C26.4781 19.0557 25.8373 19.6425 25.2001 20.2365C24.6313 20.7657 24.0733 21.3021 23.5045 21.8313C22.7413 22.5405 21.9745 23.2461 21.2149 23.9553C20.5561 24.5709 19.9081 25.2009 19.2457 25.8165C19.0693 25.9821 18.8857 26.1621 18.6517 26.2305C17.9605 26.4285 17.3197 26.3565 16.7725 25.8309C16.0741 25.1613 15.3541 24.5097 14.6593 23.8365C14.2057 23.3973 13.7413 22.9689 13.2769 22.5441C12.4561 21.7917 11.6389 21.0357 10.8361 20.2653C10.5445 19.9845 10.2601 19.7001 9.95765 19.4301C9.60845 19.1205 9.26645 18.8073 8.92445 18.4905C8.79125 18.3681 8.74445 18.2277 8.74445 18.0477C8.74805 13.4541 8.74805 8.86053 8.74805 4.26693C8.74805 4.09413 8.74805 3.92133 8.74805 3.75213C8.74805 3.65853 8.76605 3.57213 8.83805 3.51093C8.98925 3.37413 9.14765 3.27693 9.36725 3.27693C15.1165 3.28053 20.8621 3.28053 26.6113 3.28053C26.6869 3.28053 26.7661 3.28413 26.8417 3.30213C27.1009 3.35973 27.2593 3.55773 27.2593 3.82413C27.2593 4.00053 27.2629 4.18053 27.2593 4.35693C27.2557 4.55853 27.3025 4.73133 27.4393 4.89333C27.6409 5.12733 27.8281 5.20293 28.1269 5.12733C28.3861 5.05893 28.4833 4.86093 28.5229 4.62333C28.5913 4.20213 28.5553 3.78453 28.4941 3.36693C28.4473 3.03573 28.2421 2.80173 28.0333 2.56413C27.8677 2.37693 27.6481 2.29413 27.4429 2.17173C27.3097 2.09253 27.1729 2.04573 27.0181 2.04933C26.7805 2.05293 26.5393 2.04933 26.3017 2.04933C24.8149 2.04933 23.3281 2.04933 21.8413 2.04573C21.6541 2.04573 21.4597 2.05653 21.3085 1.90893C20.9233 1.54173 20.5417 1.17093 20.1457 0.818134C19.8685 0.569734 19.6093 0.285334 19.2421 0.155734C18.5581 -0.182666 17.1829 -0.121466 16.7617 0.155734C16.3945 0.288934 16.1353 0.569734 15.8581 0.818134C15.4621 1.17453 15.0805 1.54533 14.6953 1.90893C14.5405 2.05293 14.3461 2.04213 14.1625 2.04573C12.7693 2.04933 11.3761 2.04933 9.98645 2.04933C9.66965 2.04933 9.35285 2.05653 9.03605 2.04933C8.68685 2.04213 8.41685 2.23653 8.14325 2.41293C7.92005 2.55333 7.77605 2.77293 7.63205 2.98893C7.56725 3.08253 7.53845 3.19053 7.52045 3.29853C7.47725 3.57933 7.44485 3.85653 7.44485 4.14093C7.44845 5.46213 7.44845 6.78333 7.44845 8.10093C7.44845 8.16213 7.43405 8.22693 7.45205 8.28453C7.53845 8.57973 7.35845 8.75253 7.17125 8.92533C6.90845 9.17013 6.64205 9.41493 6.37925 9.65613C5.65205 10.3293 4.92125 11.0025 4.19405 11.6757C3.92045 11.9277 3.66125 12.1905 3.38765 12.4425C3.02405 12.7773 2.67485 13.1265 2.32205 13.4721C2.22125 13.5693 2.19245 13.7421 2.01965 13.7601C2.01965 19.9737 2.01965 26.1873 2.01965 32.4045C2.01965 33.0525 2.18165 33.3729 2.44805 33.6897C2.91245 34.2405 3.61805 34.0029 3.61805 34.0713C4.92845 34.0713 5.97245 34.0713 7.28285 34.0713C7.30805 34.0029 7.59245 33.9345 7.62485 33.8697C7.84445 33.4305 7.54925 32.9409 7.05965 32.9373C6.38285 32.9337 5.70605 32.9553 5.02925 32.9301C4.68005 32.9157 4.32725 32.9445 3.99245 32.7213C3.48845 32.3829 3.18965 31.9545 3.18965 31.3461C3.18605 25.9641 3.18605 20.5821 3.18605 15.2001C3.18605 15.1569 3.18605 15.1101 3.18965 15.0669C3.19325 15.0165 3.20045 14.9661 3.25805 14.9445C3.31925 14.9229 3.36245 14.9589 3.40205 15.0021C3.47765 15.0849 3.54605 15.1713 3.62525 15.2469C4.11485 15.7077 4.60805 16.1577 5.09405 16.6221C5.77445 17.2737 6.46205 17.9145 7.15685 18.5517C7.81205 19.1493 8.46005 19.7541 9.10085 20.3661C9.75965 20.9925 10.4221 21.6153 11.0917 22.2273C11.7001 22.7853 12.2905 23.3613 12.8989 23.9229C13.1077 24.1137 13.3057 24.3153 13.5145 24.5061C14.2417 25.1829 14.9653 25.8597 15.6997 26.5257C16.0129 26.8101 16.3117 27.1053 16.6969 27.3141C17.0965 27.5337 17.5213 27.5805 17.9497 27.6453C18.2269 27.6885 18.4825 27.5481 18.7489 27.5193C19.1161 27.4797 19.4041 27.2817 19.6741 27.0729C20.0989 26.7453 20.4697 26.3529 20.8729 25.9965C21.6505 25.3053 22.3957 24.5817 23.1553 23.8689C23.5621 23.4873 23.9689 23.0985 24.3793 22.7205C25.0057 22.1409 25.6393 21.5721 26.2657 20.9889C26.6725 20.6073 27.0685 20.2113 27.4717 19.8297C27.9001 19.4265 28.3321 19.0305 28.7641 18.6309C29.1421 18.2817 29.5201 17.9325 29.9017 17.5869C30.2005 17.3169 30.4849 17.0289 30.7873 16.7625C31.0501 16.5321 31.2913 16.2801 31.5433 16.0425C31.8709 15.7293 32.2021 15.4161 32.5333 15.1029C32.5981 15.0417 32.6449 14.9157 32.7493 14.9553C32.8573 14.9949 32.8141 15.1209 32.8141 15.2073C32.8141 20.5569 32.8105 25.9029 32.8213 31.2525C32.8213 31.7853 32.8321 32.2641 32.4433 32.5989C32.2561 32.7609 31.8421 32.8725 31.5757 32.8977C31.3489 32.9193 31.1221 32.9337 30.8953 32.9337C23.6881 32.9337 16.4809 32.9337 9.27365 32.9337C9.18005 32.9337 9.08645 32.9409 8.98925 32.9373C8.67245 32.9265 8.26565 33.5385 8.52485 33.8301C8.58605 33.8985 8.71925 34.0677 8.91725 34.0677C16.8517 34.0677 24.4477 34.0677 32.3821 34.0677C32.9257 34.0677 33.3901 33.8697 33.6529 33.5349C33.7861 33.3657 33.9805 32.8257 33.9805 32.4009C33.9805 26.1873 33.9805 19.9737 33.9805 13.7565C33.9049 13.7529 33.8401 13.7241 33.8077 13.6521ZM16.6033 1.81533C16.8409 1.61013 17.0821 1.40853 17.3593 1.25733C17.3773 1.24653 17.3953 1.22493 17.4169 1.22133C17.8453 1.13133 18.2701 1.05933 18.6841 1.28613C18.9433 1.42653 19.1629 1.62093 19.3933 1.80093C19.4509 1.84413 19.5373 1.89453 19.5085 1.98453C19.4761 2.07813 19.3789 2.04933 19.3033 2.04933C18.8677 2.05293 18.4285 2.04933 17.9929 2.04933C17.5537 2.04933 17.1181 2.04933 16.6825 2.04933C16.6141 2.04933 16.5241 2.07453 16.4953 1.98453C16.4665 1.89813 16.5529 1.86213 16.6033 1.81533ZM7.44845 15.5529C7.44845 15.9813 7.44845 16.4061 7.44845 16.8345C7.44845 16.8921 7.47005 16.9713 7.40525 17.0001C7.33325 17.0361 7.27925 16.9713 7.23245 16.9281C7.00205 16.7049 6.77525 16.4781 6.54485 16.2549C6.25325 15.9777 5.95445 15.7041 5.65565 15.4305C5.31725 15.1209 4.97525 14.8113 4.63685 14.5017C4.43525 14.3181 4.23725 14.1345 4.03565 13.9545C3.89525 13.8285 3.88085 13.7133 4.01405 13.5909C4.39565 13.2309 4.78805 12.8781 5.17325 12.5181C5.45765 12.2553 5.73485 11.9853 6.01565 11.7225C6.41885 11.3409 6.81845 10.9629 7.22165 10.5813C7.27205 10.5345 7.31525 10.4517 7.40165 10.5021C7.47365 10.5417 7.46645 10.6245 7.44845 10.6965C7.44845 12.3165 7.44845 13.9329 7.44845 15.5529ZM31.8925 14.0157C31.5505 14.3217 31.2193 14.6385 30.8809 14.9517C30.1789 15.6033 29.4661 16.2405 28.7821 16.9137C28.7317 16.9605 28.6705 17.0325 28.5985 17.0037C28.5193 16.9713 28.5517 16.8777 28.5517 16.8093C28.5481 15.8157 28.5517 14.8257 28.5517 13.8321C28.5517 12.8781 28.5517 11.9241 28.5517 10.9737C28.5517 10.8621 28.5373 10.7541 28.5373 10.6425C28.5373 10.5885 28.5517 10.5273 28.6057 10.4985C28.6705 10.4661 28.7101 10.5165 28.7497 10.5525C29.0845 10.8657 29.4229 11.1789 29.7577 11.4921C30.4777 12.1653 31.1977 12.8385 31.9141 13.5153C32.1481 13.7385 32.1373 13.7961 31.8925 14.0157Z" fill="white"/>
<path d="M30.1501 32.0195C30.5929 32.0267 30.9313 31.8179 31.2553 31.5587C31.5181 31.3463 31.6729 31.0619 31.7989 30.7559C31.8925 30.5255 31.9393 30.2951 31.8889 30.0431C31.8565 29.8775 31.7557 29.7407 31.7089 29.5787C31.5793 29.1575 31.2553 28.8875 30.8917 28.7111C30.5785 28.5599 30.2185 28.4843 29.8585 28.4843C28.5661 28.4843 27.2737 28.4663 25.9813 28.4915C25.4917 28.5023 25.0021 28.5995 24.6097 28.9559C24.3469 29.1935 24.1201 29.4635 24.0517 29.8163C23.9905 30.1295 24.0049 30.4571 24.0553 30.7775C24.0661 30.8495 24.0877 30.9179 24.1273 30.9791C24.2857 31.2203 24.4225 31.4795 24.6709 31.6379C24.9589 31.8179 25.2433 32.0159 25.6069 32.0159C26.3845 32.0123 27.1585 32.0159 27.9361 32.0159C28.6741 32.0123 29.4121 32.0051 30.1501 32.0195ZM27.9361 30.7487C27.2197 30.7487 26.5033 30.7523 25.7905 30.7487C25.4233 30.7451 25.1929 30.4355 25.2937 30.0971C25.3297 29.9783 25.4017 29.9099 25.5241 29.8847C25.6321 29.8631 25.7437 29.8487 25.8553 29.8487C27.2305 29.8487 28.6057 29.8487 29.9809 29.8487C30.0133 29.8487 30.0457 29.8487 30.0817 29.8487C30.4669 29.8523 30.5749 30.0611 30.5821 30.2807C30.5893 30.5147 30.3193 30.7487 30.0529 30.7487C29.3473 30.7487 28.6417 30.7487 27.9361 30.7487Z" fill="white"/>
<path d="M23.6628 7.12176C23.6124 7.11816 23.5584 7.11816 23.508 7.11816H23.3568C23.3568 7.11816 14.9112 7.11816 12.636 7.12176C12.4488 7.12176 12.24 7.12176 12.0564 7.16496C11.8512 7.21536 11.7324 7.34136 11.7 7.54296C11.664 7.75536 11.7252 7.91736 11.8944 8.05056C12.0096 8.14056 12.1536 8.14776 12.3264 8.14776H14.7528H21.006C21.8952 8.14776 22.7808 8.14776 23.67 8.14416C23.904 8.14416 24.2964 8.07936 24.3072 7.66896C24.318 7.36296 24.0588 7.14336 23.6628 7.12176Z" fill="white"/>
<path d="M23.6628 11.4094C23.6124 11.4058 23.5584 11.4058 23.508 11.4058H23.3568C23.3568 11.4058 14.9112 11.4058 12.636 11.4094C12.4488 11.4094 12.24 11.4094 12.0564 11.4526C11.8512 11.503 11.7324 11.629 11.7 11.8306C11.664 12.043 11.7252 12.205 11.8944 12.3382C12.0096 12.4282 12.1536 12.4354 12.3264 12.4354H14.7528H21.006C21.8952 12.4354 22.7808 12.4354 23.67 12.4318C23.904 12.4318 24.2964 12.367 24.3072 11.9566C24.318 11.6506 24.0588 11.431 23.6628 11.4094Z" fill="white"/>
<path d="M23.6628 15.697C23.6124 15.6934 23.5584 15.6934 23.508 15.6934H23.3568C23.3568 15.6934 14.9112 15.6934 12.636 15.697C12.4488 15.697 12.24 15.697 12.0564 15.7402C11.8512 15.7906 11.7324 15.9166 11.7 16.1182C11.664 16.3306 11.7252 16.4926 11.8944 16.6258C12.0096 16.7158 12.1536 16.723 12.3264 16.723H14.7528H21.006C21.8952 16.723 22.7808 16.723 23.67 16.7194C23.904 16.7194 24.2964 16.6546 24.3072 16.2442C24.318 15.9382 24.0588 15.7186 23.6628 15.697Z" fill="white"/>
</svg>
