<svg width="20" height="16" viewBox="0 0 20 16" fill="none" xmlns="http://www.w3.org/2000/svg">
<path d="M8.35999 7.70996L1.19 2.62012C1.98 1.35012 3.4 0.5 5 0.5H15C16.6 0.5 18.01 1.34011 18.81 2.61011L11.66 7.68994C10.65 8.35994 9.34999 8.35996 8.35999 7.70996ZM19.48 4.6001L12.8 9.34009C11.94 9.91009 10.96 10.1899 9.98999 10.1899C9.02999 10.1899 8.06998 9.9101 7.22998 9.3501L0.52002 4.6001C0.51002 4.7301 0.5 4.87 0.5 5V11C0.5 13.48 2.52 15.5 5 15.5H15C17.48 15.5 19.5 13.48 19.5 11V5C19.5 4.87 19.49 4.7301 19.48 4.6001Z" fill="#707991"/>
</svg>
