<svg width="20" height="20" viewBox="0 0 20 20" fill="none" xmlns="http://www.w3.org/2000/svg">
<path d="M19.1036 0.897247C18.3386 0.132247 17.2566 -0.168732 16.2036 0.0942682L3.09062 3.37222C1.22862 3.83722 -0.0133872 5.43931 -0.000387197 7.35831C0.0136128 9.27731 1.27761 10.8623 3.14561 11.3013L7.6406 12.3592L8.69859 16.8533C9.13759 18.7223 10.7226 19.9863 12.6416 19.9993C12.6516 19.9993 12.6626 19.9993 12.6726 19.9993C14.5776 19.9993 16.1656 18.7612 16.6296 16.9092L19.9076 3.7952C20.1696 2.7472 19.8696 1.66325 19.1036 0.897247ZM17.9666 3.31326L14.6886 16.4263C14.3956 17.5963 13.4446 18.0353 12.6556 18.0013C11.8646 17.9953 10.9216 17.5712 10.6456 16.3972L9.57359 11.8422L13.7076 7.70926C14.0986 7.31826 14.0986 6.6862 13.7076 6.2952C13.3166 5.9042 12.6846 5.9042 12.2936 6.2952L8.15959 10.4283L3.60459 9.35623C2.43059 9.08023 2.00559 8.13722 2.00059 7.34622C1.99559 6.55522 2.40664 5.60626 3.57664 5.31326L16.6896 2.03531C16.7846 2.01231 16.8736 2.00223 16.9566 2.00223C17.3326 2.00223 17.5866 2.20926 17.6906 2.31326C17.8156 2.43926 18.0976 2.79026 17.9666 3.31326Z" fill="#014D90"/>
</svg>
