<svg width="36" height="36" viewBox="0 0 36 36" fill="none" xmlns="http://www.w3.org/2000/svg">
<g clip-path="url(#clip0_505_2657)">
<path d="M23.09 11H18.49C17.3622 11.0009 16.2701 11.3948 15.4013 12.1139C14.5326 12.8329 13.9416 13.8323 13.73 14.94H15.8C15.9899 14.3764 16.3513 13.8863 16.8337 13.5384C17.3161 13.1905 17.8952 13.0023 18.49 13H23.09C23.8458 13 24.5708 13.3003 25.1052 13.8347C25.6397 14.3692 25.94 15.0941 25.94 15.85C25.94 16.6059 25.6397 17.3308 25.1052 17.8653C24.5708 18.3997 23.8458 18.7 23.09 18.7H18.49C18.0674 18.6988 17.6505 18.6029 17.2698 18.4195C16.8891 18.2361 16.5543 17.9697 16.29 17.64H14C14.3562 18.5408 14.9746 19.314 15.7751 19.8595C16.5755 20.4051 17.5213 20.6978 18.49 20.7H23.09C24.3763 20.7 25.6099 20.189 26.5194 19.2795C27.429 18.3699 27.94 17.1363 27.94 15.85C27.94 14.5637 27.429 13.3301 26.5194 12.4205C25.6099 11.511 24.3763 11 23.09 11Z" fill="#0F7E26"/>
<path d="M21.14 21.0001C20.9618 21.5757 20.6051 22.0798 20.1215 22.4393C19.638 22.7988 19.0526 22.9952 18.45 23.0001H13.85C13.0941 23.0001 12.3692 22.6998 11.8347 22.1654C11.3003 21.6309 11 20.906 11 20.1501C11 19.3942 11.3003 18.6693 11.8347 18.1348C12.3692 17.6004 13.0941 17.3001 13.85 17.3001H18.45C18.8872 17.2997 19.3185 17.4017 19.7092 17.5979C20.0999 17.7942 20.4392 18.0792 20.7 18.4301H23C22.6513 17.5066 22.0285 16.7119 21.2152 16.1525C20.402 15.593 19.4371 15.2956 18.45 15.3001H13.85C12.5637 15.3001 11.3301 15.8111 10.4205 16.7206C9.51098 17.6302 9 18.8638 9 20.1501C9 21.4364 9.51098 22.67 10.4205 23.5796C11.3301 24.4891 12.5637 25.0001 13.85 25.0001H18.45C19.5863 24.9966 20.6853 24.5942 21.5553 23.8632C22.4252 23.1321 23.0109 22.1188 23.21 21.0001H21.14Z" fill="#0F7E26"/>
</g>
<rect x="1" y="1" width="34" height="34" rx="17" stroke="#0F7E26" stroke-width="2"/>
<defs>
<clipPath id="clip0_505_2657">
<rect width="18.94" height="14" fill="white" transform="translate(9 11)"/>
</clipPath>
</defs>
</svg>
