<svg width="15" height="25" viewBox="0 0 15 25" fill="none" xmlns="http://www.w3.org/2000/svg">
<path d="M14.943 7.31097C14.8769 8.58897 14.5584 9.84215 14.0055 11.0004C12.8727 14.0172 11.4469 16.9187 10.0992 19.8202C9.51329 21.0308 8.90783 22.2221 8.36095 23.4519C8.30675 23.6244 8.19789 23.7752 8.05029 23.8824C7.90269 23.9895 7.72409 24.0475 7.54064 24.0476C7.35043 24.0582 7.16187 24.0077 7.00335 23.9037C6.84483 23.7997 6.72494 23.648 6.66174 23.4712C6.17346 22.5104 5.72424 21.5496 5.25549 20.5504C3.81018 17.5528 2.34533 14.5745 1.11486 11.4808C0.662157 10.4693 0.321654 9.41275 0.0992397 8.32944C-0.0705365 7.36558 -0.0220271 6.37672 0.241307 5.43342C0.504642 4.49012 0.97631 3.61557 1.62267 2.87223C2.30979 1.99345 3.18985 1.27878 4.1971 0.78157C5.20436 0.284361 6.31278 0.0174566 7.43958 0.000827921C8.56639 -0.0158008 9.68245 0.218254 10.7044 0.685516C11.7264 1.15278 12.6278 1.84125 13.3414 2.69935C14.4262 3.99455 14.9954 5.6335 14.943 7.31097ZM7.38439 10.3086C8.15667 10.319 8.90233 10.0311 9.4611 9.50648C10.0199 8.9819 10.3472 8.26265 10.3727 7.5032C10.3635 6.75289 10.0631 6.03443 9.53291 5.49499C9.00276 4.95555 8.28301 4.63593 7.52111 4.60166C7.13662 4.59142 6.75393 4.65676 6.39544 4.79388C6.03696 4.93101 5.70989 5.13716 5.43341 5.40023C5.15693 5.66329 4.93658 5.97802 4.7853 6.32593C4.63401 6.67383 4.55482 7.04786 4.55236 7.42626C4.54182 8.174 4.83105 8.89583 5.35744 9.43529C5.88384 9.97475 6.60504 10.2884 7.36487 10.3086H7.38439Z" fill="black"/>
</svg>
