<svg width="21" height="20" viewBox="0 0 21 20" fill="none" xmlns="http://www.w3.org/2000/svg">
<path d="M20.6673 7.93097C19.8643 3.94697 16.7713 0.853111 12.7863 0.0501115C12.0533 -0.0978885 11.2913 0.0901544 10.7053 0.569154C10.1213 1.04815 9.78625 1.75414 9.78625 2.50714V7.93097C9.78625 9.58497 11.1323 10.931 12.7863 10.931H18.2103C18.9643 10.931 19.6703 10.596 20.1483 10.012C20.6263 9.42803 20.8163 8.66897 20.6673 7.93097ZM18.6023 8.74396C18.5443 8.81296 18.4183 8.93097 18.2103 8.93097H12.7863C12.2343 8.93097 11.7863 8.48297 11.7863 7.93097V2.50714C11.7863 2.29914 11.9033 2.17305 11.9733 2.11505C12.0303 2.06905 12.1393 2.00006 12.2893 2.00006C12.3213 2.00006 12.3553 2.00305 12.3923 2.01105C15.5843 2.65405 18.0643 5.13301 18.7063 8.32501C18.7473 8.52801 18.6583 8.67496 18.6023 8.74396ZM19.2943 13.2911C18.0713 17.3041 14.4233 20.0001 10.2173 20.0001C4.97929 20.0001 0.717285 15.7381 0.717285 10.5001C0.717285 6.29406 3.41327 2.64616 7.42627 1.42316C7.95527 1.26316 8.51326 1.56117 8.67426 2.08917C8.83426 2.61717 8.5363 3.17598 8.0083 3.33698C4.8443 4.30098 2.71729 7.18006 2.71729 10.5001C2.71729 14.6361 6.08128 18.0001 10.2173 18.0001C13.5373 18.0001 16.4163 15.873 17.3803 12.709C17.5423 12.18 18.1023 11.885 18.6283 12.043C19.1563 12.204 19.4543 12.7631 19.2943 13.2911Z" fill="#909399"/>
</svg>
