<svg width="14" height="14" viewBox="0 0 14 14" fill="none" xmlns="http://www.w3.org/2000/svg">
<path fill-rule="evenodd" clip-rule="evenodd" d="M12.8603 0.195726C12.5996 -0.065242 12.1769 -0.0652421 11.9162 0.195726L11.3338 0.778677C10.5894 0.422698 9.67069 0.553319 9.05407 1.17054L1.97309 8.25841L5.74961 12.0386L12.8306 4.95074C13.4472 4.33352 13.5777 3.41396 13.2221 2.66878L13.8045 2.08583C14.0652 1.82486 14.0652 1.40174 13.8045 1.14078L12.8603 0.195726ZM10.011 5.88297L5.74961 10.1485L3.86135 8.25841L8.12275 3.99287L10.011 5.88297ZM11.2249 4.6679L11.8865 4.00569C12.1472 3.74472 12.1472 3.32161 11.8865 3.06064L10.9423 2.11559C10.6816 1.85462 10.2589 1.85462 9.9982 2.11559L9.33663 2.7778L11.2249 4.6679Z" fill="#0686D8"/>
<path d="M0 14L1.41646 8.80197L5.19272 12.5824L0 14Z" fill="#0686D8"/>
</svg>
