<svg width="18" height="18" viewBox="0 0 18 18" fill="none" xmlns="http://www.w3.org/2000/svg">
<path fill-rule="evenodd" clip-rule="evenodd" d="M15.9476 1.71967C15.6547 1.42678 15.1798 1.42678 14.887 1.71967L14.2327 2.37394C13.3963 1.97441 12.3643 2.12101 11.6716 2.81373L3.71662 10.7687L7.95926 15.0113L15.9142 7.05638C16.6069 6.36365 16.7535 5.3316 16.354 4.49526L17.0083 3.84099C17.3012 3.5481 17.3012 3.07322 17.0083 2.78033L15.9476 1.71967ZM12.7466 8.10265L7.95926 12.89L5.83794 10.7687L10.6253 5.98133L12.7466 8.10265ZM14.1103 6.73894L14.8535 5.99572C15.1464 5.70282 15.1464 5.22795 14.8535 4.93506L13.7929 3.87439C13.5 3.5815 13.0251 3.5815 12.7322 3.87439L11.989 4.61762L14.1103 6.73894Z" fill="white"/>
<path d="M1.5 17.2127L3.09128 11.3787L7.33363 15.6217L1.5 17.2127Z" fill="white"/>
</svg>
