<svg width="19" height="15" viewBox="0 0 19 15" fill="none" xmlns="http://www.w3.org/2000/svg">
<g clip-path="url(#clip0_558_6724)">
<path d="M14.09 0.0669861H9.48998C8.36224 0.0678846 7.27006 0.461752 6.40132 1.18084C5.53258 1.89992 4.94158 2.89927 4.72998 4.00699H6.79998C6.98988 3.44337 7.35134 2.95329 7.83372 2.6054C8.31611 2.25751 8.89524 2.06924 9.48998 2.06699H14.09C14.8458 2.06699 15.5708 2.36725 16.1052 2.90173C16.6397 3.43621 16.94 4.16112 16.94 4.91699C16.94 5.67285 16.6397 6.39776 16.1052 6.93224C15.5708 7.46672 14.8458 7.76699 14.09 7.76699H9.48998C9.0674 7.76577 8.65046 7.66992 8.26976 7.4865C7.88906 7.30307 7.55428 7.03672 7.28998 6.70699H4.99998C5.35623 7.60779 5.97459 8.38097 6.77506 8.9265C7.57554 9.47204 8.52129 9.76482 9.48998 9.76699H14.09C15.3763 9.76699 16.6099 9.25601 17.5194 8.34645C18.429 7.4369 18.94 6.20329 18.94 4.91699C18.94 3.63069 18.429 2.39707 17.5194 1.48752C16.6099 0.577967 15.3763 0.0669861 14.09 0.0669861Z" fill="#0F7E26"/>
<path d="M12.14 10.067C11.9618 10.6426 11.6051 11.1466 11.1215 11.5062C10.638 11.8657 10.0526 12.0621 9.45 12.067H4.85C4.09413 12.067 3.36922 11.7667 2.83475 11.2322C2.30027 10.6978 2 9.97286 2 9.21699C2 8.46113 2.30027 7.73622 2.83475 7.20174C3.36922 6.66726 4.09413 6.36699 4.85 6.36699H9.45C9.88722 6.3666 10.3185 6.4686 10.7092 6.66482C11.0999 6.86105 11.4392 7.14605 11.7 7.49699H14C13.6513 6.57354 13.0285 5.7788 12.2152 5.21935C11.402 4.65989 10.4371 4.36248 9.45 4.36699H4.85C3.5637 4.36699 2.33008 4.87797 1.42053 5.78753C0.510981 6.69708 0 7.93069 0 9.21699C0 10.5033 0.510981 11.7369 1.42053 12.6465C2.33008 13.556 3.5637 14.067 4.85 14.067H9.45C10.5863 14.0635 11.6853 13.6611 12.5553 12.9301C13.4252 12.199 14.0109 11.1857 14.21 10.067H12.14Z" fill="#0F7E26"/>
</g>
<defs>
<clipPath id="clip0_558_6724">
<rect width="18.94" height="14" fill="white" transform="translate(0 0.0669861)"/>
</clipPath>
</defs>
</svg>
