<svg width="36" height="36" viewBox="0 0 36 36" fill="none" xmlns="http://www.w3.org/2000/svg">
<g clip-path="url(#clip0_825_17064)">
<path d="M26.5897 18.709C26.4961 17.8126 26.0353 17.1358 25.2469 16.711C24.5377 16.3258 23.7889 16.2862 23.0365 16.603C22.8637 16.675 22.8169 16.6354 22.7845 16.4698C22.7449 16.2646 22.6549 16.0774 22.5577 15.8902C21.9709 14.7706 20.5561 14.245 19.3789 14.713C19.1197 14.8174 19.1197 14.8174 19.0369 14.5402C18.6085 13.0966 17.0173 12.3082 15.6457 12.8554C15.4261 12.9418 15.4261 12.9418 15.4261 12.697C15.4261 11.0842 15.4261 9.46781 15.4261 7.85501C15.4261 7.57421 15.4297 7.29341 15.4081 7.01261C15.3001 5.71661 14.1733 4.66181 12.8701 4.65101C11.4265 4.63661 10.2457 5.80301 10.2457 7.24661C10.2421 10.573 10.2457 13.8994 10.2457 17.2258C10.2457 17.2906 10.2457 17.359 10.2457 17.4238C9.95766 16.9126 9.63006 16.4374 9.33846 15.9478C8.80566 15.0586 7.74366 14.5654 6.71766 14.7346C4.86726 15.0442 3.96726 17.0746 4.91766 18.637C5.43606 19.4902 5.88966 20.3758 6.25326 21.3046C6.68886 22.417 6.98766 23.5654 7.19646 24.7426C7.43766 26.0998 7.71846 27.4534 7.98126 28.807C8.12886 29.5666 8.22606 30.3406 8.45286 31.0822C8.86686 32.443 9.65166 33.559 10.8001 34.4086C11.8261 35.1682 12.9745 35.5894 14.2453 35.6686C14.9473 35.7118 15.6493 35.6938 16.3549 35.6938C17.4313 35.6938 18.5077 35.683 19.5841 35.6938C20.2285 35.701 20.8693 35.6758 21.4957 35.5426C22.7089 35.2798 23.7637 34.7146 24.6529 33.8506C25.3333 33.1918 25.8409 32.4142 26.1865 31.5286C26.5357 30.6358 26.6293 29.7106 26.6293 28.7602C26.6221 26.1322 26.6329 23.5006 26.6257 20.8726C26.6185 20.149 26.6689 19.4254 26.5897 18.709ZM25.1785 29.1742C25.1749 30.6826 24.6025 31.9462 23.4937 32.9578C22.6909 33.6922 21.7333 34.1134 20.6461 34.2214C19.8613 34.3006 19.0693 34.2466 18.2809 34.2538C17.1001 34.2646 15.9193 34.2538 14.7421 34.2538C12.5713 34.2538 10.7389 33.0154 9.93246 31.003C9.72366 30.4774 9.64806 29.9158 9.53646 29.3686C9.36366 28.5118 9.20886 27.655 9.04686 26.7946C8.88486 25.9414 8.72646 25.0918 8.56446 24.2386C8.35206 23.1082 8.05326 21.9994 7.64286 20.9266C7.23606 19.8682 6.73206 18.8602 6.14166 17.8918C5.80326 17.3374 5.97606 16.6426 6.51966 16.3042C7.04526 15.9766 7.74366 16.1494 8.09646 16.6894C8.77326 17.7262 9.35646 18.8098 9.80286 19.9654C9.92886 20.2966 10.0441 20.6314 10.1557 20.9662C10.2205 21.157 10.2457 21.355 10.2421 21.5602C10.2349 22.0354 10.2349 22.5142 10.2421 22.9894C10.2493 23.3242 10.4941 23.6086 10.8073 23.6698C11.1385 23.7346 11.4589 23.5798 11.6029 23.2846C11.6857 23.1154 11.6749 22.9246 11.6785 22.7446C11.6821 21.949 11.6821 21.157 11.6821 20.3614C11.6821 18.5686 11.6821 16.7794 11.6821 14.9866C11.6821 12.4234 11.6821 9.86381 11.6785 7.30061C11.6785 6.93701 11.7865 6.62741 12.0601 6.38621C12.4201 6.06941 12.8305 6.00101 13.2697 6.18461C13.7125 6.36821 13.9357 6.72101 13.9753 7.19621C13.9825 7.28621 13.9789 7.37981 13.9789 7.46981C13.9789 11.347 13.9789 15.2206 13.9789 19.0978C13.9789 19.4038 14.1013 19.6378 14.3677 19.7746C14.6377 19.9114 14.9185 19.8826 15.1597 19.6846C15.3829 19.501 15.4261 19.2418 15.4225 18.9718C15.4225 17.7514 15.4225 16.5274 15.4189 15.307C15.4189 14.9146 15.5521 14.5906 15.8725 14.3566C16.2325 14.0974 16.6249 14.0434 17.0317 14.2342C17.4493 14.4358 17.6941 14.767 17.6941 15.2458C17.6941 16.6894 17.6941 18.133 17.6941 19.573C17.6941 19.9582 17.6905 20.3434 17.6941 20.7286C17.6977 21.0418 17.8057 21.3046 18.1081 21.4486C18.5905 21.679 19.1341 21.3406 19.1341 20.8078C19.1377 19.5982 19.1377 18.385 19.1341 17.1754C19.1341 16.7542 19.2961 16.4158 19.6453 16.1782C20.0197 15.9262 20.4193 15.9046 20.8081 16.1134C21.1969 16.3186 21.4201 16.6534 21.4237 17.1034C21.4273 18.7594 21.4273 20.4154 21.4237 22.075C21.4237 22.2298 21.4453 22.381 21.5209 22.5178C21.6901 22.8166 22.0141 22.9462 22.3561 22.8562C22.6549 22.7806 22.8673 22.4854 22.8673 22.1326C22.8709 21.0922 22.8709 20.0554 22.8673 19.015C22.8673 18.763 22.9321 18.5362 23.0761 18.3274C23.3461 17.9314 23.8645 17.7478 24.3577 17.8882C24.8077 18.0178 25.1605 18.4714 25.1605 18.9394C25.1641 21.8266 25.1641 24.7102 25.1641 27.5974C25.1785 28.123 25.1785 28.6486 25.1785 29.1742Z" fill="white"/>
<path d="M35.3088 3.05284C34.8192 1.45084 33.3108 0.334837 31.6332 0.331237C28.7712 0.327637 25.9092 0.327637 23.0508 0.327637C16.9308 0.327637 10.8108 0.327637 4.69076 0.331237C4.47836 0.331237 4.26236 0.334837 4.04996 0.352837C2.94116 0.450037 2.03756 0.932437 1.34276 1.78924C0.752364 2.51644 0.496764 3.36244 0.496764 4.29124C0.496764 5.68444 0.503964 7.07764 0.503964 8.47084C0.503964 9.73084 0.500364 10.9908 0.493164 12.2472C0.493164 12.5172 0.507564 12.7836 0.554364 13.05C0.766764 14.2236 1.23116 15.0984 2.25356 15.7176C2.99516 16.164 3.18596 16.1244 4.03196 16.0704C4.36676 16.0488 4.66196 15.7428 4.68356 15.408C4.70876 15.0372 4.47836 14.7096 4.12916 14.6268C3.94196 14.58 3.75116 14.5908 3.56396 14.598C2.36156 14.634 1.97636 13.806 1.97636 12.3948C1.97636 9.67324 1.97636 6.95524 1.97636 4.23364C1.97636 2.85844 3.02756 1.81084 4.40636 1.81084C8.93516 1.81084 13.4676 1.81084 17.9964 1.81084C22.5252 1.81084 27.0576 1.81084 31.5864 1.81084C31.9392 1.81084 32.2812 1.87204 32.6016 2.02324C33.5412 2.46964 34.0056 3.23644 34.0092 4.26244C34.02 6.89044 34.0128 9.51844 34.0128 12.15C34.0128 12.3408 34.002 12.528 33.984 12.7152C33.8544 13.9068 32.7816 14.7888 31.7304 14.7816C31.3272 14.778 30.924 14.7816 30.5208 14.7816C30.4416 14.7816 30.3624 14.7816 30.2832 14.796C29.898 14.8608 29.628 15.1992 29.6532 15.5736C29.682 15.966 29.9952 16.2576 30.3984 16.2576C30.7836 16.2612 31.1688 16.254 31.554 16.2612C32.022 16.2684 32.4756 16.1892 32.922 16.0452C34.3584 15.5772 35.4672 14.076 35.4708 12.5676C35.4744 9.73084 35.4708 6.89404 35.4708 4.05724C35.4672 3.71884 35.4096 3.38044 35.3088 3.05284Z" fill="white"/>
<path d="M31.6116 6.47621C31.2876 6.40061 30.9528 6.35381 30.618 6.32141C30.3624 6.29981 30.2148 6.18461 30.1068 5.95781C29.952 5.63381 29.8008 5.30261 29.6064 5.00381C29.088 4.19741 28.0152 4.21541 27.5148 5.03621C27.378 5.25941 27.2556 5.49341 27.162 5.73461C27.0108 6.11621 26.7948 6.35741 26.3448 6.35021C26.1144 6.34661 25.8804 6.41861 25.6464 6.45821C25.1388 6.54101 24.7608 6.80381 24.6096 7.30421C24.4548 7.81182 24.5988 8.25821 24.9804 8.62901C25.2036 8.84501 25.4196 9.06821 25.6464 9.28061C25.7976 9.42101 25.8516 9.56501 25.8012 9.77741C25.7256 10.1014 25.6716 10.4362 25.632 10.7674C25.5132 11.7754 26.4636 12.481 27.3888 12.0706C27.6156 11.9698 27.8496 11.8726 28.0476 11.7286C28.4112 11.4658 28.7316 11.5018 29.106 11.725C29.4624 11.9374 29.8224 12.1858 30.3552 12.1822C31.0536 12.1966 31.6296 11.545 31.518 10.7674C31.4712 10.447 31.4244 10.1266 31.3524 9.81342C31.2912 9.56501 31.3596 9.38862 31.5432 9.21942C31.8096 8.97821 32.0832 8.73701 32.3028 8.45621C32.9004 7.70021 32.544 6.69221 31.6116 6.47621ZM30.3336 8.21141C29.772 8.66861 29.592 9.24462 29.7828 9.93941C29.8116 10.0438 29.8116 10.1554 29.8368 10.375C28.9872 9.69821 28.1664 9.70181 27.3672 10.3354C27.2844 10.1266 27.3492 9.99341 27.378 9.87101C27.5508 9.20501 27.3492 8.67941 26.8416 8.24021C26.7552 8.16461 26.5932 8.08901 26.64 7.95581C26.6868 7.83341 26.8524 7.85861 26.9748 7.84781C27.612 7.80101 28.08 7.51661 28.3248 6.90461C28.3788 6.76781 28.458 6.64181 28.5372 6.48341C28.7064 6.58421 28.746 6.74981 28.8036 6.88661C29.0592 7.50581 29.5308 7.80461 30.186 7.84781C30.3048 7.85501 30.4704 7.82621 30.5172 7.95581C30.5604 8.07101 30.4128 8.14661 30.3336 8.21141Z" fill="white"/>
<path d="M22.9717 6.47621C22.6477 6.40061 22.3129 6.35381 21.9781 6.32141C21.7225 6.29981 21.5749 6.18461 21.4669 5.95781C21.3121 5.63381 21.1609 5.30261 20.9665 5.00381C20.4481 4.19741 19.3753 4.21541 18.8749 5.03621C18.7381 5.25941 18.6157 5.49341 18.5221 5.73461C18.3709 6.11621 18.1549 6.35741 17.7049 6.35021C17.4745 6.34661 17.2405 6.41861 17.0065 6.45821C16.4989 6.54101 16.1209 6.80381 15.9697 7.30421C15.8149 7.81182 15.9589 8.25821 16.3405 8.62901C16.5637 8.84501 16.7797 9.06821 17.0065 9.28061C17.1577 9.42101 17.2117 9.56501 17.1613 9.77741C17.0857 10.1014 17.0317 10.4362 16.9921 10.7674C16.8733 11.7754 17.8237 12.481 18.7489 12.0706C18.9757 11.9698 19.2097 11.8726 19.4077 11.7286C19.7713 11.4658 20.0917 11.5018 20.4661 11.725C20.8225 11.9374 21.1825 12.1858 21.7153 12.1822C22.4137 12.1966 22.9897 11.545 22.8781 10.7674C22.8313 10.447 22.7845 10.1266 22.7125 9.81342C22.6513 9.56501 22.7197 9.38862 22.9033 9.21942C23.1697 8.97821 23.4433 8.73701 23.6629 8.45621C24.2605 7.70021 23.9041 6.69221 22.9717 6.47621ZM21.6937 8.21141C21.1321 8.66861 20.9521 9.24462 21.1429 9.93941C21.1717 10.0438 21.1717 10.1554 21.1969 10.375C20.3473 9.69821 19.5265 9.70181 18.7273 10.3354C18.6445 10.1266 18.7093 9.99341 18.7381 9.87101C18.9109 9.20501 18.7093 8.67941 18.2017 8.24021C18.1153 8.16461 17.9533 8.08901 18.0001 7.95581C18.0469 7.83341 18.2125 7.85861 18.3349 7.84781C18.9721 7.80101 19.4401 7.51661 19.6849 6.90461C19.7389 6.76781 19.8181 6.64181 19.8973 6.48341C20.0665 6.58421 20.1061 6.74981 20.1637 6.88661C20.4193 7.50581 20.8909 7.80461 21.5461 7.84781C21.6649 7.85501 21.8305 7.82621 21.8773 7.95581C21.9205 8.07101 21.7729 8.14661 21.6937 8.21141Z" fill="white"/>
</g>
<defs>
<clipPath id="clip0_825_17064">
<rect width="36" height="36" fill="white"/>
</clipPath>
</defs>
</svg>
