<svg width="42" height="40" viewBox="0 0 42 40" fill="none" xmlns="http://www.w3.org/2000/svg">
<path d="M27.065 27.8518L22.3541 23.9862H15.8738C13.738 23.9862 12 22.2103 12 20.0278V16.1068C12 13.9244 13.738 12.1484 15.8738 12.1484H26.1262C28.262 12.1484 30 13.9244 30 16.1068V20.0278C30 21.8642 28.769 23.433 27.065 23.867V27.8518ZM15.8738 13.2735C14.3582 13.2735 13.125 14.5446 13.125 16.1069V20.0279C13.125 21.5901 14.3582 22.8613 15.8738 22.8613H22.7562L25.94 25.4732V22.9002L26.4366 22.8415C27.8269 22.6778 28.875 21.4682 28.875 20.0279V16.1068C28.875 14.5446 27.6418 13.2734 26.1262 13.2734H15.8738V13.2735Z" fill="#068B14"/>
<path d="M15.207 18.7336C15.4075 18.8556 15.8233 18.9989 16.1458 18.9989C16.4754 18.9989 16.6116 18.8841 16.6116 18.7051C16.6116 18.5254 16.504 18.4397 16.0958 18.3035C15.3718 18.0596 15.0922 17.6658 15.0994 17.2499C15.0994 16.5979 15.6586 16.1035 16.5254 16.1035C16.9341 16.1035 17.3 16.1963 17.5147 16.304L17.3213 17.0566C17.1637 16.9703 16.8627 16.8555 16.5616 16.8555C16.2963 16.8555 16.1458 16.9632 16.1458 17.1423C16.1458 17.3071 16.282 17.3933 16.7121 17.5438C17.3785 17.7729 17.6581 18.1101 17.6652 18.626C17.6652 19.278 17.1494 19.7581 16.1458 19.7581C15.6871 19.7581 15.2784 19.6581 15.0137 19.5148L15.207 18.7336Z" fill="#068B14"/>
<path d="M18.3235 17.2999C18.3235 16.8632 18.3092 16.4902 18.2949 16.1821H19.2123L19.2623 16.655H19.2837C19.4342 16.4331 19.7424 16.1035 20.3444 16.1035C20.796 16.1035 21.1541 16.3326 21.3046 16.6979H21.3189C21.448 16.5188 21.6057 16.3754 21.7705 16.2755C21.9644 16.1607 22.1791 16.1036 22.4373 16.1036C23.1108 16.1036 23.62 16.5765 23.62 17.6224V19.6868H22.5593V17.7806C22.5593 17.2713 22.394 16.9775 22.043 16.9775C21.7925 16.9775 21.6128 17.1494 21.5414 17.3576C21.5128 17.4361 21.4986 17.551 21.4986 17.6372V19.6867H20.4379V17.7229C20.4379 17.2785 20.2802 16.9775 19.9358 16.9775C19.6568 16.9775 19.4914 17.1928 19.4271 17.3719C19.3914 17.4576 19.3843 17.5581 19.3843 17.6444V19.6867H18.3236V17.2999H18.3235Z" fill="#068B14"/>
<path d="M24.4785 18.7336C24.679 18.8556 25.0949 18.9989 25.4173 18.9989C25.7469 18.9989 25.8832 18.8841 25.8832 18.7051C25.8832 18.5254 25.7755 18.4397 25.3673 18.3035C24.6433 18.0596 24.3637 17.6658 24.3709 17.2499C24.3709 16.5979 24.9301 16.1035 25.7969 16.1035C26.2056 16.1035 26.5709 16.1963 26.7862 16.304L26.5928 17.0566C26.4352 16.9703 26.1342 16.8555 25.8331 16.8555C25.5678 16.8555 25.4173 16.9632 25.4173 17.1423C25.4173 17.3071 25.5535 17.3933 25.9836 17.5438C26.65 17.7729 26.9295 18.1101 26.9367 18.626C26.9367 19.278 26.4209 19.7581 25.4173 19.7581C24.9586 19.7581 24.5499 19.6581 24.2852 19.5148L24.4785 18.7336Z" fill="#068B14"/>
</svg>
