<svg version="1.2" xmlns="http://www.w3.org/2000/svg" viewBox="0 0 22 18" width="22" height="18">
	<title>smsIcon (3)-svg</title>
	<style>
		.s0 { fill: #068b14 } 
	</style>
	<path id="Layer" fill-rule="evenodd" class="s0" d="m17.1 16.9l-4.7-3.9h-6.5c-2.2 0-3.9-1.8-3.9-4v-3.9c0-2.2 1.7-4 3.9-4h10.2c2.2 0 3.9 1.8 3.9 4v3.9c0 1.9-1.2 3.4-2.9 3.9zm-11.2-14.6c-1.5 0-2.8 1.3-2.8 2.8v3.9c0 1.6 1.3 2.9 2.8 2.9h6.9l3.1 2.6v-2.6h0.5c1.4-0.2 2.5-1.4 2.5-2.9v-3.9c0-1.5-1.3-2.8-2.8-2.8h-10.2z"/>
	<path id="Layer" class="s0" d="m5.2 7.7c0.2 0.2 0.6 0.3 0.9 0.3 0.4 0 0.5-0.1 0.5-0.3 0-0.2-0.1-0.3-0.5-0.4-0.7-0.2-1-0.6-1-1.1 0-0.6 0.6-1.1 1.4-1.1 0.4 0 0.8 0.1 1 0.2l-0.2 0.8c-0.1-0.1-0.4-0.2-0.7-0.2q-0.4 0-0.5 0.2c0 0.2 0.2 0.3 0.6 0.4 0.7 0.3 1 0.6 1 1.1 0 0.7-0.6 1.2-1.6 1.2-0.4 0-0.8-0.1-1.1-0.3z"/>
	<path id="Layer" class="s0" d="m8.3 6.3q0-0.7 0-1.1h0.9l0.1 0.5c0.1-0.3 0.4-0.6 1-0.6 0.5 0 0.9 0.2 1 0.6q0.2-0.3 0.5-0.4 0.3-0.2 0.6-0.2c0.7 0 1.2 0.5 1.2 1.5v2.1h-1v-1.9c0-0.5-0.2-0.8-0.6-0.8-0.2 0-0.4 0.1-0.5 0.4 0 0 0 0.2 0 0.2v2.1h-1.1v-2c0-0.4-0.1-0.7-0.5-0.7-0.2 0-0.4 0.2-0.5 0.4q0 0.1 0 0.2v2.1h-1.1v-2.4z"/>
	<path id="Layer" class="s0" d="m14.5 7.7c0.2 0.2 0.6 0.3 0.9 0.3 0.3 0 0.5-0.1 0.5-0.3 0-0.2-0.1-0.3-0.5-0.4-0.8-0.2-1-0.6-1-1.1 0-0.6 0.5-1.1 1.4-1.1 0.4 0 0.8 0.1 1 0.2l-0.2 0.8c-0.2-0.1-0.5-0.2-0.8-0.2q-0.4 0-0.4 0.2c0 0.2 0.2 0.3 0.6 0.4 0.6 0.3 0.9 0.6 0.9 1.1 0 0.7-0.5 1.2-1.5 1.2-0.4 0-0.9-0.1-1.1-0.3z"/>
</svg>