<svg width="36" height="36" viewBox="0 0 36 36" fill="none" xmlns="http://www.w3.org/2000/svg">
<g clip-path="url(#clip0_825_17077)">
<path d="M29.628 31.0681C29.628 30.9961 29.628 30.9241 29.592 30.8881C29.556 30.8521 29.52 30.8521 29.484 30.8521H29.448C29.412 30.8521 29.34 30.8521 29.304 30.8521H29.088C28.944 30.8521 28.728 30.8521 28.728 30.8881C28.692 30.9241 28.692 31.1041 28.692 31.3201V32.1841C28.692 32.7601 28.692 33.3361 28.692 33.9121C28.692 34.5601 28.512 34.7761 27.828 34.7761H2.664C2.556 34.7761 2.448 34.7761 2.34 34.7761C2.052 34.7041 1.836 34.5241 1.8 34.2001C1.8 34.0561 1.8 33.9481 1.8 33.8041V15.8401C1.8 15.1921 1.872 15.1201 2.52 15.1201H27.756H28.044C28.296 15.1201 28.44 15.1201 28.548 15.2281C28.656 15.3361 28.656 15.5161 28.656 15.8401V15.9841C28.656 16.0921 28.656 16.1641 28.692 16.2001C28.728 16.2361 28.764 16.2361 28.836 16.2361C28.872 16.2361 28.872 16.2361 28.908 16.2361C28.944 16.2361 28.98 16.2361 29.016 16.2361H29.196C29.34 16.2361 29.556 16.2361 29.592 16.2001C29.628 16.1641 29.628 15.9841 29.628 15.7681V3.70809V3.20409C29.628 2.80809 29.628 2.41209 29.628 2.01609C29.592 0.936086 28.98 0.324086 27.9 0.288086C27.864 0.288086 27.792 0.288086 27.756 0.288086H27.54C27.54 0.288086 8.208 0.288086 2.916 0.288086C2.736 0.288086 2.52 0.288086 2.268 0.324086C1.476 0.432086 0.972003 0.936086 0.864003 1.69209C0.828003 1.87209 0.828003 2.05209 0.828003 2.30409C0.828003 6.58809 0.828003 10.8721 0.828003 15.1201V22.2841C0.828003 26.1361 0.828003 29.9521 0.828003 33.8041C0.828003 35.1001 1.44 35.7121 2.772 35.7121H27.756C27.828 35.7121 27.9 35.7121 27.972 35.7121C28.98 35.6401 29.556 35.0641 29.592 34.0921C29.628 33.4441 29.628 32.7601 29.592 32.1121C29.628 31.7521 29.628 31.4281 29.628 31.0681ZM1.8 2.16009C1.8 1.40409 1.98 1.22409 2.736 1.22409H15.228H27.72C28.476 1.22409 28.656 1.40409 28.656 2.16009C28.656 5.97609 28.656 9.75609 28.656 13.5721C28.656 14.1121 28.584 14.1841 28.008 14.1841H2.52C1.872 14.1841 1.8 14.1121 1.8 13.5001V2.16009Z" fill="white"/>
<path d="M35.136 23.2922C35.028 20.0522 32.4 17.5322 29.16 17.5322C28.944 17.5322 28.728 17.5322 28.476 17.5682C26.892 17.7482 25.416 18.5402 24.408 19.8002C23.4 21.0602 22.968 22.6442 23.148 24.2642C23.472 27.3242 26.1 29.5922 29.196 29.5922C29.412 29.5922 29.592 29.5922 29.808 29.5562C32.904 29.2682 35.388 26.3162 35.136 23.2922ZM29.124 28.6562C26.28 28.6562 24.048 26.4242 24.048 23.5442C24.048 20.7002 26.28 18.4682 29.16 18.4682C32.004 18.4682 34.236 20.7002 34.236 23.5802C34.2 26.4242 31.968 28.6562 29.124 28.6562Z" fill="white"/>
<path d="M23.544 18.8639C23.58 18.8279 23.652 18.7559 23.688 18.7199L23.724 18.6839H23.688C23.616 18.6839 23.544 18.6839 23.508 18.6839H12.78C11.844 18.6839 10.944 18.6839 10.008 18.6839C9.82796 18.6839 9.64796 18.6839 9.50396 18.5399C9.50396 18.5399 9.46796 18.5399 9.46796 18.5759H9.35996L9.28796 18.5039C9.17996 18.6119 8.99996 18.6479 8.85596 18.6479C8.02796 18.6479 7.23596 18.6479 6.40796 18.6479C5.86796 18.6479 3.95996 18.6479 3.95996 18.6479C3.81596 18.6479 3.59996 18.6479 3.45596 18.6839C3.23996 18.7199 3.13196 18.8999 3.13196 19.1159C3.13196 19.3679 3.23996 19.5119 3.49196 19.5479C3.67196 19.5839 3.85196 19.5839 4.06796 19.5839H7.59596H8.27996C9.14396 19.5839 9.97196 19.5839 10.836 19.5839C11.952 19.5839 13.068 19.5839 14.184 19.5839H14.292C15.552 19.5839 16.812 19.5839 18.072 19.5839C19.368 19.5839 20.7 19.5839 21.996 19.5839H22.572C22.896 19.5839 23.112 19.5479 23.256 19.2599C23.292 19.1159 23.436 18.9719 23.544 18.8639Z" fill="white"/>
<path d="M3.42005 26.208C3.60005 26.244 3.81605 26.244 3.96005 26.244C5.79605 26.244 7.66805 26.244 9.50405 26.244H21.6721C21.924 26.244 22.14 26.244 22.176 26.208C22.212 26.172 22.14 25.956 22.104 25.74V25.668C22.032 25.344 21.924 25.272 21.6 25.272C17.388 25.272 13.176 25.272 8.92805 25.272H3.85205C3.67205 25.272 3.52805 25.272 3.38405 25.308C3.16805 25.344 3.02405 25.488 3.02405 25.74C3.09605 26.028 3.20405 26.172 3.42005 26.208Z" fill="white"/>
<path d="M22.2119 21.1319C22.2479 21.0599 22.2479 20.9879 22.2839 20.9159C22.3199 20.9159 22.3199 20.8799 22.3199 20.8799C22.3199 20.8799 22.2839 20.8799 22.2479 20.8799C22.1399 20.8799 22.0319 20.8799 21.9239 20.8799H9.64795C7.81195 20.8799 5.93995 20.8799 4.10395 20.8799C3.85195 20.8799 3.67195 20.8799 3.45595 20.9159C3.23995 20.9519 3.13195 21.0959 3.09595 21.3479C3.09595 21.5999 3.20395 21.7439 3.41995 21.7799C3.52795 21.8159 3.67195 21.8159 3.81595 21.8159H21.2039C21.9959 21.8159 21.9959 21.8159 22.2119 21.1319Z" fill="white"/>
<path d="M3.78006 28.4759C3.85206 28.4759 3.92406 28.4759 3.96006 28.4759H4.14006C4.14006 28.4759 18.0361 28.4759 19.6921 28.4759C19.8361 28.4759 20.0521 28.4759 20.2321 28.4399C20.6281 28.4039 20.6641 28.1519 20.6641 28.0079C20.6641 27.8279 20.6281 27.6119 20.1961 27.5399C20.0881 27.5399 19.9441 27.5039 19.8001 27.5039C16.0201 27.5039 3.88806 27.5039 3.88806 27.5039C3.85206 27.5039 3.78006 27.5039 3.74406 27.5039C3.13206 27.5399 3.06006 27.7559 3.06006 27.9719C3.09606 28.2599 3.16806 28.4759 3.78006 28.4759Z" fill="white"/>
<path d="M27.324 30.672C27.144 30.636 27 30.564 26.82 30.528C26.532 30.42 26.244 30.312 25.92 30.312C23.544 30.312 21.168 30.312 18.792 30.312H14.04C13.86 30.312 13.68 30.312 13.5 30.348C13.248 30.384 13.14 30.528 13.14 30.78C13.14 31.032 13.248 31.176 13.5 31.212C13.68 31.248 13.86 31.248 14.004 31.248C15.192 31.248 16.38 31.248 17.568 31.248H26.604C26.784 31.248 27 31.248 27.18 31.14C27.324 31.068 27.36 30.96 27.396 30.78C27.36 30.672 27.324 30.672 27.324 30.672Z" fill="white"/>
<path d="M3.88796 17.352C4.39196 17.352 4.89596 17.352 5.39996 17.352H8.42396C8.92796 17.352 9.43196 17.352 9.93596 17.352C10.116 17.352 10.26 17.352 10.368 17.316C10.584 17.244 10.692 17.1 10.692 16.848C10.692 16.632 10.584 16.488 10.368 16.452C10.224 16.416 10.044 16.416 9.82796 16.416C8.85596 16.416 7.88396 16.416 6.91196 16.416C5.93996 16.416 4.96796 16.416 3.99596 16.416C3.81596 16.416 3.63596 16.416 3.45596 16.452C3.23996 16.488 3.13196 16.632 3.13196 16.848C3.13196 17.1 3.23996 17.244 3.45596 17.316C3.56396 17.352 3.74396 17.352 3.88796 17.352Z" fill="white"/>
<path d="M9.89995 23.0762H5.36395C4.85995 23.0762 4.35595 23.0762 3.88795 23.0762C3.67195 23.0762 3.52795 23.0762 3.41995 23.1122C3.20395 23.1842 3.09595 23.3282 3.09595 23.5802C3.09595 23.7962 3.20395 23.9402 3.41995 23.9762C3.59995 24.0122 3.74395 24.0122 3.95995 24.0122C4.93195 24.0122 5.90395 24.0122 6.87595 24.0122C7.84795 24.0122 8.81995 24.0122 9.79195 24.0122C10.0079 24.0122 10.1879 23.9762 10.3319 23.9402C10.5119 23.9042 10.6199 23.7602 10.6199 23.5442C10.6199 23.3282 10.5479 23.1842 10.3679 23.1122C10.2599 23.0762 10.0799 23.0762 9.89995 23.0762Z" fill="white"/>
<path d="M27.072 32.6159C26.928 32.5799 26.784 32.5439 26.568 32.5439H22.068C21.564 32.5439 21.096 32.5439 20.592 32.5439C20.484 32.5439 20.268 32.5439 20.124 32.5799C19.908 32.6519 19.8 32.7959 19.8 33.0479C19.8 33.2639 19.908 33.4079 20.124 33.4439C20.268 33.4799 20.448 33.4799 20.664 33.4799C21.636 33.4799 22.572 33.4799 23.508 33.4799C24.516 33.4799 25.488 33.4799 26.496 33.4799C26.712 33.4799 26.892 33.4799 27.036 33.4439C27.216 33.4079 27.324 33.2639 27.36 33.0479C27.36 32.8319 27.288 32.6879 27.072 32.6159Z" fill="white"/>
<path d="M3.09603 12.456C3.09603 12.492 3.09603 12.528 3.13203 12.564C3.20403 12.78 3.34803 12.852 3.56403 12.852C3.78003 12.852 3.92403 12.744 3.99603 12.564C4.03203 12.384 4.03203 12.24 4.03203 12.096C4.03203 11.844 4.03203 11.556 4.03203 11.304C4.03203 10.836 4.03203 10.368 4.06803 9.90002C4.14003 8.74802 5.00403 7.92002 6.19203 7.88402C6.58803 7.88402 6.94803 7.88402 7.34403 7.88402H8.71203C9.97203 7.88402 10.872 8.74802 10.908 10.008C10.908 10.44 10.908 10.872 10.908 11.304C10.908 11.556 10.908 11.808 10.908 12.06C10.908 12.24 10.908 12.384 10.944 12.528C10.98 12.744 11.124 12.888 11.376 12.888C11.628 12.888 11.772 12.78 11.808 12.528C11.844 12.42 11.844 12.348 11.844 12.276V11.772C11.844 11.268 11.844 10.728 11.844 10.224C11.808 9.57602 11.7 9.03602 11.412 8.56802C10.944 7.70402 10.188 7.16402 9.14403 6.98402L8.85603 6.94802L9.07203 6.76802C9.64803 6.22802 9.90003 5.61602 9.86403 4.89602C9.82803 4.17602 9.54003 3.56402 8.96403 3.09602C8.53203 2.70002 7.99203 2.52002 7.45203 2.52002C6.84003 2.52002 6.22803 2.73602 5.79603 3.16802C4.78803 4.14002 4.78803 5.40002 5.79603 6.73202L5.94003 6.91202L5.72403 6.94802C4.28403 7.30802 3.42003 8.10002 3.16803 9.46802C3.02403 10.224 3.06003 11.052 3.06003 11.808C3.06003 12.024 3.09603 12.24 3.09603 12.456ZM7.45203 3.45602C7.84803 3.45602 8.24403 3.60002 8.49603 3.88802C8.74803 4.17602 8.92803 4.53602 8.89203 4.96802C8.89203 5.79602 8.28003 6.40802 7.41603 6.40802C7.02003 6.40802 6.62403 6.26402 6.37203 5.97602C6.12003 5.68802 5.94003 5.32802 5.97603 4.89602C5.97603 4.06802 6.58803 3.45602 7.45203 3.45602Z" fill="white"/>
<path d="M13.464 8.42393C13.644 8.45993 13.824 8.45993 14.076 8.45993C15.192 8.45993 16.344 8.45993 17.46 8.45993H23.04C24.156 8.45993 25.308 8.45993 26.424 8.45993C26.676 8.45993 26.856 8.45993 27.036 8.42393C27.252 8.38793 27.36 8.24393 27.36 7.99193C27.36 7.73993 27.252 7.59593 27.036 7.55993C26.856 7.52393 26.676 7.52393 26.46 7.52393C24.372 7.52393 22.32 7.52393 20.232 7.52393C18.144 7.52393 16.092 7.52393 14.004 7.52393C13.788 7.52393 13.608 7.52393 13.428 7.55993C13.212 7.59593 13.104 7.73993 13.104 7.99193C13.104 8.24393 13.212 8.38793 13.464 8.42393Z" fill="white"/>
<path d="M26.604 9.72021C26.208 9.72021 25.812 9.72021 25.38 9.72021H22.032C21.564 9.72021 21.06 9.72021 20.592 9.72021C20.412 9.72021 20.232 9.72021 20.124 9.75621C19.908 9.79221 19.8 9.93621 19.8 10.1882C19.8 10.4042 19.908 10.5482 20.124 10.6202C20.232 10.6562 20.376 10.6562 20.484 10.6562C21.636 10.6562 22.752 10.6562 23.904 10.6562C24.804 10.6562 25.74 10.6562 26.64 10.6562C27.288 10.6562 27.36 10.4402 27.36 10.1882C27.36 10.0442 27.324 9.93621 27.252 9.86421C27.144 9.79221 26.928 9.72021 26.604 9.72021Z" fill="white"/>
<path d="M27 11.9881C26.856 11.9521 26.676 11.9521 26.496 11.9521C25.56 11.9521 24.588 11.9521 23.652 11.9521C22.644 11.9521 21.672 11.9521 20.664 11.9521C20.484 11.9521 20.304 11.9521 20.124 11.9881C19.908 12.0241 19.8 12.1681 19.8 12.3841C19.8 12.6361 19.908 12.7801 20.124 12.8161C20.268 12.8521 20.412 12.8521 20.592 12.8521C21.096 12.8521 21.6 12.8521 22.104 12.8521H25.092C25.596 12.8521 26.064 12.8521 26.568 12.8521C26.748 12.8521 26.892 12.8521 27.036 12.8161C27.288 12.7801 27.396 12.6361 27.396 12.3841C27.36 12.1681 27.216 12.0241 27 11.9881Z" fill="white"/>
<path d="M31.32 22.0681C31.248 22.0321 31.176 21.9961 31.104 21.9961C30.996 21.9961 30.852 22.0321 30.744 22.1401C30.168 22.6081 29.556 23.0761 28.944 23.5081C28.656 23.7241 28.512 23.8321 28.368 23.8321C28.188 23.8321 28.044 23.6881 27.792 23.4001L27.612 23.1841C27.468 23.0401 27.324 22.9321 27.144 22.9321C27.036 22.9321 26.964 22.9681 26.892 23.0401C26.676 23.2201 26.676 23.5081 26.892 23.7601C27.072 23.9761 27.252 24.1921 27.432 24.4081L27.756 24.8041C27.9 24.9841 28.044 25.0921 28.188 25.0921C28.296 25.0921 28.44 25.0201 28.584 24.9121C29.088 24.5161 29.592 24.1561 30.06 23.7601C30.456 23.4361 30.888 23.1121 31.284 22.8241C31.428 22.7161 31.5 22.5721 31.5 22.3921C31.5 22.2481 31.464 22.1401 31.32 22.0681Z" fill="white"/>
</g>
<defs>
<clipPath id="clip0_825_17077">
<rect width="36" height="36" fill="white"/>
</clipPath>
</defs>
</svg>
