<svg width="14" height="16" viewBox="0 0 14 16" fill="none" xmlns="http://www.w3.org/2000/svg">
<path d="M0.339355 0.467773H2.33936V3.02487C3.52937 2.08978 5.02995 1.53207 6.6608 1.53207C10.5268 1.53207 13.6608 4.66608 13.6608 8.53207C13.6608 12.3981 10.5268 15.5321 6.6608 15.5321C4.51031 15.5321 2.58632 14.5623 1.30225 13.0363L2.92157 11.8515C3.83747 12.8825 5.17327 13.5321 6.6608 13.5321C9.42222 13.5321 11.6608 11.2935 11.6608 8.53207C11.6608 5.77065 9.42222 3.53207 6.6608 3.53207C5.57396 3.53207 4.56811 3.87884 3.74785 4.46777L6.33936 4.46777V6.46777H0.339355V0.467773Z" fill="#6AB3FF"/>
</svg>
