<svg width="17" height="20" viewBox="0 0 17 20" fill="none" xmlns="http://www.w3.org/2000/svg">
<path d="M1.71729 20C1.16429 20 0.717285 19.552 0.717285 19L0.717285 6C0.717285 5.448 1.16428 5 1.71728 5C2.27028 5 2.71728 5.448 2.71728 6L2.71729 19C2.71729 19.552 2.27029 20 1.71729 20ZM7.71728 1L7.71729 19C7.71729 19.552 8.16429 20 8.71729 20C9.27028 20 9.71729 19.552 9.71729 19L9.71728 1C9.71728 0.448 9.27028 -3.73863e-07 8.71728 -3.49691e-07C8.16428 -3.25519e-07 7.71728 0.448 7.71728 1ZM14.7173 10L14.7173 19C14.7173 19.552 15.1643 20 15.7173 20C16.2703 20 16.7173 19.552 16.7173 19L16.7173 10C16.7173 9.448 16.2703 9 15.7173 9C15.1643 9 14.7173 9.448 14.7173 10Z" fill="#67C23A"/>
</svg>
