<svg width="27" height="18" viewBox="0 0 27 18" fill="none" xmlns="http://www.w3.org/2000/svg">
<path d="M24.9452 3.97983L24.9462 3.98039C25.4427 4.24468 25.75 4.75659 25.75 5.31966V12.6797C25.75 13.2428 25.4427 13.7547 24.9462 14.019L24.9455 14.0194C24.7213 14.139 24.4776 14.1976 24.2347 14.1976C23.9438 14.1976 23.6533 14.1127 23.3997 13.943L23.3986 13.9423L21.9167 12.9547V5.04462L23.4 4.05567L23.4019 4.05438C23.86 3.74697 24.4526 3.71656 24.9452 3.97983ZM18.4167 6.33301V11.6663C18.4167 14.5601 16.0605 16.9163 13.1667 16.9163H6.5C3.60621 16.9163 1.25 14.5601 1.25 11.6663V6.33301C1.25 3.43922 3.60621 1.08301 6.5 1.08301H13.1667C16.0605 1.08301 18.4167 3.43922 18.4167 6.33301Z" stroke="#FE9800" stroke-width="1.5"/>
</svg>
