<svg width="27" height="18" viewBox="0 0 27 18" fill="none" xmlns="http://www.w3.org/2000/svg">
<path d="M19.1667 6.33301V11.6663C19.1667 14.9743 16.4747 17.6663 13.1667 17.6663H6.5C3.192 17.6663 0.5 14.9743 0.5 11.6663V6.33301C0.5 3.02501 3.192 0.333008 6.5 0.333008H13.1667C16.4747 0.333008 19.1667 3.02501 19.1667 6.33301ZM25.2987 3.31836C24.5627 2.92503 23.6733 2.96897 22.984 3.43164L21.464 4.44499C21.2787 4.56899 21.1667 4.77701 21.1667 4.99967V12.9997C21.1667 13.2223 21.2774 13.4304 21.464 13.5544L22.9827 14.5664C23.3613 14.8197 23.7974 14.9476 24.2347 14.9476C24.5987 14.9476 24.964 14.8597 25.2987 14.681C26.04 14.2863 26.5 13.5197 26.5 12.6797V5.31966C26.5 4.47966 26.04 3.71303 25.2987 3.31836Z" fill="#707991"/>
</svg>
