<svg width="128" height="128" viewBox="0 0 128 128" fill="none" xmlns="http://www.w3.org/2000/svg">
<path d="M108 112V43.3121C108.004 41.7356 107.696 40.1739 107.092 38.7176C106.489 37.2613 105.602 35.9392 104.484 34.8281L77.172 7.51606C76.0604 6.39728 74.7377 5.51038 73.2806 4.90682C71.8235 4.30325 70.2611 3.99504 68.684 4.00006H32C28.8174 4.00006 25.7652 5.26434 23.5147 7.51478C21.2643 9.76522 20 12.8175 20 16.0001V112C20 115.183 21.2643 118.235 23.5147 120.485C25.7652 122.736 28.8174 124 32 124H96C99.1826 124 102.235 122.736 104.485 120.485C106.736 118.235 108 115.183 108 112ZM28 112V16.0001C28 14.9392 28.4214 13.9218 29.1716 13.1716C29.9217 12.4215 30.9391 12.0001 32 12.0001H68.684C69.2099 11.9996 69.7308 12.1029 70.2167 12.3041C70.7027 12.5052 71.1442 12.8001 71.516 13.1721L98.828 40.4841C99.5749 41.2362 99.9959 42.2521 100 43.3121V112C100 113.061 99.5786 114.078 98.8284 114.828C98.0783 115.579 97.0609 116 96 116H32C30.9391 116 29.9217 115.579 29.1716 114.828C28.4214 114.078 28 113.061 28 112Z" fill="#10B921"/>
<path d="M50.25 39L57.9598 50.75L69.8549 41.25L81.75 31.75" stroke="#10B921" stroke-width="8" stroke-linecap="round" stroke-linejoin="round"/>
<path d="M80 60H48C45.8783 60 43.8434 60.8429 42.3431 62.3431C40.8429 63.8434 40 65.8783 40 68V100C40 102.122 40.8429 104.157 42.3431 105.657C43.8434 107.157 45.8783 108 48 108H80C82.1217 108 84.1566 107.157 85.6569 105.657C87.1571 104.157 88 102.122 88 100V68C88 65.8783 87.1571 63.8434 85.6569 62.3431C84.1566 60.8429 82.1217 60 80 60ZM80 80H68V68H80V80ZM48 68H60V100H48V68ZM68 100V88H80V100H68Z" fill="#10B921"/>
</svg>
