<svg width="128" height="128" viewBox="0 0 128 128" fill="none" xmlns="http://www.w3.org/2000/svg">
<path d="M71.7265 23.9998C67.2467 23.9956 62.7888 24.6271 58.4845 25.8758C57.1098 21.6529 54.682 17.8549 51.433 14.8442C48.184 11.8335 44.222 9.71064 39.9254 8.67826C35.6287 7.64587 31.1407 7.73839 26.8897 8.947C22.6387 10.1556 18.7666 12.44 15.6429 15.582C12.5192 18.7241 10.2483 22.619 9.04673 26.895C7.8452 31.1711 7.75322 35.6855 8.77956 40.0075C9.8059 44.3294 11.9163 48.3147 14.9094 51.5828C17.9024 54.851 21.6783 57.293 25.8765 58.6758C23.0979 68.3491 23.4138 78.6563 26.7794 88.139C30.1451 97.6217 36.3902 105.8 44.6309 111.516C52.8716 117.232 62.6906 120.196 72.6985 119.99C82.7064 119.783 92.3963 116.416 100.397 110.365C108.398 104.315 114.304 95.8859 117.281 86.2724C120.257 76.6589 120.153 66.3473 116.982 56.7967C113.812 47.2462 107.736 38.9404 99.6143 33.0546C91.4926 27.1688 81.7365 24.0012 71.7265 23.9998ZM16.0543 33.9998C16.0543 30.4398 17.1038 26.9596 19.0701 23.9996C21.0364 21.0395 23.8311 18.7324 27.101 17.37C30.3708 16.0076 33.9688 15.6512 37.44 16.3457C40.9112 17.0402 44.0997 18.7546 46.6024 21.2719C49.105 23.7893 50.8093 26.9965 51.4997 30.4882C52.1902 33.9799 51.8358 37.5991 50.4814 40.8881C49.127 44.1772 46.8334 46.9884 43.8907 48.9663C40.9479 50.9441 37.4882 51.9998 33.9489 51.9998C29.2046 51.9945 24.6561 50.0964 21.3013 46.7219C17.9466 43.3474 16.0596 38.7721 16.0543 33.9998ZM71.7265 112C65.4803 112.01 59.32 110.537 53.7462 107.701C48.1723 104.865 43.3423 100.747 39.6486 95.68C35.9549 90.6134 33.5018 84.7415 32.4887 78.5418C31.4755 72.342 31.9308 65.9893 33.8177 59.9998H33.9489C40.8016 59.9914 47.3712 57.2494 52.2168 52.3753C57.0624 47.5011 59.7883 40.8929 59.7967 33.9998V33.8678C65.268 32.1242 71.0497 31.5926 76.7446 32.3095C82.4395 33.0263 87.9126 34.9747 92.788 38.0207C97.6634 41.0667 101.826 45.1381 104.989 49.9554C108.152 54.7726 110.241 60.2215 111.112 65.9277C111.983 71.6338 111.616 77.4621 110.036 83.0121C108.456 88.5621 105.7 93.7023 101.958 98.0796C98.2163 102.457 93.5767 105.968 88.3581 108.37C83.1396 110.773 77.4658 112.011 71.7265 112Z" fill="#FE9800"/>
<path d="M95.5861 68H75.7032V48C75.7032 46.9391 75.2842 45.9217 74.5385 45.1716C73.7927 44.4214 72.7812 44 71.7266 44C70.6719 44 69.6605 44.4214 68.9147 45.1716C68.169 45.9217 67.75 46.9391 67.75 48V72C67.75 73.0609 68.169 74.0783 68.9147 74.8284C69.6605 75.5786 70.6719 76 71.7266 76H95.5861C96.6408 76 97.6522 75.5786 98.398 74.8284C99.1437 74.0783 99.5627 73.0609 99.5627 72C99.5627 70.9391 99.1437 69.9217 98.398 69.1716C97.6522 68.4214 96.6408 68 95.5861 68Z" fill="#FE9800"/>
<path d="M33.9492 36C35.0039 36 36.0154 35.5786 36.7611 34.8284C37.5069 34.0783 37.9258 33.0609 37.9258 32V24C37.9258 22.9391 37.5069 21.9217 36.7611 21.1716C36.0154 20.4214 35.0039 20 33.9492 20C32.8946 20 31.8831 20.4214 31.1374 21.1716C30.3916 21.9217 29.9727 22.9391 29.9727 24V32C29.9727 33.0609 30.3916 34.0783 31.1374 34.8284C31.8831 35.5786 32.8946 36 33.9492 36Z" fill="#FE9800"/>
<path d="M33.9492 48C36.1455 48 37.9258 46.2091 37.9258 44C37.9258 41.7909 36.1455 40 33.9492 40C31.753 40 29.9727 41.7909 29.9727 44C29.9727 46.2091 31.753 48 33.9492 48Z" fill="#FE9800"/>
</svg>
