<svg width="120" height="128" viewBox="0 0 120 128" fill="none" xmlns="http://www.w3.org/2000/svg">
<path d="M101.897 26.8512C92.7245 17.6787 81.0735 11.8869 68.455 10.0947L72.148 6.40144C73.6125 4.93694 73.6125 2.56269 72.148 1.09819C70.6838 -0.366063 68.3093 -0.366063 66.8448 1.09819L57.348 10.5949C55.8835 12.0592 55.8835 14.4337 57.348 15.8982L66.8445 25.3947C67.5768 26.1269 68.5365 26.4932 69.496 26.4932C70.4555 26.4932 71.4155 26.1269 72.1475 25.3947C73.612 23.9304 73.612 21.5559 72.1475 20.0914L70.032 17.9759C93.7825 22.6609 111.751 43.6442 111.751 68.7482C111.752 97.2842 88.5355 120.5 59.9998 120.5C31.464 120.5 8.24805 97.2842 8.24805 68.7484C8.24805 57.8597 11.5898 47.4437 17.9123 38.6267C24.1035 29.9924 32.6385 23.5497 42.5953 19.9952C44.5458 19.2987 45.5623 17.1532 44.866 15.2024C44.1698 13.2519 42.0238 12.2354 40.0733 12.9317C28.6726 17.0019 18.9018 24.3759 11.817 34.2562C4.57555 44.3552 0.748047 56.2824 0.748047 68.7487C0.748047 84.5754 6.9113 99.4547 18.1025 110.646C29.2938 121.836 44.173 128 59.9998 128C75.8265 128 90.7058 121.837 101.897 110.646C113.088 99.4544 119.252 84.5752 119.252 68.7484C119.252 52.9217 113.088 38.0422 101.897 26.8512Z" fill="#FF0000"/>
<path d="M21.4707 68.748C21.4707 89.9927 38.7547 107.277 59.9997 107.277C81.2445 107.277 98.5285 89.9927 98.5285 68.748C98.5285 47.5032 81.2445 30.2188 59.9997 30.2188C38.7545 30.2188 21.4707 47.503 21.4707 68.748ZM59.9997 37.7188C77.1092 37.7188 91.0285 51.6385 91.0285 68.7478C91.0285 85.857 77.109 99.7767 59.9997 99.7767C42.8905 99.7767 28.9707 85.8572 28.9707 68.748C28.9707 51.6387 42.8902 37.7188 59.9997 37.7188Z" fill="#FF0000"/>
<path d="M64.5785 65.0274C61.612 63.9789 58.3352 62.7151 56.5247 61.2951C56.0715 60.9396 55.8782 60.0394 56.0542 59.1051C56.1465 58.6151 56.5757 56.9781 58.2247 56.4816C61.1265 55.6074 63.1035 56.7571 63.819 57.2914C65.4785 58.5319 67.828 58.1924 69.0677 56.5334C70.308 54.8744 69.9685 52.5246 68.3097 51.2846C67.6222 50.7706 65.9457 49.6714 63.5462 49.0746V48.0684C63.5462 45.9974 61.8672 44.3184 59.7962 44.3184C57.7252 44.3184 56.0462 45.9974 56.0462 48.0684V49.3056C52.2665 50.4506 49.446 53.6714 48.684 57.7161C47.9792 61.4569 49.21 65.0894 51.8965 67.1964C54.5532 69.2801 58.3602 70.7839 62.0787 72.0984C65.012 73.1351 65.0985 75.3814 64.889 76.6279C64.5392 78.7086 62.7885 80.9576 59.7712 80.9776C56.6207 80.9981 55.7245 80.8564 53.3465 79.3006C51.613 78.1664 49.2892 78.6524 48.1552 80.3859C47.0215 82.1191 47.5072 84.4431 49.2405 85.5771C51.827 87.2691 53.7652 88.0071 56.0462 88.3026V89.4276C56.0462 91.4986 57.7252 93.1776 59.7962 93.1776C61.8672 93.1776 63.5462 91.4986 63.5462 89.4276V87.9191C65.3132 87.3816 66.928 86.4634 68.3197 85.1849C70.4065 83.2676 71.8145 80.6701 72.2852 77.8709C73.2457 72.1579 70.1487 66.9964 64.5785 65.0274Z" fill="#FF0000"/>
</svg>
