<svg width="129" height="128" viewBox="0 0 129 128" fill="none" xmlns="http://www.w3.org/2000/svg">
<g clip-path="url(#clip0_923_7962)">
<path d="M67.5129 60.8376C66.5354 59.8601 64.9529 59.8601 63.9754 60.8376C63.0004 61.8126 63.0004 63.3951 63.9754 64.3726C64.9529 65.3476 66.5354 65.3476 67.5129 64.3726C68.4879 63.3951 68.4879 61.8126 67.5129 60.8376Z" fill="#843C9F"/>
<path d="M99.3304 29.0172C94.4455 24.1324 86.5375 24.1322 81.6522 29.0172C76.78 33.8894 76.7797 41.8194 81.653 46.6956C86.527 51.5666 94.457 51.5686 99.3304 46.6951C104.215 41.8106 104.216 33.9024 99.3304 29.0172ZM95.7949 43.1594C92.8717 46.0829 88.1132 46.0829 85.1885 43.1599C82.2647 40.2344 82.2645 35.4759 85.188 32.5527C88.1187 29.6219 92.8637 29.6214 95.7949 32.5527C98.7257 35.4832 98.7262 40.2284 95.7949 43.1594Z" fill="#843C9F"/>
<path d="M127.615 0.732273C127.124 0.241524 126.454 -0.0244755 125.758 0.0017745C125.193 0.0220245 111.734 0.563023 95.7352 6.21776C82.9152 10.7443 72.2295 17.225 63.9747 25.48C62.125 27.3297 60.325 29.2912 58.6027 31.329C50.4407 26.5245 43.9003 28.031 39.7655 30.2437C30.2453 35.3387 24.3525 49.1727 24.3525 59.0677C24.3533 60.0787 24.9625 60.9904 25.8965 61.3772C26.2058 61.5054 26.5308 61.5677 26.8528 61.5677C27.5035 61.5677 28.1428 61.3134 28.621 60.8354C33.6418 55.8147 39.8345 56.1287 41.8575 56.3947L42.733 57.2702C41.01 61.3702 39.622 65.4471 38.604 69.4124C38.2365 70.8474 38.3605 72.3659 38.9068 73.7549C36.4998 74.8641 34.1775 76.4929 32.1555 78.5149C25.7203 84.9504 24.4135 100.634 24.361 101.298C24.3035 102.028 24.568 102.746 25.0853 103.263C25.556 103.733 26.1928 103.995 26.8528 103.995C26.9183 103.995 26.984 103.993 27.0498 103.987C27.7143 103.935 43.3983 102.628 49.8335 96.1931C51.8547 94.1718 53.4832 91.8498 54.5925 89.4434C56.063 90.0216 57.5765 90.0928 58.9375 89.7441C62.901 88.7263 66.9775 87.3389 71.078 85.6156L71.9534 86.4911C72.2192 88.5144 72.5332 94.7071 67.5127 99.7273C66.798 100.442 66.584 101.518 66.971 102.452C67.3577 103.386 68.2692 103.995 69.2805 103.995C79.1754 103.995 93.0092 98.1021 98.1041 88.5819C100.317 84.4476 101.823 77.9071 97.0189 69.7449C99.0556 68.0234 101.017 66.2234 102.868 64.3729C111.123 56.1179 117.603 45.4322 122.13 32.6132C127.785 16.6137 128.326 3.15477 128.346 2.58977C128.371 1.89602 128.106 1.22327 127.615 0.732273ZM29.942 53.6904C31.495 46.1747 36.0058 37.9275 42.1258 34.652C46.2155 32.4635 50.6857 32.678 55.4387 35.2797C51.3895 40.6052 47.8692 46.3427 44.935 52.4014C44.8978 52.3784 44.4478 51.8127 43.6118 51.6242C43.268 51.5464 36.6533 50.1237 29.942 53.6904ZM46.298 92.6573C42.8605 96.0948 34.7968 97.9078 29.7 98.6481C30.4405 93.5511 32.2538 85.4876 35.691 82.0504C37.616 80.1254 39.848 78.6659 42.0915 77.8439L50.5045 86.2569C49.6825 88.5004 48.2232 90.7324 46.298 92.6573ZM57.6955 84.9006C56.972 85.0859 56.134 84.8139 55.511 84.1919C52.2767 80.9576 51.0115 79.6924 50.6145 79.2956C49.8865 78.5676 48.1012 76.7824 44.158 72.8389C43.5345 72.2141 43.2625 71.3764 43.4473 70.6541C44.248 67.5356 45.2952 64.3362 46.5687 61.1059L67.2425 81.7796C64.0117 83.0534 60.8127 84.1004 57.6955 84.9006ZM93.6964 86.2226C90.4209 92.3423 82.1739 96.8533 74.6584 98.4061C77.0547 93.8968 77.5829 88.1566 76.7074 84.6759C76.5042 83.8674 75.9767 83.4609 75.9472 83.4131C82.0054 80.4789 87.7427 76.9586 93.0687 72.9094C95.6704 77.6629 95.8847 82.1336 93.6964 86.2226ZM99.3329 60.8374C97.0802 63.0899 94.6544 65.2661 92.1229 67.3054C86.0374 72.2054 79.3394 76.3559 72.1934 79.6599L48.6885 56.1554C51.9925 49.0089 56.143 42.3109 61.0425 36.2262C63.0835 33.693 65.2595 31.267 67.5112 29.0155C74.9174 21.609 84.4759 15.7145 95.9289 11.4715L116.877 32.4195C112.634 43.8722 106.74 53.4307 99.3329 60.8374ZM118.676 27.1467L101.202 9.67276C110.722 6.71576 119.004 5.60851 123.138 5.21051C122.74 9.34526 121.632 17.6275 118.676 27.1467Z" fill="#843C9F"/>
<path d="M60.4401 103.262C59.4634 102.286 57.8804 102.286 56.9044 103.263L49.8344 110.335C48.8584 111.312 48.8586 112.895 49.8349 113.871C50.8116 114.847 52.3946 114.847 53.3706 113.87L60.4406 106.798C61.4166 105.821 61.4164 104.238 60.4401 103.262Z" fill="#843C9F"/>
<path d="M25.0857 67.9072C24.1097 66.9307 22.5269 66.9307 21.5502 67.9067L14.4777 74.9767C13.5012 75.9527 13.5009 77.5357 14.4769 78.5122C15.4527 79.4882 17.0354 79.4892 18.0124 78.5127L25.0849 71.4427C26.0614 70.4667 26.0617 68.8837 25.0857 67.9072Z" fill="#843C9F"/>
<path d="M42.7634 106.8C41.7877 105.823 40.2044 105.823 39.2279 106.799L22.293 123.732C21.3165 124.708 21.3165 126.291 22.2927 127.267C23.2685 128.244 24.8517 128.244 25.8282 127.268L42.7632 110.335C43.7397 109.359 43.7397 107.776 42.7634 106.8Z" fill="#843C9F"/>
<path d="M22.7634 106.8C21.7874 105.823 20.2042 105.823 19.2279 106.799L2.29295 123.732C1.31645 124.708 1.31645 126.291 2.2927 127.267C3.26845 128.244 4.8517 128.244 5.8282 127.268L22.7632 110.335C23.7397 109.359 23.7397 107.776 22.7634 106.8Z" fill="#843C9F"/>
<path d="M21.5478 85.5845C20.5718 84.6085 18.9885 84.6085 18.0123 85.5848L1.07981 102.52C0.103563 103.496 0.103563 105.079 1.08006 106.055C2.05631 107.032 3.63931 107.032 4.61555 106.055L21.548 89.1202C22.5243 88.1437 22.5243 86.561 21.5478 85.5845Z" fill="#843C9F"/>
<path d="M78.1184 50.2293C77.1419 49.253 75.5594 49.253 74.5826 50.2293L71.0476 53.7642C70.0714 54.7405 70.0714 56.3235 71.0476 57.3C72.0241 58.2762 73.6069 58.2762 74.5834 57.3L78.1184 53.765C79.0946 52.7887 79.0946 51.2058 78.1184 50.2293Z" fill="#843C9F"/>
</g>
<defs>
<clipPath id="clip0_923_7962">
<rect width="128" height="128" fill="white" transform="translate(0.347656)"/>
</clipPath>
</defs>
</svg>
