<svg width="52" height="47" viewBox="0 0 52 47" fill="none" xmlns="http://www.w3.org/2000/svg">
<path d="M17.3901 46.0354C17.1755 46.0354 16.9647 45.9794 16.7785 45.8727C16.5924 45.7661 16.4373 45.6127 16.3287 45.4277C12.2392 38.4607 1.33667 23.6258 1.22714 23.4768C1.05199 23.2387 0.968386 22.9455 0.991595 22.6509C1.0148 22.3562 1.14328 22.0797 1.35354 21.872L4.70603 18.559C4.91078 18.3567 5.17997 18.2325 5.46678 18.2081C5.7536 18.1837 6.03989 18.2606 6.27588 18.4255L17.134 26.007C24.3997 16.6901 31.1487 10.2532 35.5889 6.45489C40.5878 2.17945 43.7699 0.254646 43.9031 0.175385C44.0944 0.0606184 44.3132 -3.57445e-06 44.5363 2.49218e-09H49.9601C50.2096 -1.58719e-05 50.4532 0.0758047 50.6586 0.217409C50.8641 0.359014 51.0216 0.559714 51.1104 0.792901C51.1992 1.02609 51.215 1.28075 51.1557 1.52312C51.0964 1.76549 50.9649 1.98412 50.7785 2.15003C35.3763 15.8687 18.6269 45.1199 18.4595 45.4138C18.3526 45.6014 18.1983 45.7576 18.012 45.8667C17.8257 45.9757 17.614 46.0339 17.3981 46.0353L17.3901 46.0354Z" fill="#10B921"/>
</svg>
