<svg width="24" height="25" viewBox="0 0 24 25" fill="none" xmlns="http://www.w3.org/2000/svg">
<path fill-rule="evenodd" clip-rule="evenodd" d="M5 1.06641C3.34315 1.06641 2 2.40955 2 4.06641V20.0664C2 21.7233 3.34315 23.0664 5 23.0664H13.7558C12.8751 22.558 12.1073 21.8757 11.4995 21.0664H5C4.44772 21.0664 4 20.6187 4 20.0664V4.06641C4 3.51412 4.44771 3.06641 5 3.06641H19C19.5523 3.06641 20 3.51412 20 4.06641V9.49317C20.7242 9.74913 21.3973 10.1131 22 10.5659V4.06641C22 2.40955 20.6569 1.06641 19 1.06641H5ZM7 6.06641C6.44772 6.06641 6 6.51412 6 7.06641C6 7.61869 6.44771 8.06641 7 8.06641H17C17.5523 8.06641 18 7.61869 18 7.06641C18 6.51412 17.5523 6.06641 17 6.06641H7ZM6 11.0664C6 10.5141 6.44772 10.0664 7 10.0664H11C11.5523 10.0664 12 10.5141 12 11.0664C12 11.6187 11.5523 12.0664 11 12.0664H7C6.44772 12.0664 6 11.6187 6 11.0664Z" fill="#0686D8"/>
<path d="M17 14.5664H18V17.0664H20.5V18.0664H17V14.5664Z" fill="#0686D8"/>
<path fill-rule="evenodd" clip-rule="evenodd" d="M23 17.0664C23 19.8278 20.7614 22.0664 18 22.0664C15.2386 22.0664 13 19.8278 13 17.0664C13 14.305 15.2386 12.0664 18 12.0664C20.7614 12.0664 23 14.305 23 17.0664ZM22 17.0664C22 19.2755 20.2091 21.0664 18 21.0664C15.7909 21.0664 14 19.2755 14 17.0664C14 14.8573 15.7909 13.0664 18 13.0664C20.2091 13.0664 22 14.8573 22 17.0664Z" fill="#0686D8"/>
</svg>
