<svg width="24" height="16" viewBox="0 0 24 16" fill="none" xmlns="http://www.w3.org/2000/svg">
<path d="M16 2C12.6914 2 10 4.69142 10 8C10 11.3086 12.6914 14 16 14C19.3086 14 22 11.3086 22 8C22 4.69142 19.3086 2 16 2ZM16 13C13.2431 13 11 10.7569 11 8C11 5.24314 13.2431 2.99998 16 2.99998C18.7569 2.99998 21 5.24319 21 8C21 10.7568 18.7569 13 16 13Z" fill="#10B921"/>
<path d="M16 0H8.00002C3.58889 0 0 3.58889 0 8.00002C0 12.4111 3.58889 16 8.00002 16H16C20.4112 16 24 12.4111 24 8.00002C24 3.58889 20.4112 0 16 0ZM16 15H8.00002C4.14066 15 1.00003 11.8598 1.00003 8.00002C1.00003 4.14019 4.14066 1.00003 8.00002 1.00003H16C19.8594 1.00003 23 4.14019 23 8.00002C23 11.8598 19.8594 15 16 15Z" fill="#10B921"/>
</svg>
