<svg width="24" height="25" viewBox="0 0 24 25" fill="none" xmlns="http://www.w3.org/2000/svg">
<path fill-rule="evenodd" clip-rule="evenodd" d="M14.823 2.82935L19.237 7.24341C19.5466 7.55208 19.7259 7.95694 19.7477 8.39016L19.5714 8.61641L18.25 9.74696V8.81641H16.5C14.708 8.81641 13.25 7.35841 13.25 5.56641V3.81641H9C7.208 3.81641 5.75 5.27441 5.75 7.06641V17.0664C5.75 18.8584 7.208 20.3164 9 20.3164H15C16.4441 20.3164 17.6713 19.3696 18.0933 18.0642L19.75 16.5456V17.0664C19.75 19.6854 17.619 21.8164 15 21.8164H9C6.381 21.8164 4.25 19.6854 4.25 17.0664V7.06641C4.25 4.44741 6.381 2.31641 9 2.31641H13.586C14.053 2.31641 14.492 2.49835 14.823 2.82935ZM17.189 7.31543L14.75 4.87646V5.56543C14.75 6.53043 15.535 7.31543 16.5 7.31543H17.189Z" fill="#FE9800"/>
<path d="M22.2533 10.6754C21.9374 10.1382 21.4435 9.77586 20.8622 9.65462C20.2819 9.53359 19.6844 9.66826 19.179 10.0343L12.6781 14.7483C12.4264 14.9304 12.2334 15.188 12.1201 15.4923L11.1779 18.0262C11.098 18.2406 11.1166 18.4807 11.2281 18.6694C11.3202 18.8257 11.4667 18.9318 11.6334 18.9666C11.6675 18.9737 11.7032 18.9783 11.7388 18.9788L14.2088 19.0386C14.5048 19.0462 14.7944 18.9533 15.0463 18.7707L21.5471 14.0567C22.052 13.6906 22.4036 13.1375 22.5368 12.4985C22.6701 11.8596 22.5703 11.2129 22.2533 10.6754ZM14.6372 18.0746C14.5224 18.1578 14.3911 18.1996 14.2567 18.1963L11.9592 18.1402L12.8353 15.7833C12.8867 15.6447 12.9744 15.5282 13.0886 15.4454L18.0773 11.8278L19.6254 14.4569L14.6372 18.0746ZM21.1381 13.3605L20.2802 13.9826L18.732 11.3535L19.5899 10.7314C19.92 10.4925 20.3104 10.4039 20.6899 10.4831C21.0695 10.5622 21.3926 10.799 21.599 11.1504C21.8055 11.5018 21.8718 11.9247 21.7847 12.3422C21.6976 12.7597 21.4678 13.121 21.1381 13.3605Z" fill="#FE9800" stroke="#FE9800" stroke-width="0.5"/>
</svg>
