<svg width="16" height="20" viewBox="0 0 16 20" fill="none" xmlns="http://www.w3.org/2000/svg">
<path d="M2.75024 20C2.07042 19.9819 1.4255 19.695 0.956865 19.2022C0.48823 18.7094 0.234121 18.0509 0.250244 17.371V2.629C0.233855 1.94905 0.487875 1.29037 0.956566 0.797499C1.42526 0.304624 2.07033 0.0178126 2.75024 0H9.74224H11.9858C15.9858 0 15.7212 2.85938 15.7212 2.85938C15.7212 2.85938 15.7212 6 15.7212 6.30859C15.7212 10.0066 15.7212 13.673 15.7212 17.371C15.7374 18.048 15.4856 18.704 15.0207 19.1964C14.5557 19.6887 13.9151 19.9775 13.2382 20H2.75024ZM1.75024 2.629V17.371C1.74325 17.6436 1.84454 17.9079 2.03196 18.106C2.21938 18.3041 2.47765 18.4199 2.75024 18.428H13.2402C13.5128 18.4199 13.7711 18.3041 13.9585 18.106C14.1459 17.9079 14.2472 17.6436 14.2402 17.371V2.629C14.2402 2.629 14.2402 2.25442 13.9858 2C13.4858 1.5 12.9858 1.5 12.9858 1.5L2.75024 1.571C2.47748 1.57911 2.21905 1.69503 2.0316 1.89334C1.84416 2.09166 1.74298 2.35621 1.75024 2.629ZM4.49624 15.393C4.29631 15.3806 4.10861 15.2925 3.9714 15.1465C3.8342 15.0006 3.75781 14.8078 3.75781 14.6075C3.75781 14.4072 3.8342 14.2144 3.9714 14.0685C4.10861 13.9225 4.29631 13.8344 4.49624 13.822H11.4902C11.6902 13.8344 11.8779 13.9225 12.0151 14.0685C12.1523 14.2144 12.2287 14.4072 12.2287 14.6075C12.2287 14.8078 12.1523 15.0006 12.0151 15.1465C11.8779 15.2925 11.6902 15.3806 11.4902 15.393H4.49624ZM4.49624 11.707C4.29631 11.6946 4.10861 11.6065 3.9714 11.4605C3.8342 11.3146 3.75781 11.1218 3.75781 10.9215C3.75781 10.7212 3.8342 10.5284 3.9714 10.3825C4.10861 10.2365 4.29631 10.1484 4.49624 10.136H11.4902C11.6902 10.1484 11.8779 10.2365 12.0151 10.3825C12.1523 10.5284 12.2287 10.7212 12.2287 10.9215C12.2287 11.1218 12.1523 11.3146 12.0151 11.4605C11.8779 11.6065 11.6902 11.6946 11.4902 11.707H4.49624Z" fill="white"/>
</svg>
