<svg version="1.2" xmlns="http://www.w3.org/2000/svg" viewBox="0 0 23 27" width="23" height="27"><style>.a{fill:#fffdfd}</style><filter id="f0"><feFlood flood-color="#0049a3" flood-opacity="1" /><feBlend mode="normal" in2="SourceGraphic"/><feComposite in2="SourceAlpha" operator="in" /></filter><g filter="url(#f0)"><path class="a" d="m22.4 13.2v10.9q0.1 0.4 0 0.9-0.2 0.4-0.5 0.7-0.3 0.3-0.7 0.5-0.5 0.1-0.9 0.1h-16.9q-0.4 0-0.8-0.2-0.4-0.1-0.7-0.4-0.3-0.3-0.5-0.7-0.1-0.4-0.1-0.8c0-0.6 0-1.2 0-1.8 0-0.5 0.2-0.6 0.7-0.6 0.4 0 0.7 0.1 0.7 0.7-0.1 0.5 0 0.9 0 1.4 0 0.8 0.1 1 1 1q4.8 0 9.6 0 3.4 0 6.8 0c0.8 0 1-0.2 1-1v-21.5c0-0.8-0.2-1-1-1h-16.5c-0.8 0-1 0.2-1 1.1 0 0.8 0 1.3 0 2 0 0.3 0.1 0.6 0.5 0.6q0.2 0 0.3 0 0.1 0 0.2 0.1 0.1 0.1 0.2 0.3 0 0.1 0 0.2 0 0.2 0 0.3-0.1 0.1-0.2 0.2-0.1 0.1-0.3 0.2-0.1 0-0.2 0-1.2 0-2.4 0-0.1 0-0.3 0-0.1-0.1-0.2-0.2-0.1-0.1-0.1-0.2-0.1-0.1-0.1-0.2 0-0.2 0-0.3 0.1-0.1 0.2-0.2 0.1-0.1 0.2-0.2 0.1 0 0.3 0c0.5 0 0.6-0.3 0.5-0.7q0-1.2 0-2.4 0-0.4 0.2-0.7 0.1-0.4 0.4-0.7 0.3-0.3 0.6-0.4 0.4-0.1 0.8-0.1 8.6 0 17.3 0 0.4 0 0.7 0.1 0.4 0.2 0.7 0.4 0.2 0.3 0.4 0.7 0.1 0.4 0.1 0.8c0.1 3.7 0 7.4 0 11.1z"/><path class="a" d="m1.9 10.1q-0.6 0-1.3 0-0.1 0-0.2-0.1-0.1 0-0.2-0.1-0.1-0.1-0.1-0.2-0.1-0.1-0.1-0.2 0-0.2 0.1-0.3 0-0.1 0.1-0.2 0-0.1 0.1-0.1 0.2-0.1 0.3-0.1c0.9 0 0.7-0.6 0.7-1.1 0-0.6 0.2-0.9 0.8-0.8q0.6 0 0.6 0.6c-0.1 0.4 0 0.5 0 0.7 0 0.3 0.1 0.6 0.5 0.6 0.4 0 0.7 0.2 0.7 0.7-0.1 0.5-0.4 0.6-0.8 0.6h-1.2z"/><path class="a" d="m2 13.8q-0.7 0-1.3 0-0.1 0-0.2 0-0.2-0.1-0.2-0.2-0.1 0-0.2-0.2 0-0.1 0-0.2 0-0.1 0-0.2 0-0.1 0.1-0.2 0.1-0.1 0.2-0.2 0.1 0 0.2 0c0.9 0 0.7-0.7 0.7-1.2 0-0.6 0.2-0.9 0.9-0.8q0.5 0 0.5 0.5c-0.1 0.4 0 0.5 0 0.7 0 0.4 0 0.7 0.5 0.7q0.2 0 0.3 0.1 0.1 0 0.2 0.1 0.1 0.1 0.1 0.2 0.1 0.1 0.1 0.3c0 0.4-0.3 0.6-0.7 0.6-0.5 0-0.8 0-1.2 0z"/><path class="a" d="m2 17.5q-0.7 0-1.3 0-0.1 0-0.2 0-0.2 0-0.2-0.1-0.1-0.1-0.2-0.2 0-0.2 0-0.3c0-0.3 0.2-0.6 0.5-0.6 0.9 0 0.7-0.7 0.7-1.2 0-0.6 0.2-0.9 0.9-0.8q0.5 0 0.5 0.5c-0.1 0.4 0 0.5 0 0.7 0 0.5 0 0.7 0.5 0.7q0.2 0 0.3 0.1 0.1 0 0.2 0.1 0.1 0.1 0.1 0.2 0.1 0.1 0.1 0.3c0 0.4-0.3 0.6-0.7 0.6h-1.2z"/><path class="a" d="m2 21.3q-0.6 0-1.2 0-0.2 0-0.3 0-0.1-0.1-0.2-0.2-0.1-0.1-0.2-0.2 0-0.1 0-0.2 0-0.2 0-0.3 0-0.1 0.1-0.2 0.1-0.1 0.3-0.2 0.1 0 0.2 0c0.5 0 0.6-0.3 0.6-0.7q0-0.4 0-0.7c0-0.5 0.3-0.5 0.7-0.5 0.4-0.1 0.7 0 0.7 0.5q0 0.3 0 0.6c0 0.5 0 0.8 0.6 0.8q0.1 0 0.2 0 0.1 0.1 0.2 0.2 0.1 0.1 0.2 0.2 0 0.1 0 0.3 0 0.1-0.1 0.2 0 0.1-0.1 0.2-0.1 0.1-0.3 0.1-0.1 0.1-0.2 0.1-0.6 0-1.2 0z"/><path fill-rule="evenodd" class="a" d="m12.2 18.5q-1.9 0-3.9 0-0.4 0.1-0.7-0.1-0.4-0.1-0.7-0.4-0.2-0.3-0.3-0.7-0.1-0.4 0-0.8c0.2-1.6 0.5-1.8 2-2.2l1.1-0.3c0.5-0.2 0.7-0.7 0.3-1-1.4-1.3-1.4-2.9-1.2-4.6 0.1-0.6 0.3-1.1 0.7-1.5 0.4-0.4 0.9-0.7 1.4-0.9 0.8-0.1 1.6-0.1 2.3 0 0.6 0.2 1.2 0.5 1.6 1 0.5 0.5 0.7 1.1 0.8 1.7 0.1 1.6 0.1 3.1-1.3 4.3-0.4 0.3-0.2 0.8 0.3 1l1.8 0.5q0.5 0 0.8 0.4 0.3 0.3 0.4 0.8c0 0.3 0.1 0.6 0.1 0.9q0.1 0.4 0 0.7 0 0.4-0.3 0.7-0.2 0.2-0.5 0.4-0.4 0.1-0.7 0.1-2 0-4 0zm3.8-1c0.2 0 0.5 0 0.7-0.3q0.1-0.5-0.1-1-0.2-0.5-0.6-0.8c-0.7-0.2-1.3-0.3-2-0.5-0.4-0.1-0.8-0.1-0.9-0.7 0-0.5-0.3-1.3 0.3-1.8q0.6-0.5 0.9-1.2 0.3-0.7 0.3-1.4c0.1-2.4-0.9-2.9-3-2.8-0.4 0-0.8 0.2-1.1 0.5-0.3 0.2-0.5 0.6-0.6 1q-0.2 1.2 0 2.5 0 0.3 0.2 0.5 0.2 0.3 0.4 0.5c0.8 0.5 0.8 1.2 0.7 2q0.1 0.3-0.1 0.5-0.2 0.3-0.5 0.3c-0.6 0.2-1.2 0.4-1.8 0.5q-0.2 0-0.5 0.1-0.2 0.1-0.4 0.3-0.1 0.1-0.2 0.4-0.1 0.2-0.1 0.5c0 0.7 0 0.9 0.8 0.9z"/></g></svg>