<svg width="20" height="20" viewBox="0 0 20 20" fill="none" xmlns="http://www.w3.org/2000/svg">
<path fill-rule="evenodd" clip-rule="evenodd" d="M19.0602 10.1899C19.0602 5.08894 14.9112 0.939942 9.81018 0.939941C5.9397 0.939941 0.939697 3.52113 0.939697 9.81016C0.939697 14.9112 5.0887 19.0602 10.1897 19.0602C16.4787 19.0602 19.0602 13.9399 19.0602 10.1899ZM15.476 15.4945C14.0817 16.7951 12.2152 17.5611 10.1897 17.5611C5.9167 17.5611 2.4397 14.0841 2.4397 9.81114C2.4397 7.77597 3.21262 5.90186 4.52387 4.50556C5.91816 3.20498 7.78471 2.43896 9.81018 2.43896C14.0832 2.43897 17.5602 5.91597 17.5602 10.189C17.5602 12.2241 16.7873 14.0982 15.476 15.4945Z" fill="white"/>
<path d="M3.9397 15.9399L15.9397 3.93993C13.6064 2.27327 7.9397 -0.0600677 3.9397 3.93993C-0.0603027 7.93993 2.27303 13.6066 3.9397 15.9399Z" fill="white"/>
</svg>
