<svg width="15" height="15" viewBox="0 0 15 15" fill="none" xmlns="http://www.w3.org/2000/svg">
<path d="M11.25 0.914062H11.0625V0.726562C11.0625 0.416063 10.8105 0.164062 10.5 0.164062C10.1895 0.164062 9.9375 0.416063 9.9375 0.726562V0.914062H5.0625V0.726562C5.0625 0.416063 4.8105 0.164062 4.5 0.164062C4.1895 0.164062 3.9375 0.416063 3.9375 0.726562V0.914062H3.75C1.78575 0.914062 0.1875 2.51231 0.1875 4.47656V11.2266C0.1875 13.1908 1.78575 14.7891 3.75 14.7891H11.25C13.2142 14.7891 14.8125 13.1908 14.8125 11.2266V4.47656C14.8125 2.51231 13.2142 0.914062 11.25 0.914062ZM3.75 2.03906H3.9375V2.97656C3.9375 3.28706 4.1895 3.53906 4.5 3.53906C4.8105 3.53906 5.0625 3.28706 5.0625 2.97656V2.03906H9.9375V2.97656C9.9375 3.28706 10.1895 3.53906 10.5 3.53906C10.8105 3.53906 11.0625 3.28706 11.0625 2.97656V2.03906H11.25C12.594 2.03906 13.6875 3.13256 13.6875 4.47656V4.66406H1.3125V4.47656C1.3125 3.13256 2.406 2.03906 3.75 2.03906ZM11.25 13.6641H3.75C2.406 13.6641 1.3125 12.5706 1.3125 11.2266V5.78906H13.6875V11.2266C13.6875 12.5706 12.594 13.6641 11.25 13.6641ZM11.25 8.22656C11.25 8.64056 10.914 8.97656 10.5 8.97656C10.086 8.97656 9.75 8.64056 9.75 8.22656C9.75 7.81256 10.086 7.47656 10.5 7.47656C10.914 7.47656 11.25 7.81256 11.25 8.22656ZM8.25 8.22656C8.25 8.64056 7.914 8.97656 7.5 8.97656C7.086 8.97656 6.75 8.64056 6.75 8.22656C6.75 7.81256 7.086 7.47656 7.5 7.47656C7.914 7.47656 8.25 7.81256 8.25 8.22656ZM5.25 8.22656C5.25 8.64056 4.914 8.97656 4.5 8.97656C4.086 8.97656 3.75 8.64056 3.75 8.22656C3.75 7.81256 4.086 7.47656 4.5 7.47656C4.914 7.47656 5.25 7.81256 5.25 8.22656ZM11.25 11.2266C11.25 11.6406 10.914 11.9766 10.5 11.9766C10.086 11.9766 9.75 11.6406 9.75 11.2266C9.75 10.8126 10.086 10.4766 10.5 10.4766C10.914 10.4766 11.25 10.8126 11.25 11.2266ZM8.25 11.2266C8.25 11.6406 7.914 11.9766 7.5 11.9766C7.086 11.9766 6.75 11.6406 6.75 11.2266C6.75 10.8126 7.086 10.4766 7.5 10.4766C7.914 10.4766 8.25 10.8126 8.25 11.2266ZM5.25 11.2266C5.25 11.6406 4.914 11.9766 4.5 11.9766C4.086 11.9766 3.75 11.6406 3.75 11.2266C3.75 10.8126 4.086 10.4766 4.5 10.4766C4.914 10.4766 5.25 10.8126 5.25 11.2266Z" fill="#41416E"/>
</svg>
