<svg width="17" height="17" viewBox="0 0 17 17" fill="none" xmlns="http://www.w3.org/2000/svg">
<path d="M11.125 12.875C12.0915 12.875 12.875 12.0915 12.875 11.125C12.875 10.1585 12.0915 9.375 11.125 9.375C10.1585 9.375 9.375 10.1585 9.375 11.125C9.375 12.0915 10.1585 12.875 11.125 12.875Z" fill="#1976D2"/>
<path fill-rule="evenodd" clip-rule="evenodd" d="M3.25 0.625C1.80025 0.625 0.625 1.80025 0.625 3.25V13.75C0.625 15.1997 1.80025 16.375 3.25 16.375H13.75C15.1997 16.375 16.375 15.1997 16.375 13.75V3.25C16.375 1.80025 15.1997 0.625 13.75 0.625H3.25ZM2.375 13.75V5H14.625V13.75C14.625 14.2332 14.2332 14.625 13.75 14.625H3.25C2.76675 14.625 2.375 14.2332 2.375 13.75Z" fill="#1976D2"/>
</svg>
