<svg width="16" height="13" viewBox="0 0 16 13" fill="none" xmlns="http://www.w3.org/2000/svg">
<path d="M11.75 0.5H4.25C2.18225 0.5 0.5 2.18225 0.5 4.25V8.75C0.5 10.8177 2.18225 12.5 4.25 12.5H11.75C13.8177 12.5 15.5 10.8177 15.5 8.75V4.25C15.5 2.18225 13.8177 0.5 11.75 0.5ZM4.25 2H11.75C12.6335 2 13.3917 2.51598 13.76 3.25848L9.248 6.26599C8.48975 6.77149 7.51025 6.77149 6.752 6.26599L2.24001 3.25848C2.60826 2.51598 3.3665 2 4.25 2ZM11.75 11H4.25C3.0095 11 2 9.9905 2 8.75V4.90103L5.91951 7.51404C6.55176 7.93554 7.2755 8.1463 8 8.1463C8.72375 8.1463 9.44826 7.93554 10.0798 7.51404L14 4.90103V8.75C14 9.9905 12.9905 11 11.75 11Z" fill="#0049A3"/>
</svg>
