<svg width="72" height="72" viewBox="0 0 72 72" fill="none" xmlns="http://www.w3.org/2000/svg">
<path d="M14.5905 47.8608C21.7189 56.3498 30.3 63.0336 40.0942 67.7629C43.8231 69.5234 48.81 71.6121 54.366 71.9702C54.7105 71.9851 55.04 72 55.3844 72C59.1134 72 62.1085 70.7169 64.5496 68.0762C64.5645 68.0613 64.5945 68.0315 64.6095 68.0017C65.4781 66.9573 66.4664 66.0174 67.4998 65.0178C68.2036 64.3465 68.9225 63.6453 69.6114 62.9291C72.8012 59.6171 72.8012 55.4099 69.5814 52.2022L60.581 43.2358C59.0535 41.6544 57.2264 40.8189 55.3095 40.8189C53.3926 40.8189 51.5506 41.6544 49.9782 43.2209L44.6168 48.562C44.1226 48.2785 43.6135 48.0249 43.1342 47.7862C42.5352 47.4878 41.9811 47.2043 41.4869 46.891C36.6048 43.8027 32.172 39.7746 27.9339 34.5976C25.7923 31.8972 24.3547 29.6295 23.3513 27.317C24.759 26.0489 26.0769 24.7211 27.3498 23.4231C27.7991 22.9606 28.2633 22.4981 28.7276 22.0356C30.345 20.4244 31.2136 18.5595 31.2136 16.6647C31.2136 14.77 30.3599 12.9051 28.7276 11.2938L24.2648 6.84791C23.7407 6.32574 23.2465 5.81848 22.7373 5.29631C21.7489 4.28181 20.7156 3.23746 19.6972 2.29755C18.1547 0.790717 16.3426 0 14.4257 0C12.5238 0 10.6968 0.790717 9.09438 2.31247L3.49345 7.89225C1.45675 9.92126 0.303617 12.3829 0.064005 15.2325C-0.220534 18.7982 0.438399 22.5877 2.14563 27.1678C4.76639 34.2545 8.71998 40.8338 14.5905 47.8608ZM3.71809 15.5458C3.8978 13.5615 4.66156 11.9055 6.09923 10.4733L11.6702 4.92333C12.5388 4.08786 13.4972 3.6552 14.4257 3.6552C15.3393 3.6552 16.2678 4.08786 17.1214 4.95317C18.1248 5.87816 19.0682 6.84791 20.0866 7.87733C20.5957 8.3995 21.1199 8.92167 21.6441 9.45877L26.1068 13.9047C27.0353 14.8297 27.5145 15.7696 27.5145 16.6946C27.5145 17.6196 27.0353 18.5595 26.1068 19.4845C25.6426 19.947 25.1783 20.4244 24.7141 20.8869C23.3213 22.2893 22.0184 23.6171 20.5808 24.8852C20.5508 24.915 20.5358 24.93 20.5059 24.9598C19.2629 26.1981 19.4576 27.3767 19.7571 28.2719C19.7721 28.3166 19.7871 28.3465 19.802 28.3912C20.9552 31.1513 22.5576 33.777 25.0585 36.9101C29.5512 42.4302 34.2836 46.712 39.4951 50.0091C40.1391 50.4269 40.828 50.7551 41.4719 51.0833C42.071 51.3817 42.6251 51.6651 43.1193 51.9784C43.1792 52.0083 43.2241 52.0381 43.284 52.068C43.7782 52.3216 44.2574 52.4409 44.7366 52.4409C45.9347 52.4409 46.7134 51.6801 46.968 51.4264L52.569 45.8467C53.4375 44.9813 54.381 44.5189 55.3095 44.5189C56.4477 44.5189 57.3762 45.2201 57.9602 45.8467L66.9906 54.828C68.7877 56.6183 68.7727 58.5578 66.9457 60.4525C66.3167 61.1239 65.6578 61.7654 64.9539 62.4368C63.9056 63.4513 62.8124 64.4957 61.824 65.6743C60.1018 67.5242 58.0501 68.3895 55.3994 68.3895C55.1448 68.3895 54.8752 68.3746 54.6206 68.3597C49.7086 68.0464 45.141 66.1368 41.7115 64.5106C32.3966 60.0199 24.2199 53.6494 17.4359 45.5632C11.8499 38.8645 8.091 32.6283 5.60503 25.9445C4.06253 21.8417 3.47847 18.5445 3.71809 15.5458Z" fill="#0049A3"/>
</svg>
