<svg width="24" height="24" viewBox="0 0 24 24" fill="none" xmlns="http://www.w3.org/2000/svg">
<g clip-path="url(#clip0_1709_19413)">
<path d="M13.4973 -0.0136719C13.5839 0.432375 13.6638 0.871765 13.757 1.31781C13.757 1.37107 13.8502 1.41768 13.9101 1.4443C14.3029 1.61074 14.6957 1.77718 15.0951 1.9303C15.1368 1.94989 15.1822 1.96005 15.2282 1.96005C15.2743 1.96005 15.3197 1.94989 15.3614 1.9303C15.7142 1.71727 16.0272 1.48426 16.4199 1.26456L16.5864 1.41767C17.1589 1.99021 17.7314 2.56939 18.3106 3.13527C18.3704 3.17592 18.4121 3.23819 18.427 3.30894C18.4419 3.3797 18.4288 3.45344 18.3905 3.51475C18.2707 3.75442 18.1775 4.01408 18.0776 4.24043C18.418 4.28714 18.7541 4.36057 19.0829 4.46009C19.592 4.63962 20.0355 4.96785 20.356 5.40227C20.6764 5.83669 20.8592 6.35732 20.8804 6.89673C20.9879 7.57068 20.9096 8.26116 20.654 8.89396C20.4759 9.27566 20.2169 9.6141 19.8951 9.88591C19.8307 9.95532 19.7769 10.0338 19.7353 10.1189C19.8122 10.1723 19.8949 10.2169 19.9816 10.2521C20.5742 10.4252 21.16 10.5916 21.7592 10.7514C21.8221 10.7704 21.8893 10.7704 21.9523 10.7514C22.1588 10.6581 22.3589 10.5513 22.5514 10.4318C22.9761 10.1549 23.4928 10.0569 23.9894 10.1589V10.3919C23.9894 12.1095 23.9894 13.8271 23.9894 15.5447C23.9991 15.6198 23.9834 15.696 23.9448 15.7611C23.9062 15.8263 23.8469 15.8766 23.7764 15.9042L17.2455 19.1597C17.1735 19.1825 17.1107 19.2278 17.0663 19.2889C17.022 19.35 16.9985 19.4237 16.9991 19.4992C16.9857 19.7545 16.8852 19.9974 16.7144 20.1876C16.5436 20.3778 16.3128 20.5037 16.0604 20.5444C15.9073 20.5444 15.854 20.6177 15.8274 20.7774C15.786 21.017 15.6706 21.2376 15.4975 21.4084C15.3244 21.5791 15.1022 21.6913 14.8621 21.7294C14.8231 21.7394 14.7871 21.7585 14.757 21.7851C14.7269 21.8117 14.7036 21.8452 14.689 21.8826C14.6478 22.1579 14.5126 22.4105 14.3063 22.5974C14.0999 22.7843 13.8353 22.894 13.5573 22.9078L13.5173 23.0809C13.4804 23.2831 13.3923 23.4725 13.2615 23.6311C13.1307 23.7897 12.9615 23.9121 12.77 23.9868C12.5785 24.0616 12.3711 24.0861 12.1675 24.058C11.9638 24.0299 11.7707 23.9503 11.6066 23.8265C11.4933 23.7125 11.3498 23.6332 11.193 23.5978C11.0362 23.5624 10.8725 23.5725 10.7212 23.6268C10.5672 23.6669 10.4066 23.674 10.2497 23.6478C10.0928 23.6215 9.94321 23.5625 9.81067 23.4745C9.67812 23.3866 9.56559 23.2717 9.48044 23.1374C9.39529 23.003 9.33943 22.8522 9.31648 22.6948C9.31672 22.6416 9.29703 22.5902 9.2613 22.5508C9.22557 22.5113 9.17636 22.4867 9.12339 22.4817C8.87436 22.4442 8.64406 22.3275 8.46659 22.1488C8.28912 21.9702 8.17393 21.7391 8.13811 21.4898C8.13116 21.4567 8.1159 21.4259 8.09377 21.4002C8.07165 21.3746 8.04338 21.355 8.01161 21.3433C7.73241 21.3028 7.47561 21.1676 7.28415 20.9603C7.09268 20.7531 6.97815 20.4864 6.95973 20.2049C6.85321 20.2049 6.73338 20.1583 6.62686 20.125C6.42053 20.0587 6.23661 19.9365 6.09557 19.772C5.95454 19.6075 5.8619 19.407 5.82796 19.193C5.81901 19.1339 5.79627 19.0779 5.76156 19.0293C5.72686 18.9807 5.68119 18.941 5.62825 18.9134C5.30203 18.727 4.9625 18.5339 4.66291 18.3408C4.60299 18.4474 4.56306 18.6138 4.5098 18.6204C4.25699 18.6698 3.997 18.6698 3.74418 18.6204C2.48593 18.221 1.24103 17.7883 -0.00390625 17.3688V9.30672C0.432177 9.24439 0.876474 9.27505 1.29987 9.39668C1.72326 9.5183 2.11612 9.72814 2.45264 10.0124C2.66325 10.2007 2.92506 10.322 3.20481 10.3612C3.48457 10.4003 3.76966 10.3554 4.02383 10.2321L4.25015 10.1056C4.21496 10.0186 4.16294 9.93941 4.09705 9.87258C3.68086 9.52236 3.37361 9.06034 3.2116 8.5411C3.07786 8.01062 3.03955 7.46058 3.09843 6.91669C3.09828 6.40141 3.25224 5.89786 3.54053 5.47078C3.82881 5.04369 4.23824 4.71259 4.71618 4.52003C5.10048 4.38604 5.49441 4.28146 5.89456 4.20715C5.80135 3.97414 5.68149 3.70781 5.57497 3.4282C5.56014 3.39348 5.5525 3.35613 5.5525 3.31837C5.5525 3.28061 5.56014 3.24326 5.57497 3.20854L7.53226 1.24459C7.89176 1.4776 8.24463 1.71061 8.60413 1.91033C8.63991 1.9343 8.6804 1.95027 8.72291 1.95716C8.76541 1.96406 8.80894 1.96171 8.85045 1.95028C9.26322 1.7905 9.66929 1.6174 10.0754 1.4443C10.1287 1.4443 10.1952 1.37108 10.2019 1.32448C10.2951 0.885086 10.3816 0.445697 10.4615 -0.00700795L13.4973 -0.0136719ZM23.2171 10.8779L22.9375 11.0243C20.7184 12.1827 18.4993 13.3456 16.2801 14.5128C16.0409 14.6585 15.7587 14.7173 15.4812 14.6793C15.3263 14.6578 15.1729 14.6267 15.0219 14.586L13.0246 14.0135C12.5851 13.8739 12.1089 13.9073 11.6931 14.1067L9.60275 15.152C9.53015 15.1858 9.46525 15.2342 9.41209 15.2941C9.35893 15.3541 9.3186 15.4242 9.29365 15.5003C9.26869 15.5765 9.25963 15.6569 9.26699 15.7367C9.27435 15.8164 9.29797 15.8939 9.33643 15.9641C9.37471 16.0303 9.42661 16.0875 9.48869 16.1321C9.55077 16.1766 9.62162 16.2075 9.69653 16.2226C9.77144 16.2377 9.84872 16.2367 9.92322 16.2197C9.99772 16.2027 10.0677 16.17 10.1287 16.1239L11.3736 15.3783C11.6835 15.1508 12.066 15.0448 12.4488 15.0804C12.8316 15.1159 13.1881 15.2906 13.4507 15.5713C14.4693 16.4901 15.4946 17.4088 16.5065 18.3342C16.5539 18.3877 16.6189 18.4224 16.6897 18.4322C16.7605 18.442 16.8325 18.4261 16.8926 18.3874C18.9164 17.3622 20.9447 16.3458 22.9775 15.3383C23.0487 15.3146 23.1099 15.2675 23.1509 15.2047C23.192 15.1418 23.2107 15.0669 23.2039 14.9921C23.2039 13.7073 23.2039 12.4291 23.2039 11.1508L23.2171 10.8779ZM11.2338 20.4912C11.58 20.5371 11.8986 20.7046 12.1326 20.9639C12.4684 21.3063 12.824 21.6286 13.1977 21.9292C13.2446 21.9713 13.2997 22.0031 13.3595 22.0227C13.4194 22.0423 13.4827 22.0491 13.5453 22.0429C13.608 22.0366 13.6686 22.0173 13.7234 21.9863C13.7782 21.9553 13.8259 21.9131 13.8635 21.8626C13.9966 21.6695 13.9434 21.4565 13.697 21.2501L12.4255 20.185L11.7597 19.6257L12.2524 19.0399L14.1831 20.6443C14.265 20.7176 14.3542 20.7823 14.4493 20.8374C14.5472 20.8874 14.6599 20.9002 14.7665 20.8733C14.8731 20.8463 14.9662 20.7815 15.0285 20.6909C15.0842 20.6042 15.1049 20.4996 15.0864 20.3982C15.0678 20.2969 15.0115 20.2064 14.9287 20.145C14.8939 20.1125 14.856 20.0835 14.8155 20.0585L12.9181 18.4673L13.4108 17.8815L13.7303 18.1411L15.4413 19.5658C15.536 19.6597 15.6641 19.7124 15.7975 19.7124C15.9309 19.7124 16.0589 19.6597 16.1536 19.5658C16.3267 19.3661 16.2801 19.1331 16.0205 18.9L12.9581 16.1372C12.8156 15.9769 12.6179 15.8761 12.4044 15.8552C12.1909 15.8342 11.9773 15.8945 11.8064 16.0241L10.4749 16.8096C10.3287 16.9015 10.1653 16.9625 9.9947 16.9888C9.8241 17.0151 9.64996 17.0063 9.48292 16.9627C9.24606 16.9033 9.03086 16.778 8.86236 16.6012C8.69386 16.4245 8.57892 16.2036 8.53087 15.9641C8.48222 15.6908 8.52024 15.4091 8.63961 15.1584C8.75898 14.9077 8.95373 14.7006 9.19661 14.5661C9.75584 14.2665 10.3284 13.9935 10.8876 13.7139L11.1672 13.5675C10.4844 13.2557 9.72943 13.136 8.98361 13.2213C8.01163 13.3877 7.04627 13.6207 6.08095 13.8404C6.03977 13.8511 6.00159 13.8711 5.96928 13.8988C5.93698 13.9265 5.91143 13.9611 5.89456 14.0002C5.56613 15.1275 5.24657 16.2526 4.93589 17.3755C4.9319 17.4122 4.93643 17.4493 4.94913 17.484C4.96184 17.5186 4.98235 17.5498 5.00911 17.5752C5.3553 17.7949 5.7148 18.008 6.05433 18.241C6.3406 17.9614 6.6069 17.6884 6.88651 17.4354C7.04407 17.2884 7.23836 17.1866 7.44892 17.1407C7.65948 17.0949 7.87852 17.1066 8.08297 17.1748C8.28741 17.2429 8.46967 17.3649 8.61059 17.528C8.75152 17.691 8.84589 17.889 8.88373 18.1012C8.8974 18.144 8.92071 18.183 8.95188 18.2153C8.98304 18.2476 9.02125 18.2724 9.0635 18.2876C9.31278 18.3298 9.54231 18.4498 9.71928 18.6303C9.89626 18.8109 10.0116 19.0428 10.0488 19.2928C10.0581 19.3249 10.0743 19.3546 10.0961 19.3798C10.1179 19.4051 10.1449 19.4254 10.1753 19.4393C10.4428 19.4777 10.6905 19.6026 10.8804 19.795C11.0703 19.9873 11.1921 20.2365 11.2272 20.5045L11.2338 20.4912ZM8.15806 12.5023C8.15806 12.5023 8.19802 12.5023 8.21799 12.5023H8.37776C9.113 12.3467 9.87442 12.3649 10.6014 12.5555L13.3043 13.3012L15.3747 13.887C15.4733 13.9101 15.5734 13.9257 15.6743 13.9336C15.8208 13.9336 15.8807 13.887 15.8807 13.7273C15.8807 13.3078 15.8807 12.8884 15.8807 12.469C15.8897 12.1918 15.7983 11.9207 15.6234 11.7054C15.4485 11.4902 15.2019 11.3452 14.9287 11.2973C14.2629 11.1308 13.5972 10.9644 12.9781 10.8113C12.9474 10.8092 12.9176 10.8004 12.8906 10.7857C12.8636 10.771 12.8401 10.7506 12.8218 10.7259C12.8034 10.7012 12.7907 10.6729 12.7843 10.6428C12.778 10.6127 12.7782 10.5816 12.785 10.5517C12.7983 10.2944 12.7983 10.0367 12.785 9.77941C12.7762 9.7035 12.7914 9.62672 12.8284 9.55986C12.8654 9.49301 12.9223 9.43943 12.9914 9.40659C13.2395 9.2731 13.4526 9.08294 13.6134 8.85158C13.7742 8.62022 13.8781 8.35419 13.9167 8.07511C13.9667 7.71957 13.9667 7.35877 13.9167 7.00323C13.8854 6.66285 13.7858 6.33229 13.6238 6.03128C13.4491 5.69005 13.1684 5.41471 12.8239 5.24664C12.4794 5.07857 12.0896 5.02684 11.7131 5.09922C11.3512 5.13468 11.0094 5.28195 10.735 5.52055C10.4606 5.75915 10.2673 6.07725 10.1819 6.43071C10.1024 6.82726 10.0667 7.23135 10.0754 7.6357C10.0483 8.00804 10.1286 8.38036 10.3068 8.70843C10.485 9.03649 10.7536 9.30653 11.0807 9.48648C11.1204 9.51798 11.1533 9.55724 11.1773 9.60188C11.2014 9.64652 11.2161 9.69558 11.2205 9.74609C11.2205 9.98576 11.2205 10.2254 11.2205 10.4651C11.2205 10.7048 11.1672 10.8179 10.9142 10.8712C10.2485 11.0043 9.65598 11.1708 9.03018 11.3372C8.76413 11.3885 8.52599 11.5353 8.36049 11.7498C8.195 11.9643 8.11356 12.2319 8.13144 12.5023H8.15806ZM16.6463 13.4743L20.9004 11.2307L19.1561 10.798C19.0097 10.798 18.9631 10.7048 18.9697 10.565C18.9697 10.2787 18.9697 9.99909 18.9697 9.71947C18.9619 9.65919 18.9738 9.59797 19.0039 9.54511C19.0339 9.49226 19.0804 9.45064 19.1362 9.42655C19.3788 9.29788 19.5892 9.1161 19.7517 8.89477C19.9142 8.67345 20.0247 8.4183 20.0749 8.14833C20.1861 7.56277 20.1634 6.95961 20.0083 6.3841C19.8766 6.01014 19.6366 5.68384 19.3189 5.44672C19.0012 5.20961 18.62 5.0724 18.2241 5.05262C17.8113 5.04035 17.406 5.16402 17.0704 5.40458C16.7349 5.64515 16.4876 5.98929 16.3667 6.3841C16.2897 6.78094 16.2562 7.18499 16.2668 7.58909C16.2408 7.96116 16.3224 8.33285 16.5018 8.65983C16.6812 8.98681 16.9509 9.25529 17.2787 9.43321C17.3185 9.46471 17.3514 9.50397 17.3754 9.54861C17.3994 9.59325 17.4141 9.64235 17.4186 9.69286C17.4186 9.97913 17.4186 10.2654 17.4186 10.5583C17.4244 10.5839 17.4246 10.6105 17.4191 10.6362C17.4136 10.6619 17.4025 10.6861 17.3866 10.707C17.3707 10.728 17.3505 10.7452 17.3272 10.7574C17.304 10.7697 17.2784 10.7767 17.2521 10.778C16.8726 10.8646 16.4998 10.9644 16.0804 11.0709C16.7861 11.77 16.6263 12.6354 16.6396 13.4743H16.6463ZM7.87846 11.0776C7.52561 10.9844 7.17279 10.8912 6.81995 10.8113C6.65351 10.8113 6.56694 10.7114 6.58025 10.5184C6.5969 10.2546 6.5969 9.98995 6.58025 9.72614C6.57196 9.66493 6.5837 9.60268 6.61369 9.54869C6.64369 9.4947 6.69034 9.45184 6.74669 9.42655C6.97823 9.31046 7.18126 9.14464 7.34124 8.94093C7.50121 8.73722 7.61419 8.50064 7.67208 8.24817C7.82214 7.62174 7.80143 6.96654 7.61214 6.35082C7.48606 5.97339 7.2476 5.64356 6.92869 5.40556C6.60977 5.16756 6.22566 5.03279 5.82796 5.01934C5.41067 5.0094 5.00211 5.1398 4.66775 5.38967C4.33338 5.63954 4.09259 5.99442 3.98388 6.39743C3.90688 6.79427 3.87338 7.19832 3.884 7.60242C3.86079 7.97149 3.94299 8.33954 4.12098 8.66369C4.29897 8.98784 4.56541 9.25472 4.88928 9.43321C4.92662 9.45958 4.95827 9.49322 4.98229 9.53211C5.00632 9.57101 5.02224 9.61438 5.0291 9.65958C5.0291 9.96582 5.0291 10.2721 5.0291 10.5716C5.0291 10.6981 4.99578 10.7514 4.86929 10.778C4.64294 10.8246 4.4299 10.8912 4.1636 10.9644C4.82935 11.3439 5.41523 11.6967 6.02772 12.0429C6.08406 12.0682 6.13071 12.1111 6.16071 12.1651C6.19071 12.219 6.20244 12.2813 6.19415 12.3425C6.19415 12.5422 6.19415 12.7419 6.19415 12.9616C6.53368 12.8884 6.85986 12.8018 7.19939 12.7419C7.33919 12.7419 7.35251 12.6488 7.36582 12.5223C7.38879 12.2355 7.44239 11.9521 7.52563 11.6768C7.61914 11.4652 7.73518 11.2643 7.87179 11.0776H7.87846ZM9.29649 7.34277C9.29649 7.17633 9.29649 7.01656 9.29649 6.85013C9.30874 6.33049 9.4755 5.82626 9.77548 5.40178C10.0755 4.9773 10.4951 4.65178 10.9808 4.46676C11.4425 4.26338 11.9538 4.20038 12.451 4.28561C12.9482 4.37085 13.4094 4.60058 13.7769 4.94611C14.8887 5.88481 14.8887 7.73557 14.4959 8.77413C14.3248 9.21348 14.0342 9.59624 13.6571 9.87924C13.5506 9.96579 13.4507 10.099 13.6571 10.1589C14.1364 10.3053 14.6224 10.4052 15.1084 10.525C15.161 10.5373 15.2156 10.5373 15.2682 10.525L16.4932 10.2121C16.5597 10.2121 16.6596 10.1389 16.6596 10.1056C16.6493 10.0246 16.6118 9.94942 16.5531 9.89257C16.3308 9.68807 16.1259 9.46539 15.9406 9.22683C15.6815 8.73599 15.5276 8.19653 15.4887 7.64289C15.4497 7.08925 15.5265 6.53358 15.7143 6.01129C15.7472 5.91415 15.7472 5.80883 15.7143 5.71169C15.3553 5.0431 14.8182 4.487 14.1625 4.10508C13.5068 3.72316 12.758 3.53035 11.9994 3.54803C11.2564 3.53695 10.5242 3.72732 9.88072 4.0989C9.2372 4.47048 8.70633 5.00942 8.34448 5.65846C8.31059 5.71716 8.29276 5.78373 8.29276 5.85151C8.29276 5.91929 8.31059 5.98587 8.34448 6.04456C8.68689 6.9853 8.6679 8.01968 8.29121 8.94723C8.11958 9.33472 7.8514 9.67166 7.51231 9.92585C7.35919 10.0457 7.35253 10.1788 7.51231 10.2188C7.97833 10.3453 8.45099 10.4585 8.91701 10.5716C8.96948 10.5846 9.02431 10.5846 9.07678 10.5716C9.50286 10.4718 9.92896 10.3652 10.3484 10.2521C10.4083 10.2521 10.4948 10.1922 10.5015 10.1522C10.4939 10.0803 10.4636 10.0126 10.4149 9.95913C10.2618 9.79935 10.0887 9.6662 9.9489 9.49977C9.69871 9.2036 9.51129 8.85971 9.39799 8.48892C9.2847 8.11814 9.24789 7.7282 9.28983 7.34277H9.29649ZM7.75196 5.05262C8.19855 4.33362 8.82262 3.74164 9.56414 3.33357C10.3057 2.92549 11.1397 2.71505 11.9861 2.72252C12.8361 2.71176 13.6747 2.91907 14.4218 3.32467C15.1689 3.73026 15.7995 4.32063 16.2535 5.03933C17.1389 4.4801 17.1389 4.48007 17.4851 3.63458C17.5031 3.60887 17.5145 3.57916 17.5184 3.54803C17.5184 3.49477 17.5184 3.41488 17.5184 3.3816C17.1389 2.99547 16.7461 2.60934 16.3533 2.21655C16.0271 2.42959 15.7209 2.64265 15.4013 2.82906C15.3597 2.84865 15.3142 2.8588 15.2682 2.8588C15.2221 2.8588 15.1767 2.84865 15.1351 2.82906C14.5641 2.48842 13.9477 2.23062 13.3043 2.06344C13.2597 2.04531 13.2197 2.01734 13.1874 1.9816C13.1551 1.94587 13.1314 1.90328 13.1178 1.85706C13.038 1.55748 12.978 1.25124 12.9181 0.944998C12.9181 0.81185 12.8382 0.765255 12.6984 0.765255C12.2524 0.765255 11.813 0.765255 11.3669 0.765255C11.2138 0.765255 11.1672 0.825164 11.1406 0.96497C11.0873 1.26455 11.0074 1.55748 10.9542 1.85706C10.9514 1.91395 10.9284 1.968 10.8893 2.00948C10.8503 2.05096 10.7978 2.07717 10.7411 2.08343C10.0998 2.22485 9.48884 2.47961 8.937 2.83572C8.89554 2.86923 8.84383 2.88749 8.79052 2.88749C8.73721 2.88749 8.68554 2.86923 8.64408 2.83572C8.37778 2.65597 8.11147 2.4762 7.83851 2.31643C7.80236 2.29827 7.76247 2.28884 7.72202 2.28884C7.68156 2.28884 7.64167 2.29827 7.60552 2.31643C7.25268 2.6493 6.93975 2.98215 6.58025 3.34165C6.55343 3.37472 6.53515 3.41388 6.52702 3.45567C6.51889 3.49747 6.52117 3.54064 6.53364 3.58135C6.62685 3.85431 6.74668 4.11391 6.86652 4.38021C6.88905 4.43554 6.92874 4.48221 6.97972 4.51337C7.19942 4.69977 7.46569 4.86621 7.7453 5.05262H7.75196ZM2.42603 17.3023L3.82411 11.6967C3.79958 11.6741 3.77277 11.654 3.74418 11.6368C2.87872 11.1308 2.01994 10.6249 1.15448 10.1322C1.02825 10.0851 0.89601 10.056 0.761673 10.0457V14.0401C0.761673 14.859 0.761673 15.6779 0.761673 16.4967C0.761673 16.6032 0.761674 16.7098 0.888165 16.7564C1.40744 16.9494 1.90676 17.1225 2.43936 17.2956L2.42603 17.3023ZM3.95056 17.8083L4.45653 16.0241C4.76277 14.9722 5.06905 13.9137 5.36197 12.8551C5.36197 12.7686 5.36194 12.6088 5.32865 12.5755C5.08233 12.4024 4.81606 12.2626 4.52313 12.0895L3.15837 17.5419L3.95056 17.8083ZM10.4216 22.8546C10.5547 22.8146 10.6346 22.8146 10.6812 22.768C10.9801 22.4969 11.2646 22.2102 11.5334 21.9092C11.5623 21.8708 11.583 21.8269 11.5944 21.7802C11.6057 21.7335 11.6073 21.6849 11.5992 21.6376C11.5911 21.5902 11.5734 21.545 11.5472 21.5047C11.521 21.4644 11.4868 21.4299 11.4468 21.4032C11.3849 21.331 11.297 21.2862 11.2021 21.2787C11.1073 21.2712 11.0133 21.3017 10.9409 21.3633C10.651 21.612 10.3817 21.8837 10.1353 22.1755C10.1037 22.2385 10.0872 22.3081 10.0872 22.3786C10.0872 22.4491 10.1037 22.5186 10.1353 22.5816C10.1886 22.7014 10.3417 22.7747 10.4349 22.8546H10.4216ZM7.71869 17.7683C7.62262 17.7955 7.53075 17.8358 7.44571 17.8881C7.16848 18.1387 6.90411 18.4032 6.65351 18.6804C6.59107 18.758 6.56104 18.8568 6.56973 18.956C6.57841 19.0553 6.6251 19.1473 6.70008 19.213C6.76361 19.2885 6.85406 19.3363 6.95225 19.3462C7.05044 19.3562 7.14866 19.3275 7.22604 19.2662C7.51586 19.0175 7.78521 18.7459 8.03156 18.454C8.0645 18.3866 8.08162 18.3126 8.08162 18.2376C8.08162 18.1626 8.0645 18.0887 8.03156 18.0213C7.99828 17.9148 7.83853 17.8482 7.73201 17.7683H7.71869ZM10.4882 20.5311C10.375 20.398 10.2951 20.2182 10.1686 20.1783C10.0895 20.1601 10.0076 20.1577 9.92757 20.1714C9.84757 20.1851 9.77109 20.2146 9.70258 20.2582C9.46502 20.4639 9.24253 20.6864 9.03684 20.9239C8.98897 20.9652 8.95058 21.0163 8.92425 21.0737C8.89791 21.1311 8.88426 21.1936 8.88426 21.2568C8.88426 21.32 8.89791 21.3824 8.92425 21.4399C8.95058 21.4973 8.98897 21.5484 9.03684 21.5897C9.08188 21.6338 9.1358 21.6679 9.19499 21.6897C9.25417 21.7115 9.31728 21.7204 9.3802 21.716C9.44311 21.7116 9.50439 21.6939 9.55996 21.6641C9.61553 21.6343 9.66413 21.593 9.70258 21.5431C9.90896 21.35 10.1087 21.1569 10.2951 20.9505C10.377 20.8176 10.4461 20.6771 10.5015 20.5311H10.4882ZM9.32977 19.3727C9.24099 19.2402 9.13589 19.1195 9.01689 19.0132C8.94166 18.9694 8.85363 18.9527 8.76756 18.966C8.68149 18.9793 8.60262 19.0219 8.5442 19.0865C8.31785 19.2995 8.09149 19.5192 7.87846 19.7522C7.83529 19.7921 7.80084 19.8405 7.77728 19.8943C7.75372 19.9482 7.74156 20.0063 7.74156 20.0651C7.74156 20.1239 7.75372 20.182 7.77728 20.2359C7.80084 20.2897 7.83529 20.3381 7.87846 20.378C7.91971 20.4259 7.97079 20.4643 8.02823 20.4906C8.08568 20.5169 8.14814 20.5306 8.21133 20.5306C8.27452 20.5306 8.33698 20.5169 8.39442 20.4906C8.45187 20.4643 8.50295 20.4259 8.5442 20.378C8.75058 20.1783 8.95698 19.9719 9.15005 19.7589C9.22595 19.6363 9.29056 19.507 9.3431 19.3727H9.32977ZM12.2923 22.2288L11.7464 22.8945C11.9528 23.0942 12.1459 23.3272 12.4654 23.2074C12.5293 23.1786 12.5861 23.1363 12.6321 23.0834C12.678 23.0305 12.712 22.9684 12.7317 22.9012C12.7916 22.5217 12.4854 22.4218 12.3057 22.2288H12.2923Z" fill="#0049A3"/>
</g>
<defs>
<clipPath id="clip0_1709_19413">
<rect width="23.9933" height="24" fill="white" transform="translate(0.00390625)"/>
</clipPath>
</defs>
</svg>
