<svg width="27" height="27" viewBox="0 0 27 27" fill="none" xmlns="http://www.w3.org/2000/svg">
<path d="M26.84 22.4051C26.6778 21.7086 26.2862 21.0873 25.7286 20.6418C25.1709 20.1963 24.4798 19.9525 23.7671 19.95H22.5852H22.0889C22.0889 18.6927 22.0889 15.7749 22.0889 15.7749V15.5971C22.0725 15.5005 22.0225 15.4128 21.9478 15.3496C21.8732 15.2865 21.7787 15.2518 21.6811 15.2518C21.5835 15.2518 21.4891 15.2865 21.4145 15.3496C21.3399 15.4128 21.2898 15.5005 21.2734 15.5971C21.2661 15.676 21.2661 15.7553 21.2734 15.8342V19.7483C21.2749 19.8926 21.248 20.0358 21.194 20.1695C21.1401 20.3033 21.0603 20.425 20.9592 20.5276C20.858 20.6302 20.7377 20.7116 20.605 20.7672C20.4723 20.8228 20.33 20.8514 20.1862 20.8514C19.906 20.8578 19.6347 20.753 19.4311 20.5598C19.2275 20.3666 19.1081 20.1006 19.0988 19.8195C19.0988 18.3725 19.0988 16.9254 19.0988 15.4784V13.1063C19.4828 13.218 19.8808 13.2739 20.2807 13.2723C20.6517 13.2771 21.0204 13.2127 21.368 13.0826V13.7349C21.3595 13.7958 21.3642 13.8577 21.3817 13.9165C21.3993 13.9754 21.4292 14.0298 21.4696 14.076C21.51 14.1221 21.5598 14.159 21.6157 14.184C21.6716 14.2091 21.7323 14.2218 21.7935 14.2212C21.9944 14.2212 22.1953 14.0788 22.1953 13.6281C22.1953 13.1774 22.1953 13.213 22.1953 12.8809C22.1953 12.8097 22.1953 12.7979 22.2662 12.7623C23.0711 12.3428 23.7203 11.6749 24.1182 10.857C24.5161 10.0391 24.6417 9.11454 24.4763 8.21963C24.3649 7.54739 24.0912 6.91276 23.6792 6.37109C23.2672 5.82941 22.7294 5.39715 22.1126 5.11211C22.0333 5.06686 21.9437 5.04239 21.8525 5.04095C21.6634 5.04095 21.4625 5.15952 21.4507 5.52721V8.33828C21.4507 8.43316 21.4508 8.45688 21.3799 8.4806C21.0253 8.68223 20.6707 8.89569 20.198 9.10918L19.9142 8.94312C20.0047 8.93839 20.0915 8.9048 20.1616 8.8472C20.2318 8.78959 20.2818 8.71104 20.3043 8.62292C20.3107 8.54398 20.3107 8.46464 20.3043 8.38569V1.77923C20.319 1.6005 20.293 1.42073 20.2284 1.25352C20.1639 1.08631 20.0624 0.935968 19.9315 0.813808C19.8007 0.691648 19.6439 0.600877 19.4731 0.548273C19.3022 0.495668 19.1218 0.48262 18.9452 0.510122H6.78386H6.4884C6.19586 0.539624 5.92478 0.677525 5.7281 0.896842C5.53142 1.11616 5.42337 1.40114 5.42484 1.6962V21.7053C5.41353 21.8078 5.41353 21.9112 5.42484 22.0137C5.48955 22.2769 5.64204 22.5098 5.85707 22.6739C6.07211 22.8379 6.33672 22.923 6.6067 22.9151H18.9333C19.0982 22.9318 19.2647 22.9134 19.422 22.8613C19.5793 22.8092 19.724 22.7245 19.8466 22.6126C19.9691 22.5008 20.0669 22.3644 20.1335 22.2121C20.2002 22.0599 20.2342 21.8953 20.2333 21.7291C20.5354 21.7248 20.832 21.6469 21.0975 21.5023C21.3631 21.3577 21.5897 21.1506 21.758 20.8988C21.758 20.8395 21.7579 20.8276 21.8643 20.8276H23.8735C24.2721 20.8594 24.656 20.9921 24.9895 21.2133C25.323 21.4345 25.5951 21.7369 25.7805 22.0924C25.9659 22.4479 26.0584 22.8447 26.0494 23.2458C26.0404 23.6469 25.9301 24.0392 25.729 24.3859C25.5296 24.7556 25.2317 25.0623 24.8686 25.2718C24.5054 25.4813 24.0913 25.5852 23.6726 25.5719H3.04931C2.94326 25.5837 2.83623 25.5837 2.73019 25.5719C2.33755 25.4978 1.98301 25.2883 1.72795 24.9797C1.47289 24.6711 1.33337 24.2828 1.33337 23.8818C1.33337 23.4808 1.47289 23.0925 1.72795 22.7839C1.98301 22.4753 2.33755 22.2658 2.73019 22.1917H3.34477C3.5576 22.1906 3.76608 22.1317 3.94839 22.0215C4.13071 21.9113 4.28001 21.7538 4.38048 21.5655C4.48095 21.3772 4.52892 21.1652 4.51927 20.9518C4.50961 20.7384 4.44272 20.5316 4.32566 20.3532C4.2085 20.1661 4.04379 20.0137 3.84856 19.9116C3.65333 19.8095 3.43454 19.7613 3.21464 19.772H2.03279C1.75627 19.7707 1.49055 19.6648 1.28836 19.4755C1.08659 19.3146 0.942643 19.092 0.878636 18.8415C0.814628 18.591 0.834006 18.3263 0.933747 18.0878C1.02192 17.8453 1.18296 17.6362 1.39469 17.4896C1.60642 17.343 1.85838 17.2661 2.1156 17.2694H4.14835C4.2026 17.2712 4.25672 17.2615 4.30705 17.2411C4.35738 17.2207 4.40282 17.19 4.44064 17.1509C4.47846 17.1118 4.50776 17.0653 4.52662 17.0142C4.54549 16.9631 4.55346 16.9087 4.55014 16.8543C4.5534 16.7493 4.51574 16.6471 4.44511 16.5696C4.37448 16.4921 4.27651 16.4453 4.17201 16.4391H2.10377C1.97798 16.4274 1.85143 16.4274 1.72564 16.4391C1.24449 16.525 0.808482 16.7772 0.493293 17.1521C0.178104 17.5269 0.00352938 18.0007 3.67616e-05 18.4911C-0.00300377 19.0016 0.182663 19.495 0.520993 19.8762C0.859322 20.2573 1.32636 20.4991 1.83197 20.5549H2.43472H3.26196C3.30951 20.5533 3.35694 20.5613 3.40133 20.5785C3.44572 20.5956 3.48616 20.6216 3.52035 20.6548C3.55453 20.688 3.58172 20.7277 3.60027 20.7717C3.61883 20.8156 3.62843 20.8629 3.62841 20.9107C3.62882 21.0055 3.59387 21.097 3.53045 21.1672C3.46702 21.2375 3.37966 21.2813 3.28562 21.2902H2.91918C2.47966 21.2976 2.0496 21.4193 1.67096 21.6434C1.29232 21.8675 0.978156 22.1864 0.759037 22.5688C0.539917 22.9513 0.423387 23.3842 0.42087 23.8253C0.418353 24.2665 0.529868 24.7008 0.74461 25.0857C0.977361 25.5043 1.32201 25.8493 1.73963 26.0819C2.15725 26.3145 2.63125 26.4254 3.10831 26.4022H23.1998H23.8854C24.3434 26.3749 24.7898 26.2472 25.1935 26.0282C25.5971 25.8093 25.9481 25.5042 26.2218 25.1346C26.4955 24.765 26.6853 24.3397 26.7778 23.8887C26.8703 23.4376 26.8632 22.9718 26.7572 22.5237L26.84 22.4051ZM19.9025 9.975C19.9865 10.0309 20.0854 10.0599 20.1862 10.058C20.2828 10.0569 20.3771 10.028 20.458 9.975L21.9471 9.09731C22.0261 9.05055 22.0902 8.98229 22.1321 8.9004C22.1739 8.81852 22.1917 8.72644 22.1834 8.6348V6.26264C22.6012 6.55604 22.9463 6.94167 23.1922 7.38994C23.438 7.8382 23.578 8.33714 23.6016 8.84828C23.6569 9.47106 23.5353 10.0968 23.2509 10.6531C22.9664 11.2094 22.5307 11.6733 21.9943 11.9913C21.4604 12.3417 20.8359 12.5273 20.198 12.5251C19.3984 12.5268 18.6229 12.2498 18.0042 11.7414C17.3856 11.233 16.962 10.5249 16.8059 9.73784C16.6885 9.08615 16.7546 8.41443 16.9968 7.79837C17.239 7.18232 17.6477 6.64638 18.1769 6.25077V6.52354C18.1769 7.21147 18.1769 7.88751 18.1769 8.57544C18.172 8.67696 18.1962 8.77777 18.2465 8.86602C18.2967 8.95427 18.3709 9.02633 18.4606 9.07364L19.9025 9.975ZM6.21659 1.79111C6.21659 1.51831 6.32304 1.41155 6.59487 1.41155H19.0397C19.3233 1.41155 19.4179 1.50645 19.4179 1.79111V2.27737C19.4273 2.57168 19.4034 2.86609 19.347 3.15505H6.21659V1.79111ZM19.347 3.98532H19.4179V8.33828C19.4056 8.43673 19.4056 8.53635 19.4179 8.6348C19.4061 8.67344 19.4061 8.71473 19.4179 8.75338L19.1106 8.58731C18.9806 8.51614 18.9452 8.45683 18.9452 8.27892C18.9452 7.54355 18.9452 6.79632 18.9452 6.06096V5.63399C18.9452 5.13583 18.6616 5.08836 18.5434 5.08836C18.4239 5.09644 18.3073 5.12874 18.2006 5.18327C17.5041 5.53629 16.9172 6.07376 16.5031 6.73746C16.0891 7.40117 15.8638 8.16589 15.8516 8.94884C15.8394 9.73178 16.0408 10.5031 16.434 11.1795C16.8272 11.8558 17.3973 12.4114 18.0824 12.7861C18.177 12.8454 18.1888 12.8691 18.1888 12.9758V18.6927C18.1888 18.6927 18.1888 18.6927 18.1888 18.7639H6.13393V4.05648C6.13946 4.03309 6.13946 4.00872 6.13393 3.98532H19.347ZM18.9925 22.073H6.70119C6.31118 22.073 6.21659 21.99 6.21659 21.5867V20.9344C6.21659 20.4956 6.21659 20.0567 6.21659 19.5941V19.4043V19.5704H12.2205H18.2361C18.2162 19.9855 18.3174 20.3973 18.5274 20.7555C18.7373 21.1136 19.0468 21.4025 19.4179 21.5867C19.4179 21.9426 19.3234 22.073 18.9925 22.073Z" fill="white"/>
<path d="M12.4922 16.8188H12.823C13.466 16.8333 14.0984 16.6518 14.6364 16.2981C15.1745 15.9445 15.593 15.4354 15.8367 14.838C16.0565 14.2994 16.1626 13.7209 16.1484 13.1391C16.1341 12.5573 15.9999 11.9848 15.7541 11.4577C15.4267 10.7071 15.0311 9.9885 14.5722 9.31086C14.0343 8.55928 13.5934 7.74229 13.2602 6.87942C13.2385 6.78643 13.1856 6.70385 13.1102 6.64552C13.0349 6.58718 12.9418 6.55671 12.8466 6.55923C12.7519 6.56002 12.6604 6.59339 12.5872 6.65384C12.5141 6.71429 12.4638 6.79812 12.4448 6.89129C12.2668 7.40192 12.0329 7.89117 11.7476 8.35014L11.1685 9.26345C10.8848 9.69043 10.6011 10.1293 10.3529 10.5681C9.83438 11.4189 9.55284 12.3938 9.53752 13.391C9.49424 14.2345 9.77749 15.0622 10.3281 15.701C10.8787 16.3398 11.6541 16.7403 12.4922 16.8188ZM10.9084 11.256C11.1802 10.7342 11.5111 10.2242 11.8302 9.73791C12.1493 9.25161 12.2794 9.0381 12.4922 8.68228C12.7049 8.32646 12.7166 8.29086 12.823 8.07737C13.1232 8.65259 13.4547 9.21085 13.8158 9.74971C14.1619 10.2522 14.4775 10.775 14.7612 11.3153C15.1466 12.0141 15.3309 12.8067 15.2931 13.6045C15.2798 14.1674 15.0759 14.709 14.7151 15.1402C14.3542 15.5713 13.8578 15.8663 13.3076 15.9766C13.1384 15.9883 12.9686 15.9883 12.7994 15.9766C12.189 15.979 11.5998 15.7511 11.1489 15.3381C10.6979 14.9251 10.4181 14.3572 10.3648 13.7469C10.2796 12.8836 10.4699 12.0155 10.9084 11.2679V11.256Z" fill="white"/>
<path d="M12.8463 20.1279C12.6427 20.129 12.4476 20.2098 12.3027 20.3533C12.2347 20.422 12.1809 20.5034 12.1444 20.593C12.1079 20.6825 12.0894 20.7784 12.0899 20.8752C12.0898 21.0744 12.168 21.2658 12.3073 21.4078C12.4466 21.5498 12.6359 21.6312 12.8344 21.6343C12.9332 21.6343 13.031 21.6146 13.1221 21.5763C13.2132 21.538 13.2959 21.4819 13.3652 21.4112C13.4345 21.3406 13.489 21.2568 13.5258 21.1648C13.5625 21.0728 13.5806 20.9743 13.579 20.8752C13.5806 20.7776 13.5628 20.6807 13.5266 20.5902C13.4905 20.4996 13.4369 20.417 13.3687 20.3475C13.3005 20.2779 13.2191 20.2227 13.1295 20.185C13.0398 20.1474 12.9435 20.1279 12.8463 20.1279ZM12.8463 21.0531C12.8235 21.0532 12.8011 21.0485 12.7802 21.0394C12.7593 21.0303 12.7405 21.017 12.7249 21.0003C12.7094 20.9836 12.6975 20.964 12.6899 20.9424C12.6823 20.9209 12.6792 20.8979 12.6808 20.8752C12.679 20.8513 12.6824 20.8275 12.6907 20.8051C12.699 20.7827 12.712 20.7623 12.7288 20.7454C12.7456 20.7285 12.766 20.7155 12.7883 20.7072C12.8106 20.6989 12.8344 20.6955 12.8581 20.6973C12.9001 20.6819 12.9461 20.6819 12.9881 20.6973C12.9992 20.736 12.9992 20.7771 12.9881 20.8159C12.9972 20.8417 13.0003 20.8693 12.9972 20.8964C12.994 20.9236 12.9846 20.9497 12.9698 20.9727C12.9549 20.9956 12.9349 21.0148 12.9115 21.0288C12.888 21.0427 12.8616 21.051 12.8344 21.0531H12.8463Z" fill="white"/>
<path d="M12.4561 2.69249H13.2125C13.2902 2.696 13.3663 2.66979 13.4256 2.61916C13.4848 2.56854 13.5227 2.49723 13.5316 2.41968C13.5356 2.3421 13.5102 2.26587 13.4606 2.20622C13.435 2.17104 13.4012 2.14285 13.3619 2.12421C13.3227 2.10557 13.2795 2.0971 13.2361 2.09953H12.4324C12.3922 2.09855 12.3522 2.1065 12.3154 2.12291C12.2786 2.13931 12.246 2.16371 12.2198 2.19435C12.1703 2.2587 12.1452 2.33852 12.1488 2.41968C12.1502 2.45813 12.1595 2.49594 12.1759 2.53071C12.1923 2.56549 12.2156 2.59656 12.2443 2.62206C12.273 2.64756 12.3066 2.66692 12.343 2.67902C12.3794 2.69113 12.4179 2.69572 12.4561 2.69249Z" fill="white"/>
<path d="M12.5379 15.0039H12.6325C12.7078 15.0052 12.7811 14.9797 12.8395 14.932C12.8979 14.8842 12.9377 14.8173 12.9516 14.743C12.9639 14.6985 12.9667 14.652 12.96 14.6064C12.9533 14.5607 12.9372 14.5169 12.9127 14.4779C12.8882 14.4388 12.856 14.4053 12.8179 14.3795C12.7798 14.3536 12.7368 14.3361 12.6915 14.3279V14.4702L12.5734 14.2804C12.4593 14.2513 12.3534 14.1967 12.2633 14.1207C12.1733 14.0448 12.1015 13.9493 12.0534 13.8415C11.9565 13.6261 11.9197 13.3884 11.947 13.1537C11.9596 13.1057 11.9618 13.0555 11.9533 13.0066C11.9448 12.9577 11.926 12.9112 11.8979 12.8704C11.8698 12.8295 11.8332 12.7953 11.7907 12.7699C11.7482 12.7446 11.7007 12.7288 11.6515 12.7236C11.6023 12.7184 11.5526 12.7239 11.5058 12.7398C11.4589 12.7557 11.4161 12.7816 11.3801 12.8157C11.3442 12.8498 11.316 12.8913 11.2976 12.9374C11.2792 12.9834 11.2709 13.0329 11.2734 13.0825V13.1892C11.2492 13.5709 11.3397 13.951 11.5333 14.2804C11.64 14.4657 11.7847 14.626 11.9579 14.7508C12.1311 14.8755 12.3288 14.9619 12.5379 15.0039Z" fill="white"/>
</svg>
