<svg version="1.2" xmlns="http://www.w3.org/2000/svg" viewBox="0 0 27 27" width="27" height="27"><style>.a{fill:#fff}</style><filter id="f0"><feFlood flood-color="#0049a3" flood-opacity="1" /><feBlend mode="normal" in2="SourceGraphic"/><feComposite in2="SourceAlpha" operator="in" /></filter><g filter="url(#f0)"><path fill-rule="evenodd" class="a" d="m26.8 22.2q0.1 0.7 0 1.3-0.2 0.7-0.6 1.3-0.4 0.6-1 0.9-0.6 0.3-1.3 0.4h-20.8q-0.7 0-1.4-0.4-0.6-0.3-1-1-0.3-0.5-0.3-1.2 0-0.7 0.4-1.3 0.3-0.6 0.9-0.9 0.5-0.3 1.2-0.4h0.4q0.1 0 0.2-0.1 0.1-0.1 0.1-0.2 0-0.1 0-0.2 0 0-0.1-0.1 0 0-0.1-0.1-0.1 0-0.1 0h-1.5c-0.5 0-0.9-0.3-1.3-0.7-0.3-0.3-0.5-0.8-0.5-1.4 0-0.4 0.2-0.9 0.5-1.3 0.3-0.4 0.7-0.6 1.2-0.7q0.2 0 0.4 0h2.1q0.1 0 0.2 0.1 0.2 0.1 0.2 0.3 0 0.1-0.1 0.2 0 0-0.1 0.1 0 0.1-0.1 0.1-0.1 0-0.2 0h-2q-0.4 0-0.7 0.2-0.3 0.3-0.5 0.6-0.1 0.4 0 0.8 0.1 0.4 0.4 0.6 0.3 0.3 0.7 0.3h1.2q0.4 0 0.6 0.2 0.3 0.1 0.5 0.4 0.2 0.3 0.2 0.6 0 0.3-0.1 0.6-0.2 0.3-0.5 0.5-0.2 0.1-0.6 0.1h-0.6c-0.4 0.1-0.7 0.3-1 0.6-0.2 0.3-0.4 0.7-0.4 1.1 0 0.4 0.2 0.8 0.4 1.1 0.3 0.3 0.6 0.6 1 0.6q0.2 0 0.3 0h20.7q0.6 0 1.2-0.3 0.5-0.3 0.8-0.9 0.3-0.5 0.3-1.1 0.1-0.6-0.2-1.2-0.3-0.5-0.8-0.8-0.5-0.4-1.1-0.4h-2c-0.1 0-0.1 0-0.1 0.1q-0.3 0.3-0.7 0.6-0.4 0.2-0.9 0.2 0 0.2-0.1 0.5-0.1 0.2-0.3 0.4-0.1 0.1-0.4 0.2-0.2 0.1-0.5 0.1h-12.3q-0.4 0-0.7-0.3-0.4-0.2-0.5-0.6 0-0.2 0-0.3v-20q0-0.5 0.3-0.8 0.3-0.4 0.8-0.4h12.4q0.3-0.1 0.6 0 0.2 0.1 0.4 0.3 0.2 0.2 0.3 0.4 0.1 0.3 0.1 0.5v6.6q0 0.2 0 0.3 0 0.1-0.1 0.2-0.1 0.1-0.3 0.1l0.3 0.2c0.5-0.2 0.8-0.5 1.2-0.7 0.1 0 0.1 0 0.1-0.1v-2.8c0-0.4 0.2-0.5 0.4-0.5q0.1 0 0.2 0.1 0.9 0.4 1.6 1.2 0.6 0.9 0.8 1.9c0.1 0.9 0 1.8-0.4 2.6-0.4 0.8-1 1.5-1.8 1.9-0.1 0.1-0.1 0.1-0.1 0.1 0 0.4 0 0.3 0 0.8 0 0.4-0.2 0.6-0.4 0.6q-0.1 0-0.2-0.1-0.1 0-0.1-0.1-0.1 0-0.1-0.1 0-0.1 0-0.2v-0.7q-0.6 0.2-1.1 0.2-0.6 0-1.2-0.1c0 1.4 0 5.2 0 6.7 0 0.3 0.1 0.5 0.3 0.7q0.4 0.3 0.8 0.3 0.2 0 0.4-0.1 0.2-0.1 0.4-0.2 0.1-0.2 0.2-0.4 0.1-0.2 0.1-0.4v-3.9q0-0.1 0-0.2 0-0.2 0.1-0.3 0.1-0.1 0.3-0.1 0.1 0 0.2 0.1 0.2 0.1 0.2 0.3c0 0 0 3 0 4.3h1.7c0.7 0 1.4 0.3 1.9 0.7 0.6 0.4 1 1.1 1.1 1.8zm-8.3-13.5q-0.1-0.1-0.2-0.2 0-0.1 0-0.3c0-0.7 0-1.6 0-2.3-0.6 0.4-1 0.9-1.2 1.5-0.3 0.7-0.3 1.3-0.2 2 0.1 0.8 0.6 1.5 1.2 2 0.6 0.5 1.4 0.8 2.2 0.8 0.6 0 1.2-0.2 1.8-0.6 0.5-0.3 0.9-0.8 1.2-1.3 0.3-0.6 0.4-1.2 0.4-1.8q-0.1-0.8-0.4-1.5-0.4-0.7-1-1.1v2.4q0 0.1-0.1 0.2 0 0.2-0.2 0.2l-1.5 0.9q-0.1 0.1-0.2 0.1-0.2 0-0.3-0.1zm-12.3-5.9h13.2q0.1-0.4 0-0.9v-0.5c0-0.3-0.1-0.3-0.3-0.3h-12.5c-0.3 0-0.4 0.1-0.4 0.3zm0 0.9q0 0 0 0v14.7h12c0 0 0-5.7 0-5.7 0-0.2 0-0.2-0.1-0.2-0.7-0.4-1.2-1-1.6-1.6-0.4-0.7-0.6-1.5-0.6-2.3 0-0.8 0.2-1.5 0.6-2.2 0.4-0.7 1-1.2 1.7-1.5q0.2-0.1 0.4-0.1c0.1 0 0.4 0 0.4 0.5 0 0.7 0 1.9 0 2.7 0 0.1 0 0.2 0.1 0.3l0.3 0.1q0 0 0-0.1 0-0.1 0-0.3v-4.3zm13.3 17.6q-0.5-0.3-0.9-0.9-0.3-0.5-0.3-1.2h-12c0 0.5 0 1.6 0 2.1 0 0.4 0.1 0.4 0.5 0.4h12.3c0.3 0 0.4-0.1 0.4-0.4z"/><path fill-rule="evenodd" class="a" d="m10.3 15.4c-0.5-0.7-0.8-1.5-0.8-2.4 0.1-0.9 0.3-1.9 0.9-2.8q0.3-0.6 0.8-1.3l0.5-0.9q0.5-0.7 0.7-1.5 0.1-0.1 0.2-0.2 0.1-0.1 0.2-0.1 0.2 0 0.3 0.1 0.1 0.1 0.2 0.2 0.5 1.3 1.3 2.5 0.7 1 1.2 2.1 0.3 0.8 0.3 1.7 0.1 0.9-0.3 1.7c-0.2 0.6-0.6 1.1-1.2 1.5-0.5 0.3-1.1 0.5-1.8 0.5h-0.3c-0.8-0.1-1.6-0.5-2.2-1.1zm0.6-4.5c-0.4 0.8-0.6 1.6-0.5 2.5 0 0.6 0.3 1.2 0.7 1.6 0.5 0.4 1.1 0.6 1.7 0.6q0.3 0.1 0.5 0c0.6-0.1 1.1-0.4 1.4-0.8 0.4-0.4 0.6-1 0.6-1.5 0-0.8-0.2-1.6-0.5-2.3q-0.5-0.8-1-1.6-0.5-0.8-1-1.7c-0.1 0.2-0.1 0.3-0.3 0.6-0.2 0.4-0.4 0.6-0.7 1.1-0.3 0.5-0.6 1-0.9 1.5z"/><path fill-rule="evenodd" class="a" d="m13.1 19.8q0.2 0.1 0.3 0.2 0.1 0.1 0.1 0.2 0.1 0.2 0.1 0.3 0 0.2-0.1 0.3 0 0.2-0.1 0.3-0.1 0.1-0.3 0.1-0.1 0.1-0.3 0.1-0.3 0-0.5-0.2-0.2-0.3-0.2-0.6 0-0.1 0-0.2 0.1-0.2 0.2-0.3 0.2-0.2 0.5-0.2 0.2 0 0.3 0zm-0.3 0.9q0 0 0 0zm0 0q0.1 0 0.1 0 0 0 0.1-0.1 0 0 0 0 0-0.1 0-0.1 0-0.1 0-0.1-0.1-0.1-0.1 0-0.1 0-0.1 0 0 0-0.1 0 0 0 0 0.1 0 0 0 0 0 0.1 0 0.1 0 0 0 0.1 0.1 0 0.1 0 0 0 0 0zm0 0q0 0 0 0 0 0 0 0z"/><path class="a" d="m12.5 2.3h0.7q0.1 0.1 0.2 0 0.1-0.1 0.1-0.2 0-0.1 0-0.2-0.1-0.1-0.1-0.1-0.1 0-0.2 0h-0.8q0 0-0.1 0 0 0-0.1 0.1-0.1 0.1-0.1 0.2 0.1 0 0.1 0.1 0 0 0 0.1 0.1 0 0.1 0 0.1 0.1 0.2 0z"/><path class="a" d="m12.5 14.7h0.1q0.1 0 0.2-0.1 0.1-0.1 0.2-0.2 0-0.1 0-0.1-0.1-0.1-0.1-0.2 0 0-0.1-0.1 0 0-0.1 0v0.1l-0.1-0.2q-0.2 0-0.3-0.1-0.2-0.1-0.2-0.3-0.2-0.3-0.2-0.7 0.1-0.1 0.1-0.1-0.1-0.1-0.1-0.2 0 0-0.1-0.1-0.1 0-0.1 0-0.1 0-0.2 0-0.1 0-0.1 0.1-0.1 0-0.1 0.1 0 0.1 0 0.1v0.1q-0.1 0.6 0.2 1.1 0.2 0.3 0.5 0.5 0.2 0.2 0.5 0.3z"/></g></svg>