<svg width="19" height="24" viewBox="0 0 19 24" fill="none" xmlns="http://www.w3.org/2000/svg">
<path d="M11.9439 23.4053C11.3221 23.1223 10.6702 22.8908 10.0333 22.6542L0.429687 19.0066C0.0708132 18.8677 0 18.7648 0 18.3738V5.8255C0 5.44993 0.0656007 5.34693 0.394147 5.20802L11.858 0.464646C12.0182 0.395697 12.1972 0.386436 12.3634 0.438771L18.5654 2.37837C18.9293 2.49156 19 2.5997 19 2.99585C19 9.07702 19 15.1582 19 21.2393C19 21.6303 18.9041 21.7538 18.5301 21.8515L12.5959 23.3179C12.51 23.3179 12.4291 23.3692 12.3432 23.395L11.9439 23.4053ZM0.874428 18.1936C1.0109 18.1216 1.10183 18.0651 1.20293 18.0188C1.92067 17.705 2.63349 17.386 3.35629 17.0876C3.44942 17.0611 3.52988 17.0011 3.58286 16.9187C3.63585 16.8364 3.65767 16.7374 3.64432 16.6399C3.64432 13.0385 3.64432 9.48354 3.64432 5.9079C3.64432 5.51174 3.75042 5.36257 4.1093 5.28539L11.5749 3.69045C11.643 3.66529 11.7161 3.65745 11.7879 3.66759C11.8596 3.67774 11.928 3.70563 11.9868 3.74873C12.0456 3.79184 12.0931 3.84871 12.1253 3.91478C12.1574 3.98085 12.1733 4.05409 12.1714 4.12781C12.1765 4.2255 12.1765 4.32329 12.1714 4.42098V19.7833C12.1714 19.8605 12.1714 19.9325 12.1714 20.0096C12.1714 20.4161 11.954 20.591 11.5546 20.5241L10.7915 20.4008L5.43365 19.5622L3.83139 19.31C3.84019 19.3273 3.85241 19.3426 3.86718 19.355C3.88195 19.3674 3.89892 19.3767 3.91728 19.3821L12.0046 22.469C12.1294 22.5103 12.264 22.5103 12.3888 22.469C14.2237 22.0111 16.0583 21.543 17.8931 21.0954C18.1003 21.0439 18.1559 20.9564 18.1559 20.7454C18.1559 14.973 18.1559 9.20041 18.1559 3.42794C18.1624 3.38299 18.16 3.3373 18.149 3.29329C18.138 3.24927 18.1185 3.20778 18.0918 3.17145C18.065 3.13511 18.0315 3.1046 17.993 3.08152C17.9546 3.05843 17.9121 3.04336 17.8679 3.03705C16.0516 2.48141 14.2386 1.91533 12.4291 1.33911C12.2535 1.26963 12.059 1.26963 11.8834 1.33911C8.30477 2.82768 4.72264 4.3113 1.13728 5.78957C1.04665 5.81389 0.968218 5.87155 0.916879 5.95135C0.86554 6.03116 0.845031 6.12739 0.859373 6.22166C0.859373 10.1043 0.859373 13.9886 0.859373 17.8746L0.874428 18.1936ZM2.89625 18.2399V18.2914L4.59451 18.5539L11.0391 19.5828C11.3221 19.6291 11.3222 19.624 11.3222 19.3256V4.97665C11.3222 4.64739 11.3222 4.65253 10.9937 4.71941L4.84724 6.03652C4.50859 6.10854 4.50863 6.10846 4.50863 6.4686C4.50863 10.0082 4.50863 13.5495 4.50863 17.0926C4.52194 17.2298 4.48863 17.3675 4.4141 17.4827C4.33957 17.5979 4.22832 17.6836 4.09918 17.7254C3.6847 17.8746 3.28556 18.0598 2.8812 18.2399H2.89625Z" fill="white"/>
</svg>
