<svg width="23" height="23" viewBox="0 0 23 23" fill="none" xmlns="http://www.w3.org/2000/svg">
<path d="M21.0128 0H13.3071C12.9004 0.181957 12.5645 0.492883 12.351 0.885009C12.1375 1.27713 12.0582 1.72877 12.1252 2.17052C12.1252 5.15944 12.1252 8.10091 12.1252 11.1254C12.0898 11.3767 12.1129 11.6328 12.193 11.8735C12.2732 12.1143 12.4079 12.333 12.5868 12.5125C12.7656 12.6919 12.9835 12.8272 13.2234 12.9076C13.4633 12.988 13.7186 13.0113 13.969 12.9757H17.6209H20.1737H20.2919C20.7096 13.0234 21.1315 12.9336 21.4939 12.7196C21.8563 12.5057 22.1396 12.1793 22.301 11.7896V1.28096C22.2022 0.980585 22.0341 0.707932 21.8102 0.485296C21.5863 0.262661 21.313 0.0963644 21.0128 0ZM21.1073 11.505C20.9891 11.6947 20.7882 11.8133 20.2801 11.8133H20.1974H17.6091H13.9217C13.3544 11.8133 13.2598 11.7303 13.2598 11.1491C13.2598 10.2714 13.2598 9.39373 13.2598 8.52789C13.2598 6.4404 13.2598 4.2936 13.2598 2.18238C13.2598 1.56562 13.3662 1.34027 13.5671 1.2098H20.7528C20.8958 1.28193 21.0119 1.39838 21.0838 1.5419L21.1073 11.505Z" fill="white"/>
<path d="M8.4145 9.26316H1.80798C1.56926 9.2391 1.3282 9.2686 1.10222 9.3495C0.876242 9.4304 0.670993 9.5607 0.501339 9.73096C0.331685 9.90122 0.201806 10.1072 0.12119 10.334C0.0405735 10.5608 0.0112383 10.8027 0.0352051 11.0423C0.0352051 14.2051 0.0352051 17.368 0.0352051 20.5309C0.0172994 20.767 0.0506867 21.0042 0.13302 21.2262C0.215352 21.4481 0.34474 21.6495 0.512159 21.8164C0.679578 21.9833 0.88096 22.1117 1.10265 22.1928C1.32435 22.274 1.56099 22.3058 1.79615 22.2863H8.46182C8.69664 22.3045 8.93253 22.2711 9.15316 22.1884C9.37379 22.1057 9.57391 21.9757 9.73933 21.8074C9.90474 21.6391 10.0315 21.4367 10.111 21.2142C10.1904 20.9917 10.2204 20.7544 10.1991 20.519C10.1991 18.9534 10.1991 17.3878 10.1991 15.7747C10.1991 14.1617 10.1991 12.6316 10.1991 11.0304C10.2215 10.7907 10.1905 10.5489 10.1084 10.3227C10.0262 10.0964 9.89511 9.89133 9.72432 9.7222C9.55353 9.55307 9.34736 9.42416 9.12084 9.34477C8.89433 9.26538 8.65307 9.2375 8.4145 9.26316ZM9.01726 20.4834C9.01726 20.9223 8.88728 21.0646 8.44999 21.0646H1.79615C1.31159 21.0646 1.21706 20.863 1.21706 20.4953C1.21706 17.3403 1.21706 14.1972 1.21706 11.0067C1.21706 10.5323 1.33524 10.4255 1.80798 10.4137H8.4145C8.88724 10.4137 9.01726 10.4967 9.01726 11.0541V17.2099C9.01726 18.3129 9.02908 19.4041 9.01726 20.5072V20.4834Z" fill="white"/>
<path d="M20.2684 14.8379H20.1858H17.6566H13.8274C13.5918 14.8162 13.3542 14.8467 13.1316 14.927C12.9089 15.0074 12.7065 15.1358 12.5386 15.3032C12.3708 15.4705 12.2415 15.6727 12.1599 15.8956C12.0783 16.1185 12.0465 16.3566 12.0664 16.5933V20.4124C12.0248 20.6679 12.0437 20.9297 12.1217 21.1765C12.1997 21.4233 12.3344 21.6482 12.5151 21.833C12.6958 22.0178 12.9173 22.1573 13.1617 22.2402C13.4061 22.3231 13.6665 22.3471 13.9219 22.3102H17.4674H19.9848H20.103C20.5303 22.3604 20.9626 22.2725 21.3367 22.0592C21.7109 21.8458 22.0073 21.5183 22.183 21.1241V16.1307C22.06 15.7275 21.8026 15.3791 21.454 15.1437C21.1055 14.9083 20.6869 14.8003 20.2684 14.8379ZM21.0603 20.7683C20.9303 20.958 20.7176 21.0766 20.1621 21.0766H20.0675H17.5266H13.981C13.4019 21.0766 13.2955 20.9699 13.2955 20.4006V16.617C13.2955 16.1781 13.4373 16.0358 13.8746 16.0358H17.7038H20.2566C20.7766 16.0358 20.9421 16.1544 21.0485 16.3798L21.0603 20.7683Z" fill="white"/>
<path d="M8.91071 0H1.31133C0.88411 0.129298 0.518144 0.409705 0.281253 0.789213C0.044362 1.16872 -0.0473363 1.62157 0.0231556 2.06377C0.0231556 3.24985 0.0231556 4.43593 0.0231556 5.62201C-0.00240941 5.86143 0.0254163 6.10356 0.104523 6.33089C0.183631 6.55822 0.312109 6.76506 0.480633 6.93645C0.649157 7.10785 0.853474 7.23952 1.07892 7.32193C1.30436 7.40434 1.54522 7.43545 1.7841 7.41298H8.43794C8.6731 7.43491 8.91017 7.40457 9.13231 7.3241C9.35445 7.24364 9.55624 7.11504 9.72324 6.94745C9.89023 6.77985 10.0183 6.57739 10.0985 6.35445C10.1787 6.13151 10.2089 5.89358 10.1871 5.65759C10.1871 4.47151 10.1871 3.28543 10.1871 2.09936C10.2702 1.65301 10.1858 1.19157 9.95017 0.803952C9.7145 0.416331 9.34425 0.129956 8.91071 0ZM9.01704 5.65759C9.01704 6.09644 8.88706 6.22691 8.44977 6.22691H1.79593C1.37047 6.22691 1.21684 6.14388 1.21684 5.61015C1.21684 5.07641 1.21684 4.82733 1.21684 4.42407C1.21684 3.6294 1.21684 2.811 1.21684 2.05191C1.21684 1.50632 1.33507 1.32841 1.55962 1.22166H8.65074C8.89893 1.34027 9.01702 1.51818 8.99338 2.04005C8.99338 2.85845 8.99338 3.6887 8.99338 4.49523L9.01704 5.65759Z" fill="white"/>
</svg>
