<svg width="20" height="24" viewBox="0 0 20 24" fill="none" xmlns="http://www.w3.org/2000/svg">
<g clip-path="url(#clip0_72_5836)">
<path d="M19.4572 17.0319C19.177 17.6272 18.6996 17.8379 18.0561 17.8369C12.5125 17.8272 6.96828 17.825 1.42343 17.8301C0.420365 17.8301 0.000976562 17.403 0.000976562 16.3884C0.000976562 13.3251 0.000976562 10.2618 0.000976562 7.19846C0.000976562 6.16351 0.419404 5.74895 1.46498 5.74895C6.99373 5.74895 12.5221 5.7467 18.0503 5.74219C18.6938 5.74219 19.1702 5.95478 19.4572 6.54232V17.0319ZM9.69722 16.9991C12.4532 16.9991 15.2096 16.9991 17.9662 16.9991C18.602 16.9991 18.661 16.9421 18.661 16.3178C18.661 13.3015 18.661 10.2859 18.661 7.27094C18.661 6.65924 18.5827 6.57904 17.9672 6.57904C12.4861 6.57904 7.00565 6.57904 1.52586 6.57904C0.908372 6.57904 0.83107 6.65828 0.830103 7.26997C0.830103 10.2862 0.830103 13.3019 0.830103 16.3168C0.830103 16.9421 0.890011 16.9991 1.5249 16.9991C4.24868 17.0029 6.97247 17.0042 9.69625 17.0029L9.69722 16.9991Z" fill="#0049A3"/>
<path d="M15.2257 0C16.019 0.331454 16.3534 0.926721 16.3244 1.78386C16.2916 2.72894 16.3109 3.67692 16.3196 4.62297C16.3196 4.9235 16.2616 5.11483 15.9031 5.11387C15.5446 5.1129 15.4808 4.9206 15.4837 4.62297C15.4914 3.65663 15.4837 2.69802 15.4837 1.73555C15.4837 1.03302 15.2595 0.799163 14.5753 0.798197C11.3542 0.798197 8.13307 0.798197 4.91194 0.798197C4.22874 0.798197 4.00649 1.03302 4.00456 1.73555C4.00456 2.70189 3.9978 3.6605 4.00456 4.62297C4.00456 4.9235 3.94271 5.11387 3.58516 5.11387C3.22762 5.11387 3.16578 4.9206 3.16867 4.62297C3.17737 3.67692 3.19669 2.72894 3.16384 1.78386C3.13485 0.926721 3.4692 0.334353 4.2616 0H15.2257Z" fill="#0049A3"/>
<path d="M9.69324 23.9982C8.09201 23.9982 6.49176 23.9982 4.89054 23.9982C3.76185 23.9982 3.17625 23.4068 3.17432 22.2762C3.17432 21.1862 3.17432 20.0971 3.17432 19.0071C3.17432 18.7017 3.20139 18.4727 3.59759 18.4746C3.99378 18.4766 4.01118 18.7239 4.00925 19.0187C4.00409 20.1087 4.00409 21.1984 4.00925 22.2878C4.00925 22.9227 4.24793 23.1652 4.87895 23.1662C8.12907 23.1701 11.3792 23.1701 14.6293 23.1662C15.2516 23.1662 15.4864 22.9179 15.4893 22.281C15.4951 21.191 15.4951 20.1013 15.4893 19.0119C15.4893 18.7104 15.5087 18.4737 15.9087 18.4746C16.3088 18.4756 16.3262 18.7143 16.3243 19.0138C16.3185 20.1522 16.3301 21.2896 16.3194 22.427C16.3107 23.3672 15.6884 23.9895 14.7424 23.9953C13.0551 24.005 11.3747 23.9982 9.69324 23.9982Z" fill="#0049A3"/>
<path d="M9.72131 22.5049C9.41787 22.5049 9.11252 22.5223 8.81102 22.4991C8.75809 22.4991 8.70568 22.4885 8.65694 22.4678C8.6082 22.4472 8.56414 22.4169 8.52735 22.3789C8.49055 22.3408 8.46179 22.2957 8.44279 22.2463C8.42379 22.1969 8.41493 22.1442 8.41675 22.0913C8.41408 22.0383 8.42238 21.9853 8.44109 21.9356C8.45981 21.8859 8.48856 21.8406 8.52555 21.8025C8.56255 21.7645 8.60698 21.7344 8.65609 21.7143C8.70521 21.6941 8.75795 21.6843 8.81102 21.6854C9.43334 21.6693 10.056 21.6693 10.679 21.6854C10.732 21.6843 10.7846 21.6941 10.8336 21.7142C10.8827 21.7343 10.9271 21.7642 10.9641 21.8022C11.001 21.8402 11.0298 21.8854 11.0486 21.9349C11.0674 21.9845 11.0757 22.0374 11.0732 22.0903C11.075 22.1433 11.0662 22.196 11.0472 22.2455C11.0282 22.295 10.9995 22.3401 10.9627 22.3782C10.9259 22.4164 10.8818 22.4467 10.8331 22.4675C10.7843 22.4882 10.7319 22.499 10.679 22.4991C10.361 22.5213 10.0402 22.5039 9.72131 22.5049Z" fill="#0049A3"/>
<path d="M13.4726 7.27835C14.6709 7.27423 15.8219 7.74545 16.6733 8.58869C17.5247 9.43193 18.007 10.5784 18.0144 11.7767C18.0231 14.2727 15.9726 16.3271 13.4591 16.3416C11.0123 16.3561 8.94531 14.2727 8.94531 11.7912C8.94787 10.5926 9.42615 9.444 10.275 8.59782C11.1239 7.75164 12.274 7.27706 13.4726 7.27835ZM17.1447 11.7689C17.1475 11.2832 17.0531 10.8019 16.8671 10.3532C16.681 9.90456 16.407 9.49766 16.0614 9.15647C15.7157 8.81528 15.3052 8.54671 14.8542 8.36655C14.4031 8.1864 13.9206 8.09831 13.4349 8.10747C12.9479 8.10922 12.466 8.20748 12.0171 8.39656C11.5682 8.58564 11.1612 8.8618 10.8197 9.20908C10.4782 9.55637 10.2089 9.96788 10.0273 10.4199C9.84574 10.8718 9.75555 11.3553 9.76194 11.8423C9.76832 12.3294 9.87116 12.8103 10.0645 13.2574C10.2578 13.7044 10.5379 14.1088 10.8884 14.447C11.2389 14.7852 11.6529 15.0506 12.1066 15.2278C12.5603 15.4051 13.0446 15.4907 13.5316 15.4797C15.5735 15.4623 17.164 13.8243 17.1495 11.7689H17.1447Z" fill="#0049A3"/>
<path d="M6.7595 14.7271C6.88705 14.7271 7.01558 14.7271 7.14603 14.7319C7.43593 14.7474 7.71908 14.8285 7.70845 15.1803C7.69878 15.5011 7.43302 15.5881 7.15858 15.5939C6.61453 15.6035 6.0705 15.5997 5.52645 15.6007H2.64675C2.51919 15.6007 2.39067 15.6007 2.26021 15.5958C1.97031 15.5804 1.68815 15.504 1.69878 15.1474C1.70747 14.8227 1.97514 14.7377 2.24765 14.7348C3.06421 14.7261 6.07146 14.7271 6.7595 14.7271Z" fill="#0049A3"/>
<path d="M3.24686 12.6366C3.56575 12.6366 3.88466 12.6269 4.20355 12.6366C4.48379 12.6482 4.72633 12.7554 4.72053 13.0792C4.7157 13.3691 4.48669 13.485 4.22481 13.4889C3.55417 13.4986 2.88449 13.5005 2.21385 13.4889C1.93651 13.4889 1.68623 13.3749 1.69686 13.0492C1.70749 12.7236 1.96647 12.6414 2.24091 12.6337C2.57623 12.624 2.91154 12.6337 3.24686 12.6337V12.6366Z" fill="#0049A3"/>
<path d="M5.5235 7.49609H2.50562C2.2917 7.49635 2.0866 7.58144 1.93534 7.73271C1.78407 7.88397 1.69899 8.08906 1.69873 8.30298V10.3323C1.69899 10.5462 1.78407 10.7513 1.93534 10.9026C2.0866 11.0538 2.2917 11.1389 2.50562 11.1392H5.5235C5.73742 11.1389 5.9425 11.0538 6.09377 10.9026C6.24504 10.7513 6.33014 10.5462 6.3304 10.3323V8.30298C6.33014 8.08906 6.24504 7.88397 6.09377 7.73271C5.9425 7.58144 5.73742 7.49635 5.5235 7.49609ZM5.84723 8.30298V9.02581H4.25565V7.9783H5.5235C5.60928 7.97881 5.69137 8.01324 5.75185 8.07407C5.81232 8.13491 5.84626 8.21721 5.84626 8.30298H5.84723ZM2.50562 7.9783H3.77345V9.02581H2.1819V8.30298C2.1819 8.21721 2.21584 8.13491 2.27632 8.07407C2.33679 8.01324 2.41888 7.97881 2.50465 7.9783H2.50562ZM2.1819 10.3294V9.50801H3.77345V10.6541H2.50562C2.41951 10.6541 2.33692 10.6199 2.27603 10.559C2.21514 10.4981 2.18093 10.4155 2.18093 10.3294H2.1819ZM5.5235 10.6541H4.25565V9.50801H5.84723V10.3294C5.84723 10.4153 5.81314 10.4978 5.75246 10.5586C5.69178 10.6195 5.60944 10.6538 5.5235 10.6541Z" fill="#0049A3"/>
<path d="M13.2948 14.0815V13.7249C12.6686 13.6795 12.1758 13.3703 12.0386 12.8978C12.0241 12.8511 12.0162 12.8026 12.0154 12.7538C12.0137 12.7167 12.02 12.6797 12.0338 12.6452C12.0476 12.6107 12.0687 12.5796 12.0955 12.5539C12.1223 12.5282 12.1542 12.5085 12.1893 12.4961C12.2243 12.4838 12.2616 12.479 12.2985 12.4822C12.3642 12.4825 12.428 12.5041 12.4804 12.5439C12.5327 12.5836 12.5706 12.6393 12.5885 12.7026C12.6851 12.9683 12.8832 13.1664 13.2881 13.2089V11.9749L13.1711 11.9469C12.4522 11.7797 12.0647 11.4569 12.0647 10.8839C12.0647 10.2471 12.574 9.8306 13.2881 9.77745V9.41797C13.2864 9.39592 13.2892 9.37376 13.2965 9.35287C13.3037 9.33198 13.3152 9.31282 13.3303 9.29659C13.3453 9.28036 13.3635 9.2674 13.3837 9.25855C13.404 9.24969 13.4259 9.24512 13.448 9.24512C13.4701 9.24512 13.492 9.24969 13.5123 9.25855C13.5325 9.2674 13.5507 9.28036 13.5657 9.29659C13.5808 9.31282 13.5923 9.33198 13.5995 9.35287C13.6068 9.37376 13.6096 9.39592 13.6079 9.41797V9.77745C14.2109 9.82576 14.6709 10.1456 14.8023 10.6124C14.816 10.6591 14.8225 10.7077 14.8216 10.7563C14.8222 10.792 14.8152 10.8275 14.8012 10.8603C14.7872 10.8932 14.7665 10.9227 14.7403 10.947C14.7142 10.9713 14.6832 10.9899 14.6495 11.0015C14.6157 11.0131 14.5799 11.0175 14.5443 11.0144C14.4776 11.0146 14.4126 10.9936 14.3587 10.9543C14.3048 10.915 14.2649 10.8595 14.2447 10.796C14.1985 10.6595 14.1138 10.5394 14.0008 10.45C13.8878 10.3607 13.7513 10.306 13.6079 10.2925V11.4734L13.7432 11.5072C14.4883 11.6792 14.8961 11.9904 14.8961 12.5885C14.8961 13.2853 14.3298 13.6757 13.6079 13.7269V14.0835C13.6096 14.1055 13.6068 14.1277 13.5995 14.1486C13.5923 14.1694 13.5808 14.1886 13.5657 14.2048C13.5507 14.2211 13.5325 14.234 13.5123 14.2429C13.492 14.2517 13.4701 14.2563 13.448 14.2563C13.4259 14.2563 13.404 14.2517 13.3837 14.2429C13.3635 14.234 13.3453 14.2211 13.3303 14.2048C13.3152 14.1886 13.3037 14.1694 13.2965 14.1486C13.2892 14.1277 13.2864 14.1055 13.2881 14.0835L13.2948 14.0815ZM13.2948 11.397V10.2906C12.887 10.3389 12.6715 10.5737 12.6715 10.8337C12.6715 11.0936 12.8416 11.2811 13.2948 11.397ZM13.6147 12.0512V13.2109C14.0979 13.1741 14.3018 12.9451 14.3018 12.6417C14.3018 12.3382 14.1404 12.1759 13.6147 12.0512Z" fill="#0049A3"/>
</g>
<defs>
<clipPath id="clip0_72_5836">
<rect width="19.4572" height="24" fill="white"/>
</clipPath>
</defs>
</svg>
