<svg width="27" height="24" viewBox="0 0 27 24" fill="none" xmlns="http://www.w3.org/2000/svg">
<path d="M13.1791 0.744006C16.7247 0.744006 20.2702 0.744006 23.8158 0.744006C24.1662 0.72346 24.517 0.777397 24.8453 0.902292C25.1735 1.02719 25.4718 1.22025 25.7206 1.4688C25.9694 1.71735 26.1631 2.01579 26.289 2.34464C26.4149 2.67349 26.4702 3.02531 26.4513 3.3771V10.802C26.4513 12.8776 26.4513 14.9532 26.4513 17.0289C26.4967 17.6042 26.3376 18.1772 26.0023 18.6461C25.667 19.115 25.1772 19.4497 24.6195 19.5908C24.2863 19.6679 23.9449 19.7038 23.603 19.6975H16.642C16.4987 19.688 16.3554 19.7185 16.2282 19.7854C16.101 19.8524 15.9946 19.9533 15.9209 20.0771C15.2473 21.1564 14.5382 22.212 13.8409 23.2676C13.4627 23.8488 13.0018 23.8488 12.659 23.2676C11.9617 22.212 11.2646 21.1446 10.5791 20.0771C10.5126 19.9584 10.414 19.8609 10.2949 19.7959C10.1757 19.7308 10.0407 19.7009 9.90535 19.7094H2.93239C2.53355 19.7218 2.13513 19.6739 1.75054 19.5671C1.21849 19.3947 0.760535 19.0462 0.451397 18.5787C0.14226 18.1112 0.000298471 17.5523 0.0487421 16.9933C0.0487421 13.4113 0.0487421 9.8531 0.0487421 6.31859C-0.0162474 5.18089 -0.0162474 4.04038 0.0487421 2.90268C0.118414 2.32408 0.397896 1.79148 0.833855 1.40647C1.26981 1.02145 1.83174 0.810958 2.41245 0.815168L13.1791 0.744006ZM13.1791 1.93008H2.64876C1.60873 1.93008 1.18327 2.35708 1.18327 3.38897V16.8984C1.18327 17.9659 1.63241 18.4284 2.69608 18.4284H10.2953C10.4784 18.4165 10.6612 18.457 10.8223 18.5452C10.9834 18.6333 11.1162 18.7656 11.2054 18.9266C11.7845 19.8399 12.3872 20.7294 12.9781 21.6427C13.1554 21.9274 13.25 21.8799 13.4036 21.6427C13.9709 20.7413 14.5855 19.8755 15.1292 18.974C15.2265 18.7957 15.373 18.6493 15.5512 18.5525C15.7294 18.4557 15.9317 18.4126 16.1337 18.4284H23.6976C23.9026 18.4637 24.1129 18.4491 24.3111 18.3859C24.5092 18.3226 24.6895 18.2126 24.8365 18.0651C24.9835 17.9175 25.093 17.7367 25.156 17.5378C25.2191 17.3389 25.2337 17.1278 25.1986 16.9221V3.44826C25.1986 2.39265 24.7731 1.96566 23.7095 1.96566L13.1791 1.93008Z" fill="white"/>
<path d="M4.94248 14.4908C5.03703 13.8978 5.15514 13.1268 5.30878 12.3677C5.36071 12.2058 5.3625 12.0318 5.31397 11.8688C5.26545 11.7057 5.16892 11.5613 5.03698 11.4544C4.49333 10.9681 4.00883 10.4344 3.477 9.93625C3.31389 9.79165 3.19671 9.60217 3.13998 9.39132C3.08325 9.18046 3.08945 8.95751 3.15787 8.75017C3.22478 8.53387 3.35773 8.34419 3.53802 8.20795C3.71831 8.07172 3.93678 7.99585 4.16242 7.9911L6.43163 7.659C6.53654 7.65352 6.63772 7.61828 6.72348 7.5574C6.80925 7.49652 6.87599 7.41248 6.91608 7.31503C7.23518 6.63896 7.56618 5.98662 7.88528 5.31055C7.97776 5.10008 8.12912 4.92114 8.32112 4.79552C8.51312 4.66989 8.73738 4.60303 8.96658 4.60303C9.19578 4.60303 9.42004 4.66989 9.61204 4.79552C9.80404 4.92114 9.95555 5.10008 10.048 5.31055C10.3671 5.97476 10.71 6.62709 11.0291 7.30316C11.072 7.4053 11.1421 7.49364 11.2317 7.55848C11.3214 7.62333 11.427 7.66222 11.5372 7.67087L13.7709 7.97923C13.9865 7.99709 14.1931 8.074 14.3682 8.20158C14.5432 8.32916 14.68 8.50252 14.7636 8.70275C14.8505 8.92104 14.8665 9.16129 14.8092 9.38922C14.7519 9.61714 14.6242 9.82106 14.4445 9.97183L12.8253 11.5493C12.7288 11.6271 12.6564 11.7309 12.6166 11.8486C12.5768 11.9662 12.5714 12.0929 12.6009 12.2135C12.719 12.8659 12.8255 13.5182 12.9436 14.1706C12.9436 14.3247 12.9436 14.4789 12.9436 14.645C12.9613 14.84 12.9264 15.0361 12.8425 15.2129C12.7587 15.3897 12.6289 15.5406 12.467 15.6498C12.305 15.759 12.1169 15.8224 11.9221 15.8334C11.7273 15.8444 11.533 15.8027 11.3599 15.7125C10.6507 15.3685 9.95357 14.9889 9.25627 14.6094C9.15313 14.54 9.03173 14.503 8.90757 14.503C8.78342 14.503 8.66202 14.54 8.55888 14.6094C7.86158 14.9889 7.16425 15.3685 6.45514 15.7125C5.74603 16.0564 4.93066 15.5583 4.94248 14.4908ZM4.51703 9.15347C5.08432 9.74651 5.62787 10.3395 6.18334 10.8851C6.35184 11.0269 6.47771 11.2129 6.54661 11.4225C6.61551 11.632 6.6248 11.8567 6.57344 12.0712C6.45526 12.7829 6.337 13.5064 6.207 14.218C6.207 14.301 6.207 14.3841 6.207 14.4434C6.207 14.5027 6.38423 14.4434 6.45514 14.4434L8.27524 13.4826C8.48558 13.355 8.72668 13.2875 8.9725 13.2875C9.21832 13.2875 9.45955 13.355 9.66989 13.4826C10.2372 13.8029 10.8517 14.1112 11.4072 14.4196C11.5017 14.4196 11.5963 14.562 11.6908 14.4789C11.7854 14.3959 11.6908 14.301 11.6908 14.218C11.5726 13.5657 11.4662 12.9133 11.348 12.261C11.2904 12.0152 11.3007 11.7583 11.3777 11.518C11.4548 11.2776 11.5957 11.0629 11.7853 10.897C12.2817 10.4581 12.7309 9.98371 13.2036 9.50928C13.2745 9.43811 13.4046 9.37881 13.3691 9.21276C12.6245 9.10601 11.8799 8.97556 11.1354 8.89253C10.8972 8.87981 10.6673 8.80097 10.4712 8.66486C10.275 8.52874 10.1203 8.34066 10.0244 8.12155C9.8589 7.76573 9.68169 7.40991 9.50442 7.05409C9.34372 6.67398 9.14995 6.30885 8.92532 5.96292C8.55894 6.72201 8.19253 7.42178 7.84979 8.13342C7.75822 8.34754 7.6092 8.5319 7.41929 8.66594C7.22938 8.79998 7.00602 8.87845 6.77427 8.89253C6.04152 8.91625 5.34433 9.03486 4.51703 9.15347Z" fill="white"/>
<path d="M19.8443 12.2135H17.3506C17.1793 12.2172 17.0083 12.1972 16.8424 12.1542C16.7037 12.1229 16.5827 12.0383 16.5054 11.9186C16.4281 11.7988 16.4006 11.6535 16.4288 11.5137C16.4399 11.3801 16.4986 11.2551 16.5941 11.1614C16.6896 11.0677 16.8154 11.0118 16.9487 11.0037H22.3972C22.5151 10.9916 22.6338 10.9916 22.7517 11.0037C22.8846 11.0227 23.0068 11.0876 23.0973 11.1871C23.1879 11.2866 23.2412 11.4147 23.2481 11.5493C23.2637 11.6832 23.2304 11.8184 23.1543 11.9296C23.0782 12.0408 22.9647 12.1206 22.8345 12.1542C22.6698 12.2037 22.4978 12.2237 22.3262 12.2135H19.8443Z" fill="white"/>
<path d="M19.8215 9.3666H17.3278C17.1751 9.39061 17.0195 9.39061 16.8668 9.3666C16.7977 9.35511 16.7315 9.32999 16.6721 9.29273C16.6126 9.25546 16.5611 9.20678 16.5204 9.14946C16.4798 9.09214 16.4508 9.02733 16.4352 8.95874C16.4196 8.89016 16.4177 8.81915 16.4295 8.74982C16.4351 8.60893 16.4926 8.47515 16.5908 8.37435C16.6891 8.27356 16.8211 8.21293 16.9613 8.20423C17.1463 8.19226 17.3319 8.19226 17.5169 8.20423H22.3388C22.484 8.18648 22.6309 8.18648 22.7761 8.20423C22.9076 8.22654 23.0271 8.29467 23.1135 8.39662C23.2 8.49857 23.2479 8.62782 23.2489 8.76169C23.2585 8.89493 23.2212 9.02736 23.1434 9.13578C23.0656 9.24419 22.9524 9.32169 22.8234 9.35473C22.6586 9.40354 22.4867 9.42358 22.3151 9.41402L19.8215 9.3666Z" fill="white"/>
<path d="M19.8214 15.0718H17.375C17.1782 15.0867 16.9805 15.0583 16.7957 14.9888C16.6775 14.9453 16.5766 14.8643 16.5084 14.758C16.4401 14.6517 16.4083 14.526 16.4176 14.4C16.427 14.2739 16.4771 14.1544 16.5603 14.0594C16.6435 13.9645 16.7552 13.8993 16.8786 13.8739C16.9331 13.8624 16.9895 13.8624 17.044 13.8739H22.6105C22.7709 13.8671 22.9278 13.9224 23.0488 14.0283C23.1698 14.1343 23.2456 14.2828 23.2606 14.4432C23.2639 14.5267 23.2499 14.6099 23.2196 14.6877C23.1893 14.7655 23.1433 14.8361 23.0844 14.8951C23.0256 14.9542 22.9552 15.0004 22.8777 15.0308C22.8002 15.0612 22.7173 15.0752 22.6342 15.0718C21.9605 15.0718 21.2869 15.0718 20.6133 15.0718H19.8214Z" fill="white"/>
<path d="M18.6403 6.50837H17.163C16.6548 6.50837 16.3711 6.25928 16.3711 5.86788C16.3711 5.47647 16.6666 5.27484 17.1512 5.27484H20.1531C20.2791 5.26646 20.4048 5.2958 20.5142 5.35914C20.6236 5.42248 20.7118 5.517 20.7677 5.63068C20.8261 5.71845 20.8573 5.82164 20.8573 5.9272C20.8573 6.03276 20.8261 6.13595 20.7677 6.22372C20.6967 6.32145 20.6016 6.39901 20.4919 6.4489C20.3821 6.49879 20.2613 6.51929 20.1413 6.50837H18.6403Z" fill="white"/>
</svg>
