<?xml version="1.0" encoding="utf-8"?>
<!-- Generator: Adobe Illustrator 26.0.1, SVG Export Plug-In . SVG Version: 6.00 Build 0)  -->
<svg version="1.1" id="Layer_1" xmlns="http://www.w3.org/2000/svg" xmlns:xlink="http://www.w3.org/1999/xlink" x="0px" y="0px"
	 viewBox="0 0 36.15 36.15" style="enable-background:new 0 0 36.15 36.15;" xml:space="preserve">
<style type="text/css">
	.st0{fill:#358E33;}
	.st1{fill:#69BC45;}
</style>
<g>
	<path class="st0" d="M9.66,2.58C9.67,2.7,9.77,2.68,9.84,2.69c0.28,0.07,0.49,0.23,0.64,0.48c1.27,2.15,2.55,4.29,3.82,6.44
		c0.19,0.32,0.3,0.66,0.13,1.01c-0.41,0.83-0.83,1.66-1.32,2.45c-0.5-0.83-0.99-1.66-1.49-2.49C10.29,8.34,8.96,6.1,7.62,3.86
		c-0.07-0.12-0.11-0.25-0.1-0.39c0.55-0.28,1.12-0.52,1.7-0.76C9.29,2.69,9.39,2.7,9.38,2.58C9.47,2.58,9.57,2.58,9.66,2.58z"/>
	<path class="st0" d="M23.08,23.03c0.79-0.48,1.62-0.9,2.45-1.31c0.34-0.17,0.68-0.07,0.98,0.11c2.17,1.28,4.33,2.57,6.5,3.86
		c0.23,0.13,0.37,0.33,0.45,0.58c0.02,0.08-0.01,0.2,0.12,0.22c0,0.09,0,0.18,0,0.27c-0.12-0.01-0.1,0.1-0.13,0.16
		c-0.26,0.59-0.53,1.19-0.79,1.78C29.45,26.82,26.26,24.93,23.08,23.03z"/>
	<path class="st1" d="M32.64,28.71c-0.41,0.99-0.81,1.99-1.23,2.98c-0.12,0.28-0.31,0.5-0.56,0.68c-0.73,0.54-1.54,0.87-2.42,1.08
		c-0.67,0.16-1.34,0.07-2,0.11c-1.1-0.14-2.18-0.37-3.23-0.75c-1.94-0.69-3.73-1.67-5.44-2.82c-3.71-2.49-6.92-5.51-9.7-8.99
		c-1.8-2.25-3.36-4.65-4.45-7.34c-0.48-1.19-0.85-2.42-0.96-3.71C2.63,9.88,2.6,9.8,2.58,9.73C2.57,8.86,2.59,7.99,2.85,7.14
		C2.98,6.7,3.17,6.29,3.39,5.88c0.34-0.64,0.83-1.09,1.53-1.35c0.88-0.33,1.74-0.71,2.6-1.06c-0.01,0.14,0.03,0.27,0.1,0.39
		c1.34,2.24,2.67,4.48,4.01,6.72c0.5,0.83,0.99,1.66,1.49,2.49c-0.29,0.68-0.69,1.32-1.03,1.97c-0.35,0.66-0.29,1.08,0.23,1.61
		c2.39,2.39,4.78,4.78,7.16,7.17c0.55,0.55,0.97,0.6,1.66,0.24c0.65-0.34,1.27-0.73,1.94-1.02C26.26,24.93,29.45,26.82,32.64,28.71z
		"/>
</g>
</svg>
