<svg width="23" height="25" viewBox="0 0 23 25" fill="none" xmlns="http://www.w3.org/2000/svg">
<path d="M22.622 4.75916C22.5786 4.38639 22.4914 4.02005 22.362 3.66792C22.0259 2.74859 21.4449 1.93955 20.6821 1.32884C19.9194 0.718141 19.0042 0.329234 18.0364 0.20459H4.55153C3.62243 0.333344 2.74483 0.710186 2.01051 1.29576C1.37589 1.7849 0.86382 2.41598 0.51502 3.13873C0.166221 3.86147 -0.00962296 4.65593 0.00142225 5.4589C0.00142225 8.17898 0.00142225 10.903 0.00142225 13.631C-0.0150235 14.3327 0.111302 15.0303 0.372771 15.6813C0.63424 16.3323 1.02529 16.9228 1.52202 17.4169C2.01875 17.911 2.61066 18.2981 3.26162 18.5547C3.91257 18.8113 4.60894 18.9318 5.30793 18.9091H7.52982C7.59323 18.901 7.6576 18.9086 7.71737 18.9314C7.77713 18.9541 7.83036 18.9912 7.87246 19.0395C7.9015 19.0964 7.91675 19.1595 7.91675 19.2234C7.91675 19.2873 7.9015 19.3503 7.87246 19.4072C7.46407 20.9414 6.61793 22.3225 5.43792 23.3805C5.32013 23.4683 5.23744 23.5955 5.20492 23.7391C5.17241 23.8826 5.19219 24.0331 5.26061 24.1634C5.30901 24.266 5.38632 24.3521 5.48293 24.4111C5.57954 24.4701 5.69118 24.4994 5.80422 24.4954H6.01701C9.30147 23.7111 12.24 21.87 14.3845 19.253C14.4535 19.1628 14.5434 19.0907 14.6463 19.0432C14.7493 18.9957 14.8622 18.9741 14.9754 18.9802H16.4764C16.8782 18.9802 17.2919 18.9802 17.6582 18.9802C18.4052 18.9428 19.1351 18.7418 19.7966 18.3915C20.4581 18.0411 21.0351 17.5498 21.4874 16.952C22.0784 16.2174 22.4475 15.3285 22.5511 14.3901V14.2715V4.97264L22.622 4.75916ZM18.2965 17.6162C18.0754 17.6671 17.8496 17.695 17.6227 17.6992H14.5145C14.3574 17.6921 14.2011 17.7254 14.0605 17.7959C13.9198 17.8665 13.7994 17.9721 13.7109 18.1025C12.3543 19.8699 10.5954 21.2853 8.58154 22.2301H8.4279H8.20341V22.1352V21.9454V21.8743C8.71547 20.8132 9.11173 19.6998 9.38527 18.5532C9.43965 18.4449 9.46225 18.3233 9.45047 18.2026C9.4387 18.0819 9.39304 17.967 9.31876 17.8713C9.24447 17.7756 9.1447 17.7031 9.03094 17.6622C8.91718 17.6212 8.79413 17.6135 8.67618 17.6399H5.22512C4.31081 17.6464 3.42235 17.336 2.70964 16.7612C1.99693 16.1864 1.50372 15.3824 1.31326 14.4849C1.25787 14.2438 1.23004 13.9971 1.23045 13.7496V5.26916C1.24206 4.26468 1.63925 3.30338 2.3393 2.58536C3.03935 1.86734 3.98839 1.44793 4.98881 1.41441H8.30974H17.3273C18.3052 1.39329 19.2569 1.73303 20.0019 2.3692C20.7469 3.00536 21.2335 3.89369 21.3693 4.86587C21.3822 5.03562 21.3822 5.20611 21.3693 5.37587V8.08016C21.3693 9.95417 21.3693 11.84 21.3693 13.7259C21.369 14.627 21.0653 15.5016 20.5076 16.2078C19.9498 16.914 19.1707 17.4103 18.2965 17.6162Z" fill="white"/>
<path d="M13.7951 4.72337C13.5105 4.47992 13.1814 4.29456 12.826 4.17775C12.4457 4.04773 12.046 3.98359 11.6442 3.98801C11.3345 3.98773 11.0255 4.01955 10.7223 4.08291C10.4465 4.143 10.1772 4.23037 9.91859 4.34381C9.6841 4.45167 9.45886 4.57862 9.245 4.72337C9.04565 4.86444 8.85613 5.019 8.67773 5.18596L9.06769 5.80274C9.09924 5.86001 9.14548 5.90772 9.20158 5.94108C9.25767 5.97444 9.32161 5.99221 9.38682 5.99248C9.48404 5.98239 9.57529 5.94078 9.64679 5.8739C9.77197 5.7706 9.9066 5.67922 10.0487 5.60105C10.2385 5.48714 10.4406 5.39562 10.6513 5.32828C10.9298 5.2372 11.2214 5.19313 11.5142 5.19783C11.7508 5.19572 11.9862 5.23172 12.2115 5.30453C12.4219 5.36763 12.6157 5.47705 12.7787 5.6248C12.943 5.75594 13.0761 5.922 13.1687 6.11106C13.2548 6.31767 13.2991 6.5395 13.2988 6.76346C13.3055 7.06179 13.2448 7.35775 13.1215 7.62927C12.9923 7.86605 12.8334 8.08526 12.6487 8.2816C12.4548 8.46816 12.2496 8.64245 12.0342 8.80348C11.8214 8.95767 11.6087 9.11189 11.4196 9.27794C11.2412 9.42282 11.0823 9.59025 10.9468 9.77607C10.8281 9.95947 10.7665 10.1742 10.7696 10.3929V10.4877L10.8641 11.8636H11.8687L12.0223 10.5945C12.0506 10.4063 12.1374 10.2319 12.2705 10.0963C12.4253 9.93474 12.5912 9.78413 12.7669 9.64562L13.4051 9.17116C13.6363 8.99871 13.8466 8.79967 14.0316 8.57812C14.2259 8.33275 14.3849 8.06127 14.5042 7.7716C14.6301 7.42202 14.6903 7.05204 14.6815 6.68043C14.6896 6.2967 14.613 5.91593 14.457 5.56551C14.3034 5.23778 14.0769 4.94968 13.7951 4.72337Z" fill="white"/>
<path d="M12.0324 13.7021C11.8385 13.506 11.575 13.3951 11.2997 13.3937C11.1613 13.3915 11.0242 13.4198 10.8979 13.4767C10.7723 13.5263 10.6592 13.6032 10.5669 13.7021C10.4721 13.7954 10.3994 13.9089 10.3542 14.0342C10.3019 14.1623 10.2739 14.299 10.2715 14.4374C10.274 14.5797 10.302 14.7202 10.3542 14.8525C10.4025 14.9727 10.475 15.0817 10.5669 15.1728C10.6624 15.2678 10.7747 15.3442 10.8979 15.3981C11.0267 15.4451 11.1626 15.4691 11.2997 15.4693C11.4369 15.471 11.5731 15.4468 11.7015 15.3981C11.8247 15.3442 11.937 15.2678 12.0324 15.1728C12.1279 15.0822 12.2043 14.9733 12.2571 14.8525C12.3092 14.7202 12.3372 14.5797 12.3397 14.4374C12.3373 14.299 12.3093 14.1623 12.2571 14.0342C12.2077 13.9082 12.1309 13.7947 12.0324 13.7021Z" fill="white"/>
</svg>
