<svg width="25" height="25" viewBox="0 0 25 25" fill="none" xmlns="http://www.w3.org/2000/svg">
<g clip-path="url(#clip0_2149_13088)">
<path d="M0 12.0557C0.0635294 11.604 0.105885 11.1593 0.190591 10.7146C0.653001 8.01956 2.03793 5.56911 4.10824 3.78282C5.86014 2.21197 8.04912 1.21228 10.3835 0.916939C13.3458 0.481055 16.3621 1.20414 18.8047 2.93575C20.0982 3.80942 21.2023 4.93476 22.0513 6.24458C22.9002 7.55439 23.4766 9.02181 23.7459 10.5593C24.0854 12.2104 24.061 13.9158 23.6746 15.5566C23.2882 17.1974 22.5489 18.7343 21.5082 20.0605C19.7539 22.421 17.1764 24.036 14.2871 24.5852C13.8635 24.6699 13.44 24.7052 13.0094 24.7616L12.7835 24.804H11.2871L10.4047 24.6911C8.0393 24.3804 5.82396 23.3588 4.05177 21.7616C2.02027 19.9807 0.662152 17.556 0.204712 14.8934C0.120006 14.4487 0.0776501 13.9969 0.0141207 13.5522L0 12.0557ZM1.12942 12.7616C1.12753 15.6423 2.26767 18.4063 4.29999 20.4479C6.33232 22.4895 9.09109 23.6422 11.9718 23.6534C14.8568 23.6571 17.6254 22.5161 19.6701 20.4807C21.7147 18.4454 22.8683 15.6819 22.8776 12.7969C22.874 9.91669 21.7311 7.15491 19.6984 5.11432C17.6658 3.07373 14.9084 1.92006 12.0282 1.90515C9.14079 1.90327 6.37074 3.04803 4.32702 5.08778C2.2833 7.12753 1.13316 9.89537 1.12942 12.7828V12.7616Z" fill="white"/>
<path d="M15.6982 19.8065C14.6661 19.7847 13.6562 19.5031 12.7618 18.9876C9.66102 17.3397 7.15886 14.7561 5.61117 11.6041C5.15432 10.7369 4.95356 9.7576 5.03234 8.78057C5.04977 8.30096 5.20117 7.83581 5.4694 7.43783C5.73763 7.03985 6.11196 6.72495 6.54998 6.52881C7.05116 6.30998 7.55234 6.09119 8.06057 5.9006C8.37652 5.77368 8.7277 5.76518 9.0494 5.87674C9.37109 5.98829 9.64163 6.21237 9.81117 6.50765C10.2559 7.25589 10.6935 8.00413 11.11 8.75942C11.3021 9.07973 11.3595 9.4631 11.2695 9.82561C11.1795 10.1881 10.9496 10.5002 10.63 10.6935L10.4535 10.8135C10.3473 10.8773 10.2563 10.9634 10.1867 11.0659C10.1171 11.1683 10.0706 11.2847 10.0504 11.4069C10.0303 11.5291 10.037 11.6543 10.07 11.7736C10.103 11.893 10.1616 12.0038 10.2418 12.0982C10.9584 13.0266 11.791 13.8593 12.7194 14.5759C12.817 14.6619 12.9332 14.7243 13.0588 14.7583C13.1845 14.7922 13.3163 14.7967 13.4439 14.7714C13.5716 14.7461 13.6917 14.6918 13.795 14.6126C13.8983 14.5334 13.9819 14.4315 14.0394 14.3147C14.1555 14.1102 14.3159 13.9343 14.5089 13.7999C14.7019 13.6655 14.9226 13.5762 15.1547 13.5383C15.4749 13.4917 15.8013 13.5564 16.0794 13.7218C16.7853 14.1453 17.5688 14.5688 18.3029 15.0065C18.5968 15.1707 18.8223 15.4345 18.9387 15.7503C19.0552 16.0661 19.055 16.4131 18.9382 16.7288C18.7265 17.3006 18.4865 17.8653 18.2323 18.4088C18.0318 18.8073 17.7312 19.147 17.36 19.3944C16.9888 19.6419 16.5597 19.7887 16.1147 19.8206C15.9757 19.8265 15.8365 19.8218 15.6982 19.8065ZM15.5571 18.6841C15.9465 18.7381 16.3426 18.6549 16.6774 18.4488C17.0123 18.2428 17.265 17.9267 17.3923 17.5547C17.5194 17.1947 17.6888 16.8488 17.83 16.4747C17.9712 16.1006 17.9076 16.0653 17.6253 15.9029L15.677 14.7736C15.3029 14.5618 15.2112 14.583 14.9712 14.943C14.8241 15.1868 14.6263 15.396 14.3912 15.5566C14.1561 15.7172 13.8892 15.8252 13.6086 15.8734C13.328 15.9216 13.0403 15.9089 12.7651 15.836C12.4898 15.7632 12.2335 15.6319 12.0135 15.4512C11.017 14.6808 10.1227 13.7865 9.35234 12.79C9.08262 12.4603 8.92883 12.051 8.91469 11.6253C8.89837 11.2607 8.98257 10.8987 9.15811 10.5788C9.33364 10.2588 9.59374 9.99328 9.90999 9.81118C10.2065 9.62059 10.2347 9.49353 10.0653 9.19L8.89352 7.16412C8.75234 6.92412 8.62528 6.87469 8.37116 6.97352C7.93352 7.14999 7.50293 7.34058 7.07234 7.50999C6.80569 7.6191 6.5764 7.80321 6.41227 8.04001C6.24814 8.27681 6.15622 8.55613 6.14764 8.84412C6.08106 9.65756 6.25535 10.4726 6.64881 11.1877C8.07572 14.053 10.3506 16.4092 13.1641 17.9359C13.8864 18.3707 14.7018 18.6271 15.5429 18.6841H15.5571Z" fill="white"/>
</g>
<defs>
<clipPath id="clip0_2149_13088">
<rect width="24.0071" height="24" fill="white" transform="translate(0 0.804688)"/>
</clipPath>
</defs>
</svg>
