<?xml version="1.0" encoding="utf-8"?>
<!-- Generator: Adobe Illustrator 26.0.1, SVG Export Plug-In . SVG Version: 6.00 Build 0)  -->
<svg version="1.1" id="Layer_1" xmlns="http://www.w3.org/2000/svg" xmlns:xlink="http://www.w3.org/1999/xlink" x="0px" y="0px"
	 viewBox="0 0 36.15 36.15" style="enable-background:new 0 0 36.15 36.15;" xml:space="preserve">
<style type="text/css">
	.st0{fill:#41A6CD;}
	.st1{fill:#EF4136;}
	.st2{fill:#F76969;}
</style>
<g>
	<path class="st0" d="M5.07,7.4c0-0.01,0-0.03,0-0.04c8.67,0,17.34,0,26,0c0,0.01,0,0.03,0,0.04C22.41,7.4,13.74,7.4,5.07,7.4z"/>
	<ellipse class="st0" cx="18.1" cy="28.77" rx="18.29" ry="0.03"/>
	<path class="st0" d="M33.87,10.71c0.01,0,0.03,0,0.04,0.01c0,4.95,0,9.9,0,14.85l-0.02,0.01c0,0-0.02,0-0.02,0c0-0.1,0-0.2,0-0.3
		c0-4.75,0-9.5,0-14.26C33.86,10.91,33.87,10.81,33.87,10.71z"/>
	<path class="st0" d="M2.29,25.61c-0.01,0-0.03,0-0.04,0c0-4.94,0-9.87,0-14.81c0.01-0.01,0.02-0.01,0.04-0.01
		c0,0.1,0.01,0.2,0.01,0.3C2.29,15.93,2.29,20.77,2.29,25.61z"/>
	<path class="st1" d="M5.07,7.4c8.67,0,17.34,0,26,0c0.6,0.11,1.12,0.37,1.59,0.76c-0.32,0.27-0.65,0.52-0.97,0.79
		c-0.61,0.52-1.24,1.01-1.85,1.54c-0.37,0.32-0.77,0.61-1.15,0.93c-0.46,0.38-0.89,0.79-1.36,1.15c-0.25,0.19-0.5,0.39-0.74,0.59
		c-0.31,0.25-0.62,0.51-0.94,0.77c-0.39,0.32-0.77,0.64-1.15,0.96c-0.49,0.41-0.97,0.81-1.46,1.21c-0.36,0.3-0.74,0.57-1.09,0.87
		c-0.31,0.26-0.63,0.5-0.93,0.77c-0.33,0.3-0.69,0.56-1.03,0.85c-0.3,0.26-0.6,0.5-0.92,0.74c-0.59,0.44-1.39,0.45-2,0
		c-0.57-0.42-1.1-0.89-1.64-1.34c-0.34-0.28-0.69-0.55-1.03-0.83c-0.35-0.29-0.69-0.59-1.04-0.87c-0.36-0.29-0.71-0.6-1.08-0.88
		c-0.33-0.25-0.64-0.52-0.96-0.79c-0.51-0.42-1.03-0.84-1.53-1.27c-0.46-0.4-0.95-0.77-1.41-1.17c-0.52-0.45-1.08-0.86-1.61-1.3
		c-0.34-0.28-0.66-0.58-1.01-0.85c-0.38-0.29-0.74-0.62-1.13-0.9c-0.4-0.3-0.76-0.65-1.14-0.97C3.95,7.78,4.47,7.51,5.07,7.4z"/>
	<path class="st2" d="M31.03,28.74c-8.62,0-17.25,0-25.87,0c-0.53-0.06-1.01-0.26-1.44-0.58C3.64,28.1,3.56,28.05,3.48,28
		c0.36-0.33,0.75-0.61,1.11-0.94c0.17-0.15,0.35-0.29,0.53-0.43c0.43-0.35,0.85-0.69,1.27-1.05c0.47-0.4,0.96-0.78,1.44-1.18
		c0.52-0.42,1.03-0.85,1.55-1.28c0.48-0.39,0.96-0.77,1.43-1.17c0.46-0.39,0.93-0.76,1.38-1.16c0.2-0.17,0.4-0.34,0.61-0.5
		c0.38-0.3,0.76-0.62,1.14-0.93c0.28-0.23,0.56-0.46,0.84-0.7c0.13-0.11,0.22,0,0.29,0.06c0.56,0.49,1.13,0.97,1.73,1.41
		c0.26,0.19,0.58,0.28,0.9,0.32c0.55,0.07,1.11,0,1.59-0.28c0.34-0.19,0.62-0.48,0.93-0.73c0.29-0.24,0.6-0.47,0.87-0.73
		c0.07-0.06,0.15-0.16,0.28-0.04c0.28,0.25,0.58,0.48,0.87,0.72c0.23,0.19,0.47,0.38,0.7,0.57c0.26,0.21,0.51,0.43,0.77,0.64
		c0.46,0.38,0.95,0.74,1.39,1.14c0.46,0.41,0.96,0.77,1.42,1.18c0.49,0.44,1.03,0.82,1.53,1.24c0.48,0.41,0.98,0.8,1.46,1.22
		c0.31,0.27,0.64,0.53,0.96,0.79c0.29,0.24,0.6,0.48,0.89,0.72c0.43,0.35,0.87,0.71,1.3,1.07C32.18,28.37,31.66,28.67,31.03,28.74z"
		/>
	<path class="st2" d="M33.87,10.71c0,0.1,0,0.2,0,0.3c0,4.75,0,9.5,0,14.26c0,0.1,0,0.2,0,0.3c-0.1,0.59-0.24,1.17-0.59,1.68
		c-0.06,0.09-0.1,0.11-0.18,0.05c-0.26-0.21-0.51-0.41-0.77-0.62c-0.5-0.41-1-0.82-1.5-1.23c-0.46-0.38-0.92-0.77-1.38-1.15
		c-0.35-0.29-0.7-0.56-1.05-0.85c-0.35-0.29-0.69-0.58-1.04-0.87c-0.22-0.18-0.45-0.36-0.67-0.54c-0.34-0.27-0.67-0.55-1.01-0.83
		c-0.39-0.32-0.78-0.63-1.16-0.95c-0.47-0.4-0.96-0.79-1.43-1.19c-0.36-0.3-0.71-0.62-1.1-0.89c-0.13-0.09-0.09-0.11,0-0.19
		c0.59-0.47,1.18-0.95,1.75-1.44c0.45-0.39,0.93-0.75,1.39-1.13c0.35-0.29,0.7-0.59,1.05-0.88c0.34-0.28,0.68-0.56,1.02-0.84
		c0.38-0.31,0.75-0.61,1.13-0.92c0.36-0.29,0.71-0.58,1.06-0.88c0.6-0.5,1.18-1.02,1.8-1.5c0.5-0.39,0.97-0.82,1.48-1.19
		c0.16-0.11,0.28-0.26,0.45-0.36c0.07-0.04,0.09-0.06,0.13,0.04C33.3,9,33.39,9.1,33.46,9.21C33.72,9.68,33.8,10.19,33.87,10.71z"/>
	<path class="st2" d="M2.29,25.61c0-4.84,0-9.68,0-14.51c0-0.1,0-0.2-0.01-0.3C2.33,10.08,2.5,9.4,2.95,8.81
		c0.31,0.2,0.59,0.47,0.89,0.71C4.2,9.8,4.56,10.07,4.9,10.37c0.45,0.4,0.92,0.76,1.37,1.14c0.37,0.31,0.74,0.63,1.13,0.92
		c0.36,0.27,0.69,0.58,1.04,0.86c0.33,0.27,0.66,0.55,0.99,0.82c0.36,0.3,0.72,0.59,1.08,0.88c0.38,0.31,0.77,0.62,1.15,0.93
		c0.36,0.3,0.72,0.6,1.08,0.9c0.48,0.39,0.96,0.79,1.44,1.18c0.08,0.06,0.09,0.09,0,0.15c-0.31,0.21-0.57,0.48-0.87,0.7
		c-0.38,0.28-0.73,0.6-1.1,0.89c-0.34,0.27-0.67,0.54-0.99,0.83c-0.31,0.29-0.66,0.53-0.98,0.79C9.83,21.71,9.42,22.06,9,22.4
		c-0.71,0.59-1.42,1.18-2.14,1.77C6.4,24.54,5.94,24.9,5.5,25.28c-0.46,0.39-0.94,0.77-1.39,1.17c-0.34,0.3-0.69,0.58-1.05,0.85
		c-0.09,0.06-0.13,0.05-0.19-0.05C2.52,26.75,2.39,26.18,2.29,25.61z"/>
</g>
</svg>
