<svg width="26" height="27" viewBox="0 0 26 27" fill="none" xmlns="http://www.w3.org/2000/svg">
<path d="M18.0643 24.158H17.8161C16.6343 24.158 16.6343 24.158 16.4452 25.4034C16.4408 25.5878 16.3992 25.7694 16.323 25.9372C16.2467 26.105 16.1374 26.2555 16.0015 26.3797C15.8656 26.5039 15.706 26.5991 15.5324 26.6596C15.3588 26.7201 15.1748 26.7447 14.9915 26.7318H10.9732C10.7738 26.7535 10.5722 26.7307 10.3827 26.665C10.1932 26.5993 10.0205 26.4923 9.87701 26.3517C9.73355 26.2112 9.62283 26.0405 9.55284 25.8519C9.48285 25.6633 9.45533 25.4616 9.47219 25.2611C9.45449 25.0796 9.45449 24.8969 9.47219 24.7155C9.47219 24.2766 9.29492 24.1343 8.88127 24.158H6.87218C6.36398 24.158 6.05671 24.0038 5.99762 23.4582C5.96464 23.1549 5.91333 22.8539 5.84397 22.5568C5.69033 21.857 5.39488 21.7384 4.82759 22.1298L3.97655 22.7347C3.91715 22.7923 3.84638 22.8368 3.7688 22.8652C3.69122 22.8937 3.60855 22.9055 3.52614 22.8999C3.44373 22.8943 3.36347 22.8714 3.29041 22.8328C3.21735 22.7941 3.15313 22.7405 3.10199 22.6754L1.50652 21.0742C1.44234 21.0227 1.38942 20.9586 1.35085 20.8857C1.31228 20.8129 1.28896 20.733 1.28232 20.6508C1.27568 20.5686 1.28581 20.4858 1.31219 20.4077C1.33856 20.3296 1.38062 20.2578 1.43568 20.1965C1.68913 19.8798 1.922 19.547 2.13293 19.2002C2.35749 18.797 2.27471 18.4767 1.79015 18.37C1.30559 18.2632 1.02195 18.2158 0.608298 18.1565C0.521722 18.1538 0.43662 18.1331 0.358424 18.0957C0.280228 18.0583 0.210639 18.005 0.153995 17.9393C0.0973504 17.8735 0.054896 17.7966 0.029346 17.7136C0.00379597 17.6305 -0.00430654 17.5431 0.00554157 17.4567V15.2506C-0.00597434 15.1636 0.000520889 15.0753 0.0244408 14.9909C0.0483608 14.9065 0.0892145 14.828 0.144617 14.7602C0.20002 14.6924 0.268721 14.6366 0.34645 14.5965C0.424178 14.5565 0.509259 14.5328 0.596468 14.5271C0.962842 14.4678 1.31745 14.4322 1.68382 14.361C2.22748 14.2424 2.36924 13.8747 2.06195 13.4122C1.88468 13.1512 1.70742 12.8784 1.49469 12.6175C1.41561 12.5448 1.35402 12.455 1.3145 12.355C1.27498 12.2549 1.25863 12.1472 1.2666 12.0399C1.27456 11.9326 1.30667 11.8285 1.36052 11.7354C1.41437 11.6423 1.48857 11.5627 1.5775 11.5026C2.07388 11.0519 2.54657 10.5775 3.00749 10.0912C3.0633 10.0111 3.1361 9.94429 3.22058 9.89564C3.30506 9.84699 3.3992 9.81764 3.49628 9.80971C3.59336 9.80178 3.69087 9.81544 3.78207 9.84974C3.87329 9.88404 3.95589 9.93813 4.02387 10.0081C4.28388 10.2098 4.55577 10.3995 4.82759 10.5774C5.09942 10.7553 5.07577 10.8384 5.25304 10.7435C5.43032 10.6486 5.25304 10.447 5.25304 10.2928C4.96693 8.77911 5.10182 7.21559 5.643 5.77383C6.29723 4.06829 7.52632 2.64675 9.11657 1.75627C10.7068 0.865791 12.5577 0.562682 14.3475 0.899649C16.1373 1.23662 17.7529 2.19236 18.9135 3.60072C20.074 5.00908 20.706 6.78103 20.6998 8.60857C20.6996 9.22174 20.6402 9.83343 20.5225 10.4351C20.5225 10.53 20.5225 10.6368 20.5225 10.7198C20.5225 10.8028 20.7589 10.7198 20.8534 10.7198C21.1607 10.5063 21.468 10.3165 21.7517 10.0793C21.8171 9.99976 21.8992 9.93573 21.9922 9.89176C22.0851 9.8478 22.1866 9.82498 22.2894 9.82498C22.3921 9.82498 22.4937 9.8478 22.5867 9.89176C22.6797 9.93573 22.7618 9.99976 22.8272 10.0793L24.3282 11.5975C24.3919 11.6564 24.4428 11.7279 24.4776 11.8075C24.5124 11.8871 24.5303 11.9731 24.5303 12.06C24.5303 12.147 24.5124 12.233 24.4776 12.3126C24.4428 12.3922 24.3919 12.4637 24.3282 12.5226C24.1036 12.8073 23.8908 13.1157 23.6899 13.4122C23.489 13.7087 23.5245 14.2187 24.0327 14.3373C24.5409 14.4559 24.7535 14.4559 25.1199 14.5152C25.2123 14.5142 25.3038 14.5333 25.3881 14.5713C25.4724 14.6092 25.5476 14.6651 25.6083 14.735C25.669 14.8049 25.7138 14.8873 25.7397 14.9763C25.7656 15.0653 25.7719 15.1589 25.7582 15.2506C25.7582 15.9622 25.7582 16.6739 25.7582 17.3974C25.7716 17.4887 25.7655 17.5818 25.7404 17.6706C25.7153 17.7594 25.6717 17.8418 25.6124 17.9124C25.5532 17.9831 25.4798 18.0403 25.3969 18.0803C25.314 18.1203 25.2237 18.1422 25.1317 18.1446C24.789 18.1446 24.4463 18.2513 24.1154 18.3225C23.5244 18.4648 23.3945 18.7851 23.7254 19.2951C23.9145 19.5956 24.1154 19.8802 24.3282 20.1491C24.3936 20.207 24.4459 20.2781 24.4818 20.3579C24.5177 20.4377 24.5362 20.5242 24.5362 20.6117C24.5362 20.6992 24.5177 20.7857 24.4818 20.8654C24.4459 20.9452 24.3936 21.0163 24.3282 21.0742C23.8081 21.5961 23.2881 22.1061 22.7799 22.6399C22.7189 22.7083 22.6442 22.763 22.5607 22.8005C22.4772 22.838 22.3867 22.8574 22.2953 22.8574C22.2038 22.8574 22.1135 22.838 22.03 22.8005C21.9465 22.763 21.8718 22.7083 21.8108 22.6399C21.5153 22.4145 21.2199 22.201 20.9126 21.9994C20.8431 21.931 20.7554 21.8842 20.6601 21.8643C20.5648 21.8445 20.4659 21.8526 20.375 21.8875C20.2842 21.9225 20.2052 21.983 20.1475 22.0617C20.0899 22.1403 20.056 22.234 20.0499 22.3315C19.9592 22.6864 19.8921 23.047 19.8489 23.4108C19.8508 23.5132 19.8297 23.6148 19.7874 23.7081C19.7452 23.8013 19.6828 23.884 19.6046 23.9499C19.5265 24.0158 19.4346 24.0634 19.3357 24.0891C19.2369 24.1149 19.1336 24.1182 19.0333 24.0987L18.0643 24.158ZM19.7426 8.97625C19.8052 7.82734 19.578 6.68111 19.0822 5.6436C18.5865 4.60608 17.8381 3.71076 16.9062 3.0404C15.9744 2.37005 14.8892 1.9463 13.7509 1.80835C12.6127 1.67041 11.4582 1.82271 10.3941 2.25118C9.37831 2.6807 8.47847 3.34578 7.76838 4.19184C7.05829 5.0379 6.55821 6.04084 6.30909 7.11841C6.05998 8.19598 6.06886 9.3175 6.33521 10.3909C6.60155 11.4643 7.11768 12.4591 7.84123 13.2936C8.59573 14.0181 9.16008 14.9185 9.48403 15.9148C9.49592 16.0166 9.54714 16.1097 9.62671 16.174C9.70627 16.2383 9.8078 16.2688 9.90947 16.2587H12.0487C12.356 16.2587 12.486 16.1164 12.486 15.808C12.486 15.4997 12.486 14.9066 12.486 14.4559C12.486 14.0052 12.4859 13.8036 11.9895 13.8036C11.4932 13.8036 11.6351 13.5426 11.6351 13.2817C11.6351 13.0207 11.7296 12.831 12.0132 12.831C12.6396 12.831 13.2778 12.831 13.9041 12.831C14.1878 12.831 14.2824 13.0207 14.2824 13.2817C14.2824 13.5426 14.2824 13.7799 13.9751 13.7917C13.4433 13.7917 13.4077 14.112 13.4195 14.5271C13.4418 14.9221 13.4418 15.3181 13.4195 15.7132C13.4195 16.0808 13.5732 16.2232 13.9278 16.2232H15.9487C16.0047 16.2315 16.0617 16.2286 16.1165 16.2146C16.1713 16.2005 16.2229 16.1757 16.268 16.1414C16.3131 16.1072 16.351 16.0643 16.3794 16.0152C16.4078 15.9661 16.4261 15.9118 16.4333 15.8555C16.7167 14.9158 17.2379 14.0658 17.9461 13.3885C18.5177 12.7961 18.9665 12.0959 19.2668 11.3284C19.567 10.5609 19.7126 9.74128 19.6952 8.91693L19.7426 8.97625ZM24.9426 16.3537C24.9426 15.4641 24.9427 15.4641 24.0209 15.3217C23.7507 15.3137 23.4883 15.2289 23.2642 15.0773C23.0401 14.9257 22.8633 14.7135 22.7545 14.4652C22.6456 14.217 22.6091 13.9428 22.6492 13.6746C22.6892 13.4063 22.8043 13.1549 22.9808 12.9496C23.0539 12.8282 23.1369 12.7132 23.229 12.6056C23.2989 12.5541 23.3546 12.4854 23.3906 12.4061C23.4266 12.3268 23.4417 12.2396 23.4346 12.1528C23.4275 12.066 23.3983 11.9825 23.3499 11.9102C23.3015 11.8379 23.2355 11.7792 23.1581 11.7398C23.0237 11.6426 22.9076 11.5221 22.8154 11.384C22.4726 10.8977 22.1416 10.957 21.7162 11.3128C21.2907 11.6687 21.078 11.977 20.6053 11.8465C20.1326 11.7161 20.038 12.1787 19.8726 12.4515C19.7071 12.7242 20.0026 12.8903 20.2035 13.0326C20.8182 13.4048 21.3146 13.9448 21.6348 14.5896C21.955 15.2344 22.0857 15.9573 22.0116 16.6739C21.9411 17.6082 21.5339 18.4848 20.8661 19.1396C20.1984 19.7945 19.3158 20.1829 18.3834 20.2321C18.218 20.2321 17.9461 20.2321 18.0406 20.4931C18.1838 21.2351 18.2275 21.993 18.1706 22.7466C18.1706 22.9957 18.1707 23.1854 18.5371 23.1973C18.9034 23.2092 18.9744 23.1973 19.0217 22.8652C19.0689 22.5331 19.128 22.3789 19.1516 22.1417C19.1607 21.8881 19.2505 21.6442 19.4079 21.4456C19.5653 21.2471 19.782 21.1044 20.0262 21.0386C20.2632 20.9058 20.5359 20.8516 20.8054 20.8835C21.0749 20.9155 21.3276 21.032 21.5272 21.2165C21.7635 21.4182 22.0353 21.7859 22.3426 21.6554C22.7772 21.4302 23.1382 21.0843 23.3826 20.6591C23.5954 20.3388 23.2053 20.1254 23.0635 19.8644C22.9217 19.6035 22.5434 19.3188 22.5789 18.9156C22.5812 18.5152 22.7352 18.1306 23.0095 17.8399C23.2839 17.5492 23.658 17.374 24.0562 17.35C24.8953 17.1483 24.8954 17.1483 24.8954 16.2943L24.9426 16.3537ZM7.32129 23.2092C7.59311 23.2092 7.7349 23.1143 7.7349 22.8178C7.7349 22.5212 7.7349 21.8808 7.7349 21.4182C7.7349 20.9556 8.00668 20.6235 7.8294 20.3626C7.65212 20.1016 7.15575 20.2558 6.8012 20.1491C6.06735 19.9508 5.40669 19.543 4.89944 18.975C4.39219 18.4071 4.06021 17.7035 3.9438 16.9498C3.8274 16.1962 3.9316 15.4248 4.24374 14.7294C4.55587 14.034 5.06255 13.4445 5.70215 13.0326C5.87943 12.914 6.19847 12.8547 6.08028 12.5582C5.9621 12.2617 5.89117 11.7872 5.61934 11.8465C4.85114 12.0007 4.43758 11.4433 3.9412 11.1468C3.78756 11.0519 3.66934 10.9214 3.4566 11.0519C2.51112 11.5856 2.35744 12.1431 2.972 12.997C3.14296 13.2023 3.2539 13.4511 3.29243 13.7159C3.33096 13.9806 3.29559 14.2508 3.19028 14.4966C3.08498 14.7424 2.91383 14.954 2.69587 15.1081C2.47792 15.2621 2.22169 15.3525 1.95563 15.3692C0.962871 15.4997 0.998356 15.4997 0.951082 16.5553C0.951082 17.172 1.15204 17.4092 1.73114 17.433C2.06494 17.4179 2.39351 17.5197 2.66082 17.7209C2.92812 17.9221 3.11754 18.2102 3.19663 18.536C3.27648 18.7715 3.28994 19.0246 3.23573 19.2673C3.18151 19.5101 3.06172 19.7331 2.88934 19.9119C2.71206 20.1491 2.35741 20.3981 2.49923 20.6947C2.73582 21.1299 3.08752 21.491 3.51561 21.7384C3.82289 21.9282 4.03567 21.525 4.29567 21.3945C4.55568 21.264 4.86295 20.8489 5.31205 20.9319C5.71128 20.9442 6.09011 21.1121 6.3681 21.4C6.64609 21.6878 6.80138 22.0729 6.8012 22.4738C6.8012 22.6517 6.8013 22.8415 6.90767 23.0194C7.01403 23.1973 7.06123 23.1617 7.27396 23.1499L7.32129 23.2092ZM12.9704 23.2092H15.4643C17.308 23.2092 17.1661 23.4464 17.1779 21.4419C17.1779 20.8844 16.9533 20.7065 16.4097 20.7065C14.4242 20.7065 12.4268 20.7065 10.5004 20.7065C8.57398 20.7065 8.82223 20.3982 8.78677 22.4501C8.78677 22.9957 8.99953 23.221 9.55501 23.2092C10.6069 23.138 11.765 23.1499 12.9233 23.1617L12.9704 23.2092ZM12.9704 17.2788H10.2759C8.59769 17.2788 8.73945 17.0534 8.73945 18.88C8.73945 19.6391 8.82215 19.7102 9.59035 19.7102H15.4996C17.3551 19.7102 17.1542 19.9712 17.1661 17.9193C17.1661 17.4448 16.9652 17.2669 16.4925 17.2669C15.2752 17.2313 14.1051 17.2195 12.9233 17.2195L12.9704 17.2788ZM4.85111 16.3062C4.83975 16.8792 4.99752 17.4429 5.30455 17.9262C5.61157 18.4095 6.05425 18.7908 6.57671 19.0223C7.56947 19.5086 7.75856 19.4018 7.75856 18.2869C7.69768 17.9556 7.72569 17.6139 7.83993 17.2971C7.95417 16.9802 8.15043 16.6996 8.4085 16.4841C8.63305 16.3299 8.5504 16.1402 8.49131 15.9385C8.14594 15.1122 7.63038 14.3685 6.9785 13.7561C6.77759 13.5189 6.56484 13.6613 6.37575 13.7561C5.92005 13.9977 5.53527 14.3546 5.25953 14.7916C4.9838 15.2285 4.82674 15.7302 4.80393 16.2469L4.85111 16.3062ZM21.0544 16.1164C21.0289 15.6233 20.876 15.1453 20.6108 14.7294C20.3456 14.3135 19.9771 13.974 19.5416 13.7443C19.3525 13.6257 19.1398 13.5189 18.9388 13.7443C18.3484 14.3327 17.8574 15.0137 17.4852 15.7606C17.3552 16.0927 17.3198 16.3536 17.6743 16.6027C17.8504 16.7421 17.9883 16.924 18.0751 17.1314C18.1619 17.3389 18.1947 17.5651 18.1706 17.7888C18.1706 18.1328 18.1706 18.4767 18.1706 18.8207C18.1706 19.1646 18.3244 19.3544 18.7262 19.2595C19.421 19.0803 20.0306 18.661 20.4478 18.0753C20.865 17.4895 21.063 16.7749 21.0071 16.0571L21.0544 16.1164ZM12.9823 24.158H10.9732C10.5595 24.158 10.3468 24.2885 10.3941 24.7155C10.4413 25.1425 10.1814 25.7474 10.8787 25.7711C12.226 25.7711 13.5732 25.7711 14.9087 25.7711C15.606 25.7711 15.346 25.1188 15.3933 24.7155C15.4406 24.3122 15.2278 24.1343 14.8142 24.158H12.9823Z" fill="white"/>
<path d="M12.889 11.1823C12.239 11.2535 11.7071 11.1823 11.4235 10.447C11.4235 10.3046 11.1989 10.2098 11.0925 10.0911C10.7247 9.7615 10.463 9.32934 10.3409 8.8498C10.2188 8.37026 10.2419 7.86507 10.4071 7.39873C10.5785 6.96661 10.8725 6.59458 11.2528 6.32888C11.6332 6.06317 12.0829 5.91549 12.5462 5.90426C13.1714 5.775 13.8222 5.88779 14.368 6.21996C14.9138 6.55213 15.3142 7.07913 15.489 7.69525C15.568 8.06555 15.5623 8.44903 15.4723 8.81679C15.3822 9.18454 15.2102 9.527 14.9691 9.81834C14.6604 10.1659 14.3761 10.5344 14.1182 10.9214C13.87 11.3839 13.3381 11.1112 12.889 11.1823ZM14.5436 8.18154C14.5436 7.33943 13.9763 6.88872 12.9126 6.88872C11.849 6.88872 11.2699 7.33943 11.2699 8.18154C11.2699 9.02366 12.2154 10.186 12.9126 10.186C13.6099 10.186 14.5199 9.02366 14.5199 8.18154H14.5436Z" fill="white"/>
<path d="M12.9116 12.4514H12.0607C11.7179 12.4514 11.5879 12.321 11.5879 11.977C11.5879 11.633 11.7297 11.5025 12.0607 11.5144C12.6279 11.5144 13.1952 11.5144 13.7625 11.5144C14.0934 11.5144 14.2352 11.6449 14.2352 11.9888C14.2352 12.3328 14.0816 12.4633 13.7625 12.4514H12.9116Z" fill="white"/>
</svg>
