<svg width="23" height="27" viewBox="0 0 23 27" fill="none" xmlns="http://www.w3.org/2000/svg">
<path d="M22.4396 13.7815V24.6697C22.4801 24.9622 22.4529 25.2601 22.3601 25.5403C22.2673 25.8205 22.1114 26.0755 21.9045 26.2855C21.6976 26.4954 21.4452 26.6547 21.167 26.7509C20.8888 26.8471 20.5924 26.8776 20.3005 26.8402H3.39998C3.1189 26.8682 2.83511 26.833 2.56928 26.7372C2.30344 26.6414 2.06224 26.4874 1.86308 26.2864C1.66392 26.0854 1.51181 25.8424 1.41786 25.5751C1.32392 25.3077 1.29046 25.0228 1.31991 24.7408C1.31991 24.1597 1.31991 23.5548 1.31991 23.021C1.31991 22.4873 1.50906 22.3687 1.96998 22.3687C2.4309 22.3687 2.69086 22.5347 2.6554 23.0448C2.61995 23.5548 2.6554 24.0173 2.6554 24.4918C2.6554 25.322 2.83267 25.4999 3.67178 25.4999C6.8746 25.4999 10.0774 25.4999 13.2921 25.4999C15.5494 25.4999 17.8186 25.4999 20.0877 25.4999C20.9269 25.4999 21.1041 25.3339 21.1041 24.5036V3.00005C21.1041 2.20538 20.9269 2.02747 20.1351 2.01561H3.58911C2.77364 2.01561 2.60807 2.20537 2.59625 3.04749C2.58444 3.8896 2.59625 4.3759 2.59625 5.05196C2.59625 5.43151 2.66724 5.65686 3.11634 5.65686C3.20848 5.646 3.30184 5.65583 3.38973 5.68561C3.47763 5.7154 3.55788 5.7644 3.6246 5.82909C3.69133 5.89378 3.74282 5.97253 3.77551 6.05966C3.8082 6.1468 3.82123 6.24014 3.8136 6.33293C3.8129 6.4262 3.7923 6.51823 3.75315 6.60283C3.71399 6.68742 3.65723 6.76259 3.58666 6.8233C3.5161 6.884 3.43343 6.92881 3.34415 6.95471C3.25486 6.9806 3.16098 6.98697 3.06902 6.9734C2.28112 6.9734 1.49322 6.9734 0.705318 6.9734C0.619262 6.98329 0.532149 6.97515 0.449385 6.94951C0.366621 6.92387 0.289999 6.88128 0.224469 6.82444C0.15894 6.76759 0.105915 6.69772 0.0686587 6.61924C0.0314025 6.54076 0.0107726 6.45539 0.00806563 6.36851C-0.00712624 6.27628 -0.000795129 6.18176 0.0265321 6.09239C0.0538593 6.00302 0.101481 5.92122 0.165608 5.85342C0.229735 5.78561 0.308644 5.73366 0.39615 5.70161C0.483655 5.66956 0.577258 5.65831 0.669828 5.66873C1.20166 5.66873 1.26089 5.38406 1.24907 4.95707C1.24907 4.18612 1.24907 3.40331 1.24907 2.58492C1.24101 2.33085 1.28443 2.07779 1.37689 1.84114C1.46936 1.60449 1.60891 1.38919 1.7869 1.20834C1.9649 1.02749 2.17766 0.88488 2.41231 0.789171C2.64696 0.693461 2.89859 0.646652 3.15183 0.651607C8.91928 0.651607 14.6905 0.651607 20.4659 0.651607C20.7248 0.644337 20.9825 0.691571 21.2221 0.790257C21.4618 0.888942 21.6782 1.03689 21.8575 1.22459C22.0367 1.4123 22.1748 1.63559 22.2629 1.88009C22.3509 2.12459 22.387 2.38489 22.3688 2.64423C22.4515 6.38037 22.4396 10.0809 22.4396 13.7815Z" fill="#FFFDFD"/>
<path d="M1.92337 10.6857C1.49035 10.7094 1.05639 10.7094 0.623365 10.6857C0.542619 10.6843 0.462922 10.6663 0.389361 10.6329C0.315799 10.5995 0.249875 10.5512 0.195607 10.4912C0.141339 10.4312 0.0998854 10.3606 0.073844 10.2839C0.0478026 10.2072 0.0377969 10.1259 0.0442688 10.0452C0.036132 9.97004 0.0432973 9.89405 0.0653321 9.82179C0.0873669 9.74953 0.123743 9.68253 0.17238 9.62485C0.221017 9.56716 0.280885 9.52 0.348244 9.48623C0.415603 9.45247 0.489046 9.43279 0.564215 9.42841C1.52152 9.42841 1.34425 8.81165 1.32062 8.24233C1.29698 7.67302 1.50975 7.40022 2.10068 7.44766C2.50251 7.44766 2.67975 7.64929 2.65612 8.05256C2.63248 8.45582 2.65612 8.55072 2.65612 8.79979C2.65612 9.04887 2.76255 9.35725 3.16438 9.35725C3.56621 9.35725 3.9089 9.60633 3.86163 10.0808C3.81436 10.5552 3.49522 10.6738 3.08157 10.6738H1.89971L1.92337 10.6857Z" fill="#FFFDFD"/>
<path d="M1.98178 14.4219C1.55631 14.4219 1.11892 14.4219 0.693454 14.4219C0.612271 14.422 0.531998 14.4056 0.457285 14.3738C0.382572 14.3419 0.315061 14.2952 0.258771 14.2365C0.20248 14.1778 0.158512 14.1083 0.12965 14.0321C0.100788 13.956 0.0875134 13.8747 0.090697 13.7933C0.0772691 13.7189 0.0794929 13.6425 0.0970449 13.569C0.114597 13.4955 0.147133 13.4264 0.192695 13.3662C0.238258 13.306 0.295771 13.2559 0.361634 13.2192C0.427498 13.1824 0.500276 13.1599 0.575297 13.1529C1.5326 13.1529 1.30805 12.5242 1.31987 11.9668C1.33169 11.4093 1.50894 11.1247 2.1826 11.1958C2.51352 11.1958 2.66719 11.3856 2.65537 11.7177C2.64355 12.0498 2.65537 12.1803 2.65537 12.4056C2.65537 12.8326 2.71445 13.1054 3.23447 13.1054C3.32117 13.0979 3.4085 13.1098 3.49011 13.1401C3.57172 13.1705 3.64569 13.2185 3.70666 13.2808C3.76763 13.3431 3.81414 13.4182 3.84285 13.5006C3.87156 13.5831 3.88173 13.6709 3.87271 13.7577C3.87271 14.2085 3.56545 14.3982 3.1518 14.4101C2.73815 14.422 2.37178 14.4101 1.96995 14.4101L1.98178 14.4219Z" fill="#FFFDFD"/>
<path d="M1.982 18.1344C1.55653 18.1344 1.11914 18.1344 0.693674 18.1344C0.612008 18.1362 0.530849 18.121 0.455341 18.0897C0.379833 18.0585 0.31159 18.0118 0.254951 17.9527C0.198312 17.8937 0.154499 17.8235 0.126263 17.7465C0.0980274 17.6696 0.0859967 17.5877 0.0909173 17.5058C0.0909173 17.1619 0.268236 16.8535 0.575517 16.8653C1.53282 16.8653 1.30827 16.2367 1.32009 15.6793C1.33191 15.1218 1.50916 14.8253 2.18282 14.9083C2.51374 14.9083 2.66741 15.0981 2.65559 15.4302C2.64377 15.7623 2.65559 15.8928 2.65559 16.1181C2.65559 16.5451 2.71467 16.8179 3.23469 16.8179C3.3214 16.8104 3.40872 16.8223 3.49033 16.8526C3.57195 16.8829 3.64591 16.931 3.70688 16.9933C3.76785 17.0556 3.81436 17.1307 3.84307 17.2131C3.87178 17.2956 3.88195 17.3834 3.87293 17.4702C3.87293 17.921 3.56567 18.0989 3.15202 18.1226H1.97017L1.982 18.1344Z" fill="#FFFDFD"/>
<path d="M1.95801 21.8706C1.568 21.8706 1.17798 21.8706 0.776154 21.8706C0.690421 21.8787 0.603976 21.8694 0.521951 21.8431C0.439927 21.8168 0.363914 21.7741 0.298767 21.7175C0.23362 21.661 0.180623 21.5919 0.142812 21.5142C0.105001 21.4366 0.0831601 21.352 0.0787565 21.2657C0.0614 21.1742 0.0658369 21.0799 0.0915965 20.9903C0.117356 20.9008 0.163757 20.8187 0.227065 20.7505C0.290374 20.6823 0.368846 20.6301 0.45602 20.598C0.543195 20.566 0.636633 20.555 0.728833 20.566C1.24885 20.566 1.3434 20.305 1.31976 19.8662C1.31976 19.6408 1.31976 19.4155 1.31976 19.1901C1.31976 18.6919 1.63881 18.6564 2.00518 18.6445C2.37156 18.6326 2.6789 18.7275 2.65526 19.2138C2.65526 19.4155 2.65526 19.6289 2.65526 19.8306C2.65526 20.2813 2.71438 20.566 3.26985 20.566C3.35707 20.5631 3.44381 20.5796 3.5239 20.6144C3.604 20.6491 3.67547 20.7013 3.73309 20.7671C3.79072 20.8328 3.83305 20.9106 3.85717 20.9948C3.88128 21.0789 3.88661 21.1674 3.8726 21.2539C3.86966 21.3401 3.84942 21.4249 3.81302 21.5031C3.77662 21.5812 3.72484 21.6512 3.66082 21.7088C3.59679 21.7664 3.52177 21.8104 3.44037 21.8383C3.35897 21.8661 3.27278 21.8771 3.18704 21.8706C2.77339 21.8825 2.35984 21.8706 1.95801 21.8706Z" fill="#FFFDFD"/>
<path d="M12.2052 19.0951C10.917 19.0951 9.61707 19.0951 8.32885 19.0951C8.07188 19.1375 7.80829 19.1132 7.56336 19.0244C7.31842 18.9356 7.10023 18.7854 6.92958 18.5879C6.75893 18.3905 6.64151 18.1525 6.58853 17.8966C6.53555 17.6407 6.54875 17.3755 6.6269 17.1262C6.82782 15.5012 7.05245 15.2522 8.62431 14.8489L9.69969 14.5761C10.2315 14.4219 10.4325 13.9119 10.0306 13.5679C8.61242 12.2988 8.62424 10.6621 8.84879 9.00154C8.9029 8.43501 9.13457 7.90024 9.51041 7.47404C9.88625 7.04785 10.3869 6.75215 10.9407 6.62939C11.6821 6.44645 12.4567 6.44645 13.1981 6.62939C13.8346 6.74538 14.4136 7.07276 14.8423 7.55892C15.271 8.04509 15.5245 8.6618 15.5618 9.30992C15.6681 10.8637 15.6562 12.4056 14.2971 13.5561C13.8953 13.9 14.0844 14.4219 14.6044 14.5642L16.389 15.0387C16.694 15.0986 16.9723 15.2535 17.1845 15.4813C17.3967 15.7092 17.5319 15.9984 17.5709 16.3078C17.5709 16.6162 17.6772 16.9127 17.7245 17.2211C17.7854 17.4513 17.7906 17.6928 17.7397 17.9254C17.6887 18.1581 17.5831 18.3751 17.4317 18.5585C17.2802 18.7418 17.0872 18.8862 16.8689 18.9795C16.6505 19.0729 16.4131 19.1125 16.1764 19.0951C14.8291 19.1069 13.5171 19.0951 12.2052 19.0951ZM12.2052 18.0632H15.9517C16.2117 18.0632 16.4954 18.0632 16.6727 17.826C16.7617 17.4913 16.7472 17.1373 16.6311 16.8111C16.515 16.4849 16.3029 16.2018 16.0227 15.9994C15.3491 15.8096 14.6753 15.6554 14.0017 15.4657C13.6353 15.3708 13.1626 15.3471 13.1389 14.837C13.1153 14.327 12.808 13.4493 13.4107 12.9749C13.8046 12.6641 14.1179 12.2623 14.3237 11.8039C14.5294 11.3454 14.6216 10.8438 14.5926 10.3418C14.6753 7.96964 13.6589 7.44778 11.6379 7.61383C11.2244 7.62261 10.8265 7.77338 10.5103 8.04102C10.1942 8.30866 9.97897 8.67698 9.90066 9.08456C9.74724 9.89571 9.74724 10.7286 9.90066 11.5397C9.92967 11.7441 9.99899 11.9406 10.1045 12.1177C10.21 12.2949 10.3496 12.4492 10.5152 12.5716C11.3307 13.0579 11.2598 13.7577 11.248 14.5642C11.2717 14.7604 11.2183 14.958 11.0991 15.1153C10.9799 15.2725 10.8044 15.3769 10.6097 15.4064C10.007 15.5487 9.42788 15.774 8.82513 15.8571C8.66056 15.8564 8.49767 15.8902 8.34688 15.9564C8.19609 16.0226 8.06082 16.1196 7.94956 16.2413C7.83831 16.363 7.75357 16.5067 7.70084 16.6632C7.64812 16.8196 7.62847 16.9854 7.64328 17.1499C7.64328 17.9327 7.64333 18.0632 8.43517 18.0632H12.2052Z" fill="#FFFDFD"/>
</svg>
