<svg width="32" height="29" viewBox="0 0 32 29" fill="none" xmlns="http://www.w3.org/2000/svg">
<path d="M31.0252 5.05679C31.1166 4.77388 31.1487 4.47507 31.1197 4.17909C31.1371 3.84182 31.0931 3.50418 30.9897 3.18279C30.9897 3.04046 30.8833 2.88627 30.8242 2.74394C30.4285 1.80615 29.6882 1.05731 28.7568 0.652896C27.8255 0.248479 26.7747 0.219554 25.8227 0.572115C24.8707 0.924676 24.0906 1.63164 23.6442 2.54625C23.1979 3.46085 23.1197 4.51283 23.4258 5.48378C24.0362 7.12195 24.8291 8.68563 25.7895 10.1451C25.9077 10.3467 26.0377 10.5483 25.9786 10.6432C25.9195 10.7381 25.6831 10.7618 25.4585 10.7618H24.9859C24.5605 10.7618 24.1349 10.7618 23.7213 10.7618C23.2059 10.8011 22.7151 10.9986 22.3155 11.3275C21.9159 11.6564 21.6268 12.1008 21.4875 12.6002C21.3568 12.9734 21.3165 13.3724 21.37 13.7643C21.4234 14.1561 21.569 14.5296 21.7948 14.8538C22.0694 15.2227 22.4262 15.5221 22.8366 15.7281C23.247 15.934 23.6997 16.0408 24.1585 16.0399H26.7822C27.1408 16.0545 27.4841 16.1901 27.7565 16.4247C28.0288 16.6593 28.2144 16.9792 28.2832 17.3327C28.3739 17.7136 28.3305 18.1142 28.1603 18.4666C27.9901 18.819 27.7037 19.1015 27.3496 19.266C27.197 19.3397 27.0332 19.3878 26.865 19.4083C26.7764 19.1061 26.5927 18.8407 26.3413 18.6519C26.0899 18.4632 25.7843 18.3612 25.4704 18.3612C25.1564 18.3612 24.851 18.4632 24.5996 18.6519C24.3482 18.8407 24.1645 19.1061 24.0759 19.4083H19.1357V15.1384C19.1699 14.7512 19.0714 14.3638 18.8565 14.0403C18.6416 13.7168 18.3232 13.4766 17.9538 13.3593L10.5199 10.3823C10.2247 10.2561 9.90718 10.1915 9.58635 10.1925C9.27459 10.1942 8.96589 10.2545 8.6763 10.3704L1.18339 13.3949C0.829392 13.5025 0.521073 13.7252 0.3071 14.028C0.0931259 14.3308 -0.0143413 14.6964 0.00153766 15.0673V23.5833C-0.00966979 23.9518 0.0998188 24.3137 0.313303 24.6136C0.526788 24.9136 0.832478 25.135 1.18339 25.2438L3.92523 26.3587L7.128 27.6397C7.62438 27.8295 8.12076 28.0193 8.60532 28.2327C8.92231 28.3715 9.2642 28.4441 9.61001 28.4462C9.94802 28.4425 10.2817 28.3699 10.5909 28.2327L12.1155 27.616L17.9302 25.2438C18.3026 25.1238 18.6229 24.8795 18.8379 24.5516C19.0529 24.2236 19.1496 23.8317 19.112 23.441V20.5588H24.0877C24.1719 20.7309 24.2791 20.8906 24.4067 21.0333C24.6819 21.3119 25.0558 21.4697 25.4467 21.4721C25.7398 21.4659 26.0244 21.3724 26.2643 21.2034C26.5042 21.0345 26.6886 20.7977 26.794 20.5232H26.865C27.5546 20.4341 28.1839 20.0832 28.6235 19.5427C29.0632 19.0022 29.2798 18.3132 29.2287 17.6173C29.1512 16.9227 28.8063 16.2859 28.2676 15.8427C27.7289 15.3996 27.0389 15.1852 26.3449 15.2452H25.8132C25.1277 15.2452 24.4541 15.2452 23.7804 15.2452C23.4469 15.2271 23.1279 15.1022 22.8705 14.8887C22.6131 14.6752 22.4307 14.3844 22.3503 14.0591C22.2605 13.8136 22.2297 13.5503 22.2605 13.2906C22.2913 13.0309 22.3828 12.7822 22.5276 12.5647C22.7085 12.3263 22.9432 12.1343 23.2123 12.0044C23.4814 11.8745 23.7774 11.8105 24.0759 11.8174H28.5078C28.8506 11.8174 29.1814 11.8174 29.2051 11.343V11.0939L29.1341 11.0228C29.0654 10.9608 28.985 10.9132 28.8978 10.8826C28.8105 10.8521 28.7182 10.8392 28.626 10.8448C28.366 10.8448 28.236 10.8449 28.1887 10.7025C28.1414 10.5602 28.1887 10.4653 28.3423 10.2162C29.4357 8.60826 30.3362 6.87649 31.0252 5.05679ZM25.1159 1.98484C25.6351 1.48538 26.3233 1.20149 27.0423 1.19017C27.5131 1.19686 27.9768 1.30613 28.4014 1.51042C28.9145 1.73462 29.3512 2.10438 29.6578 2.57428C29.9643 3.04418 30.1274 3.59372 30.127 4.15537C30.1267 4.65277 30.0135 5.14358 29.796 5.59052C29.1319 7.10205 28.3412 8.55429 27.4323 9.93157C27.4323 10.0265 27.2668 10.2162 27.125 10.2162C26.9832 10.2162 26.9477 10.1451 26.8414 9.97901L26.4159 9.26737C25.5384 7.94883 24.8352 6.52151 24.324 5.02121C24.1311 4.49251 24.1059 3.91687 24.2519 3.37324C24.3979 2.82961 24.7079 2.34463 25.1394 1.98484H25.1159ZM18.2374 22.8361C18.2552 23.1838 18.2552 23.5322 18.2374 23.8798C18.2315 24.0359 18.1772 24.1862 18.0818 24.3096C17.9864 24.433 17.8548 24.5233 17.7057 24.5678L10.1418 27.616V25.9555V24.2712V18.3409C12.8246 17.2734 15.4955 16.2059 18.2138 15.1029V15.2571V22.8835L18.2374 22.8361ZM9.1609 27.5804L7.86074 27.0585C7.56759 26.9446 7.28654 26.8015 7.02167 26.6315C7.02167 26.4418 7.02167 26.2401 7.02167 26.0385C7.02167 25.8369 7.02167 25.6827 7.02167 25.4929C7.03857 25.342 7.0015 25.19 6.91708 25.064C6.83266 24.938 6.70635 24.8462 6.56073 24.805L4.85894 24.1289L4.00804 23.785C3.9184 23.7661 3.82572 23.7661 3.73609 23.785C3.62972 23.785 3.28698 23.785 3.28698 24.4966V25.2794L1.5142 24.5678C1.37827 24.5186 1.26091 24.4283 1.17834 24.3093C1.09577 24.1903 1.0522 24.0486 1.0534 23.9036C1.0534 23.5359 1.0534 23.1801 1.0534 22.8124V15.3401C1.07311 15.2542 1.07311 15.165 1.0534 15.0791L1.31338 15.174L1.83332 15.3875C2.30606 15.5773 2.79065 15.7789 3.3343 16.0517V17.9376C3.32318 18.0615 3.35467 18.1856 3.42346 18.2891C3.49225 18.3927 3.59429 18.4695 3.71257 18.5069L6.33625 19.5507C6.42485 19.5939 6.52144 19.6181 6.61988 19.6218C6.72625 19.6218 7.06899 19.6218 7.06899 19.0525V17.4513C7.78993 17.7478 8.49896 18.0325 9.20807 18.2816V27.6041L9.1609 27.5804ZM6.07628 25.5522V26.3587L4.20886 25.6115C4.20886 25.3743 4.20886 25.1371 4.20886 24.8761L5.69801 25.4692L6.07628 25.5522ZM8.43998 15.4468L8.26268 15.5061L6.53707 16.2178L5.00075 15.601L6.07628 15.174L12.7183 12.5054C12.7451 12.4963 12.7741 12.4963 12.801 12.5054H12.8719L14.3256 13.0984L8.43998 15.4468ZM6.07628 18.4002C5.4499 18.1392 4.82341 17.8901 4.19703 17.6648C4.19703 17.2141 4.19703 16.7634 4.19703 16.2889C4.83523 16.5499 5.4617 16.799 6.06445 17.0125V18.0088C6.06445 18.0088 6.09981 18.2934 6.11162 18.4239L6.07628 18.4002ZM5.4262 14.4268L5.23707 14.4861L3.73609 15.091L2.36524 14.5454L1.84515 14.3201L9.05443 11.426C9.23698 11.3446 9.4338 11.3002 9.63352 11.2956C9.80822 11.2977 9.98088 11.334 10.1418 11.4023L11.5481 11.9598L5.4262 14.4268ZM15.5428 13.6084H15.6138L16.3465 13.9049L17.4339 14.3438L9.61001 17.4632L7.81357 16.7278L15.5428 13.6084Z" fill="white"/>
</svg>
