<svg width="23" height="24" viewBox="0 0 23 24" fill="none" xmlns="http://www.w3.org/2000/svg">
<path d="M20.5301 0C20.9098 0.103324 21.3031 0.180329 21.6403 0.394776C22.5098 0.940641 22.9745 1.72142 22.9929 2.75759C23.0055 3.52277 22.9929 4.28796 22.9987 5.05315C23.0053 5.15825 22.9866 5.26341 22.9442 5.35964C22.9018 5.45588 22.837 5.54034 22.7552 5.60584C22.505 5.81444 22.2625 6.03278 22.0093 6.23748C21.7562 6.44218 21.5833 6.42463 21.3446 6.22091C21.1991 6.105 21.0597 5.98136 20.9272 5.8505C20.8055 5.72281 20.7157 5.73548 20.5997 5.8505C20.4693 5.98404 20.3243 6.10199 20.1814 6.22188C19.9495 6.41684 19.7775 6.41684 19.536 6.23358C19.3717 6.10394 19.2075 5.97234 19.0529 5.82905C18.9389 5.72183 18.8538 5.74815 18.7543 5.84173C18.6133 5.97429 18.4645 6.10101 18.3195 6.23163C18.1118 6.41488 17.9128 6.41879 17.6925 6.24723C17.6345 6.20337 17.5853 6.10686 17.4993 6.15852C17.4355 6.19654 17.4635 6.28719 17.4635 6.35347C17.4635 7.87605 17.4635 9.39894 17.4635 10.9222C17.4635 14.3202 17.4655 17.7175 17.4693 21.1142C17.4693 22.5764 16.5679 23.6818 15.1505 23.9674C14.9909 23.9937 14.8291 24.0041 14.6674 23.9986C10.7274 23.9986 6.78702 23.9986 2.84634 23.9986C2.4772 24.0049 2.11047 23.9373 1.76742 23.7996C1.42436 23.662 1.11178 23.457 0.847774 23.1966C0.583766 22.9363 0.373571 22.6256 0.229375 22.2827C0.0851799 21.9399 0.00984863 21.5715 0.00772936 21.199C-0.0096617 20.3218 0.00772936 19.4503 0.00772936 18.575C0.00694515 18.4657 0.0239071 18.3571 0.0579603 18.2533C0.147814 17.9911 0.428975 17.9141 0.691773 18.0847C0.93235 18.2416 1.16423 18.4112 1.39225 18.5857C1.41093 18.6055 1.4334 18.6213 1.45832 18.6321C1.48323 18.6429 1.51006 18.6484 1.53717 18.6484C1.56428 18.6484 1.5911 18.6429 1.61602 18.6321C1.64093 18.6213 1.66342 18.6055 1.6821 18.5857C1.90238 18.4142 2.13523 18.2592 2.35842 18.0983C2.43567 18.0314 2.53375 17.9938 2.63559 17.9922C2.73743 17.9906 2.83661 18.0251 2.9159 18.0896C3.1244 18.2243 3.32595 18.3698 3.51976 18.5253C3.69656 18.6793 3.83569 18.6637 4.00284 18.5253C4.16999 18.3869 4.33907 18.2748 4.50911 18.152C4.79896 17.9414 4.92553 17.9443 5.22118 18.152C5.3178 18.2192 5.41442 18.3771 5.52746 18.3167C5.6405 18.2562 5.5719 18.0866 5.5719 17.9667C5.5719 12.9682 5.59219 7.96962 5.5719 2.97106C5.5661 1.46798 6.58927 0.241738 7.93225 0.0467865C7.96978 0.0370081 8.00608 0.0229465 8.04046 0.0048726L20.5301 0ZM12.7612 0.7954C11.3132 0.7954 9.86395 0.7954 8.41341 0.7954C8.28395 0.792252 8.15449 0.802052 8.02694 0.824648C6.9999 1.03325 6.3603 1.82572 6.3603 2.88528C6.3603 7.92218 6.36384 12.9584 6.37092 17.994C6.37092 18.1042 6.30715 18.2611 6.42502 18.3147C6.52164 18.3557 6.6086 18.2231 6.69459 18.1607C7.01149 17.9336 7.11681 17.9307 7.44434 18.1607C7.63757 18.2982 7.84143 18.4337 8.0308 18.5818C8.07189 18.623 8.12746 18.6461 8.18538 18.6461C8.24331 18.6461 8.29889 18.623 8.33998 18.5818C8.56316 18.4132 8.79311 18.2543 9.0163 18.0944C9.09481 18.0288 9.19357 17.9929 9.29552 17.9929C9.39748 17.9929 9.49622 18.0288 9.57473 18.0944C9.7815 18.2446 9.99599 18.3869 10.196 18.5458C10.338 18.6598 10.452 18.6773 10.6018 18.5516C10.795 18.3927 10.9989 18.2533 11.2037 18.1139C11.5718 17.8634 11.9022 18.033 11.9293 18.4814C11.9293 18.5594 11.9293 18.6374 11.9293 18.7154C11.9293 19.5663 11.9293 20.4183 11.9293 21.2692C11.9396 21.6902 12.0852 22.0965 12.3441 22.4268C12.6031 22.7571 12.9613 22.9936 13.365 23.1008C13.8906 23.2353 14.4278 23.2109 14.9573 23.1505C15.3604 23.1026 15.7366 22.9221 16.0278 22.6368C16.4944 22.1962 16.6568 21.6357 16.6568 21.007C16.6568 14.9557 16.66 8.90409 16.6664 2.85214C16.6586 2.18172 16.8862 1.53014 17.3089 1.01278C17.3543 0.956239 17.4645 0.915301 17.4229 0.831472C17.3814 0.747643 17.2819 0.7954 17.2084 0.7954C15.7296 0.794101 14.2471 0.794101 12.7612 0.7954ZM11.9051 23.1934C11.2163 22.359 11.0733 21.7157 11.0974 20.7234C11.109 20.2935 11.0974 19.8646 11.0974 19.4347C11.0974 19.3821 11.1148 19.3168 11.0597 19.2846C11.0047 19.2525 10.9631 19.307 10.9177 19.3363C10.8723 19.3655 10.8211 19.4094 10.767 19.4445C10.4578 19.6599 10.3361 19.657 10.0356 19.4377C9.84816 19.3002 9.65493 19.1706 9.46943 19.0292C9.42231 18.9827 9.35902 18.9567 9.2931 18.9567C9.22719 18.9567 9.16389 18.9827 9.11677 19.0292C8.90904 19.193 8.68972 19.3392 8.47523 19.4942C8.39691 19.5598 8.29868 19.5963 8.19689 19.5978C8.09511 19.5992 7.99592 19.5654 7.91583 19.502C7.68781 19.3412 7.45786 19.1823 7.23951 19.0146C7.19894 18.973 7.14377 18.9492 7.08592 18.9483C7.02807 18.9473 6.97217 18.9694 6.93033 19.0097C6.72067 19.1706 6.50522 19.3226 6.2888 19.4737C6.04146 19.6453 5.89653 19.6453 5.65209 19.4737C5.45885 19.3363 5.25596 19.2008 5.07238 19.0487C4.93036 18.9337 4.81636 18.9171 4.66757 19.0429C4.49076 19.194 4.29365 19.3207 4.10428 19.4552C3.83085 19.6502 3.6782 19.6502 3.40864 19.4552C3.21541 19.3148 3.01251 19.1823 2.82894 19.0331C2.78154 18.9868 2.71813 18.9609 2.65214 18.9609C2.58614 18.9609 2.52272 18.9868 2.47532 19.0331C2.28209 19.1793 2.08885 19.3187 1.89562 19.4572C1.60577 19.6589 1.48597 19.6589 1.20191 19.464C1.15071 19.4289 1.10529 19.3899 1.05022 19.3558C0.995147 19.3217 0.95361 19.2583 0.889843 19.2885C0.826076 19.3187 0.851193 19.4006 0.850227 19.4591C0.850227 20.0761 0.850227 20.6931 0.850227 21.3111C0.852587 21.5474 0.906002 21.7802 1.00675 21.9935C1.39321 22.8298 2.06953 23.2012 2.96034 23.2022C5.85498 23.2022 8.74931 23.2022 11.6433 23.2022L11.9051 23.1934ZM17.4664 3.65827C17.4664 4.09399 17.4664 4.45367 17.4664 4.81238C17.4664 4.99271 17.7949 5.39724 17.963 5.43525C18.0384 5.4528 18.078 5.40503 18.1253 5.36604C18.2915 5.22665 18.4558 5.08434 18.6249 4.94787C18.8364 4.77632 19.0432 4.78314 19.25 4.96542C19.4017 5.09896 19.5533 5.23153 19.7021 5.36897C19.7187 5.39061 19.7399 5.40814 19.7642 5.4202C19.7885 5.43226 19.8152 5.43853 19.8422 5.43853C19.8693 5.43853 19.896 5.43226 19.9203 5.4202C19.9446 5.40814 19.9658 5.39061 19.9823 5.36897C20.1466 5.21496 20.3224 5.07654 20.4963 4.93131C20.5725 4.86266 20.671 4.82472 20.7731 4.82472C20.8752 4.82472 20.9738 4.86266 21.0499 4.93131C21.1736 5.02878 21.2847 5.13405 21.4055 5.2325C21.6953 5.46839 21.6953 5.46644 21.9852 5.2325C22.1137 5.13015 22.2538 5.03755 22.249 4.8426C22.2306 4.10958 22.2876 3.38046 22.2122 2.64257C22.1156 1.67853 21.5011 0.99913 20.5553 0.824648C20.1871 0.757389 19.8132 0.796376 19.4422 0.796376C18.98 0.796517 18.5324 0.960165 18.1774 1.25884C17.8224 1.55751 17.5824 1.97231 17.4993 2.43105C17.4171 2.85994 17.4857 3.29859 17.4664 3.65827Z" fill="#0049A3"/>
<path d="M11.5061 4.99985C11.3106 5.00263 11.1165 4.96693 10.935 4.89479C10.7534 4.82265 10.5879 4.7155 10.448 4.57949C10.3081 4.44347 10.1966 4.28128 10.1198 4.10221C10.043 3.92315 10.0025 3.73074 10.0006 3.53604C9.99496 3.33685 10.0294 3.13855 10.1019 2.95281C10.1743 2.76707 10.2834 2.59765 10.4226 2.45452C10.5618 2.31139 10.7283 2.19744 10.9124 2.11938C11.0965 2.04133 11.2944 2.00074 11.4945 2.00001C11.6946 1.99928 11.8928 2.03842 12.0774 2.11512C12.2621 2.19183 12.4294 2.30455 12.5697 2.44666C12.71 2.58877 12.8203 2.75739 12.8941 2.94259C12.9679 3.12779 13.0038 3.32583 12.9997 3.52506C12.9992 3.71968 12.9601 3.91229 12.8848 4.09184C12.8094 4.27139 12.6991 4.43434 12.5604 4.57136C12.4216 4.70838 12.257 4.81677 12.0761 4.8903C11.8952 4.96383 11.7015 5.00105 11.5061 4.99985ZM11.4703 4.25605C11.9296 4.26337 12.2465 3.96512 12.2529 3.52415C12.2554 3.42575 12.2385 3.32782 12.203 3.23595C12.1675 3.14407 12.1142 3.06006 12.0462 2.9887C11.9781 2.91734 11.8966 2.86003 11.8063 2.82004C11.716 2.78005 11.6187 2.75817 11.5199 2.75565C11.3204 2.75056 11.127 2.82461 10.9823 2.96153C10.9106 3.02932 10.8531 3.11051 10.8129 3.20045C10.7728 3.29039 10.7508 3.38733 10.7483 3.48572C10.7391 3.92761 11.0413 4.24873 11.4703 4.2588V4.25605Z" fill="#0049A3"/>
<path d="M9.99118 14.004H12.2212C12.2879 14.004 12.3546 14.004 12.4214 14.004C12.7915 14.0121 13.0031 14.1955 13 14.5032C12.9968 14.8108 12.7915 14.9988 12.4359 15C10.8158 15 9.19571 15 7.57559 15C7.51732 14.9992 7.45931 14.9914 7.40254 14.9768C7.13043 14.9118 6.98551 14.7191 7.00115 14.4625C7.01306 14.3363 7.06675 14.2196 7.15174 14.135C7.23673 14.0505 7.34694 14.0042 7.46091 14.0052C7.66942 13.9936 7.87793 14.0052 8.08644 14.0052L9.99118 14.004Z" fill="#0049A3"/>
<path d="M10.0073 11.9951H7.65159C7.57641 11.9951 7.50123 11.9951 7.42604 11.9951C7.31402 11.9962 7.20621 11.9451 7.12631 11.8529C7.04641 11.7607 7.00099 11.635 7.00002 11.5035C6.99905 11.3719 7.04261 11.2453 7.12113 11.1515C7.19966 11.0577 7.30672 11.0044 7.41874 11.0032C7.48517 10.9989 7.55174 10.9989 7.61817 11.0032H12.3797C12.7828 11.0032 12.9968 11.1761 13 11.4936C13.0031 11.8112 12.7849 12 12.387 12L10.0073 11.9951Z" fill="#0049A3"/>
<path d="M9.98727 8.00062H12.5064C12.7247 8.00062 12.9115 8.06819 12.9777 8.3422C12.9969 8.40784 13.0038 8.47757 12.998 8.54663C12.9921 8.61569 12.9736 8.68246 12.9438 8.7424C12.9139 8.80234 12.8733 8.85403 12.8248 8.89396C12.7763 8.93389 12.7211 8.96111 12.6628 8.97377C12.5891 8.99342 12.5136 9.00209 12.4381 8.99958H7.57629C7.50906 9.00107 7.44188 8.99448 7.37581 8.97991C7.27048 8.96257 7.1742 8.90081 7.10501 8.80624C7.03582 8.71168 6.9985 8.5908 7.00005 8.4663C7.01221 8.33858 7.06428 8.22063 7.14624 8.13512C7.2282 8.04961 7.33425 8.00258 7.44404 8.00307C8.29003 7.99815 9.13813 8.00062 9.98727 8.00062Z" fill="#0049A3"/>
<path d="M15.0076 14.0079C15.2098 14.0079 15.4152 14.0079 15.6132 14.0079C15.8357 14.017 15.9906 14.2112 15.9996 14.4774C16.0085 14.7436 15.8814 14.9447 15.654 14.9687C15.2125 15.0104 14.7694 15.0104 14.3279 14.9687C14.282 14.9691 14.2365 14.9559 14.1945 14.9299C14.1525 14.9039 14.1148 14.8658 14.0841 14.818C14.0533 14.7702 14.03 14.7138 14.0159 14.6526C14.0017 14.5914 13.997 14.5266 14.0019 14.4626C14.01 14.1884 14.138 14.0193 14.367 14.0056C14.5814 13.993 14.7966 14.0056 15.0109 14.0056L15.0076 14.0079Z" fill="#0049A3"/>
<path d="M14.9816 11.9973C14.7722 11.9973 14.5628 12.0034 14.3534 11.9973C14.126 11.9887 13.9992 11.8031 14 11.499C14.0008 11.195 14.1268 11.0106 14.355 11.0033C14.7738 10.9959 15.1935 11.0033 15.6123 11.0033C15.8364 11.0033 16 11.2267 16 11.5015C16 11.7763 15.8364 11.99 15.6106 11.9985C15.4012 12.0022 15.1918 11.9973 14.9816 11.9973Z" fill="#0049A3"/>
<path d="M14.9948 8.00665C15.2114 8.00665 15.4273 8.00665 15.6439 8.00665C15.7295 8.00547 15.8126 8.04986 15.8778 8.13169C15.9431 8.21352 15.9862 8.3273 15.9992 8.45219C16.0053 8.58031 15.9766 8.70676 15.9195 8.80371C15.8624 8.90066 15.7816 8.96017 15.6948 8.96917C15.2302 9.01028 14.7644 9.01028 14.2998 8.96917C14.2134 8.95808 14.1334 8.89697 14.0775 8.79919C14.0215 8.70141 13.994 8.57491 14.0011 8.44735C14.0142 8.17614 14.1348 8.01149 14.3457 8.00301C14.5566 7.99454 14.7782 8.00665 14.9948 8.00665Z" fill="#0049A3"/>
</svg>
