<svg width="27" height="27" viewBox="0 0 27 27" fill="none" xmlns="http://www.w3.org/2000/svg">
<path d="M9.91928 18.6372C9.36941 18.6671 8.81793 18.6312 8.27649 18.5304C7.98039 18.4993 7.68296 18.5749 7.43742 18.7439C5.96293 19.5415 4.36455 20.0829 2.71001 20.3451C2.10724 20.452 1.48786 20.4154 0.901741 20.2384C0.681284 20.1929 0.480639 20.0792 0.327983 19.9132C0.175327 19.7472 0.0783878 19.5374 0.0508418 19.3132C0.0362332 19.0877 0.0984271 18.8639 0.227283 18.6785C0.356139 18.4932 0.54397 18.3573 0.759925 18.2932C1.53372 17.9821 2.17671 17.4123 2.58002 16.6801C2.68205 16.5336 2.72635 16.3544 2.70453 16.177C2.68271 15.9996 2.59634 15.8366 2.46187 15.7194C1.58992 14.8486 0.920273 13.7954 0.500817 12.6349C0.081362 11.4743 -0.0776355 10.2352 0.0352608 9.00586C0.148157 7.77656 0.53017 6.58742 1.15392 5.52339C1.77768 4.45935 2.62787 3.54666 3.64372 2.85048C5.6597 1.38416 8.11716 0.659187 10.6031 0.797429C13.0891 0.935672 15.4518 1.92868 17.294 3.60955C18.3038 4.51101 19.0781 5.64702 19.5492 6.91821C20.0204 8.1894 20.1742 9.55706 19.9969 10.9016C19.8197 12.2462 19.3169 13.5268 18.5326 14.6313C17.7483 15.7358 16.7062 16.6306 15.4976 17.2376C13.7953 18.1937 11.8697 18.6769 9.91928 18.6372ZM2.10725 19.0878C2.43222 19.0809 2.75628 19.0492 3.07645 18.993C4.50242 18.6786 5.87564 18.1593 7.15379 17.4511C7.50678 17.2328 7.92896 17.1565 8.33564 17.2376C10.582 17.6366 12.8967 17.2648 14.9067 16.182C15.9409 15.6739 16.8362 14.9207 17.5153 13.9875C18.1945 13.0543 18.637 11.9692 18.8045 10.8259C18.9721 9.68263 18.8598 8.5156 18.4772 7.42568C18.0946 6.33575 17.4532 5.35573 16.6086 4.57031C14.8754 2.98552 12.6246 2.09143 10.2801 2.05648C7.93565 2.02152 5.65938 2.84811 3.88003 4.38053C3.09272 5.03828 2.45677 5.85939 2.01593 6.7874C1.57509 7.7154 1.3398 8.72826 1.32633 9.75624C1.31285 10.7842 1.52153 11.803 1.93788 12.7423C2.35424 13.6816 2.96842 14.5192 3.73822 15.1975C3.9122 15.3341 4.03896 15.5222 4.10048 15.7351C4.16199 15.9479 4.15519 16.1748 4.081 16.3836C3.76139 17.4904 3.06228 18.4482 2.10725 19.0878Z" fill="white"/>
<path d="M24.4675 24.8287C23.6187 24.4088 22.9479 23.6977 22.5765 22.8242C22.498 22.677 22.4786 22.5052 22.5226 22.3441C22.5666 22.183 22.6705 22.045 22.8129 21.9584C26.2402 19.3609 25.7911 15.1978 21.9383 12.9917L21.43 12.7307C20.8037 12.4342 20.6973 12.1021 20.9809 11.5446C20.9957 11.5054 21.0189 11.47 21.0489 11.4408C21.0789 11.4116 21.1148 11.3893 21.1543 11.3757C21.1939 11.3621 21.236 11.3575 21.2775 11.3621C21.3191 11.3667 21.3591 11.3804 21.3947 11.4023C22.4835 11.7718 23.4747 12.3843 24.2935 13.1937C25.1123 14.0032 25.7376 14.9885 26.1221 16.0755C26.4546 17.1252 26.4891 18.2473 26.2219 19.3157C25.9547 20.3841 25.3964 21.3566 24.6093 22.1244C23.8766 22.9428 23.8646 22.9903 24.8101 23.5715C25.1883 23.8087 25.5901 24.0104 25.992 24.2713C26.1386 24.3436 26.2608 24.4578 26.3428 24.5995C26.4249 24.7413 26.4632 24.9043 26.4531 25.0679C26.4429 25.2315 26.3849 25.3885 26.286 25.5191C26.1871 25.6496 26.0519 25.7478 25.8975 25.8013C25.1898 26.1467 24.3963 26.2746 23.6164 26.169C22.0635 26.1006 20.5712 25.5447 19.35 24.5796C19.2429 24.4992 19.1205 24.4419 18.9903 24.4113C18.8601 24.3807 18.7251 24.3774 18.5936 24.4018C16.4589 24.6121 14.3052 24.2987 12.318 23.4884C10.913 22.935 9.72056 21.9461 8.91426 20.6656C8.7488 20.3928 8.37065 20.0963 8.66612 19.7286C8.96158 19.3609 9.84796 19.7286 9.98979 20.037C10.4077 20.6263 10.9185 21.1431 11.5024 21.567C12.7406 22.3869 14.1537 22.9029 15.6272 23.0733C16.7539 23.2631 17.9043 23.2631 19.031 23.0733C19.1938 23.0391 19.3628 23.0509 19.5193 23.1074C19.6758 23.164 19.8137 23.263 19.9174 23.3935C20.5383 23.9314 21.2621 24.3362 22.0446 24.583C22.8271 24.8298 23.6516 24.9135 24.4675 24.8287Z" fill="white"/>
<path d="M14.0801 19.0407C15.2619 18.7204 16.2192 17.7834 17.6256 17.9257C18.6568 17.991 19.691 17.991 20.7221 17.9257C21.183 17.9257 21.313 18.1393 21.313 18.5544C21.313 18.9695 21.3131 19.2305 20.7812 19.2305H14.1392L14.0801 19.0407Z" fill="white"/>
<path d="M19.8833 16.3479C19.801 16.3597 19.7173 16.3597 19.635 16.3479C19.3277 16.253 18.9024 16.5733 18.7014 16.1463C18.6305 15.9802 19.4815 15.15 19.7297 15.1263C19.9778 15.1025 20.3088 15.1263 20.6042 15.1263C20.8997 15.1263 21.2896 15.2567 21.2896 15.7548C21.2896 16.253 21.0178 16.3953 20.5687 16.3598L19.8833 16.3479Z" fill="white"/>
<path d="M9.99021 10.0856H5.87739C5.40464 10.0856 5.13281 9.99072 5.13281 9.42141C5.13281 8.85209 5.41633 8.76904 5.88907 8.76904H14.304C14.7767 8.76904 14.9776 8.91139 14.9776 9.42141C14.9776 9.93142 14.7649 10.0856 14.2922 10.0856C12.8621 10.0737 11.4321 10.0856 9.99021 10.0856Z" fill="white"/>
<path d="M10.0966 7.19169H5.79469C5.36922 7.19169 5.12109 7.09681 5.12109 6.59865C5.12109 6.1005 5.31014 5.94629 5.80652 5.94629H14.3395C14.8004 5.94629 14.9659 6.10048 14.9659 6.57491C14.9659 7.04934 14.7886 7.20355 14.3395 7.19169H10.0966Z" fill="white"/>
<path d="M8.64288 12.9675C7.67376 12.9675 6.70468 12.9675 5.72374 12.9675C5.28645 12.9675 5.13281 12.7777 5.13281 12.3508C5.13281 11.9238 5.23917 11.7222 5.71191 11.7222H11.6212C12.0348 11.7222 12.1766 11.9119 12.1648 12.3033C12.153 12.6947 12.1648 12.9675 11.633 12.9675C10.6521 12.9675 9.6593 12.9675 8.66654 12.9675H8.64288Z" fill="white"/>
</svg>
