<?xml version="1.0" encoding="utf-8"?>
<!-- Generator: Adobe Illustrator 26.0.1, SVG Export Plug-In . SVG Version: 6.00 Build 0)  -->
<svg version="1.1" id="Layer_1" xmlns="http://www.w3.org/2000/svg" xmlns:xlink="http://www.w3.org/1999/xlink" x="0px" y="0px"
	 viewBox="0 0 36.15 36.15" style="enable-background:new 0 0 36.15 36.15;" xml:space="preserve">
<style type="text/css">
	.st0{fill:#4796FA;}
</style>
<path class="st0" d="M5.6,3.28c8.3,0,16.59,0,24.89,0c0.06,0.09,0.16,0.1,0.26,0.13c1.29,0.36,2.21,1.52,2.19,2.87
	c-0.02,1.03,0.05,2.06,0,3.09c-0.05,0.96,0.01,1.92,0.01,2.89c-0.02,3.96-0.01,7.92,0,11.88c0,0.22-0.03,0.44-0.08,0.66
	c-0.3,1.24-1.5,2.28-3.01,2.27c-6.46-0.03-12.93,0-19.39-0.03c-0.9-0.01-1.65,0.11-2.18,0.89c-0.07,0.11-0.19,0.18-0.29,0.27
	c-1.51,1.51-3.01,3.03-4.52,4.54c-0.06,0.06-0.11,0.18-0.24,0.13c-0.06-0.29,0.03-0.58,0.02-0.86c-0.04-1.13-0.03-2.26,0-3.39
	c0.01-0.46-0.03-0.93-0.03-1.39c0.01-1.35,0.06-2.7,0.02-4.05c-0.04-1.23-0.01-2.46,0-3.68c0-1.11-0.04-2.21,0-3.32
	c0.04-1.23,0.01-2.46,0.01-3.69c0-0.41-0.05-0.82-0.02-1.23C3.29,9.9,3.18,8.55,3.23,7.2c0.02-0.47-0.06-0.95,0.03-1.42
	C3.51,4.59,4.19,3.8,5.35,3.42C5.45,3.39,5.55,3.39,5.6,3.28z M18.04,16.33C18.04,16.33,18.04,16.33,18.04,16.33
	c0.98,0,1.95,0,2.93,0c1.52,0,3.04,0.01,4.56,0c0.84-0.01,1.45-0.63,1.45-1.45c0-0.85-0.64-1.45-1.56-1.46c-1.72-0.01-3.44,0-5.15,0
	c-3.17,0-6.34,0-9.51,0c-0.5,0-0.95,0.12-1.28,0.51c-0.39,0.46-0.47,0.98-0.24,1.52c0.25,0.57,0.7,0.88,1.33,0.88
	C13.05,16.33,15.54,16.33,18.04,16.33z M18.09,8.18c-0.19,0-0.38,0-0.57,0c-2.32,0-4.63,0-6.95,0c-0.69,0-1.21,0.39-1.41,1.01
	c-0.19,0.58,0.03,1.23,0.52,1.6c0.32,0.24,0.68,0.29,1.07,0.29c4.88,0,9.75,0,14.63,0c0.11,0,0.22,0,0.33-0.01
	c0.6-0.05,1.11-0.47,1.27-1.06c0.16-0.58-0.06-1.2-0.55-1.56c-0.31-0.23-0.67-0.27-1.04-0.27C22.96,8.18,20.53,8.18,18.09,8.18z
	 M15.38,22.17c1.6,0,3.19,0,4.79,0c0.91,0,1.56-0.61,1.56-1.46c0-0.84-0.65-1.45-1.56-1.45c-0.88,0-1.75,0-2.63,0
	c-2.28,0-4.57,0-6.85,0c-0.52,0-0.96,0.16-1.28,0.59C9.05,20.3,9,20.82,9.25,21.35c0.26,0.54,0.71,0.82,1.3,0.82
	C12.16,22.18,13.77,22.17,15.38,22.17z"/>
</svg>
