<svg width="27" height="25" viewBox="0 0 27 25" fill="none" xmlns="http://www.w3.org/2000/svg">
<path d="M20.2246 16.7154C20.2288 15.5431 19.9293 14.3899 19.3554 13.369C18.7814 12.348 17.9529 11.4943 16.951 10.8917C16.5998 10.6738 16.2322 10.4835 15.8518 10.3224L15.249 10.0377L15.0127 9.91913L15.2135 9.74123C15.9329 9.23113 16.5425 8.58061 17.0055 7.82859C17.4685 7.07656 17.7755 6.23851 17.9082 5.3646C17.9303 4.77163 17.827 4.18068 17.6049 3.63073C17.3829 3.08078 17.0472 2.58431 16.62 2.17405C16.1785 1.70936 15.6476 1.33943 15.0595 1.08668C14.4713 0.833925 13.8383 0.703613 13.1985 0.703613C12.5588 0.703613 11.9256 0.833925 11.3375 1.08668C10.7493 1.33943 10.2185 1.70936 9.77705 2.17405C9.32298 2.67909 8.98247 3.27625 8.77856 3.92497C8.57464 4.57369 8.51209 5.25883 8.59519 5.93393C8.73162 6.71515 9.03875 7.45638 9.49442 8.1044C9.9501 8.75242 10.543 9.29115 11.2307 9.68194L11.4908 9.85984L10.7108 10.2394C10.3875 10.3808 10.0719 10.5392 9.76522 10.7138C8.80003 11.2199 7.9764 11.9604 7.36948 12.8678C6.76257 13.7752 6.39174 14.8207 6.29064 15.9088C6.16063 17.4507 6.17248 19.0401 6.17248 20.582C6.17248 21.3411 6.17248 22.112 6.17248 22.8711C6.14869 23.0376 6.19112 23.2069 6.29064 23.3422C6.39015 23.4776 6.53869 23.5683 6.70426 23.5946C8.92247 24.3753 11.2556 24.7762 13.6062 24.7807C15.6794 24.7762 17.7412 24.4727 19.7283 23.8793C20.1538 23.7607 20.2719 23.5828 20.2719 23.1202C20.2719 21.8155 20.2719 20.5108 20.2719 19.1943C20.2246 18.3877 20.2246 17.5575 20.2246 16.7154ZM9.69438 5.44763C9.68996 4.96639 9.78059 4.48903 9.96113 4.04318C10.1417 3.59734 10.4086 3.19184 10.7462 2.85012C11.0662 2.5257 11.4472 2.26842 11.8672 2.09329C12.2872 1.91817 12.7378 1.82869 13.1926 1.83008C14.133 1.83008 15.0348 2.20498 15.6997 2.87227C16.3646 3.53957 16.7382 4.44461 16.7382 5.38831C16.746 5.86055 16.6601 6.32964 16.4854 6.76822C16.3108 7.20679 16.0508 7.60606 15.7208 7.94278C15.3908 8.2795 14.9972 8.54692 14.5632 8.72944C14.1291 8.91195 13.6632 9.00593 13.1926 9.00587C12.2605 8.99339 11.3708 8.61301 10.7161 7.94706C10.0614 7.2811 9.6943 6.38317 9.69438 5.44763ZM18.2982 23.1202C16.7464 23.4703 15.1612 23.6493 13.5707 23.6539C11.6683 23.647 9.77574 23.3796 7.94526 22.8592C7.66162 22.7762 7.27152 22.6695 7.27152 22.1476C7.27152 21.6257 7.27152 20.9615 7.27152 20.3803C7.1969 18.9085 7.24036 17.433 7.40151 15.9681C7.59065 14.5659 8.2811 13.2804 9.34424 12.3509C10.4074 11.4214 11.7708 10.9113 13.1808 10.9154C14.1992 10.9175 15.1986 11.1918 16.0763 11.7101C16.9824 12.1868 17.738 12.9079 18.2579 13.7922C18.7778 14.6765 19.0416 15.6889 19.0192 16.7154V20.072C19.0192 20.7599 19.0192 21.4478 19.0192 22.1358C19.0377 22.2481 19.0335 22.3629 19.0071 22.4736C18.9807 22.5843 18.9323 22.6886 18.8651 22.7803C18.798 22.872 18.7134 22.9493 18.616 23.0077C18.5186 23.0661 18.4105 23.1043 18.2982 23.1202Z" fill="white"/>
<path d="M25.9686 17.0119C25.9594 16.1542 25.7386 15.3121 25.3261 14.5608C24.9137 13.8096 24.3224 13.1725 23.6048 12.7064C23.3921 12.5878 23.1794 12.4336 23.1439 12.2201C23.1505 12.1039 23.1825 11.9905 23.2377 11.888C23.2928 11.7855 23.3696 11.6964 23.4629 11.6271C23.843 11.295 24.1334 10.8719 24.307 10.397C24.4806 9.92218 24.5318 9.41097 24.4557 8.91096C24.3686 8.17996 24.0453 7.49775 23.5352 6.96868C23.025 6.4396 22.3562 6.09279 21.6311 5.98135C20.9013 5.8785 20.1581 6.02043 19.517 6.38505C18.8758 6.74966 18.3726 7.31656 18.0855 7.9977C17.7989 8.69747 17.7598 9.47471 17.9749 10.1999C18.1899 10.925 18.6461 11.5543 19.2674 11.9829L19.4565 12.1134C19.6885 12.2184 19.8706 12.4098 19.9646 12.6471C20.0947 13.1216 20.3428 13.3469 20.7092 13.3469C20.8231 13.3605 20.9382 13.3605 21.052 13.3469C21.8694 13.2576 22.6907 13.4746 23.3583 13.9563C24.0259 14.438 24.4925 15.1502 24.6684 15.9563C24.9459 16.9847 25.0851 18.0458 25.0822 19.1112C25.0822 19.384 25.0822 19.6687 25.0822 19.9534C25.0822 20.9853 24.9403 21.1394 24.0303 21.5546C23.4161 21.7933 22.7717 21.945 22.1157 22.0053C22.0594 22.0075 22.0041 22.0213 21.9533 22.0458C21.9024 22.0703 21.8572 22.1049 21.8202 22.1476C21.7493 22.2306 21.7375 22.3848 21.8202 22.6339C21.8202 22.6339 21.8202 22.7525 21.8202 22.8118C21.8202 23.0965 21.8201 23.1321 22.0211 23.1321C23.3418 23.1163 24.6193 22.657 25.6494 21.8274C25.8171 21.6954 25.9515 21.5258 26.0418 21.3321C26.1322 21.1385 26.1758 20.9262 26.1694 20.7125V20.5938C26.181 19.3967 26.114 18.2001 25.9686 17.0119ZM21.0402 11.4729C20.4603 11.4729 19.9042 11.2417 19.4942 10.8302C19.0842 10.4187 18.8538 9.86063 18.8538 9.27868C18.8538 8.69673 19.0842 8.1386 19.4942 7.7271C19.9042 7.31559 20.4603 7.08443 21.0402 7.08443C21.6201 7.09701 22.1711 7.34025 22.5723 7.76065C22.9735 8.18105 23.1918 8.74415 23.1793 9.3261C23.1667 9.90805 22.9244 10.4612 22.5055 10.8638C22.0866 11.2664 21.5256 11.4855 20.9457 11.4729H21.0402Z" fill="white"/>
<path d="M6.93968 12.0187C7.51967 11.6111 7.95525 11.0287 8.18328 10.356C8.41132 9.68332 8.41997 8.95521 8.20795 8.27724C7.99594 7.59928 7.57433 7.0067 7.00417 6.5854C6.43401 6.16409 5.74495 5.93597 5.03692 5.93408C4.46632 5.93794 3.90571 6.08469 3.40595 6.36105C2.96011 6.6085 2.57823 6.95734 2.2909 7.37958C2.00357 7.80181 1.81876 8.28573 1.75133 8.79253C1.67982 9.32586 1.73586 9.8686 1.91464 10.3759C2.09343 10.8833 2.38983 11.3406 2.77954 11.7103C2.95682 11.9 3.11046 12.0542 3.075 12.2559C3.03955 12.4575 2.85047 12.5761 2.64955 12.671C2.16409 12.9286 1.73441 13.2803 1.38547 13.7059C1.03652 14.1314 0.775276 14.6222 0.616799 15.1499C0.194562 16.5694 -0.00871845 18.0453 0.0140425 19.5265V19.7875C0.0258417 19.9493 0.0258417 20.1119 0.0140425 20.2738C-0.0368562 20.6919 0.0514566 21.1152 0.265215 21.4777C0.478974 21.8403 0.80618 22.1217 1.1959 22.2782C2.01852 22.7195 2.91664 23.0011 3.84323 23.1085H4.06786C4.31605 23.1085 4.44604 23.0254 4.49331 22.5985C4.54059 22.1715 4.49322 22.0054 3.96139 21.958C3.12089 21.9168 2.30586 21.6551 1.59769 21.1989C1.43129 21.1002 1.29562 20.9569 1.20585 20.7851C1.11608 20.6133 1.07585 20.4198 1.08957 20.2263V19.9772C1.09789 18.9083 1.18875 17.8416 1.36137 16.7867C1.41044 16.0324 1.68149 15.3096 2.14014 14.71C2.59878 14.1103 3.22446 13.6608 3.93788 13.4182C4.25392 13.334 4.57999 13.2941 4.90693 13.2996C5.1433 13.2996 5.37964 13.2996 5.61601 13.2996H5.746C5.95873 13.2996 6.0415 13.2284 6.07695 13.0387C6.22022 12.5983 6.53001 12.2321 6.93968 12.0187ZM5.03692 11.473C4.74448 11.4815 4.45341 11.4293 4.18198 11.3198C3.91054 11.2103 3.66468 11.0457 3.45948 10.8364C3.25428 10.6272 3.09422 10.3777 2.98945 10.1035C2.88468 9.82939 2.83739 9.53652 2.85052 9.24321C2.85674 8.66538 3.08979 8.11336 3.49915 7.70697C3.90851 7.30059 4.46111 7.07267 5.03692 7.07271C5.62609 7.0736 6.19115 7.30805 6.60887 7.72503C6.80892 7.92582 6.9672 8.16446 7.07472 8.4271C7.18224 8.68973 7.23675 8.97115 7.23515 9.25508C7.23827 9.54678 7.18379 9.8362 7.07472 10.1066C6.96565 10.377 6.80422 10.623 6.59979 10.8304C6.39535 11.0378 6.15189 11.2024 5.88363 11.3148C5.61538 11.4271 5.3276 11.4849 5.03692 11.4849V11.473Z" fill="white"/>
</svg>
