<svg width="27" height="27" viewBox="0 0 27 27" fill="none" xmlns="http://www.w3.org/2000/svg">
<path d="M26.0302 13.4984C26.0302 17.3532 26.0302 21.2079 26.0302 25.0627C26.0334 25.2598 25.997 25.4556 25.9233 25.6384C25.8496 25.8211 25.7401 25.9872 25.6011 26.1266C25.4622 26.266 25.2968 26.376 25.1147 26.4499C24.9326 26.5239 24.7375 26.5604 24.541 26.5572C16.859 26.5572 9.17696 26.5572 1.49492 26.5572C1.29992 26.5587 1.10652 26.5215 0.925919 26.4477C0.745317 26.3739 0.581053 26.265 0.442617 26.1271C0.304182 25.9893 0.19429 25.8253 0.11931 25.6447C0.0443302 25.464 0.00576422 25.2703 0.00577046 25.0746C0.00577046 17.3532 0.00577046 9.65555 0.00577046 1.91047C-0.0124479 1.71432 0.0125913 1.51656 0.0792035 1.33125C0.145816 1.14595 0.252313 0.977657 0.391113 0.83836C0.529914 0.699064 0.697705 0.592186 0.88235 0.525335C1.067 0.458485 1.26398 0.433302 1.45943 0.451586C9.15329 0.451586 16.8235 0.451586 24.541 0.451586C24.7361 0.451579 24.9292 0.490319 25.1092 0.565567C25.2892 0.640816 25.4525 0.751091 25.5899 0.890021C25.7272 1.02895 25.8358 1.19379 25.9093 1.37504C25.9828 1.55629 26.0199 1.75035 26.0184 1.94605C26.0065 5.78894 26.0302 9.64369 26.0302 13.4984ZM13.0298 7.6748H1.34127C0.951259 7.6748 0.951311 7.6748 0.951311 8.05435V24.8729C0.951311 25.4778 1.08132 25.6083 1.69588 25.6083H24.3401C24.9546 25.6083 25.0847 25.4778 25.0847 24.8611V8.07806C25.0847 7.6748 25.0847 7.6748 24.6947 7.6748H13.0298ZM13.0298 6.7378H24.7538C25.132 6.7378 25.132 6.7378 25.132 6.38197V2.08838C25.132 1.53092 24.9902 1.38859 24.4347 1.38859H1.63673C1.08126 1.38859 0.93948 1.53092 0.93948 2.08838V6.34639C0.93948 6.7378 0.93944 6.7378 1.34127 6.7378H13.0298Z" fill="white"/>
<path d="M6.78928 21.3148C6.79193 21.0311 6.87825 20.7546 7.03743 20.5202L7.67567 19.6306C7.7324 19.5624 7.76353 19.4763 7.76353 19.3875C7.76353 19.2986 7.7324 19.2126 7.67567 19.1443C7.63432 19.0925 7.60601 19.0315 7.59301 18.9664C7.49846 18.4327 7.15567 18.2548 6.6593 18.231C6.43548 18.2196 6.2135 18.1838 5.99739 18.1243C5.68252 18.0652 5.39899 17.8954 5.19756 17.6454C4.99613 17.3955 4.89007 17.0817 4.89835 16.7603C4.85231 16.4467 4.90925 16.1266 5.06065 15.8484C5.21205 15.5702 5.44962 15.349 5.73742 15.2184C5.95767 15.1235 6.19512 15.0751 6.43481 15.0761C6.7246 15.0953 7.01124 15.0068 7.24012 14.8274C7.46901 14.648 7.62403 14.3903 7.67567 14.1035C7.70777 14.0301 7.71927 13.9493 7.70885 13.8699C7.69844 13.7904 7.66658 13.7153 7.61667 13.6528C7.40393 13.3681 7.20299 13.0716 7.00208 12.7751C6.83477 12.4799 6.76832 12.1378 6.81309 11.8012C6.85786 11.4646 7.01133 11.152 7.24993 10.9112C7.48853 10.6704 7.79915 10.5147 8.1343 10.4679C8.46945 10.4211 8.81061 10.4857 9.10567 10.652C9.41295 10.8576 9.70841 11.0711 9.99206 11.2925C10.0581 11.3435 10.1392 11.3711 10.2226 11.3711C10.306 11.3711 10.3869 11.3435 10.453 11.2925C10.547 11.2285 10.6508 11.1804 10.7603 11.1502C10.9318 11.1293 11.0885 11.0419 11.1967 10.9067C11.3049 10.7715 11.3561 10.5992 11.3394 10.4266C11.3614 10.1634 11.401 9.90183 11.4577 9.64383C11.4988 9.30849 11.6636 9.00077 11.9195 8.78125C12.1754 8.56174 12.5039 8.44633 12.8404 8.45775C13.0521 8.4288 13.2669 8.4288 13.4786 8.45775C13.7496 8.52536 13.9929 8.67582 14.175 8.8883C14.3571 9.10079 14.4689 9.3648 14.495 9.64383C14.5659 9.99965 14.625 10.3436 14.6723 10.6994C14.6752 10.7739 14.7022 10.8453 14.749 10.9031C14.7959 10.9608 14.8602 11.0018 14.9323 11.0197C15.0611 11.0473 15.1849 11.0953 15.2987 11.162C15.3629 11.2147 15.4368 11.2541 15.5163 11.2778C15.5957 11.3016 15.6791 11.3093 15.7615 11.3004C15.844 11.2916 15.924 11.2665 15.9967 11.2264C16.0694 11.1863 16.1334 11.1322 16.1851 11.0671C16.378 10.9047 16.5834 10.7579 16.7995 10.6283C17.0699 10.4058 17.4158 10.2975 17.7643 10.3263C18.1127 10.3551 18.4365 10.5186 18.667 10.7825C18.8109 10.892 18.9318 11.029 19.0229 11.1855C19.1139 11.3421 19.1733 11.5152 19.1974 11.6949C19.2216 11.8745 19.2101 12.0572 19.1637 12.2324C19.1173 12.4076 19.0368 12.5719 18.9269 12.7158C18.7142 13.036 18.4896 13.3444 18.265 13.6528C18.2226 13.7023 18.1994 13.7654 18.1994 13.8307C18.1994 13.896 18.2226 13.9591 18.265 14.0086C18.3457 14.1324 18.4056 14.2686 18.4423 14.4119C18.4657 14.5648 18.5455 14.7034 18.666 14.8001C18.7864 14.8967 18.9386 14.9445 19.0924 14.9337C19.3945 14.9678 19.6944 15.0193 19.9906 15.0879C20.3077 15.1424 20.5941 15.3109 20.7964 15.562C20.9987 15.813 21.1029 16.1294 21.0897 16.4519C21.1191 16.6564 21.1191 16.8641 21.0897 17.0687C21.0244 17.3428 20.8755 17.5897 20.6636 17.7747C20.4517 17.9597 20.1874 18.0737 19.9078 18.1006L18.856 18.2666C18.7777 18.2723 18.7033 18.3029 18.6437 18.3542C18.5842 18.4054 18.5427 18.4745 18.5251 18.5513C18.502 18.6428 18.4661 18.7307 18.4187 18.8122C18.1114 19.2155 18.2297 19.5476 18.5488 19.8915C18.7117 20.0844 18.858 20.2907 18.9861 20.5083C19.18 20.806 19.2537 21.1666 19.1922 21.5169C19.1308 21.8672 18.9387 22.1809 18.6551 22.3942C18.4285 22.634 18.1235 22.7839 17.7959 22.8166C17.4682 22.8493 17.1397 22.7625 16.8705 22.5721L15.9605 21.9197C15.9014 21.9197 15.8541 21.813 15.795 21.813C15.535 21.813 15.3578 21.979 15.1214 22.0502C14.885 22.1214 14.6841 22.1688 14.6723 22.4891C14.6384 22.8079 14.5871 23.1247 14.5186 23.4379C14.4959 23.636 14.433 23.8273 14.3337 24.0001C14.2344 24.1728 14.1009 24.3233 13.9414 24.4422C13.7819 24.5612 13.5999 24.646 13.4065 24.6916C13.213 24.7371 13.0123 24.7424 12.8167 24.707C12.4658 24.6958 12.1319 24.5532 11.8804 24.3074C11.6289 24.0616 11.4782 23.7303 11.4577 23.3786C11.4577 23.0465 11.3513 22.7263 11.304 22.3942C11.3029 22.3361 11.2824 22.2801 11.246 22.235C11.2097 22.1899 11.1594 22.1583 11.1031 22.1451C10.9886 22.0513 10.8564 21.9817 10.7144 21.9404C10.5725 21.899 10.4237 21.8869 10.277 21.9046C10.1302 21.9223 9.98847 21.9695 9.86034 22.0435C9.73221 22.1174 9.62035 22.2165 9.53126 22.3349C9.44066 22.4164 9.34161 22.488 9.2358 22.5484C9.02243 22.6841 8.77939 22.7659 8.52758 22.7865C8.27578 22.8072 8.02274 22.7662 7.79022 22.667C7.5577 22.5678 7.35259 22.4135 7.19266 22.2172C7.03273 22.0209 6.92278 21.7886 6.87209 21.5402C6.8398 21.4669 6.81209 21.3916 6.78928 21.3148ZM18.2887 11.9448C18.2745 11.8284 18.2313 11.7174 18.1632 11.622C18.095 11.5267 18.0041 11.4501 17.8987 11.3992C17.8271 11.3453 17.7401 11.3162 17.6506 11.3162C17.5611 11.3162 17.4739 11.3453 17.4023 11.3992L16.1496 12.3006C16.0555 12.3757 15.9388 12.4165 15.8187 12.4165C15.6985 12.4165 15.5818 12.3757 15.4877 12.3006C15.1945 12.0927 14.8599 11.9511 14.5068 11.8855C14.3073 11.8646 14.1231 11.7685 13.9915 11.6166C13.8599 11.4647 13.7907 11.2683 13.7977 11.0671C13.7977 10.6401 13.6677 10.2132 13.5849 9.79802C13.5022 9.3829 13.3485 9.39476 12.9703 9.40662C12.9104 9.40008 12.8498 9.40574 12.792 9.42323C12.7343 9.44073 12.6807 9.4697 12.6343 9.50845C12.588 9.54719 12.55 9.5949 12.5224 9.64872C12.4948 9.70255 12.4785 9.76139 12.4741 9.82174C12.3795 10.3436 12.2967 10.8536 12.2021 11.3755C12.1931 11.483 12.1489 11.5845 12.0762 11.6639C12.0034 11.7434 11.9063 11.7963 11.8003 11.8144C11.3824 11.9102 10.9831 12.0745 10.6185 12.3006C10.5123 12.3843 10.3813 12.4298 10.2463 12.4298C10.1113 12.4298 9.98008 12.3843 9.8739 12.3006L8.69205 11.4823C8.64657 11.4275 8.58975 11.3834 8.52542 11.3532C8.46108 11.3229 8.39088 11.3072 8.31983 11.3072C8.24879 11.3072 8.17859 11.3229 8.11425 11.3532C8.04992 11.3834 7.99295 11.4275 7.94748 11.4823C7.89311 11.5267 7.84931 11.5828 7.81922 11.6464C7.78913 11.71 7.77349 11.7795 7.77349 11.8499C7.77349 11.9203 7.78913 11.9899 7.81922 12.0535C7.84931 12.1171 7.89311 12.1731 7.94748 12.2176L8.76303 13.4037C8.84928 13.5158 8.89604 13.6535 8.89604 13.7951C8.89604 13.9367 8.84928 14.0744 8.76303 14.1865C8.54836 14.5283 8.39626 14.9059 8.31392 15.3014C8.29653 15.423 8.23953 15.5355 8.1519 15.6213C8.06428 15.7071 7.95089 15.7614 7.82932 15.7759L6.34017 16.0368C5.99744 16.0961 5.89106 16.2503 5.89106 16.5942C5.87703 16.6614 5.87806 16.7309 5.89409 16.7976C5.91012 16.8643 5.94083 16.9266 5.98383 16.98C6.02682 17.0333 6.08102 17.0764 6.14267 17.1061C6.20431 17.1358 6.27179 17.1514 6.34017 17.1517L7.75848 17.4126C7.90555 17.4205 8.04489 17.4811 8.15118 17.5834C8.25747 17.6857 8.32363 17.823 8.33758 17.9701C8.41123 18.3347 8.54714 18.6838 8.73937 19.002C8.82371 19.1104 8.8695 19.244 8.8695 19.3815C8.8695 19.5191 8.82371 19.6527 8.73937 19.7611L7.93565 20.9471C7.85448 21.0597 7.81624 21.1977 7.82773 21.3361C7.83922 21.4746 7.89966 21.6043 7.99826 21.7019C8.09686 21.7994 8.22702 21.8582 8.36513 21.8677C8.50324 21.8772 8.64025 21.8368 8.7512 21.7537L9.86207 20.9471C9.97305 20.8696 10.1051 20.828 10.2403 20.828C10.3756 20.828 10.5075 20.8696 10.6185 20.9471C10.9731 21.1338 11.3453 21.2847 11.7295 21.3979C11.8658 21.43 11.9885 21.5048 12.0798 21.6113C12.1711 21.7179 12.2263 21.8508 12.2376 21.9909C12.3203 22.4772 12.3913 22.9635 12.4859 23.4498C12.5804 23.9361 12.7221 23.8649 13.1003 23.8412C13.4785 23.8175 13.5495 23.7226 13.5968 23.4261C13.6913 22.9042 13.7858 22.3823 13.8686 21.8486C13.8847 21.7475 13.9323 21.654 14.0045 21.5816C14.0766 21.5092 14.1696 21.4615 14.2704 21.4453C14.6866 21.3443 15.0851 21.1804 15.4522 20.959C15.5584 20.8753 15.6896 20.8298 15.8246 20.8298C15.9596 20.8298 16.0906 20.8753 16.1968 20.959L17.3078 21.7655C17.6151 21.979 17.7924 21.979 18.0405 21.7655C18.1051 21.7248 18.1599 21.6704 18.2011 21.606C18.2424 21.5417 18.269 21.469 18.2792 21.3932C18.2893 21.3174 18.2827 21.2403 18.2598 21.1673C18.237 21.0943 18.1984 21.0272 18.1469 20.9709C18.0641 20.8389 17.9734 20.7121 17.8751 20.5913C17.686 20.3304 17.4851 20.0932 17.3078 19.8322C17.2365 19.7318 17.1983 19.6116 17.1983 19.4883C17.1983 19.365 17.2365 19.2448 17.3078 19.1443C17.5305 18.7448 17.7012 18.3183 17.8159 17.8752C17.8398 17.7695 17.8959 17.6739 17.9763 17.6016C18.0568 17.5294 18.1577 17.484 18.265 17.4719L19.7542 17.2229C20.1205 17.1517 20.2269 16.9738 20.2151 16.5468C20.2033 16.1198 20.0616 16.108 19.7188 16.0486L18.3715 15.8233C18.2284 15.8094 18.094 15.7483 17.9892 15.6496C17.8844 15.5509 17.8152 15.4201 17.7924 15.2777C17.7157 14.9065 17.5715 14.5527 17.367 14.234C17.2718 14.119 17.2197 13.9742 17.2197 13.8248C17.2197 13.6753 17.2718 13.5305 17.367 13.4156L18.1469 12.3125C18.2322 12.2084 18.2819 12.0795 18.2887 11.9448Z" fill="white"/>
<path d="M9.0119 2.25429H10.0401C10.2269 2.24226 10.4141 2.27013 10.5893 2.33604C10.7646 2.40196 10.924 2.50443 11.0569 2.63669C11.1898 2.76895 11.2933 2.928 11.3605 3.10334C11.4276 3.27868 11.457 3.46631 11.4466 3.65387V4.55529C11.4482 4.73119 11.4146 4.90563 11.3479 5.06831C11.2812 5.23098 11.1827 5.37859 11.0582 5.50243C10.9337 5.62626 10.7858 5.7238 10.6231 5.78928C10.4604 5.85477 10.2863 5.88687 10.1111 5.88369H8.18466C7.81828 5.88369 7.62909 5.70578 7.64091 5.3974C7.65273 5.08902 7.8301 4.94669 8.18466 4.94669H9.80379C10.3829 4.94669 10.5129 4.80436 10.5129 4.23504C10.5129 4.04527 10.5129 3.8555 10.5129 3.67758C10.5145 3.61328 10.503 3.54932 10.4793 3.48958C10.4555 3.42985 10.4198 3.37559 10.3745 3.3301C10.3292 3.28462 10.2752 3.24886 10.2157 3.225C10.1562 3.20113 10.0923 3.18967 10.0283 3.1913C9.94565 3.18536 9.86275 3.18536 9.78013 3.1913H3.49259C2.87803 3.1913 2.74802 3.3099 2.74802 3.92666C2.74802 4.08085 2.74802 4.2469 2.74802 4.40109C2.73868 4.47394 2.74598 4.54795 2.76923 4.61759C2.79247 4.68723 2.83116 4.75069 2.88233 4.80319C2.93351 4.85569 2.99583 4.89587 3.06469 4.92073C3.13355 4.94558 3.20717 4.95445 3.27994 4.94669H4.46179C4.52611 4.93833 4.59142 4.9437 4.65353 4.96242C4.71563 4.98115 4.7731 5.01281 4.82218 5.05535C4.87126 5.09789 4.91081 5.15034 4.93831 5.20928C4.96581 5.26822 4.98061 5.33233 4.98174 5.3974C4.98174 5.70578 4.7927 5.88369 4.44996 5.88369H3.07897C2.74627 5.86897 2.4313 5.72894 2.19691 5.49152C1.96253 5.2541 1.82602 4.93673 1.81445 4.60272C1.81445 4.25876 1.81445 3.9148 1.81445 3.55898C1.816 3.38609 1.8514 3.21519 1.91876 3.05605C1.98612 2.89691 2.08409 2.75265 2.20701 2.6315C2.32993 2.51034 2.47544 2.41467 2.6352 2.34995C2.79496 2.28523 2.96585 2.25273 3.13812 2.25429C5.1 2.24243 7.06184 2.25429 9.0119 2.25429Z" fill="white"/>
<path d="M17.9459 3.17954C18.1287 3.17718 18.3081 3.22943 18.4613 3.32965C18.6144 3.42987 18.7343 3.57351 18.8059 3.74234C18.8775 3.91117 18.8974 4.09755 18.8632 4.27778C18.829 4.45802 18.7422 4.62397 18.6138 4.75454C18.4853 4.88511 18.3211 4.9744 18.142 5.01107C17.9629 5.04774 17.7769 5.03013 17.6078 4.96047C17.4386 4.89081 17.2939 4.77225 17.1921 4.61986C17.0903 4.46748 17.0359 4.28815 17.0359 4.10467C17.031 3.98287 17.051 3.86136 17.0949 3.74768C17.1387 3.634 17.2053 3.53056 17.2907 3.44381C17.376 3.35706 17.4782 3.28884 17.5909 3.24338C17.7036 3.19791 17.8245 3.17619 17.9459 3.17954Z" fill="white"/>
<path d="M20.6406 4.98253C20.4578 4.98488 20.2784 4.93263 20.1253 4.83241C19.9721 4.7322 19.8522 4.58855 19.7806 4.41972C19.709 4.25089 19.6891 4.06452 19.7233 3.88429C19.7576 3.70405 19.8443 3.5381 19.9728 3.40753C20.1012 3.27696 20.2654 3.18766 20.4445 3.15099C20.6237 3.11432 20.8096 3.13193 20.9788 3.20159C21.1479 3.27125 21.2926 3.38981 21.3944 3.5422C21.4962 3.69458 21.5506 3.87391 21.5507 4.05739C21.5556 4.17919 21.5355 4.30071 21.4916 4.41439C21.4478 4.52807 21.3812 4.6315 21.2959 4.71825C21.2105 4.805 21.1083 4.87322 20.9956 4.91869C20.8829 4.96415 20.762 4.98588 20.6406 4.98253Z" fill="white"/>
<path d="M23.3346 4.98253C23.2056 4.99726 23.0749 4.98448 22.9512 4.945C22.8274 4.90553 22.7135 4.84026 22.6166 4.75348C22.5197 4.6667 22.4422 4.56036 22.3891 4.44142C22.336 4.32249 22.3086 4.19364 22.3086 4.06333C22.3086 3.93301 22.336 3.80416 22.3891 3.68522C22.4422 3.56629 22.5197 3.45995 22.6166 3.37316C22.7135 3.28638 22.8274 3.22111 22.9512 3.18164C23.0749 3.14217 23.2056 3.12938 23.3346 3.14411C23.5596 3.1698 23.7674 3.2777 23.9182 3.44723C24.069 3.61676 24.1524 3.83607 24.1524 4.06333C24.1524 4.29058 24.069 4.50988 23.9182 4.67941C23.7674 4.84895 23.5596 4.95684 23.3346 4.98253Z" fill="white"/>
<path d="M6.77736 5.40945C6.77961 5.50474 6.75323 5.59851 6.70162 5.67853C6.65 5.75855 6.57565 5.8211 6.4881 5.85805C6.40054 5.895 6.3039 5.90463 6.21081 5.88568C6.11773 5.86673 6.03241 5.82008 5.96613 5.75181C5.89985 5.68354 5.85563 5.59682 5.83917 5.50294C5.82271 5.40906 5.83486 5.31239 5.87394 5.22551C5.91302 5.13864 5.97727 5.06558 6.05832 5.01588C6.13937 4.96618 6.23338 4.94214 6.32825 4.94688C6.38823 4.94686 6.44768 4.9589 6.50296 4.98228C6.55823 5.00567 6.60825 5.03994 6.65011 5.08306C6.69197 5.12617 6.72477 5.17726 6.74663 5.23332C6.76849 5.28938 6.77894 5.34927 6.77736 5.40945Z" fill="white"/>
<path d="M13.0522 13.0357C13.9925 13.0357 14.8944 13.4106 15.5593 14.0779C16.2242 14.7452 16.5978 15.6502 16.5978 16.5939C16.5885 17.5556 16.2029 18.4752 15.5241 19.1542C14.8453 19.8331 13.9277 20.2171 12.9694 20.2233C12.0243 20.1869 11.1294 19.7874 10.4695 19.1075C9.80961 18.4276 9.43526 17.5192 9.42383 16.5702C9.44853 15.6221 9.84202 14.7214 10.5201 14.0608C11.1982 13.4002 12.1072 13.0322 13.0522 13.0357ZM12.9812 19.31C13.3328 19.3163 13.6822 19.2523 14.0088 19.1216C14.3355 18.9909 14.633 18.7962 14.8838 18.5488C15.1347 18.3015 15.3339 18.0065 15.4699 17.681C15.6058 17.3555 15.6759 17.0061 15.6759 16.6532C15.6759 15.9486 15.3969 15.2728 14.9004 14.7746C14.404 14.2763 13.7307 13.9964 13.0285 13.9964C12.3264 13.9964 11.653 14.2763 11.1565 14.7746C10.66 15.2728 10.3812 15.9486 10.3812 16.6532C10.3781 16.999 10.4428 17.342 10.5718 17.6627C10.7008 17.9833 10.8914 18.2753 11.1328 18.5221C11.3743 18.7688 11.6618 18.9653 11.979 19.1005C12.2961 19.2357 12.6367 19.3069 12.9812 19.31Z" fill="white"/>
</svg>
