<svg width="25" height="23" viewBox="0 0 25 23" fill="none" xmlns="http://www.w3.org/2000/svg">
<path d="M24.5594 21.4564C24.3961 21.8395 24.116 22.1607 23.7592 22.3739C23.4024 22.587 22.9873 22.681 22.5739 22.6424C15.7191 22.6424 8.85264 22.6424 1.98608 22.6424C0.591493 22.6424 0.000503223 22.0494 0.000503223 20.6498V14.1976C-0.00551416 13.8872 0.0424739 13.5781 0.14232 13.2843C1.52903 9.26744 2.90786 5.23872 4.2788 1.19815C4.319 0.997428 4.43492 0.82001 4.60226 0.702898C4.76959 0.585785 4.97545 0.538017 5.17702 0.569533C9.90444 0.569533 14.6318 0.569533 19.3593 0.569533C19.5863 0.531602 19.8191 0.58504 20.0072 0.718263C20.1952 0.851487 20.3234 1.05374 20.3638 1.28117C21.6757 5.18336 23.023 9.0737 24.3585 12.964C24.4176 13.1538 24.5004 13.3317 24.5713 13.5215L24.5594 21.4564ZM12.3273 1.4828C10.1527 1.4828 7.97804 1.4828 5.79161 1.4828C5.70387 1.46753 5.614 1.46987 5.52717 1.48968C5.44033 1.50949 5.3582 1.54639 5.28566 1.59823C5.21312 1.65007 5.15165 1.71582 5.1046 1.7917C5.05755 1.86757 5.02586 1.95205 5.01155 2.04026C3.82969 5.59849 2.64792 9.06184 1.39515 12.5726C1.15878 13.2487 1.17051 13.2487 1.89144 13.2487C3.43967 13.2487 4.97613 13.2487 6.52435 13.2487C7.54075 13.2487 7.9662 13.6994 7.98984 14.7313C7.98984 15.0278 7.98984 15.3125 7.98984 15.609C7.98984 16.2969 7.98981 16.3206 8.69892 16.3206H15.1756C16.5938 16.3206 16.5938 16.3206 16.6056 14.9092C16.6174 13.4978 17.0073 13.2487 18.2837 13.2487H22.7985C23.4249 13.2487 23.4248 13.2487 23.2121 12.6319C22.0303 9.07371 20.7776 5.57477 19.5839 2.04026C19.5468 1.85682 19.4391 1.69546 19.2842 1.59112C19.1294 1.48677 18.9397 1.44786 18.7565 1.4828C16.6528 1.49466 14.5019 1.4828 12.3628 1.4828H12.3273ZM12.3273 21.6461H22.6685C23.3658 21.6461 23.6612 21.4089 23.6612 20.7803C23.6612 18.764 23.6612 16.7358 23.6612 14.7194C23.6612 14.3873 23.5194 14.2687 23.2003 14.2687H18.0829C17.7165 14.2687 17.6101 14.4348 17.622 14.7787C17.6338 15.1227 17.622 15.6446 17.622 16.0834C17.6317 16.2451 17.6082 16.407 17.5532 16.5592C17.4981 16.7114 17.4127 16.8507 17.302 16.9685C17.1913 17.0863 17.0576 17.1801 16.9094 17.2441C16.7612 17.3081 16.6015 17.341 16.4401 17.3407H8.27347C8.11212 17.341 7.95238 17.3081 7.80417 17.2441C7.65595 17.1801 7.52248 17.0863 7.41175 16.9685C7.30103 16.8507 7.21548 16.7114 7.16044 16.5592C7.10539 16.407 7.08194 16.2451 7.09162 16.0834C7.09162 15.6802 7.09162 15.2769 7.09162 14.8974C7.09162 14.5178 6.92613 14.2687 6.4652 14.2806C4.8697 14.2806 3.26246 14.2806 1.66696 14.2806C1.19421 14.2806 1.04054 14.4111 1.04054 14.8974C1.04054 16.7951 1.04054 18.6809 1.04054 20.5787C1.04054 21.4445 1.26517 21.658 2.15156 21.658L12.3273 21.6461Z" fill="white"/>
<path d="M12.3618 9.73779H20.4219C21.131 9.73779 21.1428 9.7378 21.1428 10.485C21.1428 11.0069 21.1428 11.5406 21.1428 12.0625C21.1428 12.4065 20.9655 12.5014 20.6701 12.5014C20.3746 12.5014 20.1619 12.5014 20.1501 12.0981C20.1443 12.0271 20.1443 11.9556 20.1501 11.8846C20.1501 10.6985 20.2801 10.7578 18.9683 10.7578H5.53061C4.53785 10.7578 4.53788 10.7578 4.52606 11.7185C4.52606 11.849 4.52606 11.9795 4.52606 12.0981C4.52606 12.4421 4.30144 12.5132 4.00597 12.5014C3.71051 12.4895 3.5332 12.4065 3.5332 12.0625C3.5332 11.7185 3.5332 11.0425 3.5332 10.5325C3.5332 9.73779 3.53324 9.73779 4.31327 9.73779H12.3734H12.3618Z" fill="white"/>
<path d="M12.3374 6.22728H19.0265C19.8302 6.22728 19.8303 6.2273 19.8303 7.05755C19.8303 7.54384 19.8303 8.03012 19.8303 8.52828C19.8303 9.02643 19.7003 8.99085 19.3812 8.99085C19.0621 8.99085 18.8375 8.93154 18.8375 8.56386C18.8319 8.47301 18.8319 8.38191 18.8375 8.29107C18.8375 7.19987 18.9203 7.24731 17.8093 7.24731H6.65257C5.86073 7.24731 5.849 7.24732 5.849 8.03013C5.849 8.18432 5.849 8.35037 5.849 8.51642C5.849 8.86039 5.67165 9.00271 5.34074 8.99085C5.00982 8.97899 4.83249 8.87225 4.8443 8.51642C4.8443 7.94711 4.8443 7.38964 4.8443 6.82032C4.8443 6.25101 4.98613 6.21542 5.43523 6.22728C7.72803 6.23914 10.0327 6.22728 12.3374 6.22728Z" fill="white"/>
<path d="M12.3146 2.72825C14.1701 2.72825 16.0137 2.72825 17.8692 2.72825C18.3656 2.72825 18.5548 2.88244 18.5193 3.38059C18.4839 3.87874 18.5193 4.47179 18.5193 5.01738C18.5193 5.56298 18.3183 5.47995 17.9992 5.49181C17.6801 5.50367 17.5148 5.38507 17.5148 5.05296V4.88691C17.5148 3.70084 17.633 3.70084 16.3329 3.70084H7.83531C7.16166 3.70084 7.13805 3.70083 7.12623 4.41247V4.95808C7.12623 5.3139 6.96071 5.44437 6.61797 5.44437C6.27523 5.44437 6.10987 5.32576 6.12168 4.95808C6.12168 4.3769 6.12168 3.772 6.12168 3.21454C6.12168 2.65708 6.29893 2.68081 6.67712 2.68081L12.3146 2.72825Z" fill="white"/>
</svg>
