<svg width="46" height="58" viewBox="0 0 46 58" fill="none" xmlns="http://www.w3.org/2000/svg">
<path fill-rule="evenodd" clip-rule="evenodd" d="M28.3125 3.5V46C28.3125 47.7595 29.7405 49.1875 31.5 49.1875C33.2595 49.1875 34.6875 47.7595 34.6875 46V3.5C34.6875 1.7405 33.2595 0.3125 31.5 0.3125C29.7405 0.3125 28.3125 1.7405 28.3125 3.5Z" fill="#0049A3"/>
<path fill-rule="evenodd" clip-rule="evenodd" d="M17.6875 54.5V12C17.6875 10.2405 16.2595 8.8125 14.5 8.8125C12.7405 8.8125 11.3125 10.2405 11.3125 12V54.5C11.3125 56.2595 12.7405 57.6875 14.5 57.6875C16.2595 57.6875 17.6875 56.2595 17.6875 54.5Z" fill="#0049A3"/>
<path fill-rule="evenodd" clip-rule="evenodd" d="M29.2474 5.75241L39.8724 16.3774C41.1134 17.6227 43.1364 17.6227 44.3774 16.3774C45.6227 15.1364 45.6227 13.1134 44.3774 11.8724L33.7524 1.24741C32.5114 0.00216413 30.4884 0.00216413 29.2474 1.24741C28.0022 2.48841 28.0022 4.51141 29.2474 5.75241Z" fill="#0049A3"/>
<path fill-rule="evenodd" clip-rule="evenodd" d="M16.7524 52.2474L6.12741 41.6224C4.88641 40.3772 2.86341 40.3772 1.62241 41.6224C0.377164 42.8634 0.377164 44.8864 1.62241 46.1274L12.2474 56.7524C13.4884 57.9977 15.5114 57.9977 16.7524 56.7524C17.9977 55.5114 17.9977 53.4884 16.7524 52.2474Z" fill="#0049A3"/>
</svg>
