<svg width="44" height="44" viewBox="0 0 44 44" fill="none" xmlns="http://www.w3.org/2000/svg">
<path d="M31 15.249H27.441C26.902 15.249 26.425 14.905 26.255 14.395L25.939 13.446C25.7 12.73 25.033 12.25 24.279 12.25H19.72C18.966 12.25 18.299 12.73 18.06 13.447L17.744 14.395C17.574 14.906 17.097 15.25 16.558 15.25H13C12.586 15.25 12.25 15.586 12.25 16C12.25 16.414 12.586 16.75 13 16.75H14.298L15.065 28.25C15.196 30.213 16.839 31.75 18.807 31.75H25.194C27.161 31.75 28.805 30.212 28.936 28.25L29.703 16.75H31C31.414 16.75 31.75 16.414 31.75 16C31.75 15.586 31.414 15.249 31 15.249ZM19.483 13.92C19.517 13.818 19.612 13.749 19.72 13.749H24.279C24.387 13.749 24.482 13.8181 24.516 13.9191L24.832 14.868C24.876 15 24.931 15.127 24.993 15.248H19.005C19.067 15.126 19.122 15.0001 19.166 14.8671L19.483 13.92ZM27.438 28.149C27.36 29.327 26.374 30.249 25.193 30.249H18.806C17.626 30.249 16.639 29.327 16.561 28.149L15.801 16.749H16.558C16.665 16.749 16.77 16.736 16.875 16.724C16.917 16.731 16.955 16.749 16.999 16.749H26.999C27.043 16.749 27.081 16.731 27.123 16.724C27.228 16.736 27.332 16.749 27.44 16.749H28.197L27.438 28.149ZM24.75 20.999V25.999C24.75 26.413 24.414 26.749 24 26.749C23.586 26.749 23.25 26.413 23.25 25.999V20.999C23.25 20.585 23.586 20.249 24 20.249C24.414 20.249 24.75 20.585 24.75 20.999ZM20.75 20.999V25.999C20.75 26.413 20.414 26.749 20 26.749C19.586 26.749 19.25 26.413 19.25 25.999V20.999C19.25 20.585 19.586 20.249 20 20.249C20.414 20.249 20.75 20.585 20.75 20.999Z" fill="#FF0000"/>
</svg>
