<svg version="1.2" xmlns="http://www.w3.org/2000/svg" viewBox="0 0 44 44" width="44" height="44">
	<title>Delete-svg</title>
	<style>
		.s0 { fill: #ff0000 } 
	</style>
	<path id="Layer" fill-rule="evenodd" class="s0" d="m43 9.9c0 0.9-0.7 1.6-1.6 1.6h-2.7l-1.6 24.1c-0.3 4.2-3.7 7.4-7.9 7.4h-13.4c-4.2 0-7.6-3.2-7.9-7.4l-1.6-24.1h-2.7c-0.9 0-1.6-0.7-1.6-1.6 0-0.9 0.7-1.6 1.6-1.6h7.5c1.1 0 2.1-0.7 2.5-1.8l0.6-2c0.5-1.5 1.9-2.5 3.5-2.5h9.6c1.6 0 3 1 3.5 2.5l0.6 2c0.4 1.1 1.4 1.8 2.5 1.8h7.5c0.9 0 1.6 0.7 1.6 1.6zm-26.5-2.4q-0.1 0.4-0.3 0.8h12.6q-0.2-0.4-0.3-0.8l-0.7-2c-0.1-0.2-0.3-0.3-0.5-0.3h-9.6c-0.2 0-0.4 0.1-0.5 0.3zm19 4h-1.6q-0.3 0-0.7-0.1c-0.1 0-0.1 0.1-0.2 0.1h-21c-0.1 0-0.2-0.1-0.3-0.1q-0.3 0.1-0.7 0.1h-1.6l1.6 23.9c0.2 2.5 2.3 4.5 4.8 4.5h13.4c2.5 0 4.5-2 4.7-4.5zm-7.2 9v10.5c0 0.9-0.8 1.6-1.6 1.6-0.9 0-1.6-0.7-1.6-1.6v-10.5c0-0.9 0.7-1.6 1.6-1.6 0.8 0 1.6 0.7 1.6 1.6zm-8.5 0v10.5c0 0.9-0.7 1.6-1.5 1.6-0.9 0-1.6-0.7-1.6-1.6v-10.5c0-0.9 0.7-1.6 1.6-1.6 0.8 0 1.5 0.7 1.5 1.6z"/>
	<g id="Folder 1">
	</g>
</svg>