<svg width="13" height="20" viewBox="0 0 13 20" fill="none" xmlns="http://www.w3.org/2000/svg">
<path fill-rule="evenodd" clip-rule="evenodd" d="M5.89062 17V20H7.89062V17H8.89062C11.0998 17 12.8906 15.2091 12.8906 13C12.8906 10.7909 11.0998 9 8.89062 9H7.89062V5H9.89062V7H11.8906V3H7.89062V0H5.89062V3H4.89062C2.68149 3 0.890625 4.79086 0.890625 7C0.890625 9.20914 2.68149 11 4.89062 11H5.89062V15H3.89062V13H1.89062V17H5.89062ZM7.89062 15H8.89062C9.99519 15 10.8906 14.1046 10.8906 13C10.8906 11.8954 9.99519 11 8.89062 11H7.89062V15ZM5.89062 9V5H4.89062C3.78606 5 2.89062 5.89543 2.89062 7C2.89062 8.10457 3.78606 9 4.89062 9H5.89062Z" fill="#F2F2F2"/>
</svg>
