<svg width="25" height="26" viewBox="0 0 25 26" fill="none" xmlns="http://www.w3.org/2000/svg">
<g clip-path="url(#clip0_2149_13003)">
<path d="M9.67723 20.2805L10.6804 19.6826L11.0922 20.3696C10.5418 20.7029 10.0103 21.0397 9.46125 21.3447C9.39388 21.3721 9.32138 21.3845 9.24876 21.381C9.17615 21.3775 9.10516 21.3582 9.04072 21.3244C6.11208 19.5983 3.1868 17.8663 0.264888 16.1285C0.179807 16.0828 0.109661 16.0135 0.0628761 15.9289C0.016091 15.8443 -0.00534799 15.7479 0.00113208 15.6514C0.00382344 12.469 0.00382344 9.28621 0.00113208 6.10295C-0.00472551 6.00665 0.0189599 5.91087 0.0689991 5.82847C0.119038 5.74608 0.193034 5.68103 0.281035 5.64206C3.37071 3.96788 6.46577 2.29775 9.54939 0.606704C9.93224 0.396166 10.2222 0.388067 10.6098 0.603328C13.4209 2.16144 16.2455 3.69526 19.0674 5.23448C19.243 5.3303 19.354 5.45042 19.3533 5.66568C19.3502 7.23212 19.3502 8.79833 19.3533 10.3643C19.3513 10.4009 19.3472 10.4374 19.3412 10.4736H18.5607V6.36275C18.4605 6.41403 18.3945 6.44305 18.3326 6.47881C15.5175 8.12443 12.7021 9.76982 9.88648 11.415C9.75663 11.4912 9.67454 11.5621 9.67521 11.7396C9.68284 14.5265 9.68441 17.3136 9.67992 20.101L9.67723 20.2805ZM0.820649 6.76628C0.815267 6.86278 0.809886 6.91136 0.809886 6.95995C0.809886 9.74597 0.808315 12.532 0.805175 15.318C0.805175 15.48 0.872459 15.5515 0.99828 15.6257C3.43306 17.0653 5.86649 18.5049 8.29858 19.9445L8.85704 20.2731C8.86377 20.1995 8.87049 20.1604 8.87049 20.1213C8.87049 17.3181 8.87229 14.5152 8.87588 11.7126C8.87588 11.5412 8.78774 11.4811 8.66932 11.4109C6.83605 10.3295 5.00257 9.24572 3.16886 8.15974L0.820649 6.76628ZM18.1126 5.65016C18.0002 5.58268 17.9235 5.53544 17.8435 5.49226C16.6438 4.83568 15.4414 4.18314 14.2458 3.51914C14.1823 3.47574 14.107 3.45304 14.0302 3.45412C13.9534 3.45521 13.8788 3.48004 13.8165 3.52521C11.637 4.81408 9.45586 6.09823 7.27318 7.37765C6.64811 7.74542 6.02371 8.11453 5.38586 8.49039C5.40935 8.51466 5.43453 8.53721 5.46122 8.55787C6.68713 9.28531 7.91103 10.0141 9.14299 10.7314C9.19316 10.7509 9.24696 10.7592 9.30065 10.7557C9.35433 10.7522 9.40661 10.737 9.45385 10.7112C10.4799 10.1227 11.4993 9.52351 12.52 8.92631L18.1126 5.65016ZM1.23647 6.05504C2.33319 6.70487 3.38955 7.33716 4.45667 7.9546C4.5179 7.99037 4.64641 7.96068 4.71841 7.91884C7.47525 6.30427 10.2299 4.68632 12.9822 3.065C13.0401 3.03126 13.0932 2.98875 13.1666 2.93746C12.1856 2.39762 11.2349 1.88343 10.2895 1.35708C10.2284 1.31668 10.1568 1.29515 10.0836 1.29515C10.0104 1.29515 9.93885 1.31668 9.87774 1.35708C7.90408 2.43676 5.92884 3.51104 3.95204 4.57993L1.23647 6.05504Z" fill="#0049A3"/>
<path d="M10.873 16.5436C10.8899 13.5886 13.1237 11.1749 16.1044 10.9043C18.9303 10.6485 21.5799 12.7087 22.0805 15.5442C22.2923 16.6867 22.1404 17.867 21.6465 18.9182C21.5597 19.1071 21.592 19.2117 21.7192 19.3548C22.6841 20.443 23.6442 21.536 24.5996 22.6336C25.1843 23.303 25.1251 24.0365 24.4442 24.6176C24.2464 24.7863 24.0479 24.955 23.8461 25.1203C23.2546 25.6041 22.5986 25.5474 22.0886 24.9671C21.1782 23.9306 20.2625 22.8995 19.3663 21.8515C19.1813 21.6356 19.0514 21.6086 18.7877 21.726C15.334 23.268 11.3467 20.9655 10.9282 17.1988C10.906 16.9802 10.8912 16.7615 10.873 16.5436ZM16.5249 11.7005C13.8483 11.7113 11.6805 13.8876 11.6905 16.5523C11.6901 17.1936 11.8167 17.8285 12.063 18.4202C12.3093 19.0119 12.6703 19.5487 13.1252 19.9993C13.58 20.45 14.1196 20.8055 14.7126 21.0453C15.3055 21.285 15.9401 21.4043 16.5794 21.3961C17.8569 21.383 19.0773 20.8632 19.9737 19.9502C20.87 19.0372 21.3694 17.8053 21.3626 16.524C21.3639 13.87 19.1725 11.6904 16.5283 11.7005H16.5249ZM20.9784 22.4832C21.5227 23.1013 22.1465 23.8166 22.7803 24.5217C22.9249 24.683 23.1127 24.6715 23.2788 24.5373C23.5271 24.3348 23.7754 24.1324 24.0122 23.9198C24.2242 23.7282 24.2545 23.4798 24.0728 23.2673C23.4558 22.5466 22.8267 21.8367 22.2131 21.1356L20.9784 22.4832ZM20.3729 21.7922L21.6714 20.5154L21.2004 19.9756L19.949 21.251L19.8339 21.1693L20.3729 21.7922Z" fill="#0049A3"/>
<path d="M14.9001 18.5611H14.125V14.5508H14.9001V18.5611Z" fill="#0049A3"/>
<path d="M16.1426 14.5449H16.9197V18.5546H16.1426V14.5449Z" fill="#0049A3"/>
<path d="M18.9379 14.5488V18.5565H18.1621V14.5488H18.9379Z" fill="#0049A3"/>
<path d="M13.3145 18.5526V14.5449H13.6872V18.5539L13.3145 18.5526Z" fill="#0049A3"/>
<path d="M15.3379 14.541H15.7113V18.5608H15.3379V14.541Z" fill="#0049A3"/>
<path d="M17.3496 14.5449H17.721V18.5573H17.3496V14.5449Z" fill="#0049A3"/>
<path d="M19.7387 18.5608H19.3652V14.541H19.7387V18.5608Z" fill="#0049A3"/>
</g>
<defs>
<clipPath id="clip0_2149_13003">
<rect width="25" height="25" fill="white" transform="translate(0 0.445312)"/>
</clipPath>
</defs>
</svg>
