<svg width="24" height="25" viewBox="0 0 24 25" fill="none" xmlns="http://www.w3.org/2000/svg">
<path d="M21.2288 10.1824C19.9138 7.99237 16.9658 4.31641 11.9998 4.31641C7.0348 4.31641 4.0858 7.99137 2.7708 10.1824C2.0738 11.3444 2.0738 12.7874 2.7708 13.9504C4.0868 16.1404 7.0348 19.8164 11.9998 19.8164C16.9658 19.8164 19.9138 16.1414 21.2288 13.9504C21.9268 12.7884 21.9268 11.3454 21.2288 10.1824ZM19.9428 13.1794C18.7908 15.0984 16.2268 18.3174 11.9998 18.3174C7.7728 18.3174 5.20881 15.0984 4.05681 13.1794C3.64581 12.4934 3.64581 11.6404 4.05681 10.9554C5.20881 9.03638 7.7738 5.81738 11.9998 5.81738C16.2278 5.81738 18.7918 9.03638 19.9428 10.9554C20.3548 11.6404 20.3548 12.4934 19.9428 13.1794ZM11.9998 7.81738C9.6568 7.81738 7.7498 9.72438 7.7498 12.0674C7.7498 14.4104 9.6568 16.3174 11.9998 16.3174C14.3428 16.3174 16.2498 14.4104 16.2498 12.0674C16.2498 9.72438 14.3428 7.81738 11.9998 7.81738ZM11.9998 14.8174C10.4828 14.8174 9.2498 13.5844 9.2498 12.0674C9.2498 10.5504 10.4828 9.31738 11.9998 9.31738C13.5168 9.31738 14.7498 10.5504 14.7498 12.0674C14.7498 13.5844 13.5168 14.8174 11.9998 14.8174Z" fill="#2D4D95"/>
</svg>
