<svg width="72" height="84" viewBox="0 0 72 84" fill="none" xmlns="http://www.w3.org/2000/svg">
<path d="M62.1852 75.2942H9.31616V2.36182H62.1852V75.2942Z" fill="#608CC8"/>
<path d="M56.5918 81.1272H3.72272V8.19482H56.5918V81.1272Z" fill="#ADC2FB"/>
<path d="M68.8112 69.5042C68.8112 76.4984 63.1448 82.1648 56.1546 82.1648C49.1605 82.1648 43.494 76.4984 43.494 69.5042C43.494 62.5141 49.1605 56.8477 56.1546 56.8477C63.1448 56.8477 68.8112 62.5141 68.8112 69.5042Z" fill="#F2D68B"/>
<path d="M35.3233 16.5409C35.3233 19.7887 32.6882 22.4238 29.4362 22.4238C26.1884 22.4238 23.5533 19.7887 23.5533 16.5409C23.5533 13.2889 26.1884 10.6538 29.4362 10.6538C32.6882 10.6538 35.3233 13.2889 35.3233 16.5409Z" fill="#00FF00"/>
<path d="M38.8285 28.8723C37.321 26.6416 33.4807 25.0483 28.946 25.0483C23.0998 25.0483 18.3566 27.6834 18.3566 30.9354C18.3566 31.3153 18.4343 31.683 18.5609 32.0425L18.3566 32.9372V37.6599H39.8744V29.2114L38.8285 28.8723Z" fill="#00B53E"/>
<path d="M29.4398 13.0984C27.5401 13.0984 25.9999 14.6427 25.9999 16.5383C25.9999 18.438 27.5401 19.9823 29.4398 19.9823C31.3354 19.9823 32.8756 18.438 32.8756 16.5383C32.8756 14.6427 31.3354 13.0984 29.4398 13.0984ZM29.4398 22.8502C25.959 22.8502 23.1278 20.0191 23.1278 16.5383C23.1278 13.0616 25.959 10.2305 29.4398 10.2305C32.9164 10.2305 35.7476 13.0616 35.7476 16.5383C35.7476 20.0191 32.9164 22.8502 29.4398 22.8502ZM39.8739 37.8273C39.0772 37.8273 38.4358 37.1859 38.4358 36.3933V30.7555C38.4358 28.6352 36.7118 26.9152 34.5915 26.9152H24.284C22.1637 26.9152 20.4397 28.6352 20.4397 30.7555V36.3933C20.4397 37.1859 19.7983 37.8273 19.0057 37.8273C18.2131 37.8273 17.5676 37.1859 17.5676 36.3933V30.7555C17.5676 27.0541 20.5826 24.0432 24.284 24.0432H34.5915C38.2969 24.0432 41.3078 27.0541 41.3078 30.7555V36.3933C41.3078 37.1859 40.6664 37.8273 39.8739 37.8273Z" fill="black"/>
<path d="M24.9469 37.8258C24.1503 37.8258 23.5089 37.1844 23.5089 36.3918V34.3695C23.5089 33.577 24.1503 32.9355 24.9469 32.9355C25.7395 32.9355 26.3809 33.577 26.3809 34.3695V36.3918C26.3809 37.1844 25.7395 37.8258 24.9469 37.8258ZM33.9348 37.8258C33.1422 37.8258 32.4967 37.1844 32.4967 36.3918V34.3695C32.4967 33.577 33.1422 32.9355 33.9348 32.9355C34.7273 32.9355 35.3687 33.577 35.3687 34.3695V36.3918C35.3687 37.1844 34.7273 37.8258 33.9348 37.8258ZM52.6704 58.2813H10.4193C9.6267 58.2813 8.98529 57.6399 8.98529 56.8473C8.98529 56.0548 9.6267 55.4093 10.4193 55.4093H52.6704C53.463 55.4093 54.1044 56.0548 54.1044 56.8473C54.1044 57.6399 53.463 58.2813 52.6704 58.2813ZM44.4301 65.8189H10.4193C9.6267 65.8189 8.98529 65.1775 8.98529 64.3849C8.98529 63.5882 9.6267 62.9468 10.4193 62.9468H44.4301C45.2227 62.9468 45.8641 63.5882 45.8641 64.3849C45.8641 65.1775 45.2227 65.8189 44.4301 65.8189ZM43.6744 73.3523H10.4193C9.6267 73.3523 8.98529 72.7109 8.98529 71.9184C8.98529 71.1258 9.6267 70.4844 10.4193 70.4844H43.6744C44.471 70.4844 45.1124 71.1258 45.1124 71.9184C45.1124 72.7109 44.471 73.3523 43.6744 73.3523Z" fill="black"/>
<path d="M3.72225 80.2039H46.7659C43.7754 77.4953 41.9983 73.6223 41.9983 69.4062C41.9983 61.8441 47.7791 55.6098 55.1532 54.8867V8.19478H3.72225V80.2039ZM51.7624 83.0718H2.28828C1.49163 83.0718 0.85022 82.4304 0.85022 81.6379V6.76081C0.85022 5.96416 1.49163 5.32275 2.28828 5.32275H56.5913C57.3839 5.32275 58.0253 5.96416 58.0253 6.76081V56.2512C58.0253 57.0438 57.3839 57.6852 56.5913 57.6852C50.1282 57.6852 44.8703 62.9431 44.8703 69.4062C44.8703 74.2474 47.7832 78.5207 52.2894 80.3019C52.9349 80.5552 53.3026 81.2293 53.1759 81.9034C53.0452 82.5857 52.4528 83.0718 51.7624 83.0718Z" fill="black"/>
<path d="M56.5918 57.6858C50.1287 57.6858 44.8708 62.9437 44.8708 69.4068C44.8708 75.8699 50.1287 81.1278 56.5918 81.1278C63.0549 81.1278 68.3128 75.8699 68.3128 69.4068C68.3128 62.9437 63.0549 57.6858 56.5918 57.6858ZM56.5918 83.9998C48.5436 83.9998 41.9988 77.455 41.9988 69.4068C41.9988 61.3627 48.5436 54.8179 56.5918 54.8179C64.6359 54.8179 71.1848 61.3627 71.1848 69.4068C71.1848 77.455 64.6359 83.9998 56.5918 83.9998Z" fill="black"/>
<path d="M55.2717 76.3151C54.8019 76.311 54.3811 76.0904 54.1115 75.7268L49.0007 68.7285C48.5308 68.0912 48.6697 67.1924 49.3112 66.7226C49.9526 66.2528 50.8473 66.3958 51.3171 67.0331L55.3003 72.483L61.4448 64.4879C61.9268 63.8628 62.8256 63.7403 63.4548 64.2224C64.0839 64.7044 64.2024 65.6073 63.7203 66.2365L56.4116 75.7554C56.1378 76.1068 55.717 76.3151 55.2717 76.3151ZM58.0253 54.8872C59.0916 54.9894 60.1334 55.21 61.1465 55.5491V2.87203H9.71145V5.32327H56.5913C57.3839 5.32327 58.0253 5.96467 58.0253 6.76132V54.8872ZM62.5805 59.1401C62.3558 59.1401 62.1352 59.087 61.9268 58.9808C60.2518 58.1229 58.4583 57.6857 56.5913 57.6857C55.7988 57.6857 55.1573 57.0443 55.1573 56.2518V8.1953H8.27748C7.48491 8.1953 6.84351 7.55389 6.84351 6.76132V1.43806C6.84351 0.645492 7.48491 0 8.27748 0H62.5805C63.3731 0 64.0186 0.645492 64.0186 1.43806V57.7062C64.0186 58.2046 63.7571 58.6703 63.3322 58.9277C63.0993 59.0707 62.842 59.1401 62.5805 59.1401Z" fill="black"/>
<path d="M24.4051 48.312H21.8558L21.3002 50.5998H18.5712L21.4309 40.7295H24.9444L27.8859 50.5998H25.0424L24.4051 48.312ZM22.2153 46.3673H24.0456L23.588 44.6024C23.5227 44.3859 23.4287 44.0264 23.3102 43.5239C23.1877 43.0255 23.1182 42.7313 23.0978 42.6415H23.0814C23.0242 42.8294 22.9507 43.1562 22.8527 43.6219C22.7546 44.0795 22.6811 44.4063 22.6402 44.6024L22.2153 46.3673Z" fill="black"/>
<path d="M36.2925 48.2799L36.652 50.3389C36.1291 50.6086 35.3039 50.7475 34.1845 50.7475C33.2775 50.7475 32.4768 50.6167 31.7823 50.3553C31.0959 50.0938 30.5444 49.7343 30.1318 49.2767C29.715 48.811 29.4005 48.2881 29.1839 47.7079C28.9633 47.1319 28.8571 46.5068 28.8571 45.8287C28.8571 44.7174 29.1104 43.7614 29.6252 42.9525C30.1481 42.1355 30.8099 41.539 31.6188 41.155C32.4359 40.775 33.3429 40.583 34.3479 40.583C35.4264 40.583 36.2476 40.726 36.8155 41.0079L36.3089 43.0996C35.741 42.8708 35.1323 42.7564 34.4786 42.7564C33.6615 42.7564 32.9834 43.0016 32.4523 43.4918C31.9171 43.9821 31.6515 44.7011 31.6515 45.6489C31.6515 46.5559 31.9007 47.2667 32.4032 47.7896C32.9139 48.3044 33.6207 48.5577 34.5276 48.5577C35.2344 48.5577 35.8227 48.4678 36.2925 48.2799Z" fill="black"/>
<path d="M38.6636 50.6007V40.8775C39.5543 40.7386 40.6328 40.665 41.8993 40.665C43.3046 40.665 44.3505 40.9265 45.0368 41.4494C45.7886 42.005 46.1644 42.7976 46.1644 43.819C46.1644 44.8567 45.8417 45.6656 45.2003 46.2539C44.424 46.9402 43.3292 47.2834 41.9156 47.2834C41.8176 47.2834 41.695 47.2793 41.5561 47.267C41.4131 47.2589 41.3191 47.2507 41.2783 47.2507V50.6007H38.6636ZM41.2783 42.7077V45.2243C41.4744 45.2488 41.6746 45.257 41.8829 45.257C42.3936 45.257 42.7981 45.1345 43.0922 44.8812C43.3945 44.632 43.5498 44.301 43.5498 43.8843C43.5498 43.5044 43.419 43.2062 43.1576 42.9855C42.9043 42.7568 42.5366 42.6424 42.0463 42.6424C41.7073 42.6424 41.4499 42.6669 41.2783 42.7077Z" fill="black"/>
</svg>
