<svg width="20" height="18" viewBox="0 0 20 18" fill="none" xmlns="http://www.w3.org/2000/svg">
<path d="M5 7.00049C5 6.44749 5.448 6.00049 6 6.00049H14C14.552 6.00049 15 6.44749 15 7.00049C15 7.55349 14.552 8.00049 14 8.00049H6C5.448 8.00049 5 7.55349 5 7.00049ZM7 5.00049H13C13.552 5.00049 14 4.55349 14 4.00049C14 3.44749 13.552 3.00049 13 3.00049H7C6.448 3.00049 6 3.44749 6 4.00049C6 4.55349 6.448 5.00049 7 5.00049ZM20 10.4875V13.0005C20 15.7575 17.757 18.0005 15 18.0005H5C2.243 18.0005 0 15.7575 0 13.0005V10.4875C0 10.0555 0.0690171 9.62944 0.205017 9.22144L2.14001 3.41846C2.82201 1.37346 4.728 -0.000488281 6.883 -0.000488281H13.117C15.272 -0.000488281 17.179 1.37346 17.86 3.41846L19.795 9.22144C19.931 9.62944 20 10.0565 20 10.4875ZM2.38702 9.00049H7C7.552 9.00049 8 9.44749 8 10.0005C8 11.1035 8.897 12.0005 10 12.0005C11.103 12.0005 12 11.1035 12 10.0005C12 9.44749 12.448 9.00049 13 9.00049H17.613L15.963 4.05249C15.554 2.82449 14.41 2.00049 13.117 2.00049H6.883C5.59 2.00049 4.44599 2.82449 4.03699 4.05249L2.38702 9.00049ZM18 13.0005V11.0005H13.874C13.429 12.7245 11.861 14.0005 10 14.0005C8.139 14.0005 6.57198 12.7245 6.12598 11.0005H2V13.0005C2 14.6545 3.346 16.0005 5 16.0005H15C16.654 16.0005 18 14.6545 18 13.0005Z" fill="white"/>
</svg>
