<svg width="20" height="17" viewBox="0 0 20 17" fill="none" xmlns="http://www.w3.org/2000/svg">
<path d="M15 3H10.803C10.636 3 10.48 2.91698 10.387 2.77698L9.27701 1.11304C8.81201 0.416037 8.03499 0 7.19699 0H5C2.243 0 0 2.243 0 5V12C0 14.757 2.243 17 5 17H15C17.757 17 20 14.757 20 12V8C20 5.243 17.757 3 15 3ZM18 12C18 13.654 16.654 15 15 15H5C3.346 15 2 13.654 2 12V5C2 3.346 3.346 2 5 2H7.19699C7.36399 2 7.52001 2.08302 7.61301 2.22302L8.72299 3.88696C9.18799 4.58396 9.96501 5 10.803 5H15C16.654 5 18 6.346 18 8V12Z" fill="white"/>
</svg>
