<svg version="1.2" xmlns="http://www.w3.org/2000/svg" viewBox="0 0 23 25" width="23" height="25"><style>.a{fill:#fff}</style><filter id="f0"><feFlood flood-color="#0049a3" flood-opacity="1" /><feBlend mode="normal" in2="SourceGraphic"/><feComposite in2="SourceAlpha" operator="in" /></filter><g filter="url(#f0)"><path fill-rule="evenodd" class="a" d="m22.6 5.1v9.4c-0.2 0.9-0.5 1.8-1.1 2.6q-0.7 0.9-1.7 1.4-1 0.5-2.1 0.6c-0.4 0-2.3 0-2.7 0q-0.2 0-0.4 0.1-0.1 0-0.2 0.2c-2.2 2.6-5.1 4.4-8.4 5.2h-0.2q-0.2 0-0.3-0.1-0.2-0.1-0.2-0.2-0.1-0.2-0.1-0.4 0.1-0.3 0.2-0.4c1.2-1.1 2.1-2.4 2.5-4q0-0.1 0-0.2 0-0.1 0-0.1-0.1-0.1-0.2-0.2-0.1 0-0.2 0h-2.2q-1.1 0.1-2-0.3-1-0.4-1.8-1.2-0.7-0.7-1.1-1.7-0.4-1-0.4-2.1 0-4 0-8.1c0-0.8 0.2-1.6 0.5-2.3 0.4-0.8 0.9-1.4 1.5-1.9 0.7-0.6 1.6-1 2.6-1.1h13.4c1 0.1 1.9 0.5 2.7 1.1 0.7 0.7 1.3 1.5 1.7 2.4q0.2 0.5 0.2 1.1zm-2 11.2c0.5-0.7 0.8-1.6 0.8-2.5 0-1.9 0-6.4 0-8.3q0.1-0.3 0-0.5c-0.1-1-0.6-1.9-1.3-2.5-0.8-0.7-1.7-1-2.7-1h-12.3c-1 0-2 0.5-2.7 1.2-0.7 0.7-1.1 1.7-1.1 2.7v8.4q0 0.4 0.1 0.8c0.2 0.9 0.7 1.7 1.4 2.3 0.7 0.5 1.6 0.8 2.5 0.8h3.4q0.2 0 0.4 0.1 0.2 0 0.3 0.2 0.1 0.1 0.1 0.3 0 0.2 0 0.4-0.5 1.7-1.2 3.3v0.3h0.4c2-0.9 3.7-2.3 5.1-4.1q0.1-0.2 0.3-0.3 0.2-0.1 0.5-0.1h3.1q0.3 0 0.7-0.1c0.8-0.2 1.6-0.7 2.2-1.4z"/><path class="a" d="m13.8 4.8q-0.4-0.3-1-0.5-0.5-0.2-1.2-0.2-0.4 0-0.9 0.1-0.4 0.1-0.8 0.3-0.3 0.1-0.7 0.3-0.3 0.2-0.5 0.5l0.4 0.6q0 0.1 0.1 0.2 0.1 0 0.2 0 0.1 0 0.2-0.1 0.2-0.2 0.4-0.3 0.3-0.2 0.7-0.3 0.4-0.1 0.8-0.1 0.4 0 0.7 0.1 0.3 0.1 0.6 0.3 0.2 0.2 0.4 0.5 0.1 0.3 0.1 0.7 0 0.4-0.2 0.8-0.2 0.4-0.5 0.7-0.2 0.3-0.6 0.5-0.3 0.2-0.6 0.5-0.2 0.2-0.5 0.5-0.1 0.3-0.1 0.6v0.1l0.1 1.4h1l0.1-1.3q0.1-0.3 0.3-0.5 0.2-0.2 0.5-0.4l0.6-0.5q0.4-0.3 0.6-0.6 0.3-0.4 0.5-0.8 0.2-0.5 0.2-1.1 0-0.6-0.2-1.1-0.3-0.5-0.7-0.9z"/><path class="a" d="m12 13.8q-0.3-0.3-0.7-0.3-0.2 0-0.4 0.1-0.2 0.1-0.3 0.2-0.2 0.2-0.2 0.3-0.1 0.2-0.1 0.5 0 0.2 0.1 0.4 0 0.1 0.2 0.3 0.1 0.1 0.3 0.2 0.2 0.1 0.4 0.1 0.2 0 0.4-0.1 0.2-0.1 0.3-0.2 0.2-0.2 0.3-0.3 0-0.2 0-0.4 0-0.3 0-0.5-0.1-0.1-0.3-0.3z"/></g></svg>