<svg width="16" height="24" viewBox="0 0 16 24" fill="none" xmlns="http://www.w3.org/2000/svg">
<path d="M7.95506 0C11.3451 0.193627 13.8933 1.74265 15.2502 4.94671C16.6072 8.15077 16.1146 11.1243 13.8351 13.683C12.7379 14.9185 12.0796 16.2001 12.2139 17.8967C12.2263 18.3024 12.1082 18.7011 11.8781 19.0308C10.8346 20.5291 9.75087 21.9997 8.66263 23.4657C8.12972 24.1849 7.85206 24.1803 7.31914 23.4381C6.24882 21.9905 5.17851 20.5475 4.15297 19.0676C3.90987 18.7152 3.78275 18.2919 3.79023 17.8598C3.91114 16.1955 3.2797 14.9323 2.19595 13.7106C-0.132776 11.1382 -0.607476 8.10928 0.762888 4.91444C2.13325 1.71959 4.64111 0.207457 7.95506 0ZM9.86282 11.0183C9.81804 11.1105 9.72847 11.2027 9.724 11.2995C9.67473 13.4709 9.61204 15.6469 9.61204 17.8183C9.61204 18.4314 10.1853 18.3669 10.6017 18.3715C11.0182 18.3761 11.2377 18.164 11.2108 17.703C11.0988 15.7852 11.8915 14.3146 13.1454 12.9177C15.1517 10.6771 15.4965 7.99403 14.2784 5.24637C13.7679 3.97048 12.8877 2.88759 11.7578 2.14514C10.6279 1.4027 9.30318 1.03679 7.96402 1.09722C6.61038 1.04797 5.27552 1.43451 4.14532 2.203C3.01512 2.97148 2.14584 4.08367 1.65855 5.38467C0.471798 8.22453 0.942021 10.9169 3.04683 13.1574C3.62507 13.7136 4.08032 14.3913 4.38167 15.1446C4.68303 15.8979 4.82343 16.7092 4.79337 17.5232C4.7665 18.1133 4.95011 18.4038 5.55021 18.3853C6.1503 18.3669 6.44587 18.164 6.44587 17.5002C6.40109 15.6008 6.39213 13.6968 6.35183 11.7974C6.32303 11.5275 6.26597 11.2617 6.18165 11.0045C5.3666 11.0045 4.50676 11.4655 4.09028 10.5066C4.03954 10.3102 4.03756 10.1039 4.08451 9.90649C4.13146 9.70913 4.22584 9.52708 4.35897 9.37707C5.25464 8.74548 6.00252 9.34941 6.65187 9.93951C7.34153 9.65829 7.68636 9.30331 7.23853 8.55646C7.10552 8.28408 7.04524 7.98018 7.06388 7.67592C7.06388 7.04894 7.34601 6.60637 8.02224 6.60176C8.69846 6.59715 8.97612 7.03972 8.98955 7.6667C9.01041 7.97112 8.95002 8.27562 8.8149 8.54725C8.36707 9.34481 8.75668 9.67213 9.11495 9.81504C9.78837 9.5323 10.4854 9.31318 11.1974 9.16039C11.3205 9.14911 11.4445 9.16634 11.5603 9.21079C11.6761 9.25524 11.7808 9.32579 11.8666 9.41729C11.9525 9.50879 12.0174 9.61892 12.0566 9.73959C12.0958 9.86026 12.1082 9.98843 12.093 10.1147C12.1026 10.24 12.0863 10.3659 12.0452 10.4843C12.004 10.6026 11.939 10.7106 11.8544 10.8012C11.7698 10.8918 11.6675 10.9629 11.5542 11.0099C11.441 11.0568 11.3194 11.0786 11.1974 11.0736C10.7316 11.092 10.3107 11.0413 9.86282 11.0183ZM7.80728 9.91185C7.55649 10.2576 6.99222 10.6725 6.98327 11.0967C6.93848 13.1851 7.07283 15.2735 7.08179 17.3573C7.08179 18.0626 7.31466 18.3853 7.97745 18.3853C8.64024 18.3853 8.90894 18.0811 8.87312 17.3665C8.7909 15.5534 8.81184 13.737 8.93581 11.9265C9.07016 10.9123 8.92686 10.2991 7.80728 9.91185ZM5.47855 18.9754C6.37422 20.8195 6.64292 20.9624 8.81938 20.8472C9.84043 20.7918 9.92104 19.7592 10.4808 19.2198L10.3957 18.9754H5.47855ZM7.24749 21.5756L7.99089 22.6221L8.7522 21.5756H7.24749Z" fill="white"/>
</svg>
