<svg version="1.2" xmlns="http://www.w3.org/2000/svg" viewBox="0 0 26 27" width="26" height="27"><style>.a{fill:#fff}</style><filter id="f0"><feFlood flood-color="#0049a3" flood-opacity="1" /><feBlend mode="normal" in2="SourceGraphic"/><feComposite in2="SourceAlpha" operator="in" /></filter><g filter="url(#f0)"><path fill-rule="evenodd" class="a" d="m18.1 23.7h-0.3c-1.2 0-1.2 0-1.4 1.2q0 0.3-0.1 0.5-0.1 0.3-0.3 0.5-0.2 0.2-0.5 0.3-0.2 0.1-0.5 0h-4q-0.3 0.1-0.6 0-0.3-0.1-0.5-0.3-0.2-0.3-0.3-0.5-0.2-0.3-0.1-0.6-0.1-0.3 0-0.6c0-0.4-0.2-0.6-0.6-0.5h-2c-0.5 0-0.8-0.2-0.9-0.7q-0.1-0.5-0.2-0.9c-0.1-0.7-0.4-0.9-1-0.5l-0.8 0.6q-0.1 0.1-0.2 0.2-0.1 0-0.3 0-0.1 0-0.2-0.1-0.1 0-0.2-0.1l-1.6-1.6q-0.1-0.1-0.1-0.2-0.1-0.1-0.1-0.2 0-0.2 0-0.3 0.1-0.1 0.1-0.2 0.4-0.5 0.7-1c0.3-0.4 0.2-0.7-0.3-0.8-0.5-0.1-0.8-0.2-1.2-0.2q-0.1 0-0.2-0.1-0.2-0.1-0.2-0.2-0.1-0.1-0.2-0.2 0-0.1 0-0.2v-2.2q0-0.2 0-0.3 0.1-0.1 0.1-0.2 0.1-0.1 0.2-0.2 0.2-0.1 0.3-0.1c0.4 0 0.7-0.1 1.1-0.1 0.5-0.2 0.7-0.5 0.4-1q-0.3-0.4-0.6-0.8-0.1-0.1-0.2-0.2 0-0.2 0-0.4 0-0.1 0.1-0.3 0-0.1 0.2-0.2 0.7-0.7 1.4-1.4 0.1-0.1 0.2-0.2 0.1-0.1 0.3-0.1 0.1 0 0.3 0.1 0.1 0 0.2 0.1 0.4 0.3 0.8 0.6c0.3 0.2 0.3 0.2 0.5 0.1 0.1 0 0-0.3 0-0.4-0.3-1.5-0.2-3.1 0.3-4.5 0.7-1.7 1.9-3.2 3.5-4 1.6-0.9 3.5-1.2 5.2-0.9 1.8 0.3 3.5 1.3 4.6 2.7 1.2 1.4 1.8 3.2 1.8 5q0 0.9-0.2 1.8 0 0.2 0 0.3c0 0.1 0.3 0 0.4 0 0.3-0.2 0.6-0.4 0.9-0.6q0.1-0.1 0.2-0.2 0.1-0.1 0.3-0.1 0.1 0 0.3 0.1 0.1 0.1 0.2 0.2l1.5 1.5q0.1 0.1 0.2 0.2 0 0.1 0 0.3 0 0.1 0 0.2-0.1 0.1-0.2 0.2-0.3 0.5-0.6 0.9c-0.2 0.3-0.2 0.8 0.3 0.9 0.5 0.2 0.8 0.2 1.1 0.2q0.2 0 0.3 0.1 0.1 0 0.2 0.1 0.1 0.1 0.1 0.3 0.1 0.1 0.1 0.3 0 1 0 2.1 0 0.1-0.1 0.3 0 0.1-0.1 0.2-0.1 0.1-0.2 0.2-0.1 0-0.3 0c-0.3 0-0.7 0.2-1 0.2q-0.9 0.2-0.4 1 0.3 0.4 0.6 0.9 0.1 0 0.2 0.2 0 0.1 0 0.2 0 0.1 0 0.3-0.1 0.1-0.2 0.2-0.8 0.8-1.5 1.5-0.1 0.1-0.2 0.2-0.2 0.1-0.3 0.1-0.1 0-0.3-0.1-0.1-0.1-0.2-0.2-0.4-0.3-0.9-0.6-0.1-0.1-0.2-0.1-0.2-0.1-0.3 0-0.2 0-0.3 0.2 0 0.1-0.1 0.2-0.1 0.6-0.2 1.1 0.1 0.2 0 0.3-0.1 0.2-0.2 0.3-0.1 0.1-0.3 0.1-0.1 0-0.3 0zm1.7-15.2c0.1-1.1-0.2-2.3-0.6-3.3-0.5-1.1-1.3-1.9-2.2-2.6-1-0.7-2-1.1-3.2-1.2-1.1-0.2-2.3 0-3.3 0.4-1.1 0.4-2 1.1-2.7 1.9-0.7 0.9-1.2 1.9-1.4 3-0.3 1-0.3 2.2 0 3.2 0.3 1.1 0.8 2.1 1.5 2.9 0.8 0.8 1.3 1.7 1.7 2.7q0 0.1 0.1 0.2 0.1 0.1 0.3 0.1h2.1q0.5 0 0.5-0.4c0-0.4 0-1 0-1.4 0-0.5 0-0.7-0.5-0.7-0.5 0-0.4-0.2-0.4-0.5 0-0.2 0.1-0.4 0.4-0.4q0.9 0 1.9 0c0.3 0 0.4 0.2 0.4 0.4 0 0.3 0 0.5-0.4 0.5-0.5 0-0.5 0.4-0.5 0.8q0 0.6 0 1.2c0 0.3 0.1 0.5 0.5 0.5h2q0.1 0 0.2 0 0.1-0.1 0.1-0.1 0.1-0.1 0.1-0.1 0.1-0.1 0.1-0.2c0.3-0.9 0.8-1.8 1.5-2.5q0.9-0.9 1.3-2 0.5-1.2 0.5-2.4zm5.2 7.3c0-0.9 0-0.9-1-1q-0.4 0-0.7-0.2-0.4-0.3-0.5-0.7-0.2-0.3-0.1-0.7 0-0.5 0.3-0.8 0.1-0.1 0.3-0.3 0.1-0.1 0.1-0.2 0.1-0.1 0.1-0.3-0.1-0.1-0.1-0.2-0.1-0.1-0.2-0.2-0.2-0.1-0.4-0.3c-0.3-0.5-0.6-0.5-1.1-0.1-0.4 0.4-0.6 0.7-1.1 0.5-0.4-0.1-0.5 0.4-0.7 0.6-0.2 0.3 0.1 0.5 0.3 0.6 0.6 0.4 1.1 0.9 1.5 1.6 0.3 0.6 0.4 1.3 0.3 2.1 0 0.9-0.4 1.8-1.1 2.4-0.7 0.7-1.6 1.1-2.5 1.1-0.2 0-0.4 0-0.3 0.3q0.2 1.1 0.1 2.2c0 0.3 0 0.5 0.4 0.5 0.3 0 0.4 0 0.4-0.4 0.1-0.3 0.1-0.4 0.2-0.7q0-0.4 0.2-0.7 0.3-0.3 0.6-0.4 0.4-0.2 0.8-0.1 0.4 0 0.7 0.3c0.3 0.2 0.6 0.6 0.9 0.4q0.6-0.3 1-1c0.2-0.3-0.2-0.5-0.3-0.8-0.2-0.2-0.5-0.5-0.5-0.9 0-0.4 0.2-0.8 0.4-1.1 0.3-0.3 0.7-0.4 1.1-0.5 0.8-0.2 0.8-0.2 0.8-1zm-17.6 6.8c0.3 0 0.4-0.1 0.4-0.4 0-0.3 0-0.9 0-1.4 0-0.4 0.3-0.8 0.1-1-0.2-0.3-0.7-0.1-1-0.2-0.8-0.2-1.4-0.6-1.9-1.2-0.5-0.6-0.9-1.3-1-2-0.1-0.8 0-1.6 0.3-2.2 0.3-0.7 0.8-1.3 1.5-1.7 0.2-0.2 0.5-0.2 0.4-0.5-0.2-0.3-0.2-0.8-0.5-0.7-0.8 0.1-1.2-0.4-1.7-0.7-0.1-0.1-0.3-0.3-0.5-0.1-0.9 0.5-1.1 1.1-0.5 1.9q0.3 0.3 0.4 0.7 0 0.4-0.1 0.8-0.2 0.4-0.5 0.6-0.4 0.3-0.8 0.3c-1 0.1-0.9 0.1-1 1.2 0 0.6 0.2 0.8 0.8 0.9q0.5-0.1 0.9 0.2 0.4 0.4 0.6 0.9 0.1 0.3 0 0.7-0.1 0.4-0.3 0.6c-0.2 0.3-0.6 0.5-0.4 0.8q0.3 0.7 1 1.1c0.3 0.2 0.5-0.3 0.8-0.4 0.2-0.1 0.5-0.5 1-0.4 0.4 0 0.8 0.1 1 0.4 0.3 0.3 0.5 0.7 0.5 1.1 0 0.2 0 0.4 0.1 0.5 0.1 0.2 0.1 0.2 0.3 0.2zm5.7 0h2.5c1.8 0 1.7 0.2 1.7-1.8 0-0.6-0.2-0.7-0.8-0.7-1.9 0-3.9 0-5.9 0-1.9 0-1.7-0.3-1.7 1.7 0 0.6 0.2 0.8 0.8 0.8 1-0.1 2.2-0.1 3.4-0.1zm0-5.9h-2.7c-1.7 0-1.6-0.2-1.6 1.6 0 0.8 0.1 0.8 0.9 0.8h5.9c1.8 0 1.6 0.3 1.6-1.8 0-0.4-0.2-0.6-0.6-0.6q-1.8-0.1-3.6-0.1zm-8.1-0.9c0 0.5 0.1 1.1 0.4 1.6 0.3 0.5 0.8 0.8 1.3 1.1 1 0.5 1.2 0.4 1.2-0.8q-0.1-0.5 0.1-0.9 0.1-0.5 0.5-0.9c0.3-0.1 0.2-0.3 0.1-0.5q-0.5-1.3-1.5-2.2c-0.2-0.2-0.4-0.1-0.6 0q-0.7 0.4-1.1 1-0.4 0.7-0.5 1.5zm16.2-0.2q0-0.7-0.4-1.4-0.4-0.6-1.1-1c-0.2-0.1-0.4-0.2-0.6 0q-0.9 0.9-1.4 2.1c-0.2 0.3-0.2 0.6 0.2 0.8q0.2 0.2 0.4 0.5 0.1 0.3 0.1 0.7 0 0.5 0 1c0 0.4 0.1 0.6 0.5 0.5 0.7-0.2 1.3-0.6 1.7-1.2 0.5-0.6 0.6-1.3 0.6-2zm-10.1 8c-0.4 0-0.6 0.1-0.6 0.6 0.1 0.4-0.2 1 0.5 1q2 0 4 0c0.7 0 0.5-0.6 0.5-1 0.1-0.4-0.1-0.6-0.5-0.6z"/><path fill-rule="evenodd" class="a" d="m12.9 10.7c-0.7 0.1-1.2 0-1.5-0.8 0-0.1-0.2-0.2-0.3-0.3-0.4-0.3-0.6-0.8-0.8-1.2-0.1-0.5-0.1-1 0.1-1.5q0.3-0.7 0.9-1.1 0.5-0.4 1.2-0.4c0.7-0.1 1.3 0 1.9 0.3 0.5 0.4 0.9 0.9 1.1 1.5q0.1 0.6 0 1.1-0.2 0.6-0.5 1-0.5 0.5-0.9 1.1c-0.2 0.5-0.8 0.2-1.2 0.3zm1.6-3c0-0.9-0.5-1.3-1.6-1.3-1.1 0-1.6 0.4-1.6 1.3 0 0.8 0.9 2 1.6 2 0.7 0 1.6-1.2 1.6-2z"/><path class="a" d="m12.9 12h-0.8c-0.4 0-0.5-0.2-0.5-0.5 0-0.4 0.1-0.5 0.5-0.5q0.8 0 1.7 0c0.3 0 0.4 0.1 0.4 0.5 0 0.3-0.1 0.5-0.4 0.5z"/></g></svg>