<svg width="28" height="24" viewBox="0 0 28 24" fill="none" xmlns="http://www.w3.org/2000/svg">
<path d="M9.17232 15.3105L4.48267 19.7243M14.1378 15.3105V19.1174M19.1034 15.3105L23.5171 19.7243M5.72405 21.5174H11.6551M16.926 21.5174H22.7782" stroke="white" stroke-width="2" stroke-linecap="round" stroke-linejoin="round"/>
<circle cx="2.96542" cy="21.3795" r="1.62069" stroke="white" stroke-width="2"/>
<circle cx="14.2757" cy="21.3795" r="1.62069" stroke="white" stroke-width="2"/>
<circle cx="25.0345" cy="21.3795" r="1.62069" stroke="white" stroke-width="2"/>
<path d="M14.2757 8.97613C13.7826 8.97613 13.3005 8.82989 12.8905 8.55592C12.4805 8.28194 12.1609 7.89253 11.9722 7.43693C11.7834 6.98133 11.7341 6.47999 11.8303 5.99633C11.9265 5.51266 12.1639 5.06838 12.5126 4.71968C12.8614 4.37098 13.3056 4.13351 13.7893 4.0373C14.273 3.94109 14.7743 3.99047 15.2299 4.17919C15.6855 4.3679 16.0749 4.68748 16.3489 5.09752C16.6229 5.50755 16.7691 5.98962 16.7691 6.48276C16.7684 7.14383 16.5055 7.77761 16.038 8.24506C15.5706 8.7125 14.9368 8.97542 14.2757 8.97613ZM14.2757 4.98674C13.9798 4.98674 13.6906 5.07448 13.4446 5.23886C13.1986 5.40325 13.0068 5.63689 12.8936 5.91026C12.7804 6.18362 12.7507 6.48442 12.8085 6.77462C12.8662 7.06482 13.0087 7.33138 13.2179 7.54061C13.4271 7.74983 13.6937 7.89231 13.9839 7.95003C14.2741 8.00776 14.5749 7.97813 14.8482 7.8649C15.1216 7.75167 15.3552 7.55992 15.5196 7.3139C15.684 7.06788 15.7717 6.77864 15.7717 6.48276C15.7714 6.0861 15.6137 5.70578 15.3332 5.4253C15.0527 5.14482 14.6724 4.98709 14.2757 4.98674ZM14.6082 12.9655H13.9433C13.5466 12.9652 13.1663 12.8074 12.8858 12.527C12.6053 12.2465 12.4476 11.8662 12.4473 11.4695C12.4481 11.4215 12.4346 11.3744 12.4086 11.3342C12.3825 11.2939 12.3451 11.2623 12.301 11.2434H12.2957C12.2555 11.2268 12.2113 11.2225 12.1687 11.231C12.1261 11.2395 12.087 11.2605 12.0563 11.2913C11.7736 11.5708 11.3928 11.7287 10.9953 11.7313C10.5978 11.7339 10.215 11.581 9.92862 11.3053L9.46319 10.8358C9.32385 10.6968 9.21331 10.5317 9.13788 10.3499C9.06245 10.1681 9.02362 9.97317 9.02362 9.77633C9.02362 9.5795 9.06245 9.3846 9.13788 9.20279C9.21331 9.02099 9.32385 8.85584 9.46319 8.71682C9.49619 8.68295 9.51861 8.64019 9.5277 8.59379C9.53679 8.54738 9.53217 8.49933 9.51439 8.45551C9.49815 8.41407 9.46993 8.37841 9.43334 8.35306C9.39675 8.32772 9.35344 8.31385 9.30894 8.31322C9.11083 8.31516 8.9143 8.27786 8.73067 8.20348C8.54705 8.1291 8.37996 8.01912 8.23904 7.87987C8.09812 7.74061 7.98615 7.57485 7.90959 7.39212C7.83303 7.2094 7.7934 7.01332 7.79297 6.81521V6.15031C7.79332 5.75365 7.95105 5.37333 8.23153 5.09285C8.51201 4.81237 8.89233 4.65464 9.28899 4.65429C9.33688 4.65526 9.38397 4.64184 9.42415 4.61576C9.46434 4.58968 9.49577 4.55215 9.51439 4.50801V4.50269C9.53084 4.46251 9.53507 4.41837 9.52655 4.37579C9.51804 4.33322 9.49715 4.2941 9.46652 4.26333C9.32488 4.12512 9.21207 3.96019 9.13462 3.77808C9.05717 3.59596 9.01662 3.4003 9.01532 3.20241C9.01403 3.00451 9.052 2.80833 9.12705 2.62522C9.20211 2.44211 9.31274 2.27571 9.45255 2.13565L9.92397 1.66424C10.2086 1.39155 10.5876 1.23933 10.9818 1.23933C11.376 1.23933 11.755 1.39155 12.0397 1.66424C12.0733 1.69917 12.1165 1.72328 12.1639 1.73346C12.2113 1.74365 12.2606 1.73946 12.3056 1.72142C12.3469 1.70524 12.3823 1.67709 12.4075 1.6406C12.4326 1.60411 12.4462 1.56093 12.4466 1.51663C12.4446 1.31858 12.4818 1.12209 12.556 0.938474C12.6303 0.754859 12.7401 0.58775 12.8792 0.446776C13.0184 0.305802 13.184 0.193747 13.3666 0.117069C13.5492 0.0403908 13.7452 0.000603723 13.9433 0H14.6082C15.0048 0.000352119 15.3852 0.158081 15.6656 0.438563C15.9461 0.719045 16.1038 1.09936 16.1042 1.49602C16.1018 1.54282 16.114 1.5892 16.139 1.62883C16.164 1.66846 16.2006 1.69941 16.2438 1.71743C16.2859 1.73535 16.3321 1.74092 16.3772 1.7335C16.4223 1.72609 16.4644 1.70598 16.4985 1.67554C16.6374 1.5332 16.8033 1.4201 16.9866 1.3429C17.1699 1.26571 17.3668 1.22598 17.5656 1.22607C17.7622 1.22552 17.9569 1.26397 18.1385 1.33918C18.32 1.41439 18.4849 1.52488 18.6235 1.66424L19.0929 2.12967C19.2318 2.26859 19.342 2.43351 19.4172 2.61502C19.4924 2.79652 19.5311 2.99106 19.5311 3.18752C19.5311 3.38398 19.4924 3.57852 19.4172 3.76003C19.342 3.94154 19.2318 4.10646 19.0929 4.24538C19.0576 4.27657 19.0329 4.31793 19.022 4.36377C19.0112 4.4096 19.0148 4.45767 19.0324 4.50136L19.0364 4.51067C19.0526 4.55166 19.0807 4.58687 19.1171 4.61175C19.1535 4.63664 19.1964 4.65006 19.2405 4.6503C19.439 4.6481 19.6359 4.68527 19.8199 4.75965C20.0038 4.83403 20.1713 4.94415 20.3124 5.08364C20.4536 5.22313 20.5657 5.38923 20.6423 5.57232C20.7188 5.7554 20.7583 5.95186 20.7585 6.15031V6.81521C20.7581 7.21187 20.6004 7.59218 20.3199 7.87267C20.0394 8.15315 19.6591 8.31088 19.2625 8.31123C19.2157 8.30886 19.1693 8.321 19.1297 8.34599C19.09 8.37098 19.0591 8.40761 19.0411 8.45086C19.0234 8.49295 19.0179 8.53917 19.0253 8.58422C19.0328 8.62926 19.0527 8.6713 19.0829 8.70551C19.2244 8.8439 19.337 9.00897 19.4142 9.19118C19.4914 9.37338 19.5318 9.5691 19.5328 9.76699C19.5339 9.96488 19.4956 10.161 19.4204 10.344C19.3451 10.527 19.2342 10.6933 19.0942 10.8332L18.6288 11.3026C18.3441 11.5753 17.9652 11.7275 17.571 11.7275C17.1768 11.7275 16.7978 11.5753 16.5131 11.3026C16.4819 11.2674 16.4405 11.2427 16.3947 11.2319C16.3489 11.221 16.3008 11.2246 16.2571 11.2421C16.2148 11.2587 16.1782 11.2871 16.1518 11.3241C16.1254 11.361 16.1102 11.4048 16.1082 11.4502C16.11 11.6484 16.0726 11.8451 15.9981 12.0287C15.9235 12.2124 15.8133 12.3795 15.6739 12.5204C15.5344 12.6613 15.3685 12.7731 15.1855 12.8495C15.0026 12.9259 14.8064 12.9654 14.6082 12.9655ZM12.7405 10.3511C12.9484 10.4509 13.1245 10.6067 13.2488 10.8009C13.3732 10.9952 13.441 11.2203 13.4446 11.4509C13.4427 11.5178 13.4542 11.5843 13.4784 11.6467C13.5026 11.7091 13.5389 11.766 13.5854 11.8142C13.6318 11.8624 13.6874 11.9008 13.7488 11.9272C13.8103 11.9537 13.8764 11.9676 13.9433 11.9682H14.6082C14.7404 11.9682 14.8673 11.9156 14.9608 11.8221C15.0543 11.7286 15.1069 11.6018 15.1069 11.4695C15.1065 11.2238 15.179 10.9835 15.315 10.7789C15.4511 10.5743 15.6447 10.4146 15.8715 10.3199C16.0938 10.2277 16.3386 10.2038 16.5745 10.2512C16.8105 10.2985 17.0271 10.415 17.1966 10.5858C17.2425 10.6348 17.2976 10.6741 17.3589 10.7014C17.4202 10.7287 17.4863 10.7434 17.5534 10.7447C17.6205 10.746 17.6871 10.7339 17.7494 10.709C17.8117 10.6841 17.8683 10.647 17.916 10.5998L18.3855 10.1344C18.4791 10.0406 18.5317 9.91352 18.5317 9.78099C18.5317 9.64846 18.4791 9.52135 18.3855 9.42759C18.2147 9.25566 18.0978 9.03767 18.049 8.8003C18.0002 8.56293 18.0217 8.31648 18.1109 8.09115V8.08184L18.1155 8.07054C18.2069 7.84766 18.3627 7.65712 18.563 7.52328C18.7633 7.38944 18.999 7.31838 19.2399 7.3192C19.3066 7.32097 19.3731 7.30941 19.4354 7.28519C19.4976 7.26097 19.5545 7.22458 19.6025 7.17815C19.6505 7.13172 19.6888 7.07618 19.7152 7.01478C19.7415 6.95337 19.7553 6.88734 19.7558 6.82053V6.15563C19.7558 6.02337 19.7033 5.89653 19.6098 5.80301C19.5162 5.70949 19.3894 5.65696 19.2571 5.65696C19.0134 5.65998 18.7744 5.59005 18.5707 5.45617C18.367 5.32228 18.2081 5.13055 18.1142 4.90562C18.0176 4.68046 17.991 4.43145 18.0378 4.19096C18.0847 3.95048 18.2028 3.72965 18.3768 3.55721C18.4269 3.51003 18.467 3.45319 18.4945 3.3901C18.5221 3.32702 18.5365 3.25901 18.5371 3.19018C18.5373 3.12468 18.5244 3.05979 18.4993 2.99929C18.4742 2.93879 18.4373 2.88389 18.3908 2.83779L17.9254 2.36837C17.879 2.32209 17.8239 2.28541 17.7633 2.26042C17.7027 2.23544 17.6378 2.22264 17.5723 2.22276C17.5066 2.22244 17.4415 2.23529 17.3809 2.26052C17.3203 2.28576 17.2653 2.32288 17.2192 2.3697C17.0471 2.54018 16.8291 2.65691 16.5918 2.70567C16.3545 2.75442 16.1082 2.7331 15.8828 2.6443L15.8715 2.64231L15.8602 2.63765C15.6373 2.54624 15.4468 2.39043 15.3129 2.19014C15.1791 1.98986 15.108 1.7542 15.1088 1.51331C15.1106 1.44652 15.0991 1.38005 15.0748 1.31779C15.0506 1.25552 15.0142 1.19871 14.9678 1.15067C14.9214 1.10263 14.8658 1.06432 14.8044 1.038C14.743 1.01167 14.677 0.997854 14.6102 0.997347H13.9453C13.813 0.997347 13.6862 1.04989 13.5927 1.14341C13.4991 1.23693 13.4466 1.36376 13.4466 1.49602C13.4495 1.74144 13.3784 1.98205 13.2426 2.1865C13.1068 2.39095 12.9126 2.54978 12.6853 2.64231C12.4616 2.73403 12.216 2.75823 11.9787 2.71191C11.7414 2.66559 11.5229 2.55078 11.3502 2.38167C11.3043 2.33306 11.2491 2.29409 11.188 2.26702C11.1268 2.23996 11.0609 2.22536 10.9941 2.22406C10.9272 2.22276 10.8608 2.23479 10.7986 2.25945C10.7365 2.28412 10.6799 2.32092 10.6321 2.3677L10.1607 2.83912C10.1143 2.88543 10.0776 2.94041 10.0525 3.00094C10.0274 3.06146 10.0145 3.12633 10.0145 3.19184C10.0145 3.25736 10.0274 3.32223 10.0525 3.38275C10.0776 3.44328 10.1143 3.49826 10.1607 3.54457C10.3359 3.7149 10.4561 3.93385 10.5056 4.17315C10.5551 4.41245 10.5318 4.6611 10.4386 4.887C10.4295 4.90976 10.4191 4.93197 10.4073 4.95349C10.3067 5.16032 10.1506 5.33513 9.95641 5.4584C9.76222 5.58168 9.5376 5.64858 9.30761 5.65164C9.24073 5.64978 9.17416 5.66127 9.11178 5.68544C9.0494 5.70961 8.99246 5.74597 8.9443 5.7924C8.89613 5.83883 8.85771 5.8944 8.83127 5.95585C8.80483 6.01731 8.79091 6.08341 8.79032 6.15031V6.81521C8.79032 6.94746 8.84285 7.0743 8.93637 7.16782C9.02989 7.26134 9.15673 7.31388 9.28899 7.31388C9.53299 7.31076 9.77232 7.38096 9.97598 7.51539C10.1796 7.64982 10.3382 7.84228 10.4313 8.06788L10.4353 8.07652L10.4386 8.08583C10.5278 8.30944 10.5501 8.55412 10.5029 8.79018C10.4557 9.02623 10.3409 9.24351 10.1726 9.41562C10.1236 9.46212 10.0845 9.5181 10.0578 9.58017C10.031 9.64223 10.0172 9.70908 10.0171 9.77667C10.0166 9.84235 10.0292 9.90747 10.0542 9.96821C10.0792 10.029 10.1161 10.0841 10.1627 10.1304L10.6321 10.5958C10.7271 10.6866 10.8534 10.7372 10.9848 10.7372C11.1162 10.7372 11.2425 10.6866 11.3375 10.5958C11.5081 10.421 11.7272 10.3013 11.9665 10.2521C12.2057 10.2029 12.4542 10.2265 12.68 10.3199C12.7007 10.3292 12.7209 10.3396 12.7405 10.3511Z" fill="white"/>
</svg>
