<svg width="162" height="119" viewBox="0 0 162 119" fill="none" xmlns="http://www.w3.org/2000/svg">
<g clip-path="url(#clip0_332_1712)">
<path d="M162 100.533C161.874 101.018 161.717 101.494 161.531 101.959C160.824 103.468 159.538 104.261 157.96 104.591C155.802 105.048 153.551 104.742 151.595 103.725C151.515 103.687 151.443 103.633 151.385 103.566C151.328 103.499 151.285 103.42 151.261 103.335C151.227 102.259 151.227 101.186 151.224 100.11C151.238 100.037 151.265 99.9671 151.304 99.9034C152.051 100.27 152.768 100.656 153.515 100.976C154.447 101.438 155.495 101.619 156.53 101.496C156.819 101.451 157.098 101.359 157.357 101.223C158.151 100.8 158.345 99.477 157.357 99.0106C156.687 98.6974 155.99 98.4809 155.314 98.2043C154.533 97.9317 153.771 97.609 153.033 97.2382C152.423 96.8993 151.898 96.4294 151.494 95.8628C151.091 95.2961 150.82 94.6471 150.701 93.963C150.581 93.2788 150.617 92.5769 150.806 91.9083C150.994 91.2398 151.33 90.6215 151.79 90.0987C152.246 89.5639 152.805 89.1245 153.434 88.806C154.062 88.4875 154.748 88.2961 155.451 88.243C157.231 88.0221 159.036 88.3784 160.596 89.2591C160.736 89.3271 160.843 89.4467 160.895 89.5923C161.093 90.7087 161.105 91.85 160.931 92.9705C160.912 93.0149 160.886 93.0564 160.854 93.0937C160.328 92.8172 159.803 92.5374 159.273 92.2675C158.506 91.8264 157.653 91.5527 156.771 91.4646C156.321 91.4494 155.873 91.5172 155.448 91.6645C155.206 91.753 154.998 91.9161 154.856 92.1301C154.714 92.3441 154.644 92.5977 154.657 92.8539C154.636 93.0831 154.687 93.3134 154.803 93.5123C154.92 93.7113 155.096 93.869 155.307 93.9633C155.92 94.2465 156.573 94.453 157.2 94.7095C158.127 95.0449 159.034 95.4332 159.916 95.8722C160.465 96.1725 160.935 96.5977 161.287 97.113C161.64 97.6283 161.864 98.2192 161.943 98.8373C161.962 98.8995 161.986 98.9597 162.017 99.0172L162 100.533Z" fill="#0049A3"/>
<path d="M157.662 119.003C157.203 118.867 156.734 118.757 156.289 118.584C156.208 118.54 156.138 118.478 156.085 118.404C156.032 118.329 155.996 118.244 155.98 118.154C155.937 117.721 155.98 117.284 155.98 116.781C156.315 116.945 156.583 117.114 156.868 117.221C157.344 117.474 157.888 117.572 158.422 117.501C158.571 117.49 158.711 117.429 158.82 117.328C158.928 117.226 158.998 117.091 159.019 116.945C159.069 116.611 158.838 116.428 158.563 116.322C158.081 116.128 157.575 115.988 157.103 115.775C155.867 115.222 155.401 114.109 155.91 112.917C156.07 112.546 156.328 112.226 156.658 111.991C156.987 111.756 157.375 111.615 157.779 111.584C158.552 111.458 159.345 111.59 160.034 111.961C160.107 112.005 160.17 112.065 160.22 112.136C160.269 112.206 160.302 112.286 160.318 112.37C160.355 112.803 160.318 113.243 160.318 113.753C160.056 113.602 159.784 113.469 159.504 113.353C159.095 113.201 158.672 113.09 158.242 113.02C158.158 113.006 158.072 113.009 157.989 113.028C157.906 113.048 157.828 113.084 157.759 113.135C157.691 113.185 157.633 113.249 157.59 113.322C157.547 113.395 157.519 113.476 157.508 113.56C157.438 113.933 157.689 114.123 157.997 114.226C158.432 114.389 158.885 114.516 159.317 114.692C160.539 115.195 161.039 116.158 160.707 117.378C160.476 118.227 159.853 118.66 159.032 118.883C158.918 118.913 158.808 118.95 158.697 118.987L157.662 119.003Z" fill="#0049A3"/>
<path d="M148.661 119.003C148.219 118.863 147.767 118.747 147.341 118.57C147.265 118.53 147.199 118.473 147.148 118.404C147.097 118.334 147.062 118.255 147.046 118.17C147.01 117.724 147.046 117.274 147.046 116.815C147.517 117.041 148 117.24 148.494 117.411C148.841 117.495 149.2 117.518 149.555 117.477C149.692 117.47 149.821 117.413 149.919 117.317C150.016 117.221 150.075 117.094 150.085 116.958C150.105 116.824 150.076 116.687 150.001 116.574C149.927 116.46 149.814 116.377 149.683 116.341C149.15 116.132 148.597 115.965 148.078 115.725C147.812 115.62 147.57 115.461 147.369 115.258C147.168 115.055 147.011 114.813 146.909 114.547C146.807 114.28 146.762 113.996 146.776 113.711C146.791 113.427 146.864 113.148 146.993 112.893C147.155 112.532 147.412 112.221 147.737 111.991C148.062 111.762 148.442 111.624 148.839 111.591C149.611 111.46 150.405 111.592 151.093 111.964C151.171 112.013 151.239 112.078 151.29 112.154C151.342 112.23 151.378 112.316 151.394 112.407C151.435 112.827 151.394 113.256 151.394 113.759C151.21 113.669 151.076 113.596 150.939 113.54C150.527 113.354 150.106 113.19 149.676 113.05C149.445 112.989 149.2 113.007 148.979 113.1C148.884 113.15 148.801 113.22 148.735 113.305C148.67 113.39 148.624 113.488 148.601 113.593C148.605 113.699 148.634 113.802 148.685 113.896C148.735 113.989 148.806 114.07 148.892 114.133C149.186 114.288 149.494 114.415 149.813 114.509C150.038 114.592 150.269 114.659 150.483 114.756C151.488 115.195 151.941 115.932 151.853 116.954C151.823 117.418 151.64 117.858 151.332 118.207C151.024 118.555 150.609 118.793 150.152 118.883L149.78 119.003H148.661Z" fill="#0049A3"/>
<path d="M137.335 38.8462C135.011 38.4531 132.689 38.04 130.361 37.6802C128.351 37.3737 126.341 37.1171 124.331 36.8606C122.767 36.6607 121.206 36.4741 119.642 36.3209C118.191 36.181 116.741 36.0577 115.287 35.9877C112.698 35.8578 110.105 35.7279 107.512 35.6812C105.723 35.6513 103.931 35.7545 102.152 35.8145C100.99 35.8545 99.8276 35.9044 98.6686 35.9877C97.2985 36.091 95.9284 36.2209 94.5617 36.3609C93.3926 36.4841 92.2168 36.6207 91.0679 36.784C89.4566 37.0105 87.8453 37.2371 86.2475 37.5203C82.7972 38.1333 79.3815 38.8995 76.0004 39.819C68.9136 41.7449 62.025 44.3305 55.4259 47.5416C48.3622 50.9734 41.6635 55.1031 35.4309 59.8684C31.5891 62.809 27.932 65.981 24.4804 69.3666C17.3035 76.3989 11.0551 84.3104 5.88562 92.9108C3.81829 96.3434 1.92985 99.8796 0.227792 103.505C0.170845 103.628 0.103858 103.752 0.00671387 103.935V-0.00976562H72.5434C72.5434 0.156812 72.5702 0.323394 72.5702 0.493303C72.5702 8.78222 72.5624 17.07 72.5468 25.3567C72.5468 25.7199 72.453 25.8298 72.0778 25.8265C68.9323 25.8098 65.7835 25.8265 62.638 25.8098C53.0107 25.7876 43.3834 25.761 33.756 25.7299C31.1733 25.7299 28.5906 25.7299 25.9476 25.7299V49.0874C26.3898 48.9009 26.8152 48.7243 27.2373 48.5411C36.4981 44.49 46.0644 41.1683 55.848 38.6064C59.9415 37.5369 64.0684 36.6074 68.2423 35.8645C70.9858 35.3847 73.7326 34.925 76.4862 34.5318C78.4123 34.252 80.3518 34.0488 82.2914 33.8655C84.6999 33.6457 87.1117 33.4757 89.5202 33.2992C93.7711 32.9893 98.0254 33.0293 102.28 33.086C104.457 33.1159 106.634 33.2359 108.808 33.4191C111.374 33.6223 113.937 33.8988 116.493 34.1954C121.281 34.7456 126.024 35.6318 130.686 36.8473C132.86 37.417 135.001 38.1166 137.154 38.7596C137.216 38.7806 137.277 38.8051 137.335 38.8329V38.8462Z" fill="#0049A3"/>
<path d="M138.528 98.4807C139.818 100.48 141.087 102.419 142.444 104.501C141.342 104.501 140.35 104.501 139.359 104.554C138.461 104.604 137.915 104.254 137.456 103.461C136.652 102.069 135.707 100.753 134.836 99.3969C134.782 99.2855 134.694 99.1937 134.585 99.1341C134.476 99.0744 134.351 99.0498 134.227 99.0637C133.868 99.0904 133.503 99.0637 133.095 99.0637V104.368C132.284 104.621 130.2 104.634 129.179 104.398V88.5693C129.292 88.5693 129.393 88.546 129.497 88.546C131.547 88.546 133.594 88.5227 135.644 88.546C137.429 88.5693 139.064 89.0424 140.303 90.415C140.813 90.9957 141.184 91.6833 141.389 92.4266C141.594 93.1699 141.628 93.9496 141.488 94.7076C141.348 95.4657 141.038 96.1825 140.58 96.8047C140.123 97.4268 139.53 97.9383 138.846 98.3008C138.752 98.3541 138.662 98.4108 138.528 98.4807ZM133.111 91.8176V95.8155C134.016 95.8155 134.887 95.8621 135.751 95.8155C136.876 95.7389 137.536 94.9759 137.546 93.8599C137.556 92.7438 136.913 91.9242 135.872 91.8609C134.954 91.771 134.036 91.8176 133.111 91.8176Z" fill="#0049A3"/>
<path d="M75.173 92.924C74.5968 92.6375 74.0609 92.3443 73.4981 92.1011C72.1352 91.4514 70.5934 91.272 69.1165 91.5914C67.9915 91.8339 66.9889 92.4641 66.2858 93.3706C65.5827 94.2771 65.2245 95.4016 65.2743 96.5454C65.3145 98.8242 66.5137 100.567 68.5504 101.286C69.5979 101.656 70.7294 101.722 71.8131 101.476V98.3411C71.8131 97.888 71.8131 97.4349 71.8131 96.9818C71.8131 96.8685 71.9237 96.6753 72.0041 96.6487C73.2186 96.4666 74.4545 96.4779 75.6654 96.682V97.1017C75.6654 99.1273 75.6654 101.153 75.6654 103.179C75.6788 103.308 75.6464 103.439 75.5737 103.548C75.501 103.657 75.3925 103.737 75.2668 103.775C74.0985 104.286 72.8536 104.602 71.582 104.711C69.5721 104.908 67.5991 104.711 65.7567 103.802C64.3211 103.104 63.127 101.997 62.3269 100.621C61.5268 99.2458 61.157 97.6644 61.2646 96.079C61.5091 91.8878 64.457 88.7828 68.6576 88.2831C70.7613 88.0332 72.7946 88.1998 74.7208 89.1593C74.8652 89.2083 74.9906 89.3012 75.079 89.425C75.1673 89.5488 75.2143 89.6971 75.2132 89.849C75.2132 90.7285 75.24 91.6047 75.2433 92.4809C75.2367 92.6307 75.2131 92.7794 75.173 92.924Z" fill="#0049A3"/>
<path d="M95.3288 101.503C95.3288 99.9969 95.3288 98.5577 95.3288 97.1218C95.3288 96.7619 95.4226 96.612 95.7911 96.6154C96.796 96.6154 97.801 96.6154 98.8059 96.6154C99.1007 96.6154 99.2179 96.732 99.2146 97.0485C99.2146 99.114 99.2146 101.18 99.2146 103.245C99.2271 103.349 99.2041 103.453 99.1494 103.542C99.0947 103.631 99.0114 103.699 98.9131 103.735C97.5581 104.349 96.0964 104.696 94.6086 104.758C92.6641 104.933 90.7103 104.543 88.9843 103.635C85.9862 101.992 84.6295 98.9241 84.8473 95.8258C85.1287 91.8746 88.0396 88.8295 92.2905 88.2865C94.2062 88.0028 96.1635 88.2483 97.9484 88.9961C98.491 89.2293 98.8495 89.5025 98.8193 90.1521C98.7825 90.975 98.7992 91.8179 98.7858 92.6241C98.7703 92.7297 98.7445 92.8334 98.7088 92.934C98.3939 92.7641 98.1125 92.6008 97.8211 92.4542C96.4041 91.7346 94.9335 91.2949 93.3089 91.4714C92.6464 91.5275 92.002 91.7157 91.4142 92.0249C90.8264 92.334 90.3073 92.7577 89.8877 93.2708C89.4682 93.7838 89.1568 94.3756 88.9722 95.0109C88.7877 95.6462 88.7337 96.312 88.8134 96.9685C89.1183 99.9369 91.4196 101.839 94.4143 101.596L95.3288 101.503Z" fill="#0049A3"/>
<path d="M108.959 104.411V88.5728H120.014C120.278 89.1791 120.261 91.0115 120.037 91.7977H112.889V94.7694H119.216C119.411 95.8436 119.411 96.9436 119.216 98.0177H112.872V101.169H120.037C120.258 102.239 120.258 103.342 120.037 104.411H108.959Z" fill="#0049A3"/>
<path d="M31.8667 104.498H27.9374V88.5728H39.042C39.253 89.6409 39.253 90.7396 39.042 91.8077H31.8667V94.9427H32.5367C34.2652 94.9427 35.9903 94.9427 37.7188 94.9427C38.0873 94.9427 38.2916 94.996 38.2849 95.4191C38.2849 96.332 38.2849 97.2448 38.2849 98.201H31.8667V104.498Z" fill="#0049A3"/>
<path d="M48.1736 88.4863H52.0527V104.431C50.7671 104.626 49.4592 104.626 48.1736 104.431V88.4863Z" fill="#0049A3"/>
<path d="M94.8431 114.702C94.4311 115.955 94.0124 117.131 93.6606 118.33C93.5367 118.753 93.3257 118.923 92.917 118.9H92.716C92.046 118.9 92.046 118.9 91.8484 118.287C91.136 116.241 90.4236 114.195 89.7112 112.147C89.6677 112.024 89.6409 111.894 89.5873 111.697C90.1634 111.697 90.7028 111.697 91.2421 111.714C91.3258 111.714 91.4364 111.907 91.4766 112.03C91.8752 113.296 92.2604 114.569 92.649 115.842C92.6725 115.912 92.7026 115.982 92.7696 116.175C92.9672 115.532 93.1381 114.985 93.3056 114.439C93.5501 113.639 93.8013 112.84 94.0325 112.034C94.0501 111.93 94.1045 111.837 94.1857 111.77C94.2668 111.704 94.3694 111.668 94.4746 111.671C95.4997 111.581 95.5533 111.607 95.8447 112.563C96.173 113.643 96.508 114.723 96.8497 115.805C96.8798 115.905 96.92 116.002 96.987 116.178L97.9919 112.913C98.0891 112.597 98.1728 112.273 98.2901 111.964C98.3269 111.86 98.4475 111.717 98.538 111.714C99.0639 111.69 99.5932 111.714 100.179 111.714L98.9567 115.139C98.5648 116.268 98.1661 117.397 97.7876 118.534C97.7139 118.75 97.6101 118.867 97.3722 118.867C97.3058 118.871 97.2397 118.88 97.1746 118.893C96.3304 118.957 96.2433 118.893 95.9854 118.12C95.6236 117.01 95.2641 115.91 94.9068 114.822C94.8967 114.805 94.88 114.782 94.8431 114.702Z" fill="#0049A3"/>
<path d="M112.018 116.471V118.84H110.299V111.77C111.478 111.77 112.644 111.684 113.793 111.797C114.281 111.828 114.744 112.023 115.106 112.35C115.468 112.677 115.707 113.116 115.786 113.596C115.974 114.682 115.585 115.495 114.583 116.111C114.563 116.111 114.547 116.148 114.496 116.191L116.211 118.857C115.572 118.857 115.006 118.857 114.439 118.857C114.329 118.857 114.198 118.71 114.125 118.603C113.736 118.027 113.334 117.461 112.992 116.858C112.957 116.766 112.903 116.683 112.833 116.614C112.764 116.544 112.681 116.49 112.589 116.453C112.498 116.417 112.4 116.4 112.302 116.403C112.203 116.406 112.107 116.429 112.018 116.471ZM112.044 114.939C112.47 114.939 112.878 114.969 113.284 114.939C113.388 114.934 113.49 114.909 113.584 114.865C113.678 114.821 113.763 114.758 113.832 114.681C113.902 114.605 113.956 114.515 113.991 114.417C114.025 114.319 114.04 114.216 114.034 114.113C114.048 114.006 114.04 113.899 114.012 113.795C113.983 113.692 113.935 113.596 113.869 113.511C113.803 113.427 113.721 113.356 113.627 113.303C113.534 113.25 113.431 113.216 113.324 113.203C112.898 113.178 112.47 113.178 112.044 113.203V114.939Z" fill="#0049A3"/>
<path d="M139.784 114.519H142.621V115.941H139.777V117.377H140.809C141.426 117.377 142.039 117.377 142.655 117.377C142.903 117.377 143.033 117.444 143.03 117.711C143.03 118.077 143.03 118.443 143.03 118.823H138.029V111.727H138.595C139.935 111.727 141.298 111.727 142.648 111.727C142.923 111.727 143.043 111.807 143.033 112.084C143.033 112.437 143.033 112.793 143.033 113.173H139.787L139.784 114.519Z" fill="#0049A3"/>
<path d="M121.93 115.962C121.93 116.385 121.909 116.768 121.946 117.151C121.946 117.234 122.151 117.364 122.265 117.368C123.092 117.368 123.923 117.398 124.753 117.368C125.112 117.368 125.233 117.481 125.216 117.817C125.199 118.154 125.216 118.454 125.216 118.817H120.221V111.757H125.176V113.16H121.976V114.509H124.827V115.962H121.93Z" fill="#0049A3"/>
<path d="M133.969 117.378V118.804H129.239V118.417C129.239 116.312 129.239 114.209 129.239 112.107C129.239 111.774 129.326 111.637 129.658 111.647C129.989 111.657 130.301 111.647 130.622 111.647C130.944 111.647 131.028 111.771 131.024 112.081C131.024 113.68 131.024 115.276 131.008 116.871C131.008 117.294 131.135 117.388 131.53 117.374C132.317 117.358 133.118 117.378 133.969 117.378Z" fill="#0049A3"/>
<path d="M105.82 118.847H104.145C104.145 118.687 104.119 118.57 104.119 118.454C104.119 116.338 104.119 114.226 104.119 112.124C104.119 111.79 104.219 111.66 104.544 111.67C104.869 111.68 105.268 111.67 105.623 111.697C105.723 111.697 105.884 111.86 105.884 111.95C105.884 114.222 105.884 116.498 105.884 118.77C105.874 118.77 105.861 118.78 105.82 118.847Z" fill="#0049A3"/>
</g>
<defs>
<clipPath id="clip0_332_1712">
<rect width="162" height="119" fill="white"/>
</clipPath>
</defs>
</svg>
