<svg width="16" height="18" viewBox="0 0 16 18" fill="none" xmlns="http://www.w3.org/2000/svg">
<path d="M8.99998 1.0082C9.00019 0.455919 8.55265 0.0080289 8.00037 0.00781258C7.44808 0.00759663 7.00019 0.455137 6.99997 1.00742L6.99684 9.01087C6.99663 9.56315 7.44417 10.011 7.99645 10.0113C8.54874 10.0115 8.99663 9.56394 8.99684 9.01165L8.99998 1.0082Z" fill="#EB5757"/>
<path d="M0 9.99095C0 7.78184 0.895405 5.78186 2.34308 4.33415L3.7573 5.74837C2.67155 6.83415 2 8.33412 2 9.99095C2 13.3047 4.68629 15.9909 8 15.9909C11.3137 15.9909 14 13.3047 14 9.99095C14 8.33409 13.3284 6.83408 12.2426 5.7483L13.6568 4.33408C15.1046 5.7818 16 7.7818 16 9.99095C16 14.4092 12.4183 17.9909 8 17.9909C3.58172 17.9909 0 14.4092 0 9.99095Z" fill="#EB5757"/>
</svg>
