<svg width="60" height="58" viewBox="0 0 60 58" fill="none" xmlns="http://www.w3.org/2000/svg">
<path fill-rule="evenodd" clip-rule="evenodd" d="M16.0467 4.68903C9.49628 4.68903 4.1861 9.99921 4.1861 16.5496V52.6042C4.1861 53.1892 4.8628 53.5143 5.31961 53.149L13.2104 46.8364C14.5711 45.7477 16.2619 45.1547 18.0046 45.1547H43.954C50.5045 45.1547 55.8147 39.8445 55.8147 33.294V16.5496C55.8147 9.99921 50.5045 4.68903 43.954 4.68903H16.0467ZM0 16.5496C0 7.68728 7.18435 0.50293 16.0467 0.50293H43.954C52.8163 0.50293 60.0008 7.68728 60.0008 16.5496V33.294C60.0008 42.1563 52.8163 49.3408 43.954 49.3408H18.0046C17.2125 49.3408 16.4439 49.6103 15.8254 50.1051L7.93467 56.4178C4.73694 58.976 0 56.6994 0 52.6042V16.5496Z" fill="#0049A3"/>
<path d="M19.6751 25.0607C19.6751 26.9874 18.1132 28.5491 16.1867 28.5491C14.26 28.5491 12.6982 26.9874 12.6982 25.0607C12.6982 23.134 14.26 21.5723 16.1867 21.5723C18.1132 21.5723 19.6751 23.134 19.6751 25.0607Z" fill="#0049A3"/>
<path d="M33.6282 25.0607C33.6282 26.9874 32.0665 28.5491 30.1398 28.5491C28.2133 28.5491 26.6514 26.9874 26.6514 25.0607C26.6514 23.134 28.2133 21.5723 30.1398 21.5723C32.0665 21.5723 33.6282 23.134 33.6282 25.0607Z" fill="#0049A3"/>
<path d="M47.5823 25.0607C47.5823 26.9874 46.0206 28.5491 44.0939 28.5491C42.1674 28.5491 40.6055 26.9874 40.6055 25.0607C40.6055 23.134 42.1674 21.5723 44.0939 21.5723C46.0206 21.5723 47.5823 23.134 47.5823 25.0607Z" fill="#0049A3"/>
</svg>
