<svg width="26" height="24" viewBox="0 0 26 24" fill="none" xmlns="http://www.w3.org/2000/svg">
<g clip-path="url(#clip0_1709_19431)">
<path d="M11.9691 10.9285C11.4787 10.6941 11.0815 10.3016 10.8413 9.81411C10.6011 9.32659 10.5319 8.77242 10.6449 8.24082C10.7579 7.70922 11.0465 7.23109 11.4643 6.88343C11.882 6.53577 12.4046 6.33881 12.9479 6.32422C15.444 6.32422 16.4228 9.55588 14.0193 10.9574C15.1776 14.6872 16.3359 18.4169 17.4942 22.1466C17.5637 22.3609 17.6563 22.4188 17.859 22.4072C18.4903 22.3377 19.4112 22.4072 19.3996 23.218C19.3996 24.1389 18.3282 24.023 17.6621 24.0057C14.1872 24.0057 10.7123 24.0057 7.23744 24.0057C7.04223 23.9666 6.86822 23.857 6.7486 23.6979C6.62898 23.5387 6.57211 23.3411 6.58879 23.1427C6.6525 22.3551 7.55019 22.3667 8.1525 22.4188C8.34942 22.4188 8.42471 22.3609 8.48262 22.1756C9.63513 18.3995 10.7992 14.6756 11.9691 10.9285ZM10.0811 22.3667H15.9073C15.7394 22.025 15.5888 20.8261 15.2645 20.7798H10.7239C10.3996 20.8145 10.249 22.025 10.0811 22.3667ZM14.9054 19.164C14.193 16.9342 14.9054 17.6871 11.7317 17.5655C11.4131 17.5655 11.2452 18.8454 11.083 19.164H14.9054ZM13.9035 15.9555L13.0231 13.1292H12.9652L12.0791 15.9555H13.9035ZM12.9884 9.5385C13.1894 9.52141 13.3766 9.42949 13.513 9.28095C13.6495 9.13241 13.7252 8.93806 13.7252 8.73637C13.7252 8.53467 13.6495 8.34033 13.513 8.19179C13.3766 8.04325 13.1894 7.95133 12.9884 7.93424C12.7874 7.95133 12.6002 8.04325 12.4638 8.19179C12.3273 8.34033 12.2516 8.53467 12.2516 8.73637C12.2516 8.93806 12.3273 9.13241 12.4638 9.28095C12.6002 9.42949 12.7874 9.52141 12.9884 9.5385Z" fill="#0049A3"/>
<path d="M25.0297 8.97631C24.9836 12.0649 23.7374 15.0144 21.5548 17.2002C21.4562 17.3181 21.3261 17.4056 21.1797 17.4524C21.0333 17.4992 20.8766 17.5034 20.7279 17.4646C20.5792 17.4257 20.4445 17.3454 20.3397 17.233C20.2349 17.1206 20.1642 16.9807 20.1359 16.8296C20.1136 16.6932 20.1257 16.5534 20.1712 16.4229C20.2167 16.2924 20.2942 16.1754 20.3965 16.0825C22.3266 14.1197 23.4083 11.4771 23.4083 8.72435C23.4083 5.97156 22.3266 3.32902 20.3965 1.36626C20.3194 1.29077 20.2582 1.20067 20.2165 1.10122C20.1747 1.00177 20.1531 0.894983 20.1531 0.787113C20.1531 0.679243 20.1747 0.572452 20.2165 0.473006C20.2582 0.373559 20.3194 0.283455 20.3965 0.207962C21.4332 -0.747636 22.7942 1.82958 23.2922 2.52456C24.4544 4.47413 25.0557 6.70677 25.0297 8.97631Z" fill="#0049A3"/>
<path d="M4.91406 0.000171784C5.07933 -0.0231892 5.24779 0.00500264 5.39643 0.0809432C5.54507 0.156884 5.66665 0.27685 5.74457 0.42446C5.8225 0.572071 5.85296 0.740125 5.83181 0.905695C5.81067 1.07127 5.73893 1.22628 5.6264 1.34957C5.21676 1.80483 4.83018 2.28035 4.4681 2.77429C3.08247 4.76038 2.43153 7.16691 2.62704 9.58069C2.82256 11.9945 3.85234 14.2649 5.53955 16.0021C5.66079 16.0912 5.75543 16.2118 5.81333 16.3507C5.87122 16.4896 5.89015 16.6416 5.86812 16.7905C5.84608 16.9394 5.78391 17.0794 5.68826 17.1956C5.59262 17.3118 5.46713 17.3997 5.32527 17.4499C4.24805 17.7801 2.78858 15.0523 2.30788 14.2357C-0.112967 9.66617 0.744176 3.22025 4.91406 0.000171784Z" fill="#0049A3"/>
<path d="M21.8191 8.86597C22.126 10.1401 19.8847 16.3254 18.1067 14.9992C18.0247 14.9212 17.9599 14.8269 17.9167 14.7223C17.8736 14.6177 17.853 14.5051 17.8563 14.392C17.8595 14.2788 17.8867 14.1677 17.9358 14.0657C17.9849 13.9638 18.055 13.8733 18.1415 13.8003C19.4701 12.4353 20.2086 10.6025 20.1978 8.69771C20.187 6.79289 19.4276 4.96873 18.0836 3.61887C17.9953 3.54649 17.9235 3.45616 17.8728 3.3539C17.8221 3.25164 17.7938 3.13977 17.7896 3.02572C17.7854 2.91167 17.8056 2.79802 17.8487 2.69235C17.8918 2.58667 17.9569 2.49138 18.0396 2.41278C18.1224 2.33417 18.2209 2.27406 18.3286 2.23642C18.4364 2.19879 18.5509 2.18451 18.6646 2.1945C18.7783 2.20449 18.8885 2.23854 18.9881 2.2944C19.0876 2.35025 19.1741 2.42663 19.2419 2.51847C20.0717 3.35211 20.7271 4.34283 21.1696 5.43271C21.6121 6.52259 21.8329 7.68976 21.8191 8.86597Z" fill="#0049A3"/>
<path d="M7.19206 2.25845C7.36268 2.24524 7.53341 2.2827 7.68281 2.36616C7.83221 2.44962 7.95363 2.57535 8.03184 2.72756C8.37933 3.62525 7.20945 4.18703 6.87354 4.91097C6.01933 6.26907 5.64367 7.87377 5.80633 9.46991C5.96899 11.066 6.66061 12.562 7.77121 13.7198C7.87912 13.8126 7.9648 13.9284 8.02194 14.0587C8.07908 14.189 8.10622 14.3305 8.10134 14.4728C8.09109 14.6246 8.03613 14.7699 7.94336 14.8905C7.8506 15.0111 7.72417 15.1015 7.58009 15.1504C7.43113 15.2104 7.26705 15.222 7.11112 15.1836C6.95518 15.1451 6.8153 15.0585 6.71136 14.9361C3.2712 11.5828 3.23647 5.20054 7.19206 2.25845Z" fill="#0049A3"/>
<path d="M7.37151 8.72695C7.37937 7.27367 7.94782 5.87952 8.95837 4.83507C9.0249 4.74079 9.11091 4.66189 9.21059 4.60375C9.31026 4.54562 9.42129 4.50961 9.53611 4.49813C9.65093 4.48665 9.76688 4.50001 9.87609 4.53726C9.9853 4.57452 10.0852 4.63482 10.1691 4.71407C10.253 4.79333 10.3188 4.88968 10.3622 4.99662C10.4055 5.10355 10.4254 5.21856 10.4204 5.33384C10.4155 5.44912 10.3858 5.56197 10.3334 5.66477C10.281 5.76758 10.2071 5.85793 10.1167 5.92968C6.88501 9.84473 11.3792 11.5648 10.1167 12.7405C8.61667 13.8235 7.24409 9.87367 7.37151 8.72695Z" fill="#0049A3"/>
<path d="M18.5997 8.73862C18.6981 9.89692 17.4414 13.6267 15.9182 12.7927C15.8203 12.7211 15.7397 12.6285 15.6824 12.5216C15.625 12.4148 15.5923 12.2964 15.5868 12.1753C15.5812 12.0541 15.6029 11.9333 15.6502 11.8216C15.6976 11.71 15.7694 11.6104 15.8603 11.5301C19.0514 7.64403 14.6094 5.91236 15.8603 4.75406C17.3777 3.65368 18.7387 7.60349 18.5997 8.73862Z" fill="#0049A3"/>
</g>
<defs>
<clipPath id="clip0_1709_19431">
<rect width="24.0695" height="24" fill="white" transform="translate(0.964844)"/>
</clipPath>
</defs>
</svg>
