<svg width="18" height="20" viewBox="0 0 18 20" fill="none" xmlns="http://www.w3.org/2000/svg">
<path d="M17.125 15.625C17.125 15.1071 16.7054 14.6875 16.1875 14.6875C15.6706 14.6875 15.25 14.2669 15.25 13.75V7.8125C15.25 4.68556 12.9395 2.09531 9.9375 1.64062V0.9375C9.9375 0.419625 9.51787 0 9 0C8.48212 0 8.0625 0.419625 8.0625 0.9375V1.64062C5.0605 2.09531 2.75 4.68556 2.75 7.8125V13.75C2.75 14.2669 2.32944 14.6875 1.8125 14.6875C1.29463 14.6875 0.875 15.1071 0.875 15.625C0.875 16.1429 1.29463 16.5625 1.8125 16.5625H5.89687C5.88581 16.6665 5.875 16.7706 5.875 16.875C5.875 18.598 7.277 20 9 20C10.723 20 12.125 18.598 12.125 16.875C12.125 16.7706 12.1142 16.6665 12.1031 16.5625H16.1875C16.7054 16.5625 17.125 16.1429 17.125 15.625ZM9 18.125C8.16825 18.125 7.57806 17.3234 7.79481 16.5625H10.2052C10.4216 17.3224 9.833 18.125 9 18.125ZM4.4645 14.6875C4.56825 14.3942 4.625 14.0787 4.625 13.75V7.8125C4.625 5.40006 6.58756 3.4375 9 3.4375C11.4124 3.4375 13.375 5.40006 13.375 7.8125V13.75C13.375 14.0787 13.4317 14.3942 13.5355 14.6875H4.4645Z" fill="#0049A3"/>
</svg>
