<svg width="24" height="24" viewBox="0 0 24 24" fill="none" xmlns="http://www.w3.org/2000/svg">
<path fill-rule="evenodd" clip-rule="evenodd" d="M13.276 2.91954L13.0157 2.4857C12.7317 2.0117 12.1177 1.85868 11.6437 2.14268C11.1697 2.42668 11.0168 3.04075 11.3008 3.51475L11.8427 4.41795C12.2579 3.86204 12.7397 3.35864 13.276 2.91954ZM10.5304 6.99974H6.92374L9.01474 3.51475C9.29874 3.04075 9.14575 2.42668 8.67175 2.14268C8.19675 1.85868 7.58374 2.0117 7.29974 2.4857L4.59073 7.00072H3.15674C1.50274 7.00072 0.156738 8.34671 0.156738 10.0007C0.156738 11.1357 0.797736 12.1127 1.72974 12.6227L2.50275 18.5198C2.76275 20.5038 4.46775 21.9997 6.46875 21.9997H13.8667C15.8747 21.9997 17.5807 20.4977 17.8347 18.5067L17.9036 17.9671C17.2225 17.9073 16.5644 17.7672 15.9389 17.5562L15.8497 18.2547C15.7237 19.2497 14.8707 20.0007 13.8667 20.0007H6.46875C5.46875 20.0007 4.61573 19.2527 4.48672 18.2607L3.79675 13.0007H10.9088C10.6239 12.3712 10.4135 11.7008 10.2888 11.0007H3.15674C2.60574 11.0007 2.15674 10.5527 2.15674 10.0007C2.15674 9.44872 2.60574 9.00072 3.15674 9.00072H10.1712C10.2113 8.30822 10.3343 7.63797 10.5304 6.99974ZM11.5681 14.1922C11.3188 14.3739 11.1567 14.6681 11.1567 15.0007V18.0007C11.1567 18.5537 11.6047 19.0007 12.1567 19.0007C12.7087 19.0007 13.1567 18.5537 13.1567 18.0007V15.981C12.5471 15.4631 12.0116 14.8608 11.5681 14.1922ZM9.15674 18.0007V15.0007C9.15674 14.4477 8.70874 14.0007 8.15674 14.0007C7.60474 14.0007 7.15674 14.4477 7.15674 15.0007V18.0007C7.15674 18.5537 7.60474 19.0007 8.15674 19.0007C8.70874 19.0007 9.15674 18.5537 9.15674 18.0007Z" fill="white"/>
<path d="M22.3915 6.17966L23.2837 5.29492C23.5597 5.02122 23.5597 4.57878 23.2837 4.30508C23.0077 4.03138 22.5616 4.03138 22.2856 4.30508L21.3503 5.23263C20.5428 4.65303 19.5877 4.26656 18.5494 4.14546V3.4H19.2553C19.6449 3.4 19.9612 3.0871 19.9612 2.7C19.9612 2.3129 19.6449 2 19.2553 2H16.4317C16.0421 2 15.7259 2.3129 15.7259 2.7C15.7259 3.0871 16.0421 3.4 16.4317 3.4H17.1376V4.14478C14.1609 4.49268 11.8435 7.0064 11.8435 10.05C11.8435 13.3309 14.535 16 17.8435 16C21.152 16 23.8435 13.3309 23.8435 10.05C23.8435 8.5723 23.2943 7.22126 22.3915 6.17966ZM17.8435 14.6C15.3136 14.6 13.2553 12.5588 13.2553 10.05C13.2553 7.5412 15.3136 5.5 17.8435 5.5C20.3734 5.5 22.4317 7.5412 22.4317 10.05C22.4317 12.5588 20.3734 14.6 17.8435 14.6ZM19.8066 11.3625C20.0501 11.6649 20.0007 12.1052 19.6964 12.3467C19.5666 12.4496 19.4106 12.5 19.256 12.5C19.0492 12.5 18.8437 12.4104 18.7047 12.2375L17.2929 10.4875C17.1927 10.3629 17.1383 10.2096 17.1383 10.05V7.6C17.1383 7.2129 17.4546 6.9 17.8442 6.9C18.2339 6.9 18.5501 7.2129 18.5501 7.6V9.80433L19.8066 11.3625Z" fill="white"/>
</svg>
