<svg width="24" height="24" viewBox="0 0 24 24" fill="none" xmlns="http://www.w3.org/2000/svg">
<g clip-path="url(#clip0_1709_19425)">
<path d="M22.652 12.4593H1.34434C1.33914 12.5587 1.33173 12.6485 1.33173 12.7383C1.33173 14.7281 1.33173 16.7181 1.33173 18.7084C1.33173 19.3412 1.54911 19.5579 2.18196 19.5586H17.4297C17.8993 19.5586 18.1886 19.7812 18.2213 20.1596C18.2301 20.2472 18.2215 20.3358 18.1957 20.42C18.1699 20.5043 18.1276 20.5825 18.0713 20.6502C18.0149 20.7179 17.9456 20.7737 17.8674 20.8143C17.7892 20.8549 17.7037 20.8795 17.6159 20.8866C17.5239 20.8955 17.4304 20.8911 17.3384 20.8911H2.20347C0.819068 20.8911 0 20.0691 0 18.6787C0 14.2169 0 9.75555 0 5.2947C0 3.94591 0.830936 3.11719 2.18269 3.11719H21.818C23.1698 3.11719 23.9993 3.9459 24 5.29617V18.7077C24 20.0587 23.1691 20.8904 21.8225 20.8911C21.1741 20.8911 20.5264 20.8911 19.878 20.8911C19.3972 20.8911 19.1004 20.6247 19.1079 20.2108C19.1145 19.8131 19.4098 19.5601 19.878 19.5586C20.5635 19.5586 21.2483 19.5586 21.933 19.5586C22.4027 19.5586 22.6638 19.3042 22.6646 18.8419C22.668 16.7592 22.668 14.6766 22.6646 12.5943C22.6653 12.5528 22.6594 12.5172 22.652 12.4593ZM22.652 8.453H3.13976C3.02867 8.45722 2.91743 8.45474 2.80664 8.44558C2.64325 8.42762 2.49252 8.34911 2.38416 8.22551C2.27581 8.10191 2.21769 7.94219 2.22127 7.77786C2.22139 7.61452 2.28219 7.45704 2.39186 7.33599C2.50153 7.21493 2.65226 7.13894 2.8148 7.12275C2.92564 7.11446 3.03686 7.11248 3.14792 7.11682H22.6675C22.6675 6.46987 22.6675 5.86819 22.6675 5.2665C22.6675 4.67891 22.4353 4.4504 21.8388 4.4504H2.17528C1.56172 4.4504 1.33692 4.67298 1.33692 5.28431C1.33692 7.12622 1.33692 8.96838 1.33692 10.8108V11.1016H22.652V8.453Z" fill="#0049A3"/>
</g>
<defs>
<clipPath id="clip0_1709_19425">
<rect width="24" height="17.7754" fill="white" transform="translate(0 3.11328)"/>
</clipPath>
</defs>
</svg>
