<svg width="25" height="25" viewBox="0 0 25 25" fill="none" xmlns="http://www.w3.org/2000/svg">
<g clip-path="url(#clip0_2148_17296)">
<path d="M0 11.4053C0.0635294 10.9536 0.105885 10.5089 0.190591 10.0642C0.653001 7.36917 2.03793 4.91872 4.10824 3.13243C5.86014 1.56158 8.04912 0.561888 10.3835 0.266548C13.3458 -0.169336 16.3621 0.553749 18.8047 2.28536C20.0982 3.15903 21.2023 4.28437 22.0513 5.59419C22.9002 6.904 23.4766 8.37142 23.7459 9.90888C24.0854 11.5601 24.061 13.2654 23.6746 14.9062C23.2882 16.547 22.5489 18.0839 21.5082 19.4101C19.7539 21.7706 17.1764 23.3856 14.2871 23.9348C13.8635 24.0195 13.44 24.0548 13.0094 24.1112L12.7835 24.1536H11.2871L10.4047 24.0407C8.0393 23.73 5.82396 22.7084 4.05177 21.1112C2.02027 19.3303 0.662152 16.9056 0.204712 14.243C0.120006 13.7983 0.0776501 13.3465 0.0141207 12.9018L0 11.4053ZM1.12942 12.1112C1.12753 14.9919 2.26767 17.7559 4.29999 19.7975C6.33232 21.8391 9.09109 22.9918 11.9718 23.003C14.8568 23.0067 17.6254 21.8657 19.6701 19.8304C21.7147 17.795 22.8683 15.0315 22.8776 12.1465C22.874 9.2663 21.7311 6.50451 19.6984 4.46393C17.6658 2.42334 14.9084 1.26967 12.0282 1.25476C9.14079 1.25288 6.37074 2.39764 4.32702 4.43739C2.2833 6.47714 1.13316 9.24498 1.12942 12.1324V12.1112Z" fill="white"/>
<path d="M15.6988 19.1561C14.6667 19.1343 13.6568 18.8527 12.7624 18.3373C9.66163 16.6894 7.15947 14.1057 5.61178 10.9537C5.15493 10.0865 4.95417 9.10721 5.03295 8.13018C5.05038 7.65057 5.20178 7.18542 5.47001 6.78744C5.73825 6.38946 6.11257 6.07456 6.5506 5.87842C7.05177 5.65959 7.55295 5.4408 8.06118 5.25021C8.37713 5.12329 8.72831 5.11479 9.05001 5.22635C9.3717 5.3379 9.64224 5.56198 9.81178 5.85726C10.2565 6.6055 10.6941 7.35373 11.1106 8.10903C11.3027 8.42934 11.3601 8.81271 11.2701 9.17522C11.1801 9.53773 10.9502 9.84982 10.6306 10.0431L10.4541 10.1631C10.3479 10.2269 10.2569 10.313 10.1873 10.4155C10.1177 10.5179 10.0712 10.6343 10.051 10.7565C10.0309 10.8787 10.0376 11.0039 10.0706 11.1232C10.1036 11.2426 10.1623 11.3534 10.2424 11.4478C10.959 12.3762 11.7916 13.2089 12.72 13.9255C12.8176 14.0115 12.9338 14.074 13.0594 14.1079C13.1851 14.1418 13.3169 14.1463 13.4445 14.121C13.5722 14.0957 13.6923 14.0414 13.7956 13.9622C13.8989 13.883 13.9825 13.7811 14.04 13.6643C14.1561 13.4598 14.3166 13.2839 14.5096 13.1495C14.7026 13.0151 14.9232 12.9258 15.1553 12.8879C15.4755 12.8413 15.8019 12.906 16.08 13.0714C16.7859 13.4949 17.5694 13.9184 18.3035 14.3561C18.5974 14.5203 18.8229 14.7841 18.9394 15.0999C19.0558 15.4157 19.0557 15.7627 18.9388 16.0784C18.7271 16.6502 18.4871 17.2149 18.233 17.7584C18.0324 18.157 17.7318 18.4966 17.3606 18.7441C16.9894 18.9915 16.5603 19.1384 16.1153 19.1702C15.9763 19.1762 15.8371 19.1714 15.6988 19.1561ZM15.5577 18.0337C15.9471 18.0877 16.3432 18.0045 16.678 17.7985C17.0129 17.5924 17.2656 17.2763 17.3929 16.9043C17.52 16.5443 17.6894 16.1984 17.8306 15.8243C17.9718 15.4502 17.9082 15.4149 17.6259 15.2526L15.6777 14.1232C15.3035 13.9114 15.2118 13.9326 14.9718 14.2926C14.8247 14.5364 14.6269 14.7457 14.3918 14.9062C14.1567 15.0668 13.8898 15.1748 13.6092 15.223C13.3286 15.2713 13.0409 15.2585 12.7657 15.1856C12.4904 15.1128 12.2341 14.9815 12.0141 14.8008C11.0176 14.0304 10.1233 13.1361 9.35295 12.1396C9.08323 11.8099 8.92944 11.4006 8.91531 10.9749C8.89898 10.6103 8.98318 10.2483 9.15872 9.92836C9.33425 9.60842 9.59435 9.34289 9.9106 9.16079C10.2071 8.9702 10.2353 8.84314 10.0659 8.53961L8.89413 6.51373C8.75295 6.27373 8.62589 6.2243 8.37177 6.32313C7.93413 6.4996 7.50354 6.69019 7.07295 6.8596C6.8063 6.96871 6.57701 7.15282 6.41288 7.38962C6.24875 7.62641 6.15683 7.90574 6.14825 8.19373C6.08167 9.00717 6.25596 9.82221 6.64942 10.5373C8.07633 13.4026 10.3513 15.7589 13.1647 17.2855C13.887 17.7203 14.7024 17.9768 15.5435 18.0337H15.5577Z" fill="white"/>
</g>
<defs>
<clipPath id="clip0_2148_17296">
<rect width="24.0071" height="24" fill="white" transform="translate(0 0.154297)"/>
</clipPath>
</defs>
</svg>
