<svg width="28" height="24" viewBox="0 0 28 24" fill="none" xmlns="http://www.w3.org/2000/svg">
<g clip-path="url(#clip0_558_12161)">
<path d="M15.7659 19.1115C15.7659 19.8085 15.7659 20.4496 15.7659 21.0942C15.7526 22.8158 14.5884 23.9934 12.8667 23.9934C9.75786 24.0008 6.64826 24.0008 3.53791 23.9934C1.85636 23.9934 0.665451 22.8036 0.663221 21.1254C0.65653 15.0348 0.65653 8.94491 0.663221 2.8558C0.663221 1.20658 1.85525 0.0134503 3.5 0.00787487C6.64677 -0.003276 9.79354 -0.003276 12.9403 0.00787487C14.5583 0.0145654 15.7403 1.20213 15.7626 2.81677C15.7749 3.77686 15.7626 4.73694 15.7626 5.78066C16.377 5.78066 16.9613 5.78066 17.5467 5.78066C19.1079 5.79516 20.0412 6.62256 20.2029 8.16807C20.2586 8.70219 20.5541 8.8951 21.0581 8.89287C22.3962 8.88507 23.7232 8.89287 25.0557 8.89287C26.2154 8.89287 27.0529 9.5084 27.2859 10.5109C27.519 11.5133 27.025 12.4121 25.979 12.9306C25.8463 12.9964 25.6445 13.1614 25.6623 13.2439C25.6869 13.3247 25.7279 13.3995 25.7828 13.4636C25.8377 13.5277 25.9053 13.5797 25.9813 13.6164C26.8466 14.0044 27.3272 14.6512 27.3194 15.6035C27.3104 16.5346 26.812 17.1523 25.9813 17.5359C25.8408 17.6006 25.7471 17.769 25.6322 17.8894C25.7616 18.0009 25.872 18.157 26.0214 18.2239C26.8532 18.6209 27.3227 19.261 27.3127 20.1876C27.3026 21.0897 26.8421 21.7275 26.0192 22.0832C25.8151 22.1673 25.5964 22.2101 25.3758 22.2092C23.8949 22.2204 22.4141 22.226 20.9333 22.2092C19.5439 22.1959 18.5737 21.2781 18.4388 19.8843C18.3831 19.3044 18.1801 19.1115 17.5891 19.1037C16.9981 19.0959 16.4105 19.1115 15.7659 19.1115ZM2.43844 18.622H13.9684C13.9762 18.4514 13.9874 18.3232 13.9874 18.196C13.9874 13.1648 13.9874 8.13351 13.9874 3.10224C13.9874 2.09866 13.6529 1.78197 12.6493 1.78197C9.70768 1.78197 6.76683 1.78197 3.82672 1.78197C2.75178 1.78197 2.43509 2.09419 2.43509 3.16021C2.43509 5.91671 2.43509 8.67283 2.43509 11.4286L2.43844 18.622ZM20.9857 20.4206V10.7194C19.2662 10.444 18.7845 9.93883 18.4065 8.16138C18.3574 7.93837 18.0552 7.61833 17.8434 7.59603C17.1743 7.52243 16.4896 7.56815 15.8105 7.56815V17.3274H17.5155C19.1146 17.3274 20.0233 18.1414 20.2084 19.7349C20.2609 20.1965 20.4839 20.4385 20.9846 20.4206H20.9857ZM13.9863 20.4797H2.48081C2.347 21.6751 2.64807 22.2081 3.49554 22.2126C6.63636 22.2275 9.77793 22.2275 12.9202 22.2126C13.5715 22.2126 13.9506 21.8212 13.9829 21.1811C13.9952 20.9626 13.9852 20.7418 13.9852 20.4797H13.9863ZM22.8278 20.3905C22.8885 20.4124 22.9513 20.4281 23.0151 20.4374C23.6998 20.4374 24.3867 20.4619 25.0691 20.4284C25.2654 20.4195 25.4538 20.2511 25.6456 20.1552C25.4951 20.0259 25.3646 19.8475 25.1907 19.775C24.8102 19.6231 24.4817 19.3648 24.2443 19.031C24.007 18.6971 23.871 18.3019 23.8526 17.8927C23.8381 17.4739 23.9487 17.0602 24.1701 16.7044C24.3915 16.3485 24.7138 16.0666 25.0959 15.8945C25.2598 15.8209 25.388 15.6715 25.533 15.551C25.3969 15.4217 25.2832 15.2489 25.1226 15.1708C24.293 14.766 23.8303 14.126 23.8514 13.1971C23.8726 12.2682 24.3465 11.636 25.2063 11.2858C25.3356 11.2334 25.4226 11.0773 25.5285 10.9692C25.417 10.8699 25.3055 10.6871 25.194 10.6826C24.4134 10.6569 23.6217 10.6692 22.8311 10.6692L22.8278 20.3905Z" fill="#0049A3"/>
<path d="M9.97905 12.2311C9.97905 11.9747 9.97905 11.7171 9.7237 11.4606C9.46834 11.2041 9.20852 10.9466 8.69447 10.9466V13.7733C8.95205 13.7733 9.46611 13.5179 9.46611 13.2604C9.97905 13.0028 9.97905 12.4887 9.97905 12.2311ZM7.66636 8.62941V6.06471C7.40878 6.06471 7.1512 6.32118 6.89473 6.57876C6.63826 6.83635 6.63937 7.09171 6.63937 7.34929C6.63937 7.60688 6.63937 7.86334 6.89473 8.12092C7.1512 8.11981 7.40878 8.3774 7.66636 8.62941ZM11.2659 10.1716C11.7788 10.6845 11.7788 11.1997 11.7788 11.9702C11.7788 12.7407 11.5212 13.5135 11.0083 14.284C10.4931 14.7981 9.72369 15.311 8.69447 15.311V16.5978H7.66636V15.3199C6.89472 15.3199 6.1242 14.807 5.60903 14.2929C5.09386 13.7789 4.83962 13.0072 4.58203 11.9791L6.38178 11.7215C6.38178 12.2356 6.63937 12.4932 6.89473 12.7508C7.15008 13.0083 7.40878 13.2648 7.66636 13.2648V10.1805C6.63937 9.92403 6.1242 9.40885 5.60903 8.89592C5.09386 8.38298 5.06264 7.94474 5.06264 7.17422C5.06264 6.40369 5.0972 5.85507 5.60903 5.3399C6.12085 4.82473 6.89472 4.68089 7.66636 4.42442V3.75537H8.69447V4.52589C9.46611 4.52589 9.97905 4.78236 10.4931 5.29753C11.0072 5.8127 11.2659 6.32452 11.2659 7.09505L9.46611 7.35264C9.46611 6.8397 8.95205 6.32453 8.69447 6.06806V8.89592C9.97905 9.14681 10.7507 9.66198 11.2659 10.176V10.1716Z" fill="#0049A3"/>
</g>
<defs>
<clipPath id="clip0_558_12161">
<rect width="26.684" height="24" fill="white" transform="translate(0.658203)"/>
</clipPath>
</defs>
</svg>
