<?xml version="1.0" encoding="utf-8"?>
<!-- Generator: Adobe Illustrator 26.0.1, SVG Export Plug-In . SVG Version: 6.00 Build 0)  -->
<svg version="1.1" id="Layer_1" xmlns="http://www.w3.org/2000/svg" xmlns:xlink="http://www.w3.org/1999/xlink" x="0px" y="0px"
	 viewBox="0 0 20 24" style="enable-background:new 0 0 20 24;" xml:space="preserve">
<style type="text/css">
	.st0{fill:#0049A3;}
</style>
<g>
	<path class="st0" d="M1.1,12c0-3.4,0-6.7,0-10.1C1,0.9,1.9,0,2.9,0c3.2,0,6.4,0,9.6,0c1,0,1.9,0.8,1.9,1.9c0,1.3,0,2.6,0,3.9
		c0,0.3-0.1,0.5-0.4,0.5c-0.3,0-0.4-0.2-0.4-0.5c0-1.2,0-2.4,0-3.6c0-0.9-0.4-1.3-1.3-1.3c-3.1,0-6.1,0-9.2,0
		c-0.9,0-1.3,0.4-1.3,1.3c0,5.8,0,11.7,0,17.5c0,0.4,0,0.4,0.4,0.4c3.7,0,7.4,0,11.1,0c0.2,0,0.3-0.1,0.3-0.3c0-0.3,0-0.7,0-1
		c0-0.3,0.2-0.5,0.4-0.5c0.2,0,0.4,0.2,0.4,0.5c0,1.1,0,2.2,0,3.3c0,1.2-0.8,2-2,2c-2.1,0-4.3,0-6.4,0c-1,0-2,0-3.1,0
		c-0.9,0-1.6-0.6-1.9-1.4c0-0.1,0-0.3,0-0.4C1.1,18.7,1.1,15.3,1.1,12z M7.7,20.8c-1.9,0-3.7,0-5.6,0c-0.2,0-0.3,0.1-0.3,0.3
		c0,0.3,0,0.6,0,0.9c0,0.6,0.5,1.1,1.1,1.1c3.2,0,6.4,0,9.6,0c0.6,0,1.1-0.5,1.1-1.1c0-0.3,0-0.6,0-0.9c0-0.3,0-0.3-0.3-0.3
		C11.4,20.8,9.6,20.8,7.7,20.8z"/>
	<path class="st0" d="M9.1,9.3c0-0.6,0-1.2,0-1.8c0-0.5,0.2-0.6,0.7-0.5c0.6,0.2,1.3,0.3,2,0.3c0.6,0,1.3-0.1,1.9-0.3
		C13.9,7,14.1,7,14.3,7c1.3,0.4,2.6,0.4,3.9,0c0.5-0.1,0.7,0,0.7,0.6c0,1,0,1.9,0,2.9c0,2.8-1.3,5-3.7,6.4c-0.3,0.2-0.6,0.3-0.9,0.5
		c-0.1,0.1-0.3,0.1-0.5,0c-1.3-0.7-2.6-1.5-3.5-2.8c-0.8-1.2-1.2-2.5-1.2-3.9C9.1,10.3,9.1,9.8,9.1,9.3C9.1,9.3,9.1,9.3,9.1,9.3z
		 M18.1,9.6c0-0.5,0-1,0-1.5c0-0.1,0-0.2-0.2-0.2c-1.3,0.3-2.5,0.2-3.8-0.1c-0.1,0-0.2,0-0.3,0c-1.2,0.3-2.4,0.4-3.7,0.1
		c-0.2,0-0.3,0-0.2,0.2c0,1,0,1.9,0,2.9c0.1,1.2,0.5,2.3,1.1,3.2c0.7,1,1.7,1.7,2.8,2.3c0.1,0.1,0.2,0,0.3,0
		c0.3-0.2,0.5-0.3,0.8-0.5c1.5-0.9,2.5-2.2,3-4C18.2,11.3,18.1,10.5,18.1,9.6z"/>
	<path class="st0" d="M7.7,2.6c-0.4,0-0.8,0-1.1,0c-0.5,0-0.9-0.3-0.9-0.8c0-0.2,0.1-0.5,0.3-0.5c0.2-0.1,0.4,0.1,0.5,0.3
		c0.1,0.2,0.1,0.2,0.3,0.2c0.7,0,1.3,0,2,0c0.2,0,0.3,0,0.3-0.2c0.1-0.2,0.3-0.3,0.5-0.3c0.2,0,0.3,0.2,0.3,0.5
		c0,0.5-0.4,0.8-0.9,0.9c-0.2,0-0.4,0-0.6,0C8.1,2.6,7.9,2.6,7.7,2.6C7.7,2.6,7.7,2.6,7.7,2.6z"/>
	<path class="st0" d="M7.7,22.4c-0.2,0-0.5,0-0.7,0c-0.2,0-0.4-0.2-0.4-0.4c0-0.2,0.1-0.4,0.4-0.4c0.5,0,0.9,0,1.4,0
		c0.2,0,0.4,0.2,0.4,0.4c0,0.2-0.2,0.4-0.4,0.4C8.2,22.4,8,22.4,7.7,22.4z"/>
	<path class="st0" d="M14.4,12.2c0,1,0,2,0,2.9c0,0.1,0,0.2,0,0.3c-0.1,0.2-0.2,0.2-0.4,0.2c-0.2,0-0.3-0.1-0.4-0.3
		c0-0.1,0-0.2,0-0.3c0-1.9,0-1.5,0-3.4c0-0.1,0-0.2,0-0.3c0-0.2,0.2-0.4,0.4-0.4c0.2,0,0.4,0.2,0.4,0.4c0,0.1,0,0.2,0,0.3
		C14.4,12.7,14.4,11.3,14.4,12.2z"/>
	<circle class="st0" cx="14" cy="9.7" r="0.9"/>
</g>
</svg>
