<svg width="20" height="20" viewBox="0 0 20 20" fill="none" xmlns="http://www.w3.org/2000/svg">
<path d="M10 0C4.486 0 0 4.486 0 10C0 15.514 4.486 20 10 20C15.514 20 20 15.514 20 10C20 4.486 15.514 0 10 0ZM10 18C5.589 18 2 14.411 2 10C2 5.589 5.589 2 10 2C14.411 2 18 5.589 18 10C18 14.411 14.411 18 10 18ZM13.938 7.28296C14.219 8.88296 13.545 10.3149 12.041 11.3149C11.116 11.9299 10.969 12.259 10.949 12.319C10.808 12.737 10.419 13 10.001 13C9.89501 13 9.787 12.983 9.681 12.947C9.158 12.771 8.87701 12.2041 9.05301 11.6801C9.35701 10.7791 10.272 10.089 10.933 9.64905C12.177 8.82205 12.019 7.92305 11.968 7.62805C11.83 6.84205 11.158 6.16998 10.371 6.03198C9.764 5.92398 9.176 6.07904 8.715 6.46704C8.261 6.84804 8 7.40602 8 7.99902C8 8.55202 7.552 8.99902 7 8.99902C6.448 8.99902 6 8.55202 6 7.99902C6 6.81402 6.52099 5.69706 7.42899 4.93506C8.33599 4.17206 9.53601 3.85701 10.717 4.06201C12.33 4.34601 13.654 5.66996 13.938 7.28296ZM11 15C11 15.552 10.552 16 10 16C9.448 16 9 15.552 9 15C9 14.448 9.448 14 10 14C10.552 14 11 14.448 11 15Z" fill="white"/>
</svg>
