<svg width="16" height="16" viewBox="0 0 16 16" fill="none" xmlns="http://www.w3.org/2000/svg">
<path d="M1.74739 0.746793C0.836808 0.746793 0.0986328 1.50558 0.0986328 2.44159V14.3052C0.0986328 15.2412 0.836808 16 1.74739 16H13.2887C14.1993 16 14.9375 15.2412 14.9375 14.3052V7.526C14.9375 7.05799 14.5684 6.6786 14.1131 6.6786C13.6578 6.6786 13.2887 7.05799 13.2887 7.526V14.3052H1.74739V2.44159H8.34243C8.79772 2.44159 9.16681 2.0622 9.16681 1.59419C9.16681 1.12619 8.79772 0.746793 8.34243 0.746793H1.74739Z" fill="white"/>
<path fill-rule="evenodd" clip-rule="evenodd" d="M5.06995 7.81921L12.0079 0.686643C12.436 0.246655 13.0159 0 13.62 0C13.9192 0 14.2155 0.0605699 14.4921 0.178326C14.7686 0.296085 15.0201 0.468764 15.2321 0.686643C15.4441 0.904528 15.6123 1.16334 15.7272 1.44838C15.8421 1.73343 15.9012 2.03903 15.9012 2.34771C15.9012 2.6564 15.8421 2.962 15.7272 3.24704C15.6123 3.53208 15.4441 3.7909 15.2321 4.00878L8.29324 11.1414C8.19916 11.2382 8.08141 11.3066 7.95292 11.3395L5.03197 12.0895C4.97425 12.1044 4.91448 12.1118 4.85501 12.1117C4.75936 12.1119 4.66454 12.0926 4.57598 12.055C4.48747 12.0174 4.40686 11.9622 4.33885 11.8923C4.24964 11.8001 4.18478 11.6856 4.15078 11.5597C4.11678 11.4338 4.11488 11.3008 4.14518 11.1739L4.87632 8.17022C4.90866 8.03703 4.97581 7.91562 5.06995 7.81921ZM14.4005 2.67058C14.3511 2.77323 14.2815 2.86454 14.1961 2.93875L7.40717 9.92406L5.86611 10.3203L6.25027 8.74171L13.042 1.75948C13.1142 1.67184 13.2032 1.60017 13.3038 1.54908C13.4057 1.4973 13.5172 1.46783 13.631 1.46267C13.7448 1.45751 13.8584 1.47678 13.9644 1.51916C14.0705 1.56155 14.1665 1.62608 14.2466 1.70849C14.3267 1.79089 14.3891 1.88936 14.43 1.99756C14.4708 2.10575 14.4892 2.22141 14.4842 2.3372C14.4791 2.45299 14.4506 2.56652 14.4005 2.67058Z" fill="white"/>
</svg>
