<svg width="20" height="20" viewBox="0 0 20 20" fill="none" xmlns="http://www.w3.org/2000/svg">
<path d="M19.0298 7.94489L17.7443 7.58663L17.1964 6.2379L17.8497 5.07883C18.1447 4.55198 18.0604 3.89869 17.6389 3.47721L16.5431 2.38136C16.1216 1.95988 15.4472 1.87558 14.9415 2.17062L13.7824 2.82391L12.4336 2.27599L12.0754 0.990477C11.9068 0.42148 11.3799 0 10.7899 0H9.25148C8.66141 0 8.11348 0.400406 7.96596 0.990477L7.60771 2.27599L6.25897 2.82391L5.0999 2.17062C4.57305 1.87558 3.91976 1.95988 3.49828 2.38136L2.38136 3.47721C1.95988 3.89869 1.87558 4.57305 2.17062 5.07883L2.82391 6.2379L2.27599 7.58663L0.990477 7.94489C0.421479 8.11348 0 8.64033 0 9.2304V10.7688C0 11.3799 0.400406 11.9068 0.990477 12.0543L2.27599 12.4126L2.82391 13.7613L2.17062 14.9204C1.87558 15.4472 1.95988 16.1005 2.38136 16.522L3.47721 17.6178C3.89869 18.0393 4.57305 18.1236 5.07883 17.8286L6.2379 17.1753L7.58663 17.7232L7.94489 19.0087C8.11348 19.5777 8.64033 19.9992 9.2304 19.9992H10.7688C11.3589 19.9992 11.9068 19.5988 12.0543 19.0087L12.4126 17.7232L13.7613 17.1753L14.9204 17.8286C15.4472 18.1236 16.1005 18.0393 16.522 17.6178L17.6178 16.522C18.0393 16.1005 18.1236 15.4472 17.8286 14.9204L17.1753 13.7613L17.7232 12.4126L19.0087 12.0543C19.5777 11.8857 19.9992 11.3589 19.9992 10.7688V9.2304C20.0203 8.64033 19.6199 8.11348 19.0298 7.94489ZM18.8823 10.7899C18.8823 10.8742 18.8191 10.9795 18.7348 11.0006L16.9224 11.4853L15.953 13.8456L16.8803 15.4894C16.9224 15.5737 16.9224 15.679 16.8381 15.7423L15.7423 16.8381C15.679 16.9013 15.5737 16.9224 15.4894 16.8803L13.8456 15.953L11.4853 16.9224L10.9795 18.7348C10.9585 18.8191 10.8742 18.8823 10.7688 18.8823H9.2304C9.14611 18.8823 9.06181 18.8191 9.01966 18.7348L8.53496 16.9224L6.17468 15.953L4.53091 16.8803C4.44661 16.9224 4.34124 16.9224 4.27802 16.8381L3.18217 15.7423C3.11895 15.679 3.09787 15.5737 3.14002 15.4894L4.06728 13.8456L3.09787 11.4853L1.28551 10.9795C1.20122 10.9585 1.13799 10.8742 1.13799 10.7688V9.2304C1.13799 9.12503 1.20122 9.06181 1.28551 9.01966L3.09787 8.51389L4.06728 6.1536L3.14002 4.53091C3.09787 4.44661 3.09787 4.34124 3.18217 4.27802L4.27802 3.18217C4.34124 3.11895 4.44661 3.09787 4.53091 3.14002L6.17468 4.06728L8.53496 3.09788L9.04074 1.28551C9.06181 1.20122 9.14611 1.13799 9.25148 1.13799H10.7899C10.8742 1.13799 10.9585 1.20122 11.0006 1.28551L11.5064 3.09788L13.8667 4.08835L15.5104 3.1611C15.5947 3.11895 15.7001 3.11895 15.7633 3.20324L16.8592 4.29909C16.9224 4.36231 16.9435 4.46768 16.9013 4.55198L15.9741 6.19575L16.9224 8.53496L18.7348 9.04074C18.8191 9.06181 18.8823 9.14611 18.8823 9.25148V10.7899Z" fill="#0049A3"/>
<path d="M10.0101 6.21683C7.92379 6.21683 6.2168 7.92382 6.2168 10.0101C6.2168 12.0965 7.92379 13.8035 10.0101 13.8035C12.0964 13.8035 13.8034 12.0965 13.8034 10.0101C13.8034 7.92382 12.0964 6.21683 10.0101 6.21683ZM10.0101 12.6655C8.53493 12.6655 7.35479 11.4642 7.35479 10.0101C7.35479 8.53497 8.55601 7.35482 10.0101 7.35482C11.4642 7.35482 12.6654 8.53497 12.6654 10.0101C12.6654 11.4853 11.4853 12.6655 10.0101 12.6655Z" fill="#0049A3"/>
</svg>
