<svg width="31" height="26" viewBox="0 0 31 26" fill="none" xmlns="http://www.w3.org/2000/svg">
<path d="M0 7.31037V5.17544C0.697293 3.68099 1.41825 2.19839 2.0919 0.692072C2.16514 0.475755 2.3086 0.29037 2.49932 0.165634C2.69004 0.0408986 2.917 -0.0159872 3.14377 0.00412697H27.4662C27.6836 -0.0154415 27.9016 0.0349209 28.0886 0.147935C28.2756 0.260948 28.4219 0.430747 28.5063 0.632747C29.1327 1.93743 29.7591 3.23026 30.4564 4.4875C30.8806 5.35641 30.9852 6.34783 30.7518 7.28666C30.7003 7.66545 30.5556 8.02537 30.3307 8.33393C30.1058 8.64248 29.8078 8.88992 29.4637 9.0539C29.2249 9.15093 29.0272 9.32819 28.9043 9.55537C28.7814 9.78254 28.7409 10.0455 28.7899 10.2993C28.7899 14.7115 28.7899 19.1237 28.7899 23.5359C28.8445 23.9944 28.7512 24.4585 28.5236 24.8598C28.296 25.2612 27.9461 25.5787 27.5254 25.7657H3.3684C2.94223 25.6455 2.57152 25.379 2.321 25.0127C2.07048 24.6465 1.95599 24.2036 1.99741 23.7613C1.99741 22.9903 1.99741 22.2194 1.99741 21.4484V10.1807C1.99741 9.82487 1.99735 9.44532 1.64279 9.25555C1.24526 9.06958 0.892687 8.7994 0.609104 8.46362C0.325522 8.12783 0.117645 7.7344 0 7.31037ZM27.2773 16.8583C27.2773 14.6285 27.2773 12.3868 27.2773 10.1569C27.2773 9.69438 27.159 9.43345 26.6627 9.31484C25.9912 9.22735 25.374 8.89869 24.9254 8.3897C24.7245 8.10504 24.6062 8.29481 24.4408 8.46087C23.6839 9.18869 22.6762 9.595 21.628 9.595C20.5797 9.595 19.572 9.18869 18.8151 8.46087C18.6024 8.24737 18.4842 8.17621 18.2361 8.46087C17.4764 9.20631 16.4561 9.6237 15.3937 9.6237C14.3312 9.6237 13.3109 9.20631 12.5513 8.46087C12.3385 8.24737 12.2086 8.21179 12.0195 8.46087C10.8376 9.9909 7.45758 9.9909 6.29937 8.46087C6.15755 8.27109 6.0039 8.21179 5.85026 8.46087C5.42069 8.98527 4.81579 9.33511 4.14831 9.44529C3.95248 9.46904 3.77404 9.56983 3.65217 9.72549C3.5303 9.88115 3.47504 10.079 3.49838 10.2756C3.49838 14.7273 3.49838 19.1791 3.49838 23.6308C3.49838 24.2357 3.7347 24.4255 4.32562 24.4255C7.59541 24.4255 10.8692 24.4255 14.1469 24.4255C14.7142 24.4255 14.915 24.212 14.915 23.6545C14.915 21.8161 14.915 19.9658 14.915 18.1274C14.915 16.799 14.8322 15.4587 14.915 14.1184C14.9456 13.4912 15.2229 12.9017 15.686 12.4793C16.149 12.0568 16.76 11.8359 17.3852 11.8649C18.567 11.8649 19.7489 11.9361 20.9307 11.8649C21.34 11.8095 21.7564 11.8489 22.1482 11.9799C22.54 12.111 22.8968 12.3303 23.1911 12.6211C23.4854 12.9119 23.7095 13.2664 23.8462 13.6576C23.983 14.0487 24.0286 14.466 23.9798 14.8775C23.8853 17.7716 23.9798 20.6893 23.9798 23.5952C23.9798 24.4018 23.9798 24.4255 24.8307 24.4255H26.3909C27.2418 24.4255 27.2891 24.4255 27.2891 23.5478C27.2773 21.2112 27.2773 19.0644 27.2773 16.8583ZM16.1915 18.9814C16.1915 20.547 16.1915 22.1126 16.1915 23.7257C16.1915 24.1645 16.3215 24.3899 16.7942 24.378H22.1007C22.5617 24.378 22.7271 24.1883 22.7271 23.7375C22.7271 20.6893 22.7271 17.6411 22.7271 14.5929C22.7271 13.5373 22.2307 13.0629 21.1789 13.0629H17.7396C16.676 13.0629 16.2151 13.5254 16.2033 14.581L16.1915 18.9814ZM9.24217 4.9975C9.84491 4.9975 10.4239 4.9975 11.0621 4.9975C11.7003 4.9975 11.8067 4.77217 11.8304 4.27401C11.8895 3.28957 11.9486 2.30511 12.0195 1.33253C12.0195 0.929262 11.8894 0.822523 11.5231 0.822523H7.97751C7.89982 0.812482 7.82093 0.81905 7.74595 0.84178C7.67098 0.86451 7.60169 0.902899 7.54253 0.954422C7.48338 1.00595 7.43571 1.06942 7.40274 1.14072C7.36976 1.21202 7.35226 1.28951 7.35123 1.36811C7.18577 2.38814 6.98475 3.42002 6.79565 4.44004C6.72474 4.83145 6.89022 4.99753 7.25659 4.98567L9.24217 4.9975ZM21.5098 4.9975H23.5071C23.838 4.9975 24.0152 4.86705 23.9325 4.49937C23.708 3.44376 23.4953 2.37629 23.2708 1.30882C23.2679 1.24123 23.2513 1.17492 23.222 1.11398C23.1927 1.05303 23.1514 0.998707 23.1005 0.954314C23.0497 0.909921 22.9903 0.876408 22.9261 0.855788C22.8619 0.835168 22.7943 0.82789 22.7271 0.834396H19.1816C18.8625 0.834396 18.7442 0.976706 18.7678 1.29695C18.8506 2.31697 18.9097 3.33702 18.9806 4.35705C18.9806 4.81962 19.2406 5.02122 19.7134 4.9975C20.1861 4.97378 20.9071 4.9975 21.5098 4.9975ZM15.3641 4.9975C15.9905 4.9975 16.6169 4.9975 17.2315 4.9975C17.8461 4.9975 17.8932 4.84331 17.8578 4.36888C17.7632 3.34886 17.6805 2.32885 17.6096 1.30882C17.616 1.24023 17.6065 1.1711 17.5821 1.10674C17.5576 1.04237 17.5189 0.984477 17.4687 0.937519C17.4185 0.89056 17.3581 0.855779 17.2924 0.835844C17.2267 0.815908 17.1574 0.811354 17.0897 0.822523H13.7096C13.4378 0.822523 13.2132 0.893684 13.1895 1.22579L12.9414 4.46379C12.9414 4.8552 13.1304 4.98567 13.485 4.98567L15.3641 4.9975ZM27.3599 4.9975H29.109C29.4636 4.9975 29.5463 4.86705 29.3927 4.53495C28.8727 3.44376 28.3645 2.34072 27.8564 1.24953C27.811 1.12058 27.7258 1.00953 27.6131 0.932705C27.5004 0.855874 27.3661 0.817271 27.2299 0.822523H24.8662C24.4644 0.822523 24.3462 0.988564 24.4289 1.36811C24.6653 2.41186 24.8781 3.45562 25.079 4.49937C25.0832 4.57284 25.1025 4.64463 25.1357 4.71025C25.1689 4.77587 25.2152 4.83388 25.2718 4.88066C25.3284 4.92744 25.3941 4.96198 25.4647 4.98208C25.5352 5.00219 25.6091 5.00744 25.6818 4.9975H27.3599ZM3.39191 4.9975H5.07019C5.14774 5.01104 5.22724 5.00791 5.30348 4.98827C5.37972 4.96864 5.45092 4.93297 5.51238 4.88363C5.57384 4.83428 5.62414 4.77237 5.65997 4.70203C5.69579 4.6317 5.71641 4.55456 5.72027 4.47566C5.88573 3.42005 6.07479 2.37628 6.27571 1.33253C6.27571 0.976705 6.21667 0.881813 5.88575 0.881813H3.33291C3.21707 0.871075 3.10105 0.900557 3.00426 0.965317C2.90747 1.03008 2.83566 1.12622 2.80099 1.23766L1.34733 4.55866C1.22914 4.85518 1.34733 4.9975 1.64279 4.9975H3.39191ZM21.6398 5.83964H19.6542C19.2051 5.83964 19.0751 6.04126 19.0751 6.45639C19.0662 6.89664 19.2029 7.32746 19.4638 7.68152C19.7246 8.03559 20.0949 8.29293 20.5169 8.41341C21.248 8.66829 22.0433 8.66829 22.7743 8.41341C23.197 8.28365 23.5616 8.01025 23.8053 7.64015C24.049 7.27005 24.1566 6.82635 24.1098 6.38523C24.1098 6.01755 23.9326 5.86335 23.5781 5.86335L21.6398 5.83964ZM9.23034 5.83964C8.58032 5.83964 7.9421 5.83964 7.29208 5.83964C6.83116 5.83964 6.6775 6.02939 6.6775 6.4801C6.6775 7.66618 7.38663 8.47272 8.91122 8.56761C10.7431 8.67435 11.6649 7.89156 11.6649 6.43268C11.6649 6.01756 11.5585 5.81592 11.1094 5.83964C10.4831 5.87523 9.85672 5.85148 9.23034 5.85148V5.83964ZM17.8696 6.46826C17.8696 6.19547 17.8697 5.83964 17.3497 5.83964H13.4141C13.2998 5.82263 13.1833 5.85175 13.0903 5.92065C12.9972 5.98956 12.9352 6.09263 12.9177 6.20732C12.8392 6.62278 12.9013 7.05263 13.094 7.42866C13.2867 7.80469 13.599 8.10536 13.9814 8.28296C14.3763 8.47322 14.8079 8.57442 15.2459 8.57948C16.7114 8.57948 17.846 8.06944 17.8696 6.4801V6.46826ZM25.3153 6.46826C25.3153 7.65434 25.9535 8.29482 27.3599 8.5439C27.6629 8.60307 27.9751 8.59463 28.2744 8.51918C28.5738 8.44372 28.8528 8.30308 29.0919 8.10726C29.331 7.91145 29.5243 7.66524 29.658 7.38609C29.7917 7.10694 29.8625 6.80168 29.8654 6.49197C29.8654 6.01754 29.7355 5.80406 29.2273 5.80406C28.1519 5.80406 27.0646 5.80406 25.9772 5.80406C25.4454 5.7922 25.3153 6.07683 25.3153 6.51568V6.46826ZM3.02561 8.53203C4.56202 8.53203 5.49562 7.7255 5.47198 6.42081C5.47198 6.00568 5.342 5.80406 4.90472 5.80406H1.47732C1.06367 5.80406 0.933698 5.99381 0.92188 6.37336C0.902032 6.66015 0.942175 6.94794 1.0396 7.21829C1.13703 7.48863 1.28965 7.73556 1.4877 7.94326C1.68576 8.15096 1.92488 8.31482 2.18972 8.42438C2.45455 8.53394 2.73925 8.58678 3.02561 8.57948V8.53203Z" fill="white"/>
<path d="M12.1856 17.2257C12.1856 18.139 12.1856 19.0641 12.1856 19.9774C12.1856 20.5823 11.9138 20.8788 11.3229 20.8788H7.77736C7.65771 20.8948 7.53592 20.8827 7.42173 20.8434C7.30755 20.8042 7.20397 20.7388 7.1192 20.6526C7.03443 20.5664 6.97081 20.4616 6.93324 20.3465C6.89567 20.2314 6.88529 20.1091 6.9028 19.9893C6.9028 18.1627 6.9028 16.348 6.9028 14.5333C6.9028 13.9521 7.15098 13.6437 7.77736 13.6556H11.3229C11.9848 13.6556 12.1738 13.8572 12.1856 14.5214C12.1975 15.4228 12.1856 16.3243 12.1856 17.2257ZM8.16732 17.2257V18.9811C8.16732 19.3962 8.32095 19.5979 8.74641 19.5979H10.3065C10.6966 19.5979 10.8975 19.4318 10.8975 19.0404V15.4822C10.8975 15.1026 10.7319 14.901 10.3301 14.9128H8.77007C8.35643 14.9128 8.21465 15.1145 8.22647 15.494L8.16732 17.2257Z" fill="white"/>
</svg>
