<svg width="14" height="16" viewBox="0 0 14 16" fill="none" xmlns="http://www.w3.org/2000/svg">
<path d="M11.8322 4.97821L12.7803 4.03027C13.0735 3.73702 13.0735 3.26298 12.7803 2.96973C12.487 2.67648 12.013 2.67648 11.7197 2.96973L10.726 3.96353C9.86799 3.34253 8.85325 2.92846 7.75 2.79871V2H8.5C8.914 2 9.25 1.66475 9.25 1.25C9.25 0.83525 8.914 0.5 8.5 0.5H5.5C5.086 0.5 4.75 0.83525 4.75 1.25C4.75 1.66475 5.086 2 5.5 2H6.25V2.79797C3.08725 3.17072 0.625 5.864 0.625 9.125C0.625 12.6403 3.48475 15.5 7 15.5C10.5153 15.5 13.375 12.6403 13.375 9.125C13.375 7.54175 12.7915 6.09421 11.8322 4.97821ZM7 14C4.312 14 2.125 11.813 2.125 9.125C2.125 6.437 4.312 4.25 7 4.25C9.688 4.25 11.875 6.437 11.875 9.125C11.875 11.813 9.688 14 7 14ZM9.08575 10.5312C9.3445 10.8553 9.292 11.327 8.96875 11.5858C8.83075 11.696 8.665 11.75 8.50076 11.75C8.281 11.75 8.06275 11.654 7.915 11.4688L6.415 9.59375C6.3085 9.46025 6.25076 9.296 6.25076 9.125V6.5C6.25076 6.08525 6.58676 5.75 7.00076 5.75C7.41476 5.75 7.75076 6.08525 7.75076 6.5V8.86179L9.08575 10.5312Z" fill="#4D80C9"/>
</svg>
