<svg width="20" height="20" viewBox="0 0 20 20" fill="none" xmlns="http://www.w3.org/2000/svg">
<path d="M19.999 7.00195C19.999 6.89395 19.9819 6.78596 19.9479 6.68396L18.86 3.41895C18.178 1.37395 16.2719 0 14.1169 0H5.88293C3.72793 0 1.82095 1.37395 1.13995 3.41895L0.0519409 6.68396C0.0179409 6.78696 0.000976562 6.89395 0.000976562 7.00195C0.00297656 8.00695 0.387977 8.91504 1.00098 9.61804V16C1.00098 18.206 2.79498 20 5.00098 20H9.02795V16C9.02795 15.448 9.47695 15 10.028 15C10.579 15 11.028 15.448 11.028 16V20H14.999C17.205 20 18.999 18.206 18.999 16V9.61804C19.612 8.91504 19.997 8.00695 19.999 7.00195ZM3.03595 4.052C3.44495 2.824 4.58896 2 5.88196 2H14.116C15.409 2 16.553 2.824 16.962 4.052L17.994 7.14697C17.92 8.19797 17.0739 9.00098 16.0099 9.00098C15.1129 9.00098 14.205 8.41604 13.944 7.67004C13.803 7.27004 13.4249 7.00098 12.9999 7.00098H12.996C12.57 7.00298 12.191 7.27398 12.054 7.67798C11.801 8.41998 10.8979 9.00098 9.99994 9.00098C9.10194 9.00098 8.19998 8.41998 7.94598 7.67798C7.80798 7.27498 7.42997 7.00298 7.00397 7.00098H6.99994C6.57494 7.00098 6.19697 7.27004 6.05597 7.67004C5.79497 8.41604 4.88699 9.00098 3.98999 9.00098C2.92499 9.00098 2.07894 8.19797 2.00494 7.14697L3.03595 4.052ZM14.999 18H13.0259V16C13.0259 14.346 11.6799 13 10.0259 13C8.37194 13 7.02594 14.346 7.02594 16V18H4.99896C3.89596 18 2.99896 17.103 2.99896 16V10.86C3.31796 10.943 3.64495 11 3.98895 11C5.11995 11 6.21596 10.5301 6.99396 9.77905C7.76996 10.5301 8.86399 11 9.99799 11C11.132 11 12.227 10.5301 13.002 9.77905C13.781 10.5301 14.8769 11 16.0079 11C16.3519 11 16.679 10.943 16.998 10.86V16C16.999 17.103 16.102 18 14.999 18Z" fill="white"/>
</svg>
