<svg version="1.2" xmlns="http://www.w3.org/2000/svg" viewBox="0 0 27 25" width="27" height="25"><style>.a{fill:#fff}</style><filter id="f0"><feFlood flood-color="#0049a3" flood-opacity="1" /><feBlend mode="normal" in2="SourceGraphic"/><feComposite in2="SourceAlpha" operator="in" /></filter><g filter="url(#f0)"><path fill-rule="evenodd" class="a" d="m20.3 18.7q0 2 0 4c0 0.4-0.1 0.6-0.6 0.7-2 0.6-4 0.9-6.1 0.9-2.3 0-4.7-0.4-6.9-1.2q-0.3 0-0.4-0.2-0.2-0.2-0.1-0.5 0-1.1 0-2.3c0-1.5 0-3.1 0.1-4.7 0.1-1 0.5-2.1 1.1-3 0.6-0.9 1.4-1.6 2.4-2.1q0.4-0.3 0.9-0.5l0.8-0.4-0.3-0.2q-1-0.6-1.7-1.6-0.7-0.9-0.9-2.1-0.1-1.1 0.2-2 0.3-1 1-1.8 0.6-0.7 1.5-1.1 0.9-0.4 1.9-0.4 1 0 1.9 0.4 0.8 0.4 1.5 1.1 0.7 0.6 1 1.5 0.3 0.8 0.3 1.7-0.2 1.3-0.9 2.5-0.7 1.1-1.8 1.9l-0.2 0.2 0.2 0.1 0.7 0.3q0.5 0.2 1.1 0.5c1 0.6 1.8 1.5 2.4 2.5 0.5 1 0.8 2.2 0.8 3.4q0 1.2 0.1 2.4zm-9.6-11.2c0.7 0.7 1.6 1 2.5 1q0.7 0 1.4-0.2 0.6-0.3 1.1-0.8 0.5-0.5 0.8-1.2 0.2-0.7 0.2-1.4c0-0.9-0.3-1.8-1-2.5-0.7-0.7-1.6-1-2.5-1q-0.7 0-1.3 0.2-0.7 0.3-1.2 0.8-0.5 0.5-0.7 1.2-0.3 0.7-0.3 1.4c0 0.9 0.4 1.8 1 2.5zm7.9 15q0.2 0 0.3-0.2 0.1-0.1 0.1-0.3 0-0.2 0-0.3c0-0.7 0-4.8 0-5.4 0-1.1-0.2-2.1-0.7-3-0.6-0.9-1.3-1.6-2.2-2.1-0.9-0.5-1.9-0.7-2.9-0.7-1.4-0.1-2.8 0.5-3.9 1.4-1 0.9-1.7 2.2-1.9 3.6q-0.2 2.2-0.1 4.4c0 0.6 0 1.3 0 1.8 0 0.5 0.4 0.6 0.6 0.7q2.8 0.8 5.7 0.8 2.4 0 4.7-0.5 0.2-0.1 0.3-0.2z"/><path fill-rule="evenodd" class="a" d="m26.2 20.1v0.1q0 0.4-0.2 0.7-0.1 0.3-0.4 0.5c-1 0.8-2.3 1.3-3.6 1.3-0.2 0-0.2-0.1-0.2-0.4 0 0 0-0.1 0-0.1q-0.1-0.4 0-0.5 0.1-0.1 0.2-0.1 0-0.1 0.1-0.1 1 0 1.9-0.4c0.9-0.4 1.1-0.6 1.1-1.6q0-0.4 0-0.9 0-1.6-0.4-3.1c-0.2-0.8-0.7-1.5-1.3-2-0.7-0.5-1.5-0.7-2.3-0.6q-0.2 0-0.4 0-0.5 0-0.7-0.7-0.2-0.4-0.5-0.5l-0.2-0.2c-0.7-0.4-1.1-1-1.3-1.8-0.2-0.7-0.2-1.5 0.1-2.2 0.3-0.6 0.8-1.2 1.4-1.6 0.7-0.3 1.4-0.5 2.1-0.4 0.8 0.1 1.4 0.5 1.9 1 0.5 0.5 0.9 1.2 1 1.9q0.1 0.8-0.2 1.5-0.3 0.8-0.8 1.3-0.2 0.1-0.3 0.2 0 0.2-0.1 0.4c0.1 0.2 0.3 0.3 0.5 0.4 0.7 0.5 1.3 1.1 1.7 1.9 0.4 0.7 0.7 1.6 0.7 2.4q0.2 1.8 0.2 3.6zm-5.3-9.1c0.6 0 1.2-0.2 1.6-0.6 0.4-0.4 0.7-1 0.7-1.5 0-0.6-0.2-1.2-0.6-1.6-0.4-0.4-1-0.7-1.6-0.7-0.5 0-1.1 0.3-1.5 0.7-0.4 0.4-0.6 0.9-0.6 1.5 0 0.6 0.2 1.2 0.6 1.6 0.4 0.4 1 0.6 1.5 0.6z"/><path fill-rule="evenodd" class="a" d="m6.1 12.6c-0.1 0.2-0.1 0.2-0.4 0.2-0.2 0-0.6 0-0.8 0q-0.5 0-1 0.2c-0.7 0.2-1.3 0.6-1.8 1.2-0.4 0.6-0.7 1.4-0.7 2.1q-0.3 1.6-0.3 3.2v0.3q0 0.3 0.1 0.5 0.1 0.3 0.4 0.4c0.7 0.5 1.5 0.8 2.4 0.8 0.5 0 0.5 0.2 0.5 0.6-0.1 0.5-0.2 0.5-0.4 0.5h-0.3q-1.4-0.1-2.6-0.8c-0.4-0.1-0.7-0.4-0.9-0.8-0.2-0.3-0.3-0.8-0.3-1.2q0-0.2 0-0.5v-0.2q0-2.3 0.6-4.4 0.3-0.8 0.8-1.5 0.5-0.6 1.2-1c0.3-0.1 0.4-0.2 0.5-0.4 0-0.2-0.1-0.4-0.3-0.6q-0.6-0.5-0.9-1.3-0.3-0.8-0.1-1.6 0.1-0.7 0.5-1.4 0.4-0.6 1.1-1 0.8-0.4 1.6-0.4c0.7 0 1.4 0.2 2 0.6 0.6 0.4 1 1 1.2 1.7 0.2 0.7 0.2 1.4 0 2.1-0.2 0.7-0.7 1.2-1.3 1.7-0.4 0.2-0.7 0.5-0.8 1zm-1.1-1.6q0.5 0 0.9-0.1 0.4-0.2 0.7-0.5 0.3-0.3 0.5-0.8 0.1-0.4 0.1-0.8 0-0.4-0.1-0.8-0.2-0.4-0.5-0.7c-0.4-0.5-1-0.7-1.6-0.7-0.5 0-1.1 0.2-1.5 0.6-0.4 0.5-0.6 1-0.6 1.6q-0.1 0.4 0.1 0.8 0.1 0.5 0.5 0.8 0.3 0.3 0.7 0.5 0.4 0.1 0.8 0.1z"/></g></svg>