<svg width="23" height="14" viewBox="0 0 23 14" fill="none" xmlns="http://www.w3.org/2000/svg">
<path fill-rule="evenodd" clip-rule="evenodd" d="M2.95123 11V3C2.95123 2.44772 3.39895 2 3.95123 2L16.5714 2C16.8634 2 17.1407 2.12756 17.3307 2.34921L20.7593 6.34921C21.0802 6.7237 21.0802 7.2763 20.7593 7.65079L17.3307 11.6508C17.1407 11.8724 16.8634 12 16.5714 12L3.95123 12C3.39895 12 2.95123 11.5523 2.95123 11ZM0.951233 11V3C0.951233 1.34315 2.29438 0 3.95123 0L16.5714 0C17.4472 0 18.2793 0.382689 18.8492 1.04763L22.2778 5.04763C23.2407 6.1711 23.2407 7.8289 22.2778 8.95237L18.8492 12.9524C18.2793 13.6173 17.4472 14 16.5714 14L3.95123 14C2.29438 14 0.951233 12.6569 0.951233 11Z" fill="#0049A3"/>
<path fill-rule="evenodd" clip-rule="evenodd" d="M14.9512 6C15.5035 6 15.9512 6.44772 15.9512 7C15.9512 7.55228 15.5035 8 14.9512 8C14.3989 8 13.9512 7.55228 13.9512 7C13.9512 6.44772 14.3989 6 14.9512 6ZM14.9512 4C16.6081 4 17.9512 5.34315 17.9512 7C17.9512 8.65685 16.6081 10 14.9512 10C13.2944 10 11.9512 8.65685 11.9512 7C11.9512 5.34315 13.2944 4 14.9512 4Z" fill="#0049A3"/>
</svg>
