<?xml version="1.0" encoding="utf-8"?>
<!-- Generator: Adobe Illustrator 26.0.1, SVG Export Plug-In . SVG Version: 6.00 Build 0)  -->
<svg version="1.1" id="Layer_1" xmlns="http://www.w3.org/2000/svg" xmlns:xlink="http://www.w3.org/1999/xlink" x="0px" y="0px"
	 viewBox="0 0 20 24" style="enable-background:new 0 0 20 24;" xml:space="preserve">
<style type="text/css">
	.st0{fill:#0049A3;}
</style>
<g>
	<path class="st0" d="M16.4,0.2c0.8,0.3,1.1,0.7,1.1,1.6c0,0.5,0,0.5,0.4,0.5c0.9,0,1.4,0.6,1.4,1.5c0,0.5,0,1,0,1.6
		c0,5.6,0,11.3,0,16.9c0,0.5-0.1,0.9-0.4,1.2c-0.3,0.2-0.5,0.4-0.9,0.4c-4.7,0-9.5,0-14.2,0c-0.7,0-1.3-0.6-1.3-1.4
		c0-0.1,0-0.3,0-0.4c0-0.2-0.1-0.3-0.3-0.3c-0.4,0-0.9-0.1-1.2-0.4c-0.3-0.3-0.4-0.7-0.4-1.1c0-1.9,0-3.8,0-5.7c0-3.2,0-6.4,0-9.6
		c0-0.5,0.2-1,0.6-1.4c1-0.9,1.9-1.9,2.8-2.8c0.2-0.2,0.5-0.4,0.8-0.5C8.7,0.2,12.6,0.2,16.4,0.2z M18.6,13c0-3.1,0-6.1,0-9.2
		c0-0.6-0.4-0.9-1-0.8c-0.1,0-0.1,0.1-0.1,0.1c0,0.1,0,0.2,0,0.3c0,4.6,0,9.2,0,13.8c0,0.1,0,0.2,0,0.4c-0.1,0.2-0.2,0.3-0.4,0.3
		c-0.2,0-0.3-0.1-0.4-0.3c0-0.1,0-0.2,0-0.3c0-5.2,0-10.3,0-15.5c0-0.5-0.2-0.8-0.8-0.8c-3.5,0-7.1,0-10.6,0C5.2,0.9,5.1,1,5.1,1.2
		c0,0.7,0,1.5,0,2.2c0,0.7-0.5,1.3-1.3,1.3c-0.7,0-1.4,0-2.1,0c-0.2,0-0.3,0-0.3,0.3c0,5.1,0,10.2,0,15.3c0,0.5,0.3,0.7,0.7,0.7
		c4.6,0,9.3,0,13.9,0c0.5,0,0.7-0.2,0.7-0.7c0-0.4,0-0.8,0-1.1c0-0.2,0.1-0.4,0.4-0.4c0.2,0,0.4,0.1,0.4,0.4c0,0.4,0,0.8,0,1.3
		c0,0.4-0.2,0.7-0.5,1c-0.3,0.3-0.7,0.3-1.1,0.3c-4.1,0-8.1,0-12.2,0c-0.1,0-0.2,0-0.3,0c-0.1,0-0.1,0-0.1,0.1c0,0.2,0,0.5,0,0.7
		C3.3,22.9,3.6,23,4.1,23c4.6,0,9.2,0,13.8,0c0.6,0,0.8-0.2,0.8-0.8C18.6,19.2,18.6,16.1,18.6,13z M4.4,1.6C3.6,2.4,2.8,3.2,2,3.9
		c0.6,0,1.3,0,1.9,0c0.2,0,0.4-0.2,0.4-0.4C4.4,2.8,4.4,2.2,4.4,1.6z"/>
	<path class="st0" d="M9,14.9c-2,0-4,0-6.1,0c-0.1,0-0.2,0-0.3,0c-0.2,0-0.3-0.2-0.3-0.4c0-0.2,0.1-0.3,0.3-0.3c0,0,0,0,0.1,0
		c0.5,0,0.5,0,0.5-0.5c-0.1-0.5,0.1-0.9,0.6-1.2C4,12.3,4.2,12.1,4.4,12c0.2-0.1,0.4-0.2,0.6-0.1c0.2,0.1,0.3,0.3,0.3,0.5
		c0,0.5,0,0.9,0,1.4c0,0.3,0,0.3,0.3,0.3c0.2,0,0.4,0,0.6,0c0.1,0,0.2-0.1,0.2-0.2c0-0.2,0-0.4,0-0.6c0-0.3,0.2-0.4,0.4-0.4
		c0.2,0,0.3,0.2,0.3,0.4c0,0.2,0,0.4,0,0.6c0,0.1,0,0.2,0.2,0.2c0.4,0,0.4,0,0.4-0.4c0-1.1,0-2.1,0-3.2c0-0.1,0-0.2,0-0.2
		c-0.1,0-0.1,0.1-0.2,0.1c-0.3,0.1-0.4,0.4-0.4,0.7c0,0.1,0,0.3,0,0.5C7.2,11.8,7,12,6.8,12c-0.2,0-0.4-0.1-0.4-0.3
		c0-0.4,0-0.7,0-1.1c0-0.2,0.1-0.3,0.2-0.4C7,10,7.3,9.7,7.6,9.5C7.8,9.4,8,9.3,8.2,9.4c0.2,0.1,0.3,0.3,0.3,0.5c0,1.3,0,2.6,0,3.9
		c0,0.2,0.1,0.3,0.3,0.3c0.2,0,0.4,0,0.6,0c0.2,0,0.2-0.1,0.2-0.3c0-0.7,0-1.3,0-2c0-0.3,0.1-0.5,0.3-0.6c0.3-0.2,0.6-0.4,0.9-0.7
		c0.4-0.3,0.9-0.1,0.9,0.4c0,0.6,0,1.2,0,1.9c0,0.3,0,0.6,0,1c0,0.3,0,0.3,0.3,0.3c0.2,0,0.3,0,0.5,0c0.2,0,0.3-0.1,0.3-0.3
		c0-1.1,0-2.2,0-3.3c0-0.4,0-0.8,0-1.2c0-0.3,0.1-0.5,0.3-0.6c0.2-0.2,0.5-0.4,0.7-0.6c0.2-0.2,0.5-0.3,0.7-0.2
		c0.3,0.1,0.3,0.4,0.3,0.7c0,1.7,0,3.4,0,5c0,0.4,0,0.4,0.3,0.4c0.1,0,0.1,0,0.2,0c0.2,0,0.3,0.2,0.3,0.3c0,0.2-0.1,0.3-0.3,0.4
		c-0.1,0-0.2,0-0.3,0C13.1,14.9,11.1,14.9,9,14.9z M14.1,11.6c0-0.8,0-1.5,0-2.3c0-0.1,0-0.1,0-0.2c0,0,0-0.1-0.1-0.1
		c-0.2,0-0.5,0.4-0.5,0.6c0,1.4,0,2.8,0,4.3c0,0.2,0.1,0.3,0.3,0.3c0.2,0,0.3,0,0.3-0.3C14.1,13.1,14.1,12.3,14.1,11.6z M11,11.4
		c-0.2,0.1-0.3,0.2-0.4,0.3c-0.1,0.1-0.1,0.2-0.1,0.3c0,0.6,0,1.3,0,1.9c0,0.3,0.2,0.2,0.3,0.2c0.2,0,0.3,0,0.3-0.2c0-0.7,0-1.3,0-2
		C11,11.8,11,11.6,11,11.4z M4.6,12.8C4.2,13,3.9,13.2,4,13.7c0,0,0,0.1,0,0.1c0,0.3,0.3,0.4,0.5,0.3c0,0,0.1-0.1,0.1-0.1
		C4.6,13.6,4.6,13.2,4.6,12.8z"/>
	<path class="st0" d="M13.4,5.6c-0.2,0-0.3,0-0.5,0c-0.2,0-0.4-0.2-0.4-0.3c0-0.2,0.1-0.4,0.4-0.4c0.6,0,1.1,0,1.7,0
		c0.2,0,0.4,0.2,0.3,0.4c-0.1,0.5-0.1,1-0.2,1.5c0,0.3-0.2,0.4-0.4,0.4c-0.2,0-0.3-0.2-0.3-0.5C14,6.5,14,6.3,14,6
		c-0.5,0.4-1,0.8-1.5,1.1c-0.6,0.5-1.3,1-1.9,1.5c-0.4,0.3-0.7,0.3-1,0c-0.5-0.4-1-0.9-1.5-1.3C8,7.2,7.9,7.2,7.8,7.3
		c-1.3,1-2.5,2-3.8,3c-0.1,0.1-0.2,0.1-0.3,0.1c-0.2,0-0.3,0-0.4-0.2c-0.1-0.1-0.1-0.3,0-0.4c0.1-0.1,0.1-0.1,0.2-0.2
		c1.3-1,2.6-2,3.9-3c0.4-0.3,0.7-0.3,1.1,0C9,7.1,9.5,7.5,10,8c0.1,0.1,0.2,0.1,0.3,0C11.3,7.2,12.3,6.4,13.4,5.6
		C13.3,5.6,13.4,5.6,13.4,5.6z"/>
	<path class="st0" d="M4.5,17.3c-0.6,0-1.1,0-1.7,0c-0.3,0-0.4-0.2-0.4-0.4c0-0.1,0.1-0.2,0.3-0.3c0.1,0,0.2,0,0.4,0c1,0,2,0,2.9,0
		c0.1,0,0.2,0,0.3,0c0.2,0,0.3,0.2,0.3,0.4c0,0.2-0.2,0.3-0.4,0.3C5.7,17.3,5.2,17.3,4.5,17.3C4.6,17.3,4.5,17.3,4.5,17.3
		C4.5,17.3,4.5,17.3,4.5,17.3z"/>
	<path class="st0" d="M4.5,18.2c0.5,0,1.1,0,1.6,0c0.1,0,0.2,0,0.3,0c0.1,0.1,0.2,0.2,0.2,0.3c0,0.2-0.1,0.3-0.2,0.3
		c-0.1,0-0.2,0-0.2,0c-1.1,0-2.2,0-3.3,0c0,0,0,0,0,0c-0.2,0-0.4-0.2-0.4-0.4c0-0.2,0.2-0.4,0.4-0.4C3.4,18.2,4,18.2,4.5,18.2
		C4.5,18.2,4.5,18.2,4.5,18.2z"/>
</g>
</svg>
