<svg width="24" height="24" viewBox="0 0 24 24" fill="none" xmlns="http://www.w3.org/2000/svg">
<path d="M17 5.99998H16.5V2C16.4996 1.60231 16.3414 1.22103 16.0602 0.939819C15.779 0.658609 15.3977 0.500434 15 0.5H9.00002C8.60232 0.500434 8.22105 0.658609 7.93984 0.939819C7.65862 1.22103 7.50045 1.60231 7.50002 2V5.99998H7C6.60231 6.00042 6.22103 6.15859 5.93982 6.4398C5.65861 6.72101 5.50043 7.10229 5.5 7.49998V16.7983C5.50094 17.366 5.69405 17.9165 6.04787 18.3604L7.00928 19.562C7.24299 19.8553 7.53995 20.092 7.87799 20.2544C8.21603 20.4169 8.5864 20.5008 8.96144 20.5H9.00002V22.5C9.00036 22.7651 9.10583 23.0192 9.29329 23.2067C9.48075 23.3942 9.73489 23.4996 10 23.5H14C14.2651 23.4996 14.5193 23.3942 14.7067 23.2067C14.8942 23.0192 14.9997 22.7651 15 22.5V20.5H15.0386C15.4137 20.5007 15.7841 20.4168 16.1222 20.2544C16.4603 20.092 16.7574 19.8553 16.9912 19.562L17.9522 18.3604C18.306 17.9165 18.4991 17.366 18.5 16.7983V7.49998C18.4996 7.10229 18.3414 6.72101 18.0602 6.4398C17.779 6.15859 17.3977 6.00042 17 5.99998ZM8.5 2C8.50014 1.86743 8.55286 1.74033 8.6466 1.64659C8.74034 1.55284 8.86745 1.50012 9.00002 1.49998H15C15.1326 1.50012 15.2597 1.55284 15.3534 1.64659C15.4472 1.74033 15.4999 1.86743 15.5 2V5.99998H8.5V2ZM14 22.5H10V20.5H14V22.5ZM17.5 16.7983C17.4996 17.1389 17.3836 17.4693 17.1709 17.7353L16.2105 18.937C16.0702 19.1131 15.8919 19.2551 15.689 19.3526C15.486 19.4501 15.2637 19.5005 15.0386 19.5H8.96144C8.73638 19.5005 8.51411 19.4502 8.31126 19.3527C8.10842 19.2552 7.93024 19.1131 7.79008 18.937L6.82914 17.7353C6.61645 17.4693 6.50041 17.1389 6.50003 16.7983V7.49998C6.50016 7.36742 6.55287 7.24032 6.6466 7.14657C6.74034 7.05283 6.86743 7.0001 7 6.99997H17C17.1326 7.0001 17.2597 7.05283 17.3534 7.14657C17.4472 7.24032 17.4999 7.36742 17.5 7.49998V16.7983Z" fill="#E6A23C"/>
<g clip-path="url(#clip0_544_13051)">
<path d="M14.559 14.2113L12.2348 16.5355C12.1701 16.6003 12.0851 16.6328 12.0001 16.6328C11.9151 16.6328 11.8301 16.6003 11.7653 16.5355L9.44112 14.2113C9.31129 14.0815 9.31129 13.8716 9.44112 13.7418C9.57094 13.612 9.78077 13.612 9.91059 13.7418L11.668 15.4993V10.3242C11.668 10.1406 11.8165 9.99219 12.0001 9.99219C12.1837 9.99219 12.3321 10.1406 12.3321 10.3242V15.4993L14.0896 13.7418C14.2194 13.612 14.4292 13.612 14.559 13.7418C14.6889 13.8716 14.6889 14.0815 14.559 14.2113Z" fill="#E6A23C"/>
</g>
<path d="M11 2.5H10C9.8674 2.5 9.74022 2.55268 9.64645 2.64645C9.55268 2.74022 9.5 2.8674 9.5 3.00002C9.5 3.13263 9.55268 3.25981 9.64645 3.35358C9.74022 3.44735 9.8674 3.50003 10 3.50003H11C11.1327 3.50003 11.2598 3.44735 11.3536 3.35358C11.4474 3.25981 11.5001 3.13263 11.5001 3.00002C11.5001 2.8674 11.4474 2.74022 11.3536 2.64645C11.2598 2.55268 11.1327 2.5 11 2.5Z" fill="#E6A23C"/>
<path d="M14 2.5H13C12.8674 2.5 12.7402 2.55268 12.6465 2.64645C12.5527 2.74022 12.5 2.8674 12.5 3.00002C12.5 3.13263 12.5527 3.25981 12.6465 3.35358C12.7402 3.44735 12.8674 3.50003 13 3.50003H14C14.1327 3.50003 14.2598 3.44735 14.3536 3.35358C14.4474 3.25981 14.5001 3.13263 14.5001 3.00002C14.5001 2.8674 14.4474 2.74022 14.3536 2.64645C14.2598 2.55268 14.1327 2.5 14 2.5Z" fill="#E6A23C"/>
<defs>
<clipPath id="clip0_544_13051">
<rect width="7.96875" height="7.96875" fill="white" transform="translate(8.01562 9.32812)"/>
</clipPath>
</defs>
</svg>
