<svg width="22" height="19" viewBox="0 0 22 19" fill="none" xmlns="http://www.w3.org/2000/svg">
<path d="M12 11.8684C12 12.3314 11.5523 12.7068 11 12.7068C10.4477 12.7068 10 12.3314 10 11.8684L10 6.83835C10 6.37534 10.4477 6 11 6C11.5523 6 12 6.37534 12 6.83835L12 11.8684Z" fill="#F2994A"/>
<path d="M11 16C11.5523 16 12 15.6247 12 15.1617C12 14.6986 11.5523 14.3233 11 14.3233C10.4477 14.3233 10 14.6986 10 15.1617C10 15.6247 10.4477 16 11 16Z" fill="#F2994A"/>
<path d="M1.80927 16.5202L9.98004 1.57936C10.3565 0.891009 11.3428 0.884466 11.7283 1.56776L20.1585 16.5086C20.5346 17.1752 20.053 18 19.2876 18H2.68664C1.9271 18 1.44484 17.1866 1.80927 16.5202Z" stroke="#F1984A" stroke-width="2"/>
</svg>
