<svg width="28" height="24" viewBox="0 0 28 24" fill="none" xmlns="http://www.w3.org/2000/svg">
<g clip-path="url(#clip0_1709_19417)">
<path d="M13.9653 0C19.5099 0.220657 23.8902 2.57278 26.9372 7.31456C27.0029 7.41785 27.0639 7.53052 27.1344 7.63381C27.2034 7.73058 27.2523 7.84023 27.2781 7.95626C27.3039 8.0723 27.3062 8.19234 27.2847 8.30926C27.2633 8.42619 27.2185 8.53761 27.1532 8.6369C27.0878 8.7362 27.0032 8.82137 26.9043 8.88732C26.8028 8.95505 26.6885 9.00123 26.5685 9.02303C26.4485 9.04483 26.3252 9.04178 26.2064 9.01406C26.0876 8.98634 25.9758 8.93455 25.8778 8.86188C25.7798 8.7892 25.6977 8.69719 25.6367 8.59154C25.2752 8.04694 24.9372 7.47419 24.524 6.96245C23.4657 5.5651 22.1325 4.3993 20.6064 3.53694C19.0803 2.67459 17.3938 2.13397 15.6508 1.94837C10.017 1.34273 5.61792 3.50706 2.47707 8.23006C2.40561 8.37784 2.30112 8.50719 2.17168 8.60814C2.04224 8.70908 1.89133 8.77891 1.73059 8.81222C1.56148 8.8443 1.38659 8.82369 1.22957 8.75316C1.07256 8.68263 0.940997 8.56557 0.852661 8.41784C0.755166 8.27192 0.703125 8.10038 0.703125 7.92489C0.703125 7.74939 0.755166 7.57785 0.852661 7.43193C1.45796 6.40918 2.18466 5.46336 3.01697 4.61503C5.41838 2.14798 8.58695 0.5703 12.0029 0.140839C12.6367 0.0704168 13.2799 0.0516432 13.9653 0Z" fill="#0049A3"/>
<path d="M13.9794 23.9946H9.79166C9.39143 24.0246 8.9919 23.9279 8.64976 23.718C8.30762 23.5082 8.04024 23.196 7.88556 22.8256C7.7188 22.4669 7.66719 22.0654 7.7378 21.6762C7.80841 21.2869 7.99779 20.9291 8.27992 20.6519C9.68837 19.0603 11.0499 17.4547 12.4395 15.8631C12.6187 15.6186 12.853 15.4198 13.1234 15.2827C13.3938 15.1457 13.6927 15.0742 13.9959 15.0742C14.299 15.0742 14.5979 15.1457 14.8683 15.2827C15.1387 15.4198 15.373 15.6186 15.5522 15.8631C16.9701 17.4844 18.3785 19.1104 19.7776 20.7411C20.042 21.0175 20.2143 21.3691 20.2706 21.7475C20.3269 22.1258 20.2646 22.5123 20.0921 22.8538C19.9436 23.1997 19.6945 23.4929 19.3772 23.6955C19.0599 23.8981 18.6891 24.0007 18.3128 23.9899C16.8715 24.0087 15.4255 23.9946 13.9794 23.9946ZM14.0029 22.2012H18.1485C18.2541 22.1844 18.3568 22.1528 18.4536 22.1073C18.4244 22.0103 18.3834 21.9173 18.3316 21.8303L14.2001 17.0181C14.0452 16.835 13.9372 16.8491 13.787 17.0181C12.4161 18.6143 11.0358 20.2012 9.66489 21.7974C9.6037 21.8896 9.55774 21.9911 9.52875 22.0979C9.62966 22.1391 9.73533 22.1675 9.8433 22.1824L14.0029 22.2012Z" fill="#0049A3"/>
<path d="M22.3377 11.2216C22.1852 11.2097 22.0379 11.1607 21.9086 11.0789C21.7793 10.9971 21.672 10.8849 21.596 10.7522C20.7143 9.46486 19.5141 8.42801 18.1124 7.74275C16.1364 6.75791 13.8726 6.51478 11.7325 7.05755C9.59248 7.60032 7.71819 8.89295 6.45041 10.7005C6.36967 10.8492 6.25221 10.9747 6.10921 11.0651C5.96621 11.1555 5.80244 11.2078 5.63351 11.2169C5.46968 11.2257 5.30691 11.1859 5.16572 11.1023C5.02452 11.0188 4.91122 10.8953 4.84008 10.7475C4.75582 10.6033 4.71539 10.4377 4.72373 10.271C4.73207 10.1042 4.78882 9.94351 4.88703 9.80849C5.44733 8.97902 6.11868 8.23027 6.88234 7.58314C8.05844 6.59146 9.42863 5.85623 10.9052 5.42453C12.3818 4.99283 13.9323 4.87415 15.4573 5.07611C16.9824 5.27807 18.4485 5.79623 19.7619 6.59738C21.0752 7.39853 22.2068 8.46503 23.0842 9.72865C23.1978 9.86838 23.2688 10.0379 23.2888 10.2168C23.3088 10.3958 23.2769 10.5767 23.1969 10.7381C23.1176 10.8946 22.9936 11.0241 22.8407 11.1101C22.6877 11.1962 22.5127 11.235 22.3377 11.2216Z" fill="#0049A3"/>
<path d="M13.8291 10.0148C15.1401 9.99031 16.4272 10.367 17.518 11.0945C18.6088 11.822 19.4513 12.8655 19.9324 14.0852C19.9882 14.1969 20.0203 14.319 20.0267 14.4437C20.033 14.5684 20.0136 14.693 19.9695 14.8098C19.9254 14.9267 19.8577 15.0331 19.7705 15.1225C19.6833 15.2119 19.5786 15.2823 19.4629 15.3294C19.346 15.3764 19.2204 15.3985 19.0944 15.3943C18.9684 15.3901 18.8446 15.3596 18.7311 15.3048C18.6175 15.25 18.5166 15.1721 18.4349 15.0761C18.3531 14.9801 18.2923 14.868 18.2564 14.7472C17.9192 13.8451 17.3042 13.0734 16.5 12.5435C15.6959 12.0136 14.7442 11.7528 13.7822 11.7988C12.8976 11.8165 12.0382 12.0962 11.3127 12.6027C10.5873 13.1092 10.0285 13.8196 9.70707 14.6439C9.66951 14.7237 9.64134 14.8082 9.60378 14.888C9.50977 15.1031 9.33518 15.2727 9.11749 15.3605C8.89981 15.4483 8.65638 15.4472 8.43947 15.3575C8.23044 15.2645 8.06515 15.0947 7.97777 14.8832C7.89039 14.6718 7.8876 14.4348 7.96999 14.2213C8.26514 13.3868 8.73296 12.6239 9.34292 11.9824C9.95288 11.3408 10.6913 10.8352 11.5099 10.4983C12.2408 10.1773 13.0308 10.0126 13.8291 10.0148Z" fill="#0049A3"/>
</g>
<defs>
<clipPath id="clip0_1709_19417">
<rect width="26.5962" height="24" fill="white" transform="translate(0.703125)"/>
</clipPath>
</defs>
</svg>
