<svg width="21" height="20" viewBox="0 0 21 20" fill="none" xmlns="http://www.w3.org/2000/svg">
<path fill-rule="evenodd" clip-rule="evenodd" d="M0.5 10C0.5 4.47715 4.97715 0 10.5 0C16.0228 0 20.5 4.47715 20.5 10C20.5 15.5228 16.0228 20 10.5 20C4.97715 20 0.5 15.5228 0.5 10ZM10.5 2C6.08172 2 2.5 5.58172 2.5 10C2.5 14.4183 6.08172 18 10.5 18C14.9183 18 18.5 14.4183 18.5 10C18.5 5.58172 14.9183 2 10.5 2Z" fill="#0049A3"/>
<path fill-rule="evenodd" clip-rule="evenodd" d="M11.5 5C11.5 4.44772 11.0523 4 10.5 4C9.94772 4 9.5 4.44772 9.5 5V9H5.5C4.94772 9 4.5 9.44772 4.5 10C4.5 10.5523 4.94772 11 5.5 11H9.5V15C9.5 15.5523 9.94772 16 10.5 16C11.0523 16 11.5 15.5523 11.5 15V11H15.5C16.0523 11 16.5 10.5523 16.5 10C16.5 9.44772 16.0523 9 15.5 9H11.5V5Z" fill="#0049A3"/>
</svg>
