<svg width="37" height="36" viewBox="0 0 37 36" fill="none" xmlns="http://www.w3.org/2000/svg">
<path d="M36.403 23.2657C35.863 20.5177 34.463 18.3564 32.235 16.8379C31.999 16.6783 31.891 16.4626 31.891 16.1606C31.895 14.9226 31.895 13.6888 31.895 12.4507C31.895 11.1565 31.895 9.86233 31.899 8.56816C31.899 8.29638 31.819 8.07638 31.639 7.85637C31.203 7.32575 30.767 6.79083 30.331 6.26022L29.807 5.61744C29.443 5.17311 29.079 4.72878 28.719 4.28013C27.847 3.21028 26.943 2.10161 26.047 1.02313C25.495 0.358785 24.791 0.0222998 23.963 0.0179859C22.451 0.013672 20.943 0.0136719 19.431 0.0136719H7.97902C7.25502 0.0136719 6.61902 0.272507 6.09502 0.785862C5.71502 1.15686 5.38702 1.57531 5.03902 2.01964C4.89102 2.20945 4.74302 2.39495 4.59102 2.58045C3.61502 3.76246 2.64702 4.9531 1.67502 6.13943C1.19502 6.73043 0.715024 7.31713 0.231024 7.90813C0.119024 8.04618 0.0550237 8.20148 0.0190237 8.39992C-0.00497629 8.52934 -0.000976279 8.66738 0.00302372 8.81837C0.00302372 8.86582 0.00302372 8.91759 0.00302372 8.96504C0.00302372 11.631 0.00302372 28.1576 0.00302372 28.1576C0.00302372 28.3776 0.0110238 28.5631 0.0230238 28.7357C0.0950238 29.6718 0.775024 30.4613 1.63902 30.6123C1.82302 30.6425 2.01902 30.6597 2.27902 30.6597C2.40302 30.6597 2.52302 30.6554 2.64702 30.6554C2.77502 30.6511 2.90302 30.6511 3.03502 30.6511C5.47902 30.6511 7.92302 30.6554 10.363 30.6554C13.391 30.6554 16.423 30.6554 19.455 30.6511C19.719 30.6511 19.915 30.7589 20.067 30.9833C20.843 32.1437 21.807 33.0798 22.939 33.77C24.347 34.6328 25.863 35.0685 27.439 35.0685C27.827 35.0685 28.223 35.0426 28.619 34.9909C29.755 34.8442 30.851 34.456 31.879 33.8434C33.199 33.0539 34.271 32.0013 35.059 30.7201C35.539 29.9393 35.907 29.1067 36.151 28.2525C36.635 26.5572 36.719 24.8834 36.403 23.2657ZM17.003 2.11023C17.131 1.97219 17.299 1.95493 17.415 1.95493C18.551 1.95925 19.687 1.95925 20.819 1.95925C21.799 1.95925 22.775 1.95925 23.763 1.95493C24.195 1.95493 24.539 2.12318 24.815 2.46397C25.687 3.54245 26.563 4.6123 27.439 5.68647L28.403 6.86848C28.423 6.89005 28.439 6.91593 28.463 6.94182L28.727 7.28693L28.407 7.48537C28.319 7.54145 28.223 7.56733 28.115 7.56733C28.095 7.56733 28.075 7.56733 28.055 7.56733H28.031C25.299 7.56733 17.435 7.56733 17.435 7.56733C17.011 7.56733 16.871 7.41635 16.871 6.96339V5.8504C16.871 4.75466 16.871 3.65893 16.867 2.56319C16.863 2.47692 16.859 2.26553 17.003 2.11023ZM3.94702 6.32061C4.31102 5.87628 4.66702 5.43626 5.02302 5.00056L5.94302 3.87462C6.35102 3.37852 6.75502 2.88242 7.16302 2.38201C7.38702 2.11023 7.67102 1.96356 7.99102 1.96356L10.455 1.95925C11.823 1.95925 13.191 1.95925 14.563 1.95493C14.619 1.95493 14.791 1.95493 14.923 2.09729C15.055 2.23965 15.055 2.43378 15.055 2.49849C15.051 4.00836 15.051 5.51391 15.055 7.02378C15.055 7.0928 15.055 7.28261 14.923 7.42497C14.791 7.56733 14.619 7.56733 14.563 7.56733C11.747 7.56302 8.92702 7.56302 6.11102 7.56302H3.73902C3.71102 7.56302 3.68302 7.5587 3.63902 7.55439L3.59502 7.54576L3.01502 7.4638L3.94702 6.32061ZM18.491 23.4598C18.231 24.9653 18.307 26.4968 18.719 28.0153C18.763 28.1835 18.811 28.3604 18.699 28.5286C18.583 28.6969 18.415 28.6969 18.251 28.6969H2.39102C1.97102 28.6969 1.82702 28.5416 1.82702 28.0886V10.1514C1.82702 9.67684 1.96702 9.52154 2.40702 9.52154C5.16302 9.52154 7.91902 9.52154 10.675 9.52154H14.495C14.903 9.52154 15.051 9.68546 15.051 10.1212V14.2841C15.051 14.8535 15.431 15.2806 15.939 15.2849C16.463 15.2849 16.859 14.8578 16.859 14.2884C16.863 13.3264 16.863 12.3644 16.859 11.3981V10.1255C16.859 9.67252 17.003 9.51722 17.423 9.51722H20.199C23.315 9.51722 26.431 9.51722 29.551 9.51291C29.615 9.51291 29.803 9.51291 29.943 9.66389C30.083 9.81488 30.083 10.0176 30.083 10.1039C30.079 12.0538 30.079 13.6456 30.083 15.1167C30.083 15.2461 30.071 15.4057 29.955 15.5308C29.903 15.5869 29.807 15.6559 29.659 15.6559C29.607 15.6559 29.551 15.6473 29.479 15.63C28.851 15.4618 28.207 15.3755 27.563 15.3755C27.503 15.3755 27.443 15.3755 27.383 15.3798C24.919 15.4402 22.795 16.3893 21.071 18.2054C19.715 19.6463 18.847 21.4107 18.491 23.4598ZM33.983 28.7745C33.287 30.1766 32.395 31.2162 31.259 31.9496C30.127 32.6829 28.995 33.0496 27.903 33.0496C27.783 33.0496 27.659 33.0453 27.539 33.0367C27.427 33.0453 27.315 33.0453 27.203 33.0453C24.103 33.0453 20.539 30.3275 20.191 25.9403C20.019 23.7963 20.619 21.7342 21.883 20.1294C23.135 18.5376 24.939 17.5325 26.839 17.3685C27.047 17.3513 27.259 17.3427 27.463 17.3427C31.291 17.3427 34.427 20.4357 34.751 24.5383C34.867 26.0783 34.611 27.5019 33.983 28.7745Z" fill="#009444"/>
<path d="M31.2931 27.1991C30.7811 26.6426 30.2531 26.0689 29.7251 25.521C29.6211 25.4131 29.4851 25.2449 29.4851 25.0033C29.4851 24.7359 29.6571 24.5547 29.7251 24.4857C30.1651 24.0198 30.6091 23.5409 31.0411 23.0793L31.5211 22.5617C31.8091 22.2554 31.9211 21.9146 31.8691 21.5306C31.8011 21.0086 31.5451 20.6808 31.0931 20.5212C30.9691 20.478 30.8491 20.4565 30.7331 20.4565C30.4411 20.4565 30.1651 20.5988 29.8931 20.8879L29.4371 21.3753C28.9971 21.8455 28.5451 22.333 28.1051 22.8162C28.0171 22.9154 27.8731 23.0448 27.6651 23.0448C27.4331 23.0448 27.2811 22.8766 27.2211 22.8119C26.8691 22.4279 26.5171 22.044 26.1611 21.6644C25.9051 21.3926 25.6531 21.1165 25.4011 20.8404C25.1651 20.5816 24.8971 20.4521 24.6091 20.4521C24.5651 20.4521 24.5251 20.4565 24.4811 20.4608C23.9971 20.5212 23.6891 20.78 23.5331 21.2502C23.3691 21.7463 23.4611 22.1605 23.8291 22.5617C24.5491 23.3468 25.1051 23.9464 25.6371 24.5072C25.7051 24.5763 25.8611 24.7445 25.8611 24.9947C25.8611 25.2233 25.7371 25.3786 25.6411 25.4779C25.1851 25.9567 24.7291 26.4528 24.2851 26.9273L23.8131 27.4364C23.5891 27.678 23.4611 27.9713 23.4531 28.256C23.4531 28.4674 23.4771 28.5925 23.5171 28.709C23.6811 29.2137 24.0971 29.5372 24.5731 29.5372C24.7771 29.5372 25.0811 29.4769 25.3651 29.1835C25.9131 28.6141 26.4891 27.9886 27.1811 27.2207C27.2531 27.143 27.4211 26.9532 27.6651 26.9532C27.8811 26.9532 28.0371 27.0913 28.1451 27.2121C28.3051 27.3889 28.4651 27.5658 28.6251 27.7427C29.0811 28.2474 29.5531 28.7694 30.0451 29.2353C30.2331 29.4121 30.4051 29.5114 30.5931 29.5459C30.6451 29.5545 30.7011 29.5631 30.7611 29.5631C31.1491 29.5631 31.5571 29.3216 31.7131 29.0066C31.9731 28.4717 31.9091 27.8678 31.5451 27.4752L31.2931 27.1991Z" fill="#009444"/>
</svg>
