<svg width="34" height="40" viewBox="0 0 34 40" fill="none" xmlns="http://www.w3.org/2000/svg">
<path d="M7.0236 11.4351C7.0236 8.10048 7.0276 4.77014 7.0156 1.43549C7.0156 1.01272 7.1236 0.857422 7.5316 0.857422C11.7516 0.86605 15.9756 0.861736 20.1956 0.857422C22.1196 0.857422 24.0396 0.857422 25.9636 0.857422C26.7276 0.857422 26.7276 0.857422 26.7276 1.65981C26.7276 8.22127 26.7236 14.7827 26.7236 21.3442C26.7236 22.0215 26.7236 22.0215 27.3676 22.0215C29.3596 22.0215 31.3516 22.0258 33.3436 22.0301C33.4716 22.0301 33.6596 21.9525 33.7196 22.1207C33.7756 22.2803 33.5956 22.3709 33.4996 22.4658C31.1396 24.8859 28.7756 27.306 26.4076 29.7218C23.3236 32.871 20.2356 36.0158 17.1596 39.1693C16.9316 39.4022 16.7956 39.3807 16.5796 39.1563C12.9476 35.4464 9.3156 31.745 5.6836 28.0394C3.8516 26.1715 2.0196 24.3078 0.187596 22.4399C0.0995963 22.3493 -0.0484039 22.2674 0.0155961 22.1164C0.0755962 21.9697 0.235596 22.0258 0.355596 22.0258C2.3916 22.0258 4.4236 22.0258 6.4596 22.0258C7.0196 22.0258 7.0196 22.0258 7.0196 21.4348C7.0196 18.1044 7.0196 14.7698 7.0236 11.4351C7.0196 11.4351 7.0196 11.4351 7.0236 11.4351ZM12.3956 22.1595C11.9796 22.1595 11.5596 22.1552 11.1436 22.1595C10.6836 22.1638 10.6396 22.2285 10.7036 22.7117C10.9516 24.6314 11.9236 25.9903 13.4836 26.8962C14.1156 27.2586 14.7836 27.5174 15.4956 27.608C15.8756 27.6554 16.0716 27.8237 16.0316 28.2723C15.9996 28.6131 16.0316 28.9626 16.0236 29.3077C16.0156 29.5708 16.1116 29.6959 16.3636 29.6916C16.6996 29.683 17.0316 29.6873 17.3676 29.7002C17.6396 29.7132 17.7396 29.5838 17.7276 29.2947C17.7116 28.9367 17.7436 28.5743 17.7196 28.2163C17.6916 27.8453 17.8236 27.6856 18.1636 27.6123C19.5676 27.2974 20.7516 26.5899 21.7156 25.4122C23.9756 22.6556 23.2716 18.3719 20.2476 16.6463C19.3556 16.1373 18.4276 15.7447 17.4436 15.5032C16.6276 15.3004 15.8196 15.0761 15.0956 14.5972C14.0756 13.9243 13.8476 12.8113 14.5196 11.7414C14.7596 11.3618 15.0716 11.0685 15.4596 10.87C16.4636 10.3567 17.4836 10.3825 18.4996 10.8226C18.9956 11.0383 19.3876 11.4136 19.5236 11.9916C19.5956 12.3065 19.7396 12.4015 20.0156 12.3971C20.8516 12.3885 21.6876 12.3756 22.5236 12.4015C22.9476 12.4144 23.0596 12.2375 23.0156 11.8148C22.8636 10.3092 22.1876 9.12288 21.0876 8.21696C20.2436 7.5181 19.2796 7.09965 18.2236 6.94004C17.8516 6.88396 17.6876 6.7114 17.7236 6.29295C17.7556 5.95215 17.7236 5.60273 17.7356 5.25761C17.7476 4.97289 17.6516 4.83916 17.3756 4.84779C17.0436 4.86073 16.7076 4.86505 16.3716 4.85642C16.1196 4.8521 16.0236 4.97289 16.0316 5.24036C16.0396 5.61567 16.0116 5.99098 16.0316 6.36629C16.0556 6.73297 15.8956 6.86239 15.5876 6.93141C14.1636 7.24633 12.9676 7.97969 11.9956 9.15308C10.0276 11.53 10.3116 15.2831 12.6076 17.2675C13.7116 18.2209 15.0116 18.6868 16.3556 19.0578C17.0956 19.2606 17.8316 19.4849 18.5156 19.8775C20.1516 20.8136 19.6876 22.785 18.5476 23.527C17.5276 24.1871 16.4596 24.2086 15.3716 23.7902C14.7996 23.5702 14.3476 23.1776 14.1996 22.4917C14.1476 22.2415 14.0116 22.1552 13.7796 22.1595C13.3156 22.1638 12.8556 22.1595 12.3956 22.1595Z" fill="#FFBE69"/>
</svg>
