<svg width="142" height="145" viewBox="0 0 142 145" fill="none" xmlns="http://www.w3.org/2000/svg">
<ellipse cx="71" cy="72.3613" rx="71" ry="71.8965" fill="#9BC9FF"/>
<ellipse cx="71.5" cy="71.8545" rx="63.5" ry="64.3018" fill="white"/>
<path d="M71.3016 118.358C64.9476 118.515 58.2661 118.044 51.6938 116.632C45.0366 115.196 38.6826 112.988 33.7109 108.004C32.7772 107.063 32.0496 106.001 32.0254 104.686C31.9284 98.0608 32.0496 91.4601 33.4684 84.9438C35.4449 75.8572 41.5201 70.8132 50.1296 68.2911C53.5855 67.2775 57.0778 66.481 60.6307 65.8656C61.4553 65.7208 62.0252 65.8053 62.5345 66.4328C65.2143 69.7392 68.9007 70.1495 72.7567 69.7754C75.5093 69.5099 78.0922 68.6652 79.7292 66.1673C79.9717 65.8053 80.2749 65.7087 80.7235 65.7932C87.4535 66.9275 94.1107 68.2791 99.9918 72.0319C104.915 75.1815 107.449 79.9118 108.638 85.4385C109.984 91.7255 110.02 98.1211 109.996 104.517C109.996 105.76 109.402 106.822 108.516 107.751C104.806 111.624 100.174 113.845 95.1171 115.365C87.4535 117.658 79.6322 118.49 71.3016 118.358Z" fill="#0686D8"/>
<path d="M92.9838 37.0989C93.481 43.3618 91.941 49.2144 88.5214 54.4998C85.211 59.6163 80.6153 63.2002 74.4916 64.2621C66.1246 65.7102 59.516 62.4882 54.5079 55.9116C50.7246 50.9279 48.9057 45.2443 48.9299 38.9694C48.9542 34.4924 49.0269 30.0517 50.3972 25.7317C52.5677 18.9017 57.0301 14.4972 64.1845 13.1336C70.0899 11.9993 76.0074 12.0113 81.6702 14.3162C86.8965 16.44 90.0008 20.5428 91.6257 25.8041C92.7655 29.4604 93.2385 33.2133 92.9838 37.0989Z" fill="#0686D8"/>
</svg>
