<svg version="1.2" xmlns="http://www.w3.org/2000/svg" viewBox="0 0 25 25" width="25" height="25"><defs><clipPath clipPathUnits="userSpaceOnUse" id="cp1"><path d="m0 0.65h24.56v24h-24.56z"/></clipPath></defs><style>.a{fill:#fff}</style><filter id="f0"><feFlood flood-color="#0049a3" flood-opacity="1" /><feBlend mode="normal" in2="SourceGraphic"/><feComposite in2="SourceAlpha" operator="in" /></filter><g filter="url(#f0)"><g clip-path="url(#cp1)"><path fill-rule="evenodd" class="a" d="m20.5 5.1q0 0.3 0 0.5c0 0.4 0.1 0.5 0.4 0.6 0.4 0.1 0.9 0.2 1.3 0.3q0.2 0.1 0.4 0.2 0.3 0.1 0.5 0.2 0.1 0.2 0.2 0.4 0.2 0.3 0.2 0.5 0 0.3-0.1 0.5-0.3 0.7-0.6 1.3c-0.3 0.7-0.3 0.7 0.3 1.2q0.3 0.3 0.7 0.6c1 0.8 1 1.7 0 2.5-0.3 0.3-0.6 0.5-0.9 0.8-0.3 0.2-0.4 0.4-0.2 0.8q0.2 0.4 0.4 0.8 0.2 0.3 0.3 0.7 0.1 0.2 0.1 0.5-0.1 0.3-0.2 0.5-0.1 0.3-0.3 0.4-0.2 0.2-0.5 0.3c-0.4 0.1-0.9 0.2-1.3 0.3l-0.3 0.1c-0.4 0.1-0.4 0.2-0.4 0.6q-0.1 0.9-0.2 1.8 0 0.2-0.1 0.5-0.2 0.2-0.4 0.3-0.2 0.2-0.4 0.2-0.3 0.1-0.6 0-0.8-0.1-1.6-0.3-0.2 0-0.3 0-0.2 0.1-0.2 0.3-0.3 0.5-0.6 1-0.2 0.4-0.5 0.8-0.2 0.3-0.6 0.4-0.4 0.1-0.8-0.1-0.5-0.3-1-0.7-0.3-0.3-0.7-0.5-0.1-0.1-0.2-0.1-0.2 0-0.3 0.1-0.5 0.3-0.9 0.7-0.4 0.3-0.8 0.5-0.4 0.2-0.8 0.1-0.4-0.1-0.7-0.5-0.3-0.5-0.6-1-0.2-0.4-0.3-0.8-0.1-0.1-0.3-0.2-0.1-0.1-0.3 0-0.8 0.2-1.6 0.3-0.3 0.1-0.6 0-0.3-0.1-0.5-0.3-0.2-0.2-0.4-0.4-0.1-0.3-0.1-0.6c0-0.5 0-1 0-1.5-0.1-0.5-0.1-0.5-0.5-0.6-0.4-0.1-1.1-0.2-1.5-0.4q-0.3-0.1-0.5-0.3-0.3-0.1-0.4-0.4-0.1-0.3-0.1-0.5 0-0.3 0.1-0.6c0.2-0.4 0.4-0.9 0.6-1.3 0.2-0.5 0.2-0.6-0.2-1q-0.4-0.3-0.8-0.6c-1-0.9-1.1-1.7 0-2.6q0.4-0.3 0.8-0.7c0.4-0.3 0.4-0.4 0.2-0.9q-0.2-0.5-0.4-0.9-0.1-0.2-0.2-0.5-0.1-0.3-0.1-0.5 0-0.3 0.1-0.6 0.1-0.2 0.3-0.4 0.2-0.2 0.5-0.2c0.5-0.2 0.9-0.3 1.4-0.4l0.3-0.1q0.2 0 0.3-0.2 0.1-0.1 0.1-0.3 0-0.7 0-1.4c0-1.1 0.6-1.7 2-1.4q0.6 0.1 1.2 0.2 0.2 0.1 0.3 0 0.2-0.1 0.2-0.2 0.3-0.4 0.5-0.8 0.2-0.5 0.5-0.9 0.1-0.2 0.3-0.3 0.2-0.2 0.4-0.2 0.3-0.1 0.5 0 0.2 0 0.4 0.2 0.6 0.3 1.1 0.7c0.7 0.5 0.8 0.5 1.5 0q0.4-0.4 0.9-0.7 0.3-0.2 0.5-0.3 0.3 0 0.6 0 0.3 0.1 0.5 0.3 0.2 0.1 0.3 0.4c0.3 0.4 0.5 0.8 0.7 1.3 0.3 0.5 0.4 0.6 1 0.4q0.6-0.1 1.3-0.2 0.3-0.1 0.6 0 0.3 0 0.5 0.2 0.2 0.2 0.4 0.5 0.1 0.2 0.1 0.5 0 0.5 0.1 1zm-15.3 15.2q0 0.5 0.1 0.9 0 0.3 0.2 0.2 0.6-0.1 1.2-0.2c1.3-0.3 1.8 0 2.4 1.2q0.2 0.5 0.5 0.9c0.2 0.4 0.2 0.3 0.5 0.1 0.2-0.1 0.6-0.4 0.9-0.7q0.3-0.3 0.6-0.4 0.3-0.1 0.7-0.1 0.3 0 0.7 0.1 0.3 0.1 0.5 0.4l0.6 0.4q0.2 0.2 0.4 0.3c0.3 0.2 0.3 0.2 0.5-0.1 0.2-0.4 0.4-0.9 0.7-1.3 0.1-0.3 0.4-0.6 0.7-0.8 0.4-0.2 0.8-0.2 1.2-0.1l1.4 0.3c0.2 0 0.3 0 0.3-0.2q0-0.7 0-1.5c0-0.4 0.1-0.8 0.4-1.1 0.2-0.3 0.6-0.5 1-0.6 0.4-0.1 0.9-0.2 1.3-0.3 0.4-0.1 0.4-0.2 0.3-0.5-0.2-0.4-0.4-0.9-0.6-1.3-0.2-0.3-0.3-0.7-0.2-1.1 0.1-0.4 0.3-0.7 0.6-0.9l0.3-0.2 0.5-0.5c0.7-0.5 0.7-0.6 0-1.1q-0.3-0.3-0.7-0.6c-0.4-0.2-0.6-0.5-0.7-0.9-0.1-0.4 0-0.9 0.2-1.2q0.3-0.6 0.5-1.1c0.2-0.4 0.2-0.5-0.3-0.6-0.4-0.2-0.9-0.3-1.4-0.4q-0.5-0.1-0.8-0.5-0.3-0.4-0.3-0.8c0-0.4 0-0.8-0.1-1.2q0-0.3 0-0.6 0-0.1 0-0.1-0.1-0.1-0.1-0.1 0-0.1-0.1-0.1 0 0-0.1 0c-0.4 0.1-0.7 0.2-1.2 0.3-1.2 0.3-1.8 0-2.3-1.2q-0.3-0.5-0.5-0.9c-0.2-0.4-0.3-0.3-0.5-0.2-0.3 0.2-0.7 0.6-1 0.8q-0.3 0.2-0.6 0.4-0.3 0.1-0.6 0.1-0.4 0-0.7-0.1-0.3-0.2-0.6-0.4v-0.1q-0.5-0.3-0.9-0.6c-0.3-0.2-0.4-0.2-0.6 0.1-0.1 0.3-0.4 0.8-0.6 1.2-0.2 0.4-0.4 0.7-0.8 0.9-0.3 0.1-0.7 0.1-1.1 0l-1.5-0.3c-0.2 0-0.3 0.1-0.3 0.3v1.4c0 0.4-0.1 0.8-0.3 1.1-0.3 0.4-0.6 0.6-1 0.6-0.5 0.2-0.9 0.2-1.4 0.4-0.4 0.1-0.4 0.1-0.2 0.5 0.1 0.3 0.4 0.8 0.6 1.3 0.2 0.3 0.2 0.7 0.1 1.1-0.1 0.3-0.3 0.6-0.6 0.9l-0.3 0.2c-0.2 0.2-0.5 0.5-0.8 0.8-0.3 0.2-0.2 0.2 0 0.4 0.2 0.3 0.3 0.3 0.4 0.4 0.3 0.3 0.7 0.6 1 0.9q0.2 0.2 0.3 0.6 0.1 0.3 0 0.6c-0.2 0.6-0.4 1.1-0.6 1.5-0.2 0.5-0.3 0.7 0.4 0.8 0.4 0.2 0.9 0.3 1.4 0.4q0.4 0.1 0.7 0.5 0.2 0.3 0.3 0.7 0 0.5 0 1z"/><path class="a" d="m8.4 17.2c-0.2-0.2-0.4-0.2-0.5-0.4q-0.1-0.3 0-0.6c0-0.1 0.1-0.1 0.2-0.2l7.5-7.5q0.2-0.2 0.5-0.3 0.1 0 0.3 0 0.1 0.1 0.2 0.3 0.1 0.1 0.1 0.3 0 0.1-0.1 0.3-0.1 0.1-0.2 0.2l-7.5 7.5q-0.3 0.2-0.5 0.4z"/><path fill-rule="evenodd" class="a" d="m13.1 15.4q0-0.4 0.2-0.7 0.1-0.4 0.4-0.6 0.3-0.3 0.6-0.5 0.4-0.1 0.8-0.1c0.5 0 1 0.2 1.3 0.6 0.4 0.3 0.6 0.8 0.6 1.3 0 0.5-0.2 1-0.6 1.4-0.3 0.4-0.8 0.6-1.3 0.6-0.6 0-1-0.2-1.4-0.6-0.4-0.3-0.6-0.8-0.6-1.4zm2 0.9q0.1 0 0.3-0.1 0.1-0.1 0.2-0.2 0.2-0.1 0.2-0.2 0.1-0.2 0.1-0.4 0-0.1-0.1-0.3 0-0.1-0.2-0.2-0.1-0.2-0.2-0.2-0.2-0.1-0.3-0.1-0.4 0-0.6 0.2-0.3 0.3-0.3 0.6 0 0.4 0.3 0.6 0.2 0.3 0.6 0.3z"/><path fill-rule="evenodd" class="a" d="m9.5 11.8c-0.5 0-1-0.2-1.4-0.6-0.4-0.3-0.6-0.8-0.6-1.3 0-0.6 0.2-1.1 0.6-1.4 0.4-0.4 0.9-0.6 1.4-0.6 0.5 0 1 0.2 1.4 0.6 0.3 0.4 0.5 0.9 0.5 1.4 0 0.5-0.2 1-0.5 1.4-0.4 0.3-0.9 0.5-1.4 0.5zm-0.8-1.9q0 0.1 0 0.3 0.1 0.1 0.2 0.2 0.1 0.2 0.3 0.2 0.1 0.1 0.3 0.1 0.1 0 0.3-0.1 0.2 0 0.3-0.1 0.1-0.2 0.2-0.3 0-0.2 0-0.3 0-0.2 0-0.3-0.1-0.2-0.2-0.3-0.1-0.1-0.3-0.2-0.1-0.1-0.3-0.1-0.2 0-0.3 0.1-0.2 0.1-0.3 0.2-0.1 0.1-0.2 0.2 0 0.2 0 0.4z"/></g></g></svg>