<svg width="69" height="81" viewBox="0 0 69 81" fill="none" xmlns="http://www.w3.org/2000/svg">
<path d="M52.2044 51.6931C50.7044 51.0768 49.2444 50.3563 47.7044 49.8349C46.5744 49.4462 46.2244 48.849 46.2344 47.7303C46.2844 40.2693 46.2544 32.8178 46.2644 25.3568C46.2644 24.3235 46.1444 23.3185 45.6044 22.3895C44.4444 20.3607 42.5044 19.8203 40.2544 19.8203C28.9944 19.8203 17.7344 19.8203 6.47444 19.8298C5.71445 19.8298 4.95444 19.8677 4.20444 19.991C2.32444 20.3038 1.02444 21.3277 0.384445 23.0531C0.0544446 23.9537 0.00444444 24.9018 0.00444444 25.8593C0.00444444 31.1587 0.00444444 36.4582 0.00444444 41.7577C0.00444444 47.171 -0.00555556 52.5842 0.00444444 57.9975C0.0144444 61.7611 2.03444 63.6667 5.97444 63.6667C9.76444 63.6667 13.5644 63.6951 17.3544 63.6572C18.3744 63.6477 18.6744 63.9795 18.5644 64.937C18.3444 66.89 18.2544 68.8619 18.0644 70.8148C17.9344 72.0947 18.2644 73.1565 19.4444 73.858C20.6144 74.5501 21.7744 74.4647 22.9444 73.7822C24.6444 72.7867 26.3844 71.8577 28.0644 70.8338C28.8844 70.3313 29.2744 70.5114 29.7344 71.2699C31.3744 73.9528 33.0844 76.6073 34.7644 79.2618C35.8744 81.0156 37.6244 81.4896 39.4544 80.4658C43.1644 78.3896 46.8644 76.2944 50.5544 74.1708C52.6944 72.9384 53.0744 71.4026 51.8144 69.3833C50.1644 66.7478 48.5144 64.1123 46.8144 61.5052C46.3344 60.7657 46.3844 60.3486 47.2344 59.903C48.9844 58.9929 50.6544 57.9595 52.3944 57.021C53.5044 56.4142 54.1444 55.5421 54.1044 54.357C54.0644 53.1341 53.4344 52.205 52.2044 51.6931ZM20.2144 43.2935C19.9944 48.3939 19.4644 53.4754 19.0844 58.5663C18.9344 60.5761 18.9444 60.6045 16.8944 60.6045C13.6644 60.6045 10.4244 60.6045 7.19444 60.6045C6.67444 60.6045 6.15444 60.5951 5.64444 60.5477C3.74444 60.3675 3.37444 59.9883 3.37444 58.1965C3.36444 54.6794 3.37444 51.1527 3.37444 47.6355C3.37444 45.6636 3.37444 43.7012 3.37444 41.7293C3.37444 36.3539 3.37444 30.9786 3.37444 25.6033C3.37444 23.3849 3.78445 22.9867 6.06445 22.9867C17.4444 22.9867 28.8244 22.9867 40.1944 22.9867C42.5944 22.9867 42.9344 23.3849 42.9244 25.6317C42.9144 32.704 42.9244 39.7858 42.9844 46.8581C42.9944 47.8061 42.6244 47.6639 42.0044 47.408C36.4944 45.0948 30.9544 42.8479 25.4844 40.4494C22.4744 39.1412 20.3244 40.6106 20.2144 43.2935ZM43.0944 58.7085C42.0344 59.2678 41.9144 59.7418 42.5644 60.7278C44.6544 63.9037 46.6244 67.1554 48.6944 70.3408C49.1544 71.0518 49.1044 71.431 48.3344 71.8577C45.0344 73.7063 41.7544 75.5739 38.4844 77.47C37.8844 77.8208 37.5944 77.688 37.2644 77.1571C35.1144 73.7537 32.9144 70.3692 30.8044 66.9469C30.3644 66.2264 30.0044 66.1695 29.3044 66.5771C26.9944 67.9233 24.6444 69.2126 22.3344 70.5588C21.5144 71.0423 21.3044 70.8527 21.3744 70.009C21.6544 66.5013 21.8944 62.9936 22.1744 59.4859C22.5444 54.7742 22.9544 50.0625 23.2944 45.3507C23.4644 42.9522 23.4044 42.9522 25.7044 43.9192C33.6244 47.2373 41.5444 50.5459 49.4644 53.864C49.7844 53.9968 50.1044 54.1579 50.6844 54.4234C48.0244 55.9402 45.5944 57.3812 43.0944 58.7085Z" fill="#939598"/>
<path d="M24.6235 4.29213C26.4435 4.92731 28.8135 3.46735 28.8235 1.60921C28.6235 1.15415 29.3135 0.196644 28.0135 0.206125C26.3435 0.206125 24.3835 1.82725 24.1735 3.3915C24.1235 3.7802 24.1235 4.12149 24.6235 4.29213Z" fill="#939598"/>
<path d="M68.1443 38.6863C67.2843 38.5157 66.2543 38.2976 65.5943 38.7811C64.7943 39.3689 63.1843 39.549 63.6843 40.9616C63.6843 42.4405 63.7643 42.6207 64.3843 42.6681C66.0643 42.8103 68.2943 40.9711 68.3943 39.3689C68.4043 39.1035 68.4743 38.7527 68.1443 38.6863Z" fill="#939598"/>
<path d="M67.6152 4.65253C68.2152 4.60513 68.5052 4.40604 68.3952 3.80878C68.1252 2.32038 67.4552 1.09742 65.9052 0.471718C64.4252 -0.125541 64.1352 0.0545848 64.1252 1.55247C64.1052 3.73294 65.3852 4.84213 67.6152 4.65253Z" fill="#939598"/>
<path d="M66.9635 30.5328C66.6535 30.5802 66.3235 30.5044 66.0135 30.5233C65.6835 30.5328 65.3335 30.6181 65.2735 30.9689C65.1035 32.0118 65.1035 33.0735 65.2935 34.1164C65.3235 34.2681 65.5135 34.4387 65.6735 34.5145C67.1635 35.2161 68.5135 34.4292 68.5235 32.8745C68.5235 32.7607 68.5235 32.6469 68.5235 32.5332C68.5235 32.3436 68.5035 32.154 68.5235 31.9643C68.6635 30.8552 68.2035 30.3337 66.9635 30.5328Z" fill="#939598"/>
<path d="M65.7632 27.0635C67.4632 27.6703 68.5232 27.0066 68.5332 25.3286C68.5332 25.2149 68.5332 25.1011 68.5332 24.9873C68.5332 22.6741 68.5432 23.1387 66.5432 23.1197C66.1332 23.1197 65.6532 22.9396 65.3232 23.3472C65.0832 23.6506 65.1332 26.5231 65.3932 26.8076C65.4732 26.9213 65.6232 27.0066 65.7632 27.0635Z" fill="#939598"/>
<path d="M41.374 3.22941C41.734 3.22941 42.094 3.22941 42.454 3.22941C42.454 3.21993 42.454 3.21993 42.454 3.21045C42.934 3.21045 43.414 3.22941 43.884 3.20097C44.274 3.18201 44.514 2.98292 44.604 2.57527C45.054 0.669728 44.584 0.0440287 42.584 0.0629893C40.154 0.0819499 40.4041 -0.268821 40.4141 2.34774C40.4141 2.9924 40.764 3.21993 41.374 3.22941Z" fill="#939598"/>
<path d="M66.9858 8.11305C65.1858 8.21734 65.1858 8.14149 65.1758 9.81003C65.1758 10.303 65.1758 10.796 65.2058 11.2795C65.2258 11.5828 65.2858 11.8767 65.6158 12.0379C67.0158 12.7489 68.5058 11.9431 68.5158 10.4547C68.5158 10.3409 68.5158 10.2272 68.5158 10.1134C68.5158 9.92379 68.4958 9.73418 68.5158 9.54458C68.7058 8.40694 68.1958 8.04669 66.9858 8.11305Z" fill="#939598"/>
<path d="M65.7649 19.5838C67.5749 20.1716 68.5249 19.5364 68.5049 17.7447C68.5049 17.2896 68.5249 16.844 68.4949 16.389C68.4749 16.0856 68.3849 15.7254 68.0149 15.7064C67.2649 15.659 66.4149 15.4789 65.7849 15.7348C64.7049 16.1709 65.2849 17.2422 65.2149 18.048C65.1549 18.5789 64.9149 19.3089 65.7649 19.5838Z" fill="#939598"/>
<path d="M50.3345 3.22061C50.8145 3.22061 51.2845 3.23957 51.7645 3.21112C52.1545 3.19216 52.4745 3.02152 52.4945 2.60439C52.5145 1.96921 52.6645 1.27715 52.4645 0.698847C52.1145 -0.325025 51.0545 0.139509 50.3145 0.101588C49.6445 0.0636668 48.6945 -0.306065 48.3645 0.651445C47.7545 2.4527 48.3845 3.23957 50.3345 3.22061Z" fill="#939598"/>
<path d="M33.6153 3.23997C33.9353 3.23049 34.2553 3.23997 34.5653 3.23997C36.6853 3.24945 36.6853 3.24945 36.7153 2.00753C36.7653 0.0735483 36.6453 -0.0307348 34.5953 0.0830287C34.1553 0.11147 33.7253 0.158871 33.2853 0.149391C32.7153 0.13043 32.4953 0.395878 32.5053 0.898334C32.5153 1.31547 32.5253 1.7326 32.4953 2.14025C32.4553 2.89868 32.8053 3.26841 33.6153 3.23997Z" fill="#939598"/>
<path d="M58.6031 0.101409C58.5231 0.0919284 58.4431 0.0919284 58.3631 0.0824481C57.8831 0.0824481 57.4031 0.072968 56.9331 0.0919286C56.5431 0.101409 56.2131 0.234133 56.2131 0.679707C56.2131 1.32437 56.1731 1.96903 56.2531 2.60421C56.3531 3.36263 57.0531 3.30575 57.5631 3.22043C58.5131 3.06874 59.8131 3.83665 60.3431 2.65161C61.0331 1.10632 60.3431 0.234133 58.6031 0.101409Z" fill="#939598"/>
<path d="M24.2331 18.6077C25.8331 19.3377 26.8931 18.5793 26.8931 16.9392C26.8931 16.8254 26.8931 16.7116 26.8931 16.5979C26.8931 16.5979 26.8931 16.5979 26.9031 16.5979C26.9031 16.1808 26.8931 15.7636 26.9031 15.3465C26.9131 14.9483 26.7731 14.6544 26.3231 14.6355C25.6431 14.6165 24.9631 14.5881 24.2931 14.6734C23.4931 14.7777 23.5931 15.4508 23.6731 15.9343C23.8331 16.8444 23.0431 18.0673 24.2331 18.6077Z" fill="#939598"/>
<path d="M24.2258 11.118C25.7958 11.8669 26.8958 11.099 26.8958 9.47788C26.8958 9.36411 26.8958 9.25035 26.8958 9.13659C26.8958 8.71945 26.8858 8.30232 26.8958 7.88519C26.9058 7.4965 26.7658 7.22157 26.3258 7.16469C25.6558 7.07936 24.9758 7.0604 24.3058 7.17417C23.5758 7.29741 23.5958 7.86623 23.6858 8.33076C23.8558 9.26931 23.0158 10.5397 24.2258 11.118Z" fill="#939598"/>
<path d="M58.4328 39.7009C57.9128 39.7104 57.4028 39.7009 56.8828 39.6914C56.5928 39.6914 56.3528 39.7009 56.2228 40.0232C55.5828 41.6159 56.3828 42.763 58.1428 42.763C58.1828 42.763 58.2228 42.763 58.2628 42.763C58.2628 42.7535 58.2628 42.7535 58.2628 42.7441C58.7428 42.7441 59.2128 42.763 59.6928 42.7346C60.0928 42.7156 60.3228 42.5165 60.4228 42.1184C60.8728 40.2507 60.4028 39.6535 58.4328 39.7009Z" fill="#939598"/>
<path d="M49.0456 39.7002C48.7056 39.7002 48.3656 39.7476 48.3556 40.1458C48.3256 40.8663 48.0756 41.7195 48.3956 42.2694C48.9756 43.2743 50.1856 42.6296 51.1056 42.7434C51.6056 42.8003 52.2556 42.914 52.4856 42.1935C53.0256 40.4776 52.4456 39.7097 50.5956 39.7097C50.5556 39.7097 50.5156 39.7097 50.4756 39.7097C50.0056 39.7002 49.5256 39.7002 49.0456 39.7002Z" fill="#939598"/>
</svg>
