<svg width="140" height="88" viewBox="0 0 140 88" fill="none" xmlns="http://www.w3.org/2000/svg">
<path d="M139.67 46.7276C139.176 43.8943 136.85 41.7184 133.888 41.3271C133.298 41.2488 132.693 41.2331 132.247 41.2331L130.606 41.2488C130.415 41.2488 130.208 41.2488 130.017 41.2488C129.667 41.2331 129.205 41.2175 128.934 40.7948C128.663 40.3565 128.87 39.9495 129.013 39.6521C129.444 38.7598 130.001 37.6014 130.479 36.3961C132.454 31.5278 132.964 26.8942 132.04 22.245C130.845 16.2496 127.882 11.2247 123.231 7.32689C120.077 4.68139 116.334 2.95946 112.113 2.23939C110.329 1.92631 108.497 1.76977 106.665 1.76977C105.359 1.76977 104.021 1.84804 102.683 2.00458C99.1309 2.42723 96.0566 3.41343 93.285 5.02577C89.3028 7.34254 86.1329 10.5985 83.8711 14.6999C81.1472 19.6152 80.2074 24.8436 81.0517 30.2598C81.2587 31.6373 81.6092 33.0618 82.1189 34.7055L82.9631 37.4762L79.4906 34.2985C77.8181 32.7644 76.1934 31.2929 74.5686 29.8215C74.043 29.3519 74.043 28.7727 74.043 28.4126C74.043 28.4126 74.043 0.611386 74.043 0.580078C74.027 0.580078 56.0115 0.580078 55.9956 0.580078C55.9956 0.595732 55.9956 10.3637 55.9956 10.3637C56.0752 11.0682 55.6929 11.3499 55.454 11.4595L55.1991 11.5221H55.0239C54.5779 11.5221 54.3071 11.2247 54.1956 11.0995C53.0487 10.0663 51.9018 9.03316 50.7709 7.98435C49.9904 7.26427 48.9709 6.87293 47.8878 6.87293C46.8524 6.87293 45.8648 7.24862 45.1162 7.92174C43.587 9.31493 42.0737 10.7081 40.5605 12.117L27.2758 24.4052L13.1151 37.5232L5.51703 44.5518C4.37015 45.6006 3.17549 46.6963 2.07639 47.8078C0.101216 49.8115 -0.472222 52.1126 0.387936 54.6485C1.29588 57.3097 3.63742 58.9533 6.52054 58.9533C7.06213 58.9533 7.60371 58.8907 8.16122 58.7655C8.38422 58.7185 8.54351 58.6872 8.71873 58.6872C9.69039 58.6872 9.69039 59.6577 9.69039 59.9865C9.69039 59.9865 9.69039 68.0482 9.69039 68.9718C9.69039 69.7232 9.89746 70.2084 10.3275 70.5372C10.678 70.8033 11.0284 70.9442 11.3948 70.9442C11.6337 70.9442 11.9045 70.8815 12.1594 70.7563C12.7965 70.4432 13.1151 69.958 13.1151 69.2692V69.0814C13.1151 66.4359 13.131 59.0942 13.0992 56.433C13.0992 55.666 13.354 55.0711 13.9115 54.5546C15.5841 53.0361 17.2407 51.4864 18.9132 49.9523L30.4138 39.3234L46.948 23.9826C47.1073 23.8261 47.4577 23.513 47.9515 23.513C48.286 23.513 48.5886 23.6539 48.8913 23.92C51.7266 26.5498 54.5779 29.164 57.4292 31.7782L71.7492 44.8961C74.9987 47.8704 78.2482 50.8603 81.4817 53.8501C81.7366 54.085 81.9437 54.1789 82.31 54.1789C84.0463 54.1632 85.7825 54.1632 87.5188 54.1632C89.0639 54.1632 90.609 54.1632 92.1859 54.1476C92.8709 54.1476 93.3806 54.4137 93.7947 54.9616C95.0531 56.6835 96.423 58.4837 98.0955 60.6126C100.915 64.1817 103.894 67.6255 106.538 70.6154C107.127 69.9423 107.717 69.2849 108.306 68.6274C109.071 67.7821 109.819 66.9211 110.568 66.0602C114.04 62.0528 116.955 58.4054 119.488 54.9146C119.854 54.4137 120.348 54.1789 121.001 54.1789C122.053 54.1789 127.468 54.1789 127.468 54.1789C128.599 54.1789 128.966 54.5389 128.966 55.6503V82.7785C128.966 83.9838 128.615 84.3282 127.405 84.3282H96.8531C96.2956 84.3282 95.7858 84.5161 95.4354 84.8761C95.1168 85.1892 94.9575 85.5805 94.9575 86.0188C94.9575 86.9737 95.7858 87.7094 96.869 87.7094H132.406C132.406 87.7094 132.406 61.6301 132.406 55.5877C132.406 54.6955 132.836 54.2258 133.697 54.1632C135.449 54.0536 137.105 53.177 138.268 51.7525C139.463 50.2811 139.972 48.4496 139.67 46.7276ZM59.7548 4.27439C60.0733 3.96131 60.4875 3.93 60.7742 3.93C60.7742 3.93 63.6414 3.94566 65.0591 3.94566C66.429 3.94566 67.7988 3.94566 69.1847 3.93C69.3439 3.93 69.8537 3.93 70.22 4.29004C70.5545 4.61877 70.5864 5.02577 70.5864 5.3545C70.5705 7.57735 70.5705 9.78454 70.5705 12.0074V23.7321C70.6342 24.3583 70.3475 24.6557 70.0926 24.7966L69.8218 24.9218H69.6147C69.1687 24.9218 68.8979 24.6244 68.7705 24.4835L62.1441 18.3942C61.4273 17.7367 60.7264 17.0949 59.9937 16.4531C59.5955 16.093 59.4043 15.6547 59.4043 15.1069C59.4203 11.8352 59.4203 8.56354 59.4043 5.29189C59.4043 5.01012 59.4362 4.60312 59.7548 4.27439ZM89.8444 50.3124C89.6692 50.6255 89.3506 50.7976 88.9683 50.7976L88.7931 50.782H86.2445C86.2445 50.782 84.333 50.782 83.9507 50.782C83.4251 50.782 82.979 50.6098 82.5967 50.2498C79.3791 47.2755 76.1456 44.3013 72.912 41.3271L51.1691 21.3997L49.9745 20.3196C49.3054 19.7247 48.6524 19.1142 47.9356 18.4568C47.2188 19.1299 46.502 19.803 45.7692 20.4605L29.936 35.0968L18.5946 45.6162C15.3292 48.6374 12.0638 51.6743 8.78244 54.6955C8.16122 55.2747 7.36477 55.5877 6.53647 55.5877C5.6126 55.5877 4.73651 55.1807 4.13122 54.4763C3.1277 53.3023 3.28699 51.3768 4.49758 50.1715C5.34181 49.3418 6.20197 48.5435 7.06213 47.7451L27.8493 28.5535L39.1906 18.0498C41.803 15.6391 44.3994 13.2284 47.0117 10.8177C47.1232 10.7081 47.4577 10.4107 47.9356 10.4107C48.3656 10.4107 48.6683 10.6455 48.8594 10.8334C49.4966 11.4282 50.1338 12.0074 50.7868 12.6022L52.0133 13.7293L66.4768 27.0194L76.6871 36.3804C76.6871 36.3804 82.756 41.9532 85.5436 44.5048C85.671 44.63 85.7347 44.63 85.7666 44.63L85.9577 44.6144C86.4675 44.6144 86.8657 44.8492 87.1843 45.3188C87.7577 46.2111 88.3471 47.1033 88.9205 47.9799L89.701 49.1696C90.1152 49.6549 89.9718 50.0932 89.8444 50.3124ZM119.663 48.7626C116.923 52.8483 113.881 56.887 110.6 60.7848C110.217 61.2388 109.819 61.7084 109.421 62.1623C108.8 62.8981 108.163 63.6182 107.557 64.3695C107.43 64.5261 107.111 64.9174 106.57 64.9174C106.044 64.9174 105.725 64.5417 105.582 64.3695C103.655 62.1154 102.205 60.3465 100.883 58.6559C96.8371 53.5058 93.4762 48.8253 90.593 44.3639C88.1081 40.5131 86.4356 37.1005 85.3206 33.6254C84.5241 31.1364 84.1259 28.8196 84.11 26.5342C84.0941 23.6382 84.6834 20.8205 85.8781 18.1594C88.1241 13.1501 91.6762 9.44016 96.4549 7.13904C98.653 6.07458 101.106 5.44843 103.718 5.26058C104.865 5.18231 105.885 5.13535 106.84 5.13535C109.102 5.13535 111.093 5.3545 112.925 5.82412C117.577 6.99816 121.447 9.54974 124.394 13.4162C127.245 17.1419 128.918 21.5406 128.982 25.4541C128.997 29.4928 128.36 32.6705 126.799 36.1143C125.047 40.1061 122.706 44.2387 119.663 48.7626ZM134.764 50.375C134.302 50.6568 133.776 50.782 133.123 50.782H124.474L124.267 50.7976C123.868 50.7976 123.534 50.6098 123.359 50.2811C123.215 50.0306 123.136 49.6236 123.534 49.1227C123.534 49.1227 125.366 46.1485 125.86 45.3345C126.146 44.8492 126.592 44.5987 127.182 44.5987H129.491C129.491 44.5987 132.199 44.5987 133.027 44.6144C134.509 44.63 135.863 45.6162 136.197 46.9311C136.548 48.2774 135.974 49.6549 134.764 50.375Z" fill="#0049A3"/>
<path d="M89.3198 84.3132C87.6472 84.3132 81.1164 84.3132 79.4439 84.3132H73.152C71.9254 84.3132 71.575 83.9688 71.575 82.7791C71.575 82.7791 71.575 53.209 71.575 53.1934C71.5591 53.1934 48.7012 53.1934 48.7012 53.1934V82.8574C48.7012 83.9532 48.3507 84.2976 47.2676 84.2976H41.8199C41.8199 84.2976 21.7973 84.2976 14.5179 84.3132C14.2311 84.3132 13.8011 84.2819 13.4665 83.9532C13.148 83.6245 13.1002 83.2018 13.1161 82.92C13.132 80.7755 13.132 78.6309 13.1161 76.4706C13.1161 75.6723 12.5586 75.0305 11.7622 74.8739C11.6507 74.8426 11.5232 74.8426 11.4117 74.8426C10.7427 74.8426 10.1533 75.234 9.86662 75.8445C9.70734 76.1732 9.69141 76.5646 9.69141 76.9716C9.69141 76.9716 9.69141 87.6631 9.69141 87.6788C9.70734 87.6788 89.2083 87.6788 89.2083 87.6788C89.272 87.6788 89.3357 87.6788 89.4153 87.6788C90.1003 87.6318 90.5463 87.3501 90.8649 86.8178C91.1834 86.2856 91.1834 85.6751 90.8808 85.1585C90.5622 84.6263 89.9888 84.3132 89.3198 84.3132ZM68.1981 82.8731C68.1981 83.9375 67.8317 84.2976 66.7645 84.2976H53.6232C52.5082 84.2976 52.1418 83.9532 52.1418 82.8574V57.9991C52.1418 56.919 52.4922 56.5746 53.5754 56.5746H60.1381H66.7008C67.8158 56.5746 68.1822 56.919 68.1822 58.0147V82.8731H68.1981Z" fill="#0049A3"/>
<path d="M44.7973 53.1934H24.2969V73.3242H34.571H44.7814V53.1934H44.7973ZM41.0062 69.5986C40.6877 69.9117 40.2576 69.9586 39.9709 69.9586C39.9709 69.9586 36.3869 69.943 34.5869 69.943C32.787 69.943 31.0029 69.943 29.187 69.9586C28.9003 69.9586 28.4862 69.9273 28.1517 69.5986C27.7853 69.2386 27.7853 68.7533 27.7853 68.5968C27.8012 65.0433 27.8012 61.4742 27.7853 57.9208C27.7853 57.7643 27.7853 57.279 28.1357 56.919C28.4543 56.6059 28.8685 56.5589 29.187 56.5589C29.187 56.5589 30.8436 56.5746 31.6719 56.5746H37.5019C38.3143 56.5746 39.1426 56.5746 39.9868 56.5589C40.2735 56.5589 40.6717 56.5902 40.9903 56.9033C41.3567 57.2634 41.3407 57.7486 41.3407 57.9052C41.3248 61.4586 41.3248 65.0277 41.3407 68.5811C41.3567 68.7533 41.3567 69.2386 41.0062 69.5986Z" fill="#0049A3"/>
<path d="M106.728 9.75391C102.061 9.75391 97.9674 11.3663 94.8772 14.4031C91.8666 17.3773 90.1304 21.5413 90.1463 25.8304C90.0826 30.0413 91.7392 34.0643 94.8294 37.1325C97.9355 40.232 102.173 42.0165 106.442 42.0165H106.489C115.425 41.9852 122.992 34.6592 123.023 26.0183C123.039 21.6352 121.271 17.3617 118.165 14.2935C115.155 11.3349 111.204 9.75391 106.728 9.75391ZM115.855 34.847C113.371 37.3203 110.073 38.6666 106.489 38.6666C103.033 38.6509 99.7833 37.336 97.3461 34.9566C94.8772 32.5459 93.5391 29.3212 93.5551 25.8617C93.6029 18.567 99.2257 13.0569 106.633 13.0569H106.68C113.928 13.0725 119.599 18.7392 119.583 25.9243C119.647 29.1803 118.277 32.4363 115.855 34.847Z" fill="#0049A3"/>
</svg>
