<svg version="1.2" xmlns="http://www.w3.org/2000/svg" viewBox="0 0 27 25" width="27" height="25"><defs><clipPath clipPathUnits="userSpaceOnUse" id="cp1"><path d="m0 0.45h27v24h-27z"/></clipPath></defs><style>.a{fill:#fff}</style><filter id="f0"><feFlood flood-color="#0049a3" flood-opacity="1" /><feBlend mode="normal" in2="SourceGraphic"/><feComposite in2="SourceAlpha" operator="in" /></filter><g filter="url(#f0)"><g clip-path="url(#cp1)"><path fill-rule="evenodd" class="a" d="m13.3 15.9c0-2.8 2.2-5.2 5.1-5.4 2.7-0.3 5.3 1.7 5.8 4.4 0.2 1.1 0 2.3-0.5 3.3 0 0.2 0 0.3 0.1 0.4q1.4 1.6 2.8 3.1c0.6 0.7 0.5 1.4-0.1 2q-0.3 0.2-0.6 0.4c-0.6 0.5-1.2 0.4-1.7-0.1q-1.4-1.5-2.7-3c-0.1-0.2-0.3-0.2-0.5-0.1-3.4 1.5-7.2-0.8-7.6-4.4q-0.1-0.3-0.1-0.6zm5.5-4.7c-2.6 0.1-4.7 2.1-4.7 4.7q0 0.9 0.4 1.8 0.3 0.9 1 1.5 0.7 0.7 1.5 1 0.9 0.4 1.8 0.4c1.3-0.1 2.5-0.6 3.3-1.4 0.9-0.9 1.4-2.1 1.4-3.3 0-2.6-2.2-4.7-4.7-4.7zm4.3 10.4c0.5 0.6 1.1 1.3 1.7 2 0.2 0.1 0.4 0.1 0.5 0q0.4-0.3 0.7-0.6c0.3-0.2 0.3-0.4 0.1-0.6q-0.9-1.1-1.8-2.1zm-0.6-0.7l1.3-1.2-0.5-0.5-1.2 1.2-0.1-0.1z"/><path class="a" d="m17.2 17.8h-0.7v-3.8h0.7z"/><path class="a" d="m18.4 14h0.8v3.8h-0.8z"/><path class="a" d="m21.1 14v3.8h-0.7v-3.8z"/><path class="a" d="m15.7 17.8v-3.8h0.3v3.8z"/><path class="a" d="m17.6 14h0.4v3.8h-0.4z"/><path class="a" d="m19.6 14h0.3v3.8h-0.3z"/><path class="a" d="m21.9 17.8h-0.4v-3.8h0.4z"/><path fill-rule="evenodd" class="a" d="m0 15.3c0-0.8 0.4-1.7 1-2.3 0.6-0.6 1.5-1 2.3-1q0.7 0 1.3 0.3 0.6 0.2 1.1 0.7 0.5 0.5 0.7 1.1 0.3 0.6 0.3 1.2c0 0.9-0.4 1.8-1 2.4-0.6 0.6-1.5 1-2.4 1-0.8 0-1.7-0.4-2.3-1-0.6-0.6-1-1.5-1-2.4zm1.8 0.2q0 0.7 0.2 1.3h1.2v-1.3zm0-0.3h1.5v-1.4h-1.3q-0.2 0.7-0.2 1.4zm1.7-1.4v1.4h1.4q0-0.7-0.2-1.4zm1.5 1.6h-1.5v1.4h1.3q0.2-0.6 0.2-1.4zm-4.3-1.6q0 0 0 0 0 0 0 0.1-0.2 0.3-0.3 0.8-0.1 0.2-0.1 0.5h1.3q0-0.7 0.2-1.4-0.5 0-1.1 0zm-0.4 1.6c0 0.4 0.2 1 0.4 1.4q0 0 0 0 0 0 0.1 0 0.5 0 1 0 0 0 0 0-0.2-0.6-0.2-1.4zm4.7-1.6q0.2 0.7 0.2 1.4h1.4q0 0 0 0-0.1-0.7-0.4-1.3 0-0.1-0.1-0.1 0 0 0 0-0.2 0-0.4 0zm0.2 1.6q0 0.8-0.2 1.4 0.5 0 1.1 0 0 0 0 0 0 0 0 0 0.2-0.3 0.3-0.7 0.1-0.3 0.1-0.6zm-1.9-3.2q0 0 0 0-0.1 0-0.1 0-0.3 0.1-0.5 0.3-0.4 0.4-0.5 0.9-0.1 0-0.1 0.1h1.2zm1.4 1.3q-0.2-0.5-0.5-0.9-0.1-0.2-0.4-0.3-0.1-0.1-0.3-0.1v1.3zm-1.4 3.5h-1.1q0 0.2 0.1 0.3c0.1 0.3 0.3 0.6 0.6 0.8q0.2 0.2 0.4 0.2zm0.3 0v1.4q0 0 0 0 0.4-0.1 0.6-0.4c0.2-0.2 0.4-0.6 0.5-0.9q0 0 0-0.1zm0.7 1.3c0.7-0.2 1.4-0.6 1.8-1.3-0.3 0-0.7 0-1 0q-0.1 0-0.1 0.1c-0.1 0.4-0.3 0.9-0.7 1.2zm0-6q0.1 0.1 0.2 0.3 0.4 0.4 0.5 0.9 0 0 0 0 0.1 0.1 0.1 0.1 0.5 0 0.9 0 0 0 0.1 0c-0.4-0.7-1.1-1.1-1.8-1.3zm-1.6 0q0 0 0 0 0 0 0 0zm-1.7 1.3q0.4 0 0.9 0 0 0 0.1-0.1 0 0 0 0 0.2-0.5 0.4-0.9 0.2-0.1 0.3-0.3c-0.5 0.1-1.6 0.9-1.7 1.3zm1.7 4.7q0 0 0 0 0 0 0 0zm-0.2-0.3q-0.3-0.4-0.5-0.9 0 0 0 0 0 0 0 0 0-0.1-0.1-0.1 0 0 0 0-0.4 0-0.9 0 0 0-0.1 0c0.5 0.7 1.1 1.1 1.8 1.3q-0.1-0.1-0.2-0.3z"/><path fill-rule="evenodd" class="a" d="m21.5 5.5q0 2.2 0 4.5 0 0 0 0.1h-0.8v-4q-0.1 0.1-0.2 0.1-4.1 2.4-8.2 4.8c-0.1 0-0.2 0.1-0.2 0.3q0 4 0 8v0.2l1-0.6q0.2 0.3 0.4 0.7-0.8 0.5-1.6 0.9-0.1 0-0.2 0-0.1 0-0.2 0-2.5-1.5-5-2.9 0.2-0.4 0.4-0.7l3.9 2.3q0.3 0.1 0.5 0.3 0.1-0.1 0.1-0.2-0.1-4 0-8c0-0.2-0.1-0.3-0.2-0.3q-2.7-1.6-5.4-3.2-1.1-0.6-2.3-1.3 0 0.1 0 0.2 0 2.3 0 4.6-0.3-0.1-0.5-0.1-0.1 0-0.2 0.1 0-2.7 0-5.4-0.1-0.2 0-0.3 0.1-0.1 0.2-0.2 4.5-2.4 9-4.8c0.4-0.2 0.7-0.2 1 0q4.1 2.2 8.2 4.4c0.2 0.1 0.3 0.3 0.3 0.5zm-14.2 2.1q4-2.3 8-4.6 0.1-0.1 0.2-0.2-1.4-0.7-2.8-1.5-0.1 0-0.2 0-0.1 0-0.2 0-2.8 1.6-5.7 3.1l-2.7 1.4q1.6 1 3.2 1.9c0 0 0.2 0 0.2-0.1zm13-2.2q-0.1-0.1-0.2-0.1-1.8-1-3.5-1.9-0.1-0.1-0.2-0.1-0.2 0-0.2 0.1-3.2 1.8-6.4 3.7-0.9 0.5-1.8 1.1 0 0 0 0 1.8 1.1 3.6 2.1 0.1 0 0.2 0 0 0 0.1 0 1.5-0.9 3-1.7z"/></g></g></svg>