<svg width="31" height="35" viewBox="0 0 31 35" fill="none" xmlns="http://www.w3.org/2000/svg">
<path d="M30.6324 32.4941C29.9343 28.5123 29.2362 24.5306 28.5225 20.5531C27.9999 17.6499 27.4578 14.7509 26.9196 11.852C26.7519 10.9504 26.553 10.7519 25.7028 10.7476C18.8661 10.739 12.0294 10.7347 5.19274 10.739C4.09684 10.739 3.91354 10.8986 3.70294 12.072C2.47834 18.9052 1.26934 25.7428 0.0525448 32.576C-0.0878552 33.3568 0.0135447 34.0471 0.848145 34.5259C1.27324 34.5259 30.2853 34.4741 29.9265 34.4741C30.7299 34.0212 30.7728 33.2921 30.6324 32.4941ZM9.98585 15.9243C9.00695 15.9329 8.21135 15.0831 8.19965 14.0219C8.18795 12.9175 8.99914 11.99 9.97025 12.003C10.9413 12.0159 11.7057 12.8787 11.7135 13.9658C11.7174 15.0615 10.9608 15.92 9.98585 15.9243ZM20.7342 15.9243C19.7553 15.9286 18.9831 15.0702 18.9792 13.9744C18.9714 12.8873 19.7358 12.0461 20.7381 12.0332C21.7014 12.0245 22.4931 12.9003 22.497 13.9831C22.5009 15.0659 21.7209 15.9243 20.7342 15.9243Z" fill="#7B44AA"/>
<path d="M10.4857 9.34035C11.1487 9.38349 11.722 8.73209 11.7766 7.84342C11.8039 7.38615 11.7883 6.92456 11.8156 6.46728C11.956 4.22405 12.7438 3.06792 14.5144 2.83497C17.338 2.46829 18.7342 3.49931 18.8941 6.752C18.9175 7.20928 18.9331 7.67087 18.9916 8.12383C19.0891 8.87876 19.5883 9.36192 20.1967 9.32741C20.8051 9.2929 21.277 8.7666 21.2926 7.99872C21.3082 7.23516 21.2926 6.46297 21.2185 5.70804C20.9377 2.91694 19.5922 1.04038 17.3965 0.384668C16.7569 0.194856 16.0822 0.134461 15.427 0.0136719C15.2866 0.0136719 15.1501 0.0136719 15.0097 0.0136719C14.764 0.0654388 14.5222 0.125834 14.2726 0.160345C12.0652 0.492516 10.4545 1.72629 9.82657 4.13346C9.52627 5.28959 9.49897 6.54062 9.41707 7.75715C9.34687 8.67601 9.81877 9.29721 10.4857 9.34035Z" fill="#7B44AA"/>
</svg>
