<svg width="24" height="24" viewBox="0 0 24 24" fill="none" xmlns="http://www.w3.org/2000/svg">
<g clip-path="url(#clip0_272_3275)">
<path d="M22.652 12.4583H1.34434C1.33914 12.5577 1.33173 12.6475 1.33173 12.7373C1.33173 14.7271 1.33173 16.7171 1.33173 18.7074C1.33173 19.3403 1.54911 19.5569 2.18196 19.5576H17.4297C17.8993 19.5576 18.1886 19.7802 18.2213 20.1586C18.2301 20.2463 18.2215 20.3348 18.1957 20.419C18.1699 20.5033 18.1276 20.5816 18.0713 20.6493C18.0149 20.717 17.9456 20.7727 17.8674 20.8133C17.7892 20.8539 17.7037 20.8785 17.6159 20.8857C17.5239 20.8946 17.4304 20.8901 17.3384 20.8901H2.20347C0.819068 20.8901 0 20.0681 0 18.6777C0 14.2159 0 9.75457 0 5.29372C0 3.94493 0.830936 3.11621 2.18269 3.11621H21.818C23.1698 3.11621 23.9993 3.94492 24 5.2952V18.7067C24 20.0577 23.1691 20.8894 21.8225 20.8901C21.1741 20.8901 20.5264 20.8901 19.878 20.8901C19.3972 20.8901 19.1004 20.6238 19.1079 20.2098C19.1145 19.8121 19.4098 19.5591 19.878 19.5576C20.5635 19.5576 21.2483 19.5576 21.933 19.5576C22.4027 19.5576 22.6638 19.3032 22.6646 18.841C22.668 16.7582 22.668 14.6756 22.6646 12.5934C22.6653 12.5518 22.6594 12.5162 22.652 12.4583ZM22.652 8.45202H3.13976C3.02867 8.45624 2.91743 8.45376 2.80664 8.4446C2.64325 8.42665 2.49252 8.34813 2.38416 8.22453C2.27581 8.10093 2.21769 7.94122 2.22127 7.77689C2.22139 7.61354 2.28219 7.45606 2.39186 7.33501C2.50153 7.21396 2.65226 7.13796 2.8148 7.12177C2.92564 7.11348 3.03686 7.1115 3.14792 7.11584H22.6675C22.6675 6.4689 22.6675 5.86721 22.6675 5.26553C22.6675 4.67794 22.4353 4.44943 21.8388 4.44943H2.17528C1.56172 4.44943 1.33692 4.672 1.33692 5.28333C1.33692 7.12524 1.33692 8.9674 1.33692 10.8098V11.1006H22.652V8.45202Z" fill="#0049A3"/>
</g>
<defs>
<clipPath id="clip0_272_3275">
<rect width="24" height="17.7754" fill="white" transform="translate(0 3.1123)"/>
</clipPath>
</defs>
</svg>
