<svg width="35" height="30" viewBox="0 0 35 30" fill="none" xmlns="http://www.w3.org/2000/svg">
<path d="M0 13.6394C0.1599 12.4828 0.3315 11.3261 0.7137 10.2241C2.5662 4.92866 6.0333 1.58484 11.193 0.53332C15.9276 -0.434074 20.0382 1.09273 23.4741 4.72677C23.7471 5.01699 24.0006 5.33244 24.2385 5.65631C24.4062 5.88764 24.4998 5.9297 24.6753 5.6521C25.3305 4.6132 26.0091 3.59113 26.6799 2.56485C26.8983 2.23257 27.1596 1.98862 27.5613 1.96759C28.0215 1.94235 28.3296 2.17369 28.5831 2.56064C29.7453 4.34822 30.9114 6.1358 32.0736 7.91917C32.8731 9.14734 33.6726 10.3755 34.476 11.5995C34.7334 11.9864 34.8816 12.3902 34.7139 12.8655C34.5579 13.3113 34.203 13.5805 33.7467 13.5847C33.1578 13.5932 32.5689 13.5974 31.9839 13.5805C31.7109 13.5721 31.629 13.6857 31.6446 13.9675C31.7382 15.4733 31.8201 16.9832 31.9059 18.4932C31.9839 19.8686 32.0541 21.244 32.1321 22.6194C32.2101 23.9948 32.2842 25.3701 32.3817 26.7413C32.4363 27.5194 31.9995 28.0873 31.2819 28.0873C28.8483 28.0915 26.4186 28.0915 23.985 28.0873C23.2713 28.0873 22.8111 27.5068 22.893 26.7455C22.9203 26.5058 23.0295 26.1609 22.8696 26.0599C22.7058 25.9548 22.542 26.2871 22.386 26.4259C20.1903 28.3606 17.6865 29.4879 14.8707 29.7486C7.6635 30.4174 1.4196 25.0294 0.1833 17.6478C0.117 17.2398 0.0624 16.8318 0 16.4238C0 15.4943 0 14.569 0 13.6394ZM2.106 15.1873C2.106 15.734 2.1411 16.4112 2.2464 17.0884C3.2877 23.6499 8.8569 28.205 14.9643 27.4395C18.2091 27.0315 20.8455 25.3954 22.8657 22.6194C23.0958 22.3039 23.1894 21.9674 23.205 21.5763C23.244 20.5542 23.3064 19.5321 23.361 18.51C23.4468 16.9664 23.5326 15.4186 23.6262 13.875C23.6418 13.6352 23.556 13.5847 23.3571 13.5889C22.8033 13.5974 22.2495 13.5805 21.6957 13.5974C21.2121 13.6142 20.8221 13.4586 20.5959 12.9791C20.3775 12.5164 20.4789 12.0874 20.7519 11.6794C21.4968 10.5438 22.23 9.39971 22.9827 8.26827C23.1504 8.01591 23.1504 7.83084 22.9749 7.5911C19.9992 3.54486 16.1343 1.87506 11.4348 2.80039C5.9046 3.88976 2.0241 9.24408 2.106 15.1873ZM31.6875 11.3051C30.3459 9.24408 29.0667 7.27985 27.7875 5.31562C27.651 5.10531 27.5496 5.21046 27.4521 5.36188C27.2142 5.73202 26.9724 6.10215 26.7306 6.47228C25.7556 7.96964 24.7806 9.467 23.8056 10.9644C23.7549 11.0401 23.6652 11.12 23.7003 11.2209C23.7471 11.3513 23.8758 11.3008 23.9733 11.3051C24.2541 11.3177 24.5388 11.3008 24.8196 11.3345C25.4826 11.4102 25.8453 11.8392 25.818 12.5543C25.7829 13.6394 25.7205 14.7204 25.6581 15.8013C25.5567 17.5763 25.4475 19.3513 25.3422 21.1262C25.2564 22.5731 25.1784 24.02 25.0809 25.4669C25.0614 25.7613 25.1394 25.8538 25.4085 25.8496C26.8905 25.8412 28.3725 25.837 29.8545 25.8496C30.1314 25.8496 30.2016 25.7487 30.1782 25.4627C30.1041 24.3943 30.0456 23.3218 29.9832 22.2534C29.9091 20.9664 29.8389 19.6751 29.7648 18.3881C29.6556 16.5037 29.5347 14.6194 29.445 12.7351C29.3982 11.7509 29.7999 11.3303 30.7164 11.3093C31.0128 11.2966 31.3053 11.3051 31.6875 11.3051Z" fill="#F7941D"/>
<path d="M11.1336 12.5461C11.1375 13.3536 11.6796 13.892 12.5181 13.9046C13.3644 13.9172 14.2146 13.9004 15.0648 13.913C16.7652 13.9383 18.0756 15.2842 18.3174 17.2484C18.5163 18.8341 17.4555 20.5039 15.9423 20.9834C15.6498 21.076 15.3495 21.1391 15.0453 21.1601C14.8269 21.1769 14.7216 21.2863 14.7333 21.5344C14.745 21.8246 14.745 22.1191 14.7294 22.4135C14.6904 23.1201 14.2146 23.629 13.6296 23.608C13.0446 23.587 12.6117 23.057 12.6039 22.3462C12.6 22.0518 12.6 21.7616 12.6039 21.4671C12.6078 21.2863 12.5376 21.2021 12.366 21.1853C12.0735 21.1559 11.781 21.1222 11.4924 21.0718C10.5954 20.9119 9.86606 20.4282 9.28106 19.688C8.87936 19.1832 8.90666 18.5103 9.33566 18.0728C9.76076 17.6396 10.4082 17.6396 10.8255 18.1359C11.3052 18.708 11.8824 18.9225 12.5805 18.9014C13.3722 18.8762 14.1639 18.9056 14.9556 18.8888C15.5757 18.8762 16.0671 18.4177 16.1841 17.7826C16.2933 17.2064 16.0047 16.5839 15.4977 16.3231C15.2481 16.1969 14.979 16.1633 14.706 16.1633C13.8792 16.1633 13.0563 16.1717 12.2295 16.1549C10.5486 16.1296 9.05876 14.5692 9.00806 12.79C8.94566 10.7333 10.2366 9.08448 12.0228 8.92885C12.1359 8.92044 12.2451 8.891 12.3582 8.88679C12.5454 8.87838 12.6078 8.76902 12.6039 8.57554C12.5961 8.26009 12.5961 7.94043 12.6039 7.62497C12.6195 7.01089 13.0368 6.51878 13.5828 6.4641C14.0976 6.41363 14.5812 6.83003 14.6982 7.42729C14.7645 7.75536 14.7489 8.08764 14.7255 8.41151C14.6982 8.78585 14.8542 8.90362 15.1662 8.92885C16.0437 8.99615 16.8081 9.35787 17.4633 9.98458C17.7441 10.2538 17.982 10.565 18.1653 10.9183C18.4539 11.4651 18.3174 12.0918 17.8533 12.4367C17.397 12.7774 16.7574 12.6975 16.4337 12.1843C15.9384 11.4104 15.2754 11.1202 14.4252 11.1623C13.7466 11.1959 13.068 11.1623 12.3894 11.1707C11.6445 11.1917 11.1297 11.7595 11.1336 12.5461Z" fill="#F7941D"/>
</svg>
