<svg width="36" height="39" viewBox="0 0 36 39" fill="none" xmlns="http://www.w3.org/2000/svg">
<path d="M0 7.15083C2.288 5.86798 4.7 4.86273 7.04 3.70606C8.656 2.90271 10.332 2.21712 11.908 1.33805C12.956 0.753407 13.972 0.934267 15.02 1.08148C21.548 2.01523 28.076 2.97 34.608 3.89534C35.372 4.00469 35.764 4.34118 35.764 5.18239C35.76 10.5199 35.772 17.788 35.772 23.1213C35.772 23.2559 35.74 23.3947 35.696 23.748C35.012 22.8268 34.224 22.2085 34.228 21.0435C34.24 17.1108 34.236 11.2475 34.228 7.31487C34.228 7.01624 34.3 6.70499 34.12 6.32224C33.284 6.88585 32.46 7.43684 31.64 7.99625C30.004 9.11086 28.376 10.2381 26.732 11.3401C26.324 11.6135 26.148 11.9289 26.164 12.4421C26.192 13.4221 26.144 16.1308 26.18 17.1108C26.204 17.7333 25.968 17.9562 25.396 17.973C24.76 17.9941 24.628 17.6534 24.64 17.0856C24.66 16.1308 24.636 13.4557 24.644 12.5009C24.648 12.0257 24.472 11.8069 24 11.7439C21.116 11.3569 18.232 10.9615 15.356 10.5241C14.696 10.4231 14.584 10.6713 14.588 11.2728C14.604 14.1371 14.6 17.0014 14.592 19.8658C14.592 20.1602 14.708 20.5514 14.392 20.707C14.132 20.8332 13.912 20.5345 13.696 20.3831C12.944 19.8489 12.18 19.3316 11.456 18.7596C11.036 18.4273 10.696 18.381 10.232 18.6923C9.468 19.2054 8.652 19.6344 7.876 20.1265C7.308 20.4883 7.132 20.32 7.16 19.6597C7.284 16.5766 7.368 13.4894 7.52 10.4063C7.56 9.58614 7.248 9.32537 6.544 9.24125C5.088 9.06459 3.632 8.85849 2.184 8.61875C1.624 8.52621 1.472 8.73231 1.472 9.27489C1.484 16.4883 1.488 23.7059 1.472 30.9235C1.472 31.5039 1.684 31.689 2.208 31.7563C5.808 32.2316 11.712 33.0896 15.312 33.5397C16.064 33.6322 16.532 33.893 16.788 34.6669C16.972 35.2221 16.872 35.3988 16.332 35.3231C14.984 35.1422 13.632 34.9655 12.284 34.7805C9.452 34.3977 4.312 33.6827 1.484 33.2831C0.964 33.2116 0.404 33.2116 0 32.7616C0 24.2275 0 15.6891 0 7.15083ZM32.564 5.43055C32.42 5.16136 32.272 5.1908 32.148 5.17398C29.692 4.82488 27.232 4.50942 24.784 4.10564C24.068 3.98787 23.504 4.11405 22.904 4.50101C20.836 5.83854 18.748 7.13401 16.668 8.45471C16.476 8.57669 16.212 8.63137 16.124 8.95103C16.288 8.99729 16.436 9.06038 16.588 9.08562C18.676 9.38425 20.788 9.53988 22.84 10.011C24.588 10.4105 25.96 9.95207 27.36 8.90897C29.028 7.66818 30.808 6.59563 32.564 5.43055ZM16.172 3.07936C16.152 3.01206 16.132 2.94477 16.112 2.88168C15.616 2.80597 15.108 2.77652 14.628 2.64193C13.688 2.38536 12.868 2.64193 12.02 3.06254C9.508 4.30333 6.976 5.48944 4.456 6.70499C4.212 6.82276 3.912 6.88585 3.716 7.22654C4.74 7.36955 5.712 7.41161 6.632 7.65976C8.116 8.05934 9.384 7.78595 10.568 6.76808C11.12 6.29279 11.784 5.96051 12.396 5.56094C13.652 4.73655 14.912 3.90796 16.172 3.07936Z" fill="#F7941D"/>
<path d="M24.0358 38.9996C21.6998 38.4529 19.6918 37.334 18.1638 35.3404C15.6278 32.0218 15.3558 27.3909 17.4958 23.7569C19.5838 20.2154 23.6598 18.3815 27.5278 19.248C31.4838 20.1354 34.4838 23.5718 34.9918 27.7989C35.5998 32.863 32.5638 37.5317 27.8478 38.7809C27.5918 38.8482 27.3358 38.9281 27.0758 38.9996C26.0678 38.9996 25.0518 38.9996 24.0358 38.9996ZM23.1398 26.9409C22.7998 28.7284 22.4878 30.3604 22.1878 31.9965C22.1358 32.2868 22.2798 32.476 22.5638 32.5391C24.0958 32.8714 25.6278 33.2079 27.1638 33.5444C27.2478 33.1448 27.0078 32.9513 26.8598 32.7494C26.4478 32.1984 26.3758 31.7947 26.9998 31.3068C27.7558 30.7137 28.2838 29.8767 28.6198 28.9471C29.2598 27.1638 29.1518 25.4351 28.2478 23.7527C27.8518 25.5739 26.9318 26.9493 25.4078 27.8662C24.2638 28.5518 24.2638 28.5476 23.4918 27.4035C23.4198 27.29 23.3358 27.1932 23.1398 26.9409Z" fill="#F7941D"/>
</svg>
