<svg version="1.2" xmlns="http://www.w3.org/2000/svg" viewBox="0 0 24 25" width="24" height="25"><defs><clipPath clipPathUnits="userSpaceOnUse" id="cp1"><path d="m0 0.45h24v24h-24z"/></clipPath></defs><style>.a{fill:#fff}</style><filter id="f0"><feFlood flood-color="#0049a3" flood-opacity="1" /><feBlend mode="normal" in2="SourceGraphic"/><feComposite in2="SourceAlpha" operator="in" /></filter><g filter="url(#f0)"><g clip-path="url(#cp1)"><path fill-rule="evenodd" class="a" d="m24 16.5c-0.1 0.1-0.3 0.2-0.4 0.3q-4.5 2.5-9.1 5c-0.2 0.1-0.4 0.1-0.7 0q-0.9-0.5-1.9-1 0 0.1-0.1 0.1c-0.7 1.5-1.9 2.6-3.5 3.2-1.5 0.5-3.2 0.5-4.7-0.2-0.3-0.2-0.4-0.4-0.3-0.7 0.1-0.3 0.4-0.3 0.7-0.2 2.7 1.2 5.9 0.1 7.1-2.7 1.4-3.2-0.7-6.9-4.2-7.3q-1.2-0.2-2.3 0.2-1.1 0.3-2 1.1-0.8 0.8-1.3 1.9-0.4 1.1-0.4 2.3 0.1 1 0.5 2c0.1 0.1 0.1 0.3 0.1 0.4-0.1 0.1-0.3 0.3-0.4 0.3-0.2 0-0.4-0.1-0.5-0.3-0.2-0.5-0.4-1-0.5-1.6-0.5-3.1 1.2-5.9 4.1-7 0.2 0 0.2-0.1 0.2-0.3q0-2.9 0-5.8c0-0.3 0.1-0.5 0.3-0.6q2.7-1.5 5.4-3 2-1.1 4-2.2h0.2q0.1 0.1 0.1 0.1 4.6 2.5 9.2 5c0.1 0.1 0.2 0.3 0.4 0.4v3.5q-0.3 0.5-0.6 0.4c-0.2-0.1-0.3-0.3-0.3-0.7v-2.2q-0.1 0-0.2 0-1.2 0.7-2.4 1.3c-0.1 0.1-0.1 0.2-0.1 0.3q0 1.3 0 2.6 0 0.4-0.4 0.6-0.9 0.5-1.8 1c-0.4 0.3-0.8 0.1-0.8-0.4q0-0.7 0-1.4v-1q-0.1 0.1-0.2 0.2-1.2 0.6-2.3 1.2c-0.2 0.1-0.3 0.2-0.3 0.4q0.1 4.3 0.1 8.7v0.2q0.1 0 0.1 0 4.1-2.3 8.1-4.5 0.1 0 0.1-0.1 0.1-0.1 0.1-0.2 0-1.3 0-2.7c0-0.3 0.1-0.5 0.4-0.5 0.3 0 0.4 0.1 0.5 0.3zm-18.7-9.6v5.2q0.1 0 0.2-0.1c1.4-0.1 2.7 0.2 3.8 0.8 1.2 0.7 2.1 1.7 2.7 3 0.5 1.2 0.6 2.6 0.3 3.9 0 0.1 0 0.2 0.2 0.3q0.5 0.3 1 0.6 0.1 0 0.2 0.1 0-0.1 0-0.2 0-4.4 0-8.8c0-0.2-0.1-0.2-0.2-0.3q-3.5-1.9-6.9-3.8-0.6-0.4-1.3-0.7zm11.6 2.3q0-0.1-0.1-0.1-4.1-2.2-8.1-4.4-0.1-0.1-0.2-0.1 0 0-0.1 0.1-1.2 0.6-2.4 1.3-0.1 0-0.2 0.1 0.1 0 0.1 0 4.1 2.3 8.2 4.5c0 0 0.2 0 0.3 0q1.1-0.7 2.3-1.3 0.1-0.1 0.2-0.1zm5.6-3.1q-0.1-0.1-0.1-0.1-4-2.2-8-4.4-0.1-0.1-0.2-0.1-0.1 0-0.2 0.1-1.1 0.6-2.3 1.3-0.1 0-0.1 0l1.7 1q3.2 1.8 6.4 3.5c0.1 0.1 0.2 0.1 0.3 0.1q1.3-0.7 2.5-1.4zm-3.6 2q-0.1-0.1-0.1-0.1-4.1-2.2-8.1-4.5c-0.1 0-0.1 0-0.2 0q-0.5 0.3-1 0.5l2.2 1.3q3 1.6 6 3.2c0.1 0.1 0.2 0.1 0.3 0.1q0.4-0.2 0.9-0.5zm-0.5 3.5q0.4-0.3 0.9-0.5c0.1-0.1 0.1-0.2 0.1-0.3q0-0.8 0-1.7 0-0.1 0-0.2-0.5 0.3-1 0.5 0 0 0 0.1 0 0 0 0 0 1 0 2.1z"/><path class="a" d="m24 11.3q0 0.1-0.1 0.1-0.2 0.3-0.5 0.2-0.3-0.1-0.3-0.4 0-0.2 0.1-0.3 0-0.1 0.2-0.2c0.2 0 0.4 0.1 0.5 0.3h0.1z"/><path class="a" d="m4.7 17.6q0.1 0.1 0.3 0.3 0.1 0.1 0.1 0.3 0 0.2-0.1 0.3c-0.2 0.2-0.5 0.2-0.7 0q-0.5-0.5-1.1-1.1c-0.2-0.2-0.2-0.4 0-0.6q0.6-0.6 1.1-1.2c0.2-0.2 0.5-0.2 0.7 0 0.2 0.2 0.2 0.5 0 0.7q-0.2 0.1-0.3 0.2v0.1q0.1 0 0.2 0 1.3 0 2.6 0c1.1 0 2 0.9 2.1 2 0.1 1-0.6 2-1.7 2.3-0.3 0-0.6 0-0.9 0q-0.6 0-1.1 0c-0.4 0-0.6-0.1-0.6-0.4 0-0.3 0.2-0.5 0.6-0.5q0.7 0 1.5 0c0.7 0 1.3-0.5 1.3-1.2 0-0.7-0.6-1.2-1.3-1.2q-1.4 0-2.7 0z"/><path class="a" d="m2.6 22.3q0 0.2-0.1 0.3-0.1 0.2-0.3 0.2-0.2 0-0.4-0.2-0.1-0.1-0.1-0.3 0-0.1 0-0.2 0.1-0.1 0.1-0.1 0.1-0.1 0.2-0.1 0.1-0.1 0.2-0.1 0.2 0 0.3 0.2 0.1 0.1 0.1 0.3z"/></g></g></svg>