<svg width="36" height="33" viewBox="0 0 36 33" fill="none" xmlns="http://www.w3.org/2000/svg">
<path d="M1.568 32.5718C1.468 32.5382 1.368 32.5003 1.272 32.4667C0.504 32.1933 0.00799999 31.4866 0.00799999 30.6328C0.00399999 21.2996 0.008 11.9663 0 2.63304C0 2.30917 0.076 2.17458 0.408 2.18299C1.388 2.20402 2.364 2.19561 3.344 2.18299C3.628 2.17878 3.76 2.27552 3.736 2.58256C3.728 2.70454 3.736 2.82651 3.736 2.94849C3.736 11.2765 3.736 19.6045 3.736 27.9367C3.736 28.0587 3.744 28.1807 3.736 28.3027C3.72 28.5466 3.808 28.6728 4.056 28.6518C4.172 28.6433 4.288 28.6518 4.404 28.6518C14.516 28.6518 24.628 28.6518 34.74 28.6518C35.332 28.6518 35.332 28.6518 35.332 29.2743C35.332 30.2038 35.332 31.1375 35.332 32.0671C35.332 32.2395 35.34 32.412 35.268 32.5718C24.036 32.5718 12.8 32.5718 1.568 32.5718Z" fill="#39B54A"/>
<path d="M6.51563 18.827C6.88763 19.664 7.53162 19.8827 8.36362 19.7944C11.9916 19.4074 15.4036 18.2802 18.6276 16.5094C23.1836 14.0068 26.9756 10.5494 30.0596 6.22979C30.1516 6.10361 30.2436 5.97743 30.3356 5.85125C30.3476 5.83442 30.3756 5.83022 30.4276 5.80498C30.5436 6.24241 30.5516 6.68825 30.6156 7.12568C30.6676 7.46217 30.6956 7.80707 30.7556 8.14355C30.8876 8.89223 31.5316 9.40117 32.2196 9.31705C32.9596 9.22872 33.5036 8.63146 33.4476 7.84913C33.3676 6.77658 33.2196 5.71245 33.0916 4.64411C32.9636 3.57577 32.8196 2.51163 32.6916 1.44329C32.5716 0.425424 31.7276 -0.159219 30.8196 0.198296C28.8996 0.955388 26.9876 1.73351 25.0796 2.52004C24.3956 2.80185 24.0956 3.38229 24.1916 4.12676C24.2636 4.7072 24.7356 5.1951 25.3396 5.30446C25.6396 5.35914 25.9156 5.27081 26.1916 5.16145C26.7076 4.95536 27.2276 4.74505 27.7636 4.56419C27.4276 5.14883 27.0156 5.65777 26.6036 6.1625C23.9036 9.4979 20.7116 12.1814 16.9876 14.1498C14.2596 15.5925 11.3836 16.5389 8.33562 16.8838C8.15162 16.9048 7.96362 16.9006 7.77962 16.9216C7.15962 16.9889 6.76362 17.3675 6.52362 17.9479C6.51562 18.2381 6.51563 18.5325 6.51563 18.827Z" fill="#39B54A"/>
<path d="M30.8282 19.3195C30.8282 21.3889 30.8282 23.4583 30.8282 25.5319C30.8282 26.0324 30.8362 26.0408 31.3202 26.0408C32.4162 26.0408 33.5122 26.0324 34.6042 26.045C34.9282 26.0492 35.0562 25.9525 35.0562 25.5908C35.0482 21.4015 35.0482 17.2123 35.0562 13.023C35.0562 12.6613 34.9322 12.5604 34.6042 12.5646C33.4962 12.5814 32.3922 12.5688 31.2842 12.573C30.8322 12.573 30.8242 12.5856 30.8242 13.0777C30.8282 15.1513 30.8282 17.2333 30.8282 19.3195Z" fill="#39B54A"/>
<path d="M23.4182 21.2078C23.4182 22.6673 23.4262 24.1226 23.4102 25.5779C23.4062 25.9354 23.5303 26.0448 23.8583 26.0364C24.9783 26.0195 26.0943 26.0195 27.2143 26.0364C27.5503 26.0406 27.6543 25.9144 27.6543 25.5653C27.6423 22.6505 27.6463 19.7357 27.6543 16.8209C27.6543 16.5012 27.5823 16.3582 27.2423 16.3624C26.1023 16.3792 24.9582 16.3792 23.8182 16.3624C23.5102 16.3582 23.4143 16.4718 23.4143 16.7914C23.4223 18.272 23.4182 19.7399 23.4182 21.2078Z" fill="#39B54A"/>
<path d="M16.0158 22.4651C16.0158 23.5082 16.0238 24.5471 16.0118 25.5902C16.0078 25.9183 16.1038 26.0487 16.4278 26.0445C17.5558 26.0277 18.6878 26.0319 19.8198 26.0445C20.1238 26.0487 20.2518 25.9562 20.2518 25.6071C20.2398 23.5124 20.2398 21.4178 20.2518 19.3232C20.2518 18.9993 20.1678 18.8689 19.8398 18.8731C18.6998 18.89 17.5558 18.89 16.4158 18.8731C16.0998 18.8689 16.0158 18.9993 16.0198 19.3064C16.0198 20.3579 16.0158 21.4094 16.0158 22.4651Z" fill="#39B54A"/>
<path d="M10.7175 22.4861C10.1455 22.4861 9.57747 22.4945 9.00547 22.4819C8.72547 22.4735 8.60547 22.5745 8.60947 22.8815C8.62147 23.7984 8.62147 24.7196 8.60947 25.6365C8.60547 25.9393 8.72947 26.0445 9.00947 26.0403C10.1615 26.0318 11.3135 26.0318 12.4695 26.0403C12.7335 26.0403 12.8455 25.9477 12.8415 25.6575C12.8295 24.728 12.8295 23.7942 12.8415 22.8647C12.8455 22.5703 12.7335 22.4777 12.4695 22.4861C11.8855 22.4945 11.3015 22.4861 10.7175 22.4861Z" fill="#39B54A"/>
</svg>
