<svg width="116" height="18" viewBox="0 0 116 18" fill="none" xmlns="http://www.w3.org/2000/svg">
<path d="M15.1785 16.828C15.2595 17.3798 14.9121 17.6251 14.4045 17.3748L10.1971 15.2934C9.69124 15.0415 8.86157 15.0382 8.3523 15.2851L4.12805 17.3317C3.62047 17.577 3.27477 17.3284 3.36077 16.7782L4.07577 12.2027C4.16178 11.6508 3.90883 10.8753 3.51423 10.4759L0.22758 7.15978C-0.168707 6.76039 -0.0338014 6.35935 0.526059 6.27151L5.17526 5.52411C5.73512 5.43462 6.40796 4.959 6.67272 4.46681L8.86662 0.368525C9.12969 -0.123667 9.55802 -0.123667 9.8194 0.373496L11.9762 4.48835C12.2359 4.98386 12.9054 5.46611 13.4635 5.56057L18.106 6.34609C18.6642 6.44055 18.7957 6.8416 18.396 7.23601L15.0807 10.5256C14.6828 10.9217 14.4214 11.6956 14.504 12.2474L15.1785 16.828Z" fill="url(#paint0_radial_347_4765)"/>
<path opacity="0.5" d="M9.34412 0.226358C9.43181 0.226358 9.53299 0.320818 9.61393 0.476596L11.7724 4.59145C12.0675 5.15159 12.7927 5.67361 13.4267 5.78299L18.0692 6.56851C18.2462 6.59668 18.366 6.66463 18.3913 6.74583C18.4199 6.82703 18.3592 6.94967 18.2344 7.07396L14.9174 10.3652C14.4655 10.8126 14.1839 11.6545 14.2749 12.2776L14.9495 16.8598C14.9714 17.0123 14.9528 17.1349 14.8989 17.1962C14.8871 17.2078 14.855 17.2443 14.769 17.2443C14.6948 17.2443 14.6055 17.2178 14.5077 17.1697L10.3036 15.0882C10.0254 14.9507 9.65609 14.8745 9.26655 14.8745C8.88713 14.8745 8.52625 14.9474 8.25307 15.0783L4.02882 17.1266C3.93102 17.1747 3.84164 17.1979 3.76913 17.1979C3.68144 17.1979 3.6494 17.1631 3.6376 17.1498C3.58363 17.0868 3.56677 16.9625 3.59038 16.8117L4.30707 12.2345C4.40487 11.6131 4.13 10.7679 3.68144 10.3171L0.394792 6.99938C0.270004 6.87509 0.212669 6.7508 0.237964 6.67126C0.266631 6.5884 0.388047 6.52376 0.563425 6.49393L5.21262 5.74985C5.845 5.6471 6.57686 5.13005 6.87534 4.57157L9.06925 0.474939C9.15357 0.320819 9.25643 0.226358 9.34412 0.226358ZM9.34412 0.000976562C9.17212 0.000976562 8.99843 0.121953 8.86858 0.368878L6.67467 4.46716C6.40992 4.95936 5.73707 5.43663 5.17721 5.52447L0.528012 6.27187C-0.0318483 6.36136 -0.166754 6.76075 0.229533 7.16013L3.51618 10.4762C3.91247 10.8756 4.16542 11.6528 4.07773 12.203L3.36273 16.7786C3.29864 17.1846 3.47065 17.4282 3.76913 17.4282C3.87537 17.4282 3.99678 17.3967 4.13 17.3338L8.35425 15.2871C8.60551 15.1661 8.93603 15.1032 9.26655 15.1032C9.6055 15.1032 9.94277 15.1678 10.1991 15.2954L14.4065 17.3769C14.5414 17.4431 14.6645 17.4746 14.7724 17.4746C15.0675 17.4746 15.2395 17.2343 15.1805 16.83L14.506 12.2478C14.425 11.6959 14.6847 10.922 15.0827 10.5259L18.398 7.23637C18.796 6.84029 18.6661 6.4409 18.108 6.34644L13.4655 5.56092C12.9073 5.46646 12.2379 4.98256 11.9782 4.48871L9.82135 0.373849C9.68813 0.125267 9.51613 0.000976562 9.34412 0.000976562Z" fill="url(#paint1_radial_347_4765)"/>
<path d="M39.5147 16.828C39.5957 17.3798 39.2483 17.6251 38.7407 17.3748L34.5333 15.2934C34.0274 15.0415 33.1961 15.0382 32.6885 15.2851L28.4643 17.3317C27.955 17.577 27.611 17.3284 27.697 16.7782L28.4137 12.2027C28.4997 11.6508 28.2467 10.8753 27.8521 10.4759L24.5655 7.15978C24.1692 6.76039 24.3041 6.35935 24.864 6.27151L29.5132 5.52411C30.0713 5.43462 30.7459 4.959 31.0089 4.46681L33.2028 0.368525C33.4676 -0.123667 33.8959 -0.123667 34.1556 0.373496L36.3124 4.48835C36.5721 4.98386 37.2416 5.46611 37.7998 5.56057L42.4422 6.34609C43.0021 6.44055 43.1319 6.8416 42.7339 7.23601L39.4169 10.5256C39.019 10.9217 38.7576 11.6956 38.8402 12.2474L39.5147 16.828Z" fill="url(#paint2_radial_347_4765)"/>
<path opacity="0.5" d="M33.6791 0.226358C33.7668 0.226358 33.868 0.320818 33.9506 0.476596L36.1074 4.59145C36.4025 5.15159 37.1293 5.67361 37.7617 5.78299L42.4042 6.56851C42.5796 6.59668 42.701 6.66463 42.7263 6.74583C42.7532 6.82703 42.6942 6.94967 42.5694 7.07396L39.2541 10.3652C38.8022 10.8126 38.5206 11.6545 38.6116 12.2776L39.2862 16.8598C39.3081 17.0123 39.2895 17.1349 39.2373 17.1962C39.2255 17.2078 39.1934 17.2443 39.1074 17.2443C39.0349 17.2443 38.9438 17.2178 38.846 17.1697L34.6403 15.0866C34.3604 14.949 33.9911 14.8728 33.6032 14.8728C33.2238 14.8728 32.8646 14.9457 32.5881 15.0766L28.3638 17.1266C28.266 17.1747 28.1766 17.1979 28.1041 17.1979C28.0148 17.1979 27.9827 17.1631 27.9726 17.1498C27.9186 17.0868 27.9018 16.9625 27.9254 16.8117L28.6421 12.2345C28.7399 11.6131 28.465 10.7679 28.0164 10.3171L24.7298 6.99938C24.605 6.87509 24.5477 6.7508 24.5747 6.67126C24.6033 6.5884 24.7247 6.52376 24.9001 6.49393L29.5493 5.74985C30.1834 5.6471 30.9136 5.13005 31.212 4.57157L33.4076 0.474939C33.4903 0.320819 33.5931 0.226358 33.6791 0.226358ZM33.6791 0.000976562C33.5071 0.000976562 33.3351 0.121953 33.2036 0.368878L31.0097 4.46716C30.7466 4.95936 30.0721 5.43663 29.5139 5.52447L24.8647 6.27187C24.3065 6.36136 24.1716 6.76075 24.5662 7.16013L27.8529 10.4762C28.2492 10.8756 28.5004 11.6528 28.4144 12.203L27.6977 16.7786C27.6336 17.1846 27.8057 17.4282 28.1041 17.4282C28.2104 17.4282 28.3318 17.3967 28.465 17.3338L32.6893 15.2871C32.9405 15.1661 33.271 15.1032 33.6016 15.1032C33.9405 15.1032 34.2778 15.1678 34.5341 15.2954L38.7415 17.3769C38.8764 17.4431 38.9995 17.4746 39.1057 17.4746C39.4025 17.4746 39.5728 17.2343 39.5138 16.83L38.8376 12.2478C38.7566 11.6959 39.0163 10.922 39.4143 10.5259L42.7313 7.23637C43.1293 6.84029 42.9994 6.4409 42.4396 6.34644L37.7971 5.56092C37.239 5.46646 36.5695 4.98256 36.3098 4.48871L34.153 0.373849C34.0248 0.125267 33.8528 0.000976562 33.6791 0.000976562Z" fill="url(#paint3_radial_347_4765)"/>
<path d="M63.8531 16.828C63.934 17.3798 63.5866 17.6251 63.079 17.3748L58.8716 15.2934C58.3658 15.0415 57.5361 15.0382 57.0268 15.2851L52.8009 17.3317C52.2916 17.577 51.9476 17.3284 52.0319 16.7782L52.7486 12.2027C52.8329 11.6508 52.5817 10.8753 52.1854 10.4759L48.8987 7.15978C48.5041 6.76039 48.6373 6.35935 49.1972 6.27151L53.8464 5.52411C54.4063 5.43462 55.0791 4.959 55.3439 4.46681L57.5378 0.368525C57.8008 -0.123667 58.2292 -0.123667 58.4905 0.373496L60.6474 4.48835C60.9087 4.98386 61.5765 5.46611 62.1347 5.56057L66.7771 6.34609C67.3353 6.44055 67.4669 6.8416 67.0672 7.23601L63.7519 10.5256C63.3539 10.9217 63.0925 11.6956 63.1735 12.2474L63.8531 16.828Z" fill="url(#paint4_radial_347_4765)"/>
<path opacity="0.5" d="M58.0165 0.226358C58.1042 0.226358 58.2054 0.320818 58.288 0.476596L60.4448 4.59145C60.7399 5.15159 61.465 5.67361 62.0991 5.78299L66.7415 6.56851C66.9169 6.59668 67.0383 6.66463 67.0636 6.74583C67.0906 6.82703 67.0316 6.94967 66.9068 7.07396L63.5898 10.3652C63.1379 10.8126 62.8562 11.6545 62.949 12.2776L63.6235 16.8598C63.6454 17.0123 63.6269 17.1349 63.5729 17.1962C63.5628 17.2078 63.5308 17.2443 63.4431 17.2443C63.3706 17.2443 63.2812 17.2178 63.1817 17.1697L58.9743 15.0866C58.6944 14.949 58.3268 14.8728 57.9372 14.8728C57.5578 14.8728 57.1969 14.9457 56.9221 15.0766L52.6978 17.125C52.6 17.173 52.5106 17.1962 52.4381 17.1962C52.3504 17.1962 52.3184 17.1614 52.3066 17.1482C52.2526 17.0852 52.2358 16.9609 52.2594 16.8101L52.9761 12.2329C53.0739 11.6114 52.799 10.7662 52.3504 10.3155L49.0638 6.99773C48.939 6.87344 48.88 6.74915 48.9086 6.6696C48.9356 6.58674 49.057 6.52211 49.2341 6.49228L53.8833 5.74819C54.5174 5.64544 55.2475 5.12839 55.5477 4.56991L57.7416 0.473282C57.8276 0.320818 57.9288 0.226358 58.0165 0.226358ZM58.0165 0.000976562C57.8462 0.000976562 57.6725 0.121953 57.5409 0.368878L55.3453 4.46716C55.0806 4.95936 54.4077 5.43663 53.8479 5.52447L49.1987 6.27187C48.6405 6.36136 48.5056 6.76075 48.9002 7.16013L52.1869 10.4762C52.5831 10.8756 52.8344 11.6528 52.7501 12.203L52.0334 16.7786C51.9693 17.1846 52.1413 17.4282 52.4398 17.4282C52.546 17.4282 52.6675 17.3967 52.8007 17.3338L57.0266 15.2871C57.2779 15.1661 57.6084 15.1032 57.9389 15.1032C58.2762 15.1032 58.6151 15.1678 58.8715 15.2954L63.0788 17.3769C63.2137 17.4431 63.3368 17.4746 63.4431 17.4746C63.7399 17.4746 63.9102 17.2343 63.8512 16.83L63.175 12.2478C63.094 11.6959 63.3554 10.922 63.7534 10.5259L67.0687 7.23637C67.4667 6.84029 67.3368 6.4409 66.7786 6.34644L62.1362 5.56092C61.578 5.46646 60.9085 4.98256 60.6488 4.48871L58.492 0.373849C58.3605 0.125267 58.1885 0.000976562 58.0165 0.000976562Z" fill="url(#paint5_radial_347_4765)"/>
<path d="M88.1887 16.828C88.2696 17.3798 87.9222 17.6251 87.4163 17.3748L83.209 15.2934C82.7031 15.0415 81.8734 15.0382 81.3641 15.2851L77.1382 17.3317C76.6306 17.577 76.2849 17.3284 76.3709 16.7782L77.0876 12.2027C77.1736 11.6508 76.9206 10.8753 76.526 10.4759L73.2394 7.15978C72.8431 6.76039 72.978 6.35935 73.5362 6.27151L78.1854 5.52411C78.7453 5.43462 79.4198 4.959 79.6828 4.46681L81.8768 0.368525C82.1415 -0.123667 82.5698 -0.123667 82.8295 0.373496L84.988 4.48835C85.2477 4.98386 85.9172 5.46611 86.4754 5.56057L91.1178 6.34609C91.6777 6.44055 91.8075 6.8416 91.4096 7.23601L88.0926 10.5256C87.6946 10.9217 87.4349 11.6956 87.5158 12.2474L88.1887 16.828Z" fill="url(#paint6_radial_347_4765)"/>
<path opacity="0.5" d="M82.3528 0.226358C82.4405 0.226358 82.5416 0.320818 82.6226 0.476596L84.7794 4.59145C85.0745 5.15159 85.8013 5.67361 86.4337 5.78299L91.0761 6.56851C91.2532 6.59668 91.3729 6.66463 91.3999 6.74583C91.4269 6.82703 91.3679 6.94967 91.2414 7.07396L87.9261 10.3652C87.4741 10.8126 87.1925 11.6545 87.2836 12.2776L87.9581 16.8598C87.98 17.0123 87.9615 17.1349 87.9075 17.1962C87.8974 17.2078 87.8654 17.2443 87.7777 17.2443C87.7052 17.2443 87.6141 17.2178 87.5163 17.1697L83.3089 15.0866C83.0307 14.949 82.6614 14.8728 82.2718 14.8728C81.8924 14.8728 81.5315 14.9457 81.2583 15.0766L77.0341 17.125C76.9363 17.173 76.8469 17.1962 76.7744 17.1962C76.685 17.1962 76.653 17.1614 76.6429 17.1482C76.5889 17.0852 76.572 16.9609 76.5957 16.8101L77.3123 12.2329C77.4102 11.6114 77.1353 10.7662 76.6867 10.3155L73.4001 6.99773C73.2753 6.87344 73.2179 6.74915 73.2449 6.6696C73.2719 6.58674 73.395 6.52211 73.5704 6.49228L78.2196 5.74819C78.8536 5.64544 79.5838 5.12839 79.8823 4.56991L82.0762 0.473282C82.1622 0.320818 82.2651 0.226358 82.3528 0.226358ZM82.3528 0.000976562C82.1808 0.000976562 82.0071 0.121953 81.8772 0.368878L79.6833 4.46716C79.4202 4.95936 78.7457 5.43663 78.1859 5.52447L73.5367 6.27187C72.9768 6.36136 72.8436 6.76075 73.2399 7.16013L76.5265 10.4762C76.9211 10.8756 77.1741 11.6528 77.0881 12.203L76.3714 16.7786C76.3073 17.1846 76.4793 17.4282 76.7778 17.4282C76.884 17.4282 77.0054 17.3967 77.1386 17.3338L81.3646 15.2871C81.6158 15.1661 81.9464 15.1032 82.2769 15.1032C82.6158 15.1032 82.9531 15.1678 83.2094 15.2954L87.4168 17.3769C87.5517 17.4431 87.6748 17.4746 87.781 17.4746C88.0762 17.4746 88.2482 17.2343 88.1891 16.83L87.5146 12.2478C87.4337 11.6959 87.6934 10.922 88.0913 10.5259L91.4083 7.23637C91.8063 6.84029 91.6765 6.4409 91.1166 6.34644L86.4741 5.55927C85.916 5.46481 85.2465 4.9809 84.9868 4.48705L82.8283 0.372192C82.6968 0.125267 82.5248 0.000976562 82.3528 0.000976562Z" fill="url(#paint7_radial_347_4765)"/>
<path d="M112.526 16.828C112.607 17.3798 112.26 17.6251 111.754 17.3748L107.546 15.2934C107.041 15.0415 106.209 15.0382 105.702 15.2851L101.476 17.3317C100.968 17.577 100.622 17.3284 100.708 16.7782L101.425 12.2027C101.511 11.6508 101.258 10.8753 100.862 10.4759L97.5752 7.15978C97.1789 6.76039 97.3139 6.35935 97.8737 6.27151L102.523 5.52411C103.083 5.43462 103.756 4.959 104.02 4.46681L106.214 0.368525C106.479 -0.123667 106.907 -0.123667 107.167 0.373496L109.326 4.48835C109.585 4.98386 110.255 5.46611 110.813 5.56057L115.455 6.34609C116.015 6.44055 116.145 6.8416 115.747 7.23601L112.432 10.5256C112.032 10.9217 111.772 11.6956 111.853 12.2474L112.526 16.828Z" fill="url(#paint8_radial_347_4765)"/>
<path opacity="0.5" d="M106.689 0.226358C106.776 0.226358 106.877 0.320818 106.958 0.476596L109.117 4.59145C109.41 5.15159 110.137 5.67361 110.771 5.78299L115.414 6.56851C115.589 6.59668 115.71 6.66463 115.737 6.74583C115.764 6.82703 115.705 6.94967 115.579 7.07396L112.264 10.3652C111.812 10.8126 111.53 11.6545 111.621 12.2776L112.297 16.8598C112.319 17.0123 112.302 17.1349 112.247 17.1962C112.237 17.2078 112.205 17.2443 112.119 17.2443C112.046 17.2443 111.955 17.2178 111.857 17.1697L107.65 15.0866C107.372 14.949 107.002 14.8728 106.614 14.8728C106.235 14.8728 105.874 14.9457 105.599 15.0766L101.375 17.125C101.279 17.173 101.188 17.1962 101.115 17.1962C101.028 17.1962 100.994 17.1614 100.984 17.1482C100.93 17.0852 100.913 16.9609 100.937 16.8101L101.652 12.2329C101.749 11.6114 101.475 10.7662 101.026 10.3155L97.7393 6.99938C97.6145 6.87509 97.5572 6.7508 97.5842 6.67126C97.6111 6.5884 97.7342 6.52376 97.9096 6.49393L102.559 5.74985C103.193 5.6471 103.923 5.13005 104.222 4.57157L106.415 0.474939C106.5 0.320819 106.603 0.226358 106.689 0.226358ZM106.689 0.000976562C106.518 0.000976562 106.345 0.121953 106.213 0.368878L104.019 4.46716C103.756 4.95936 103.082 5.43663 102.522 5.52447L97.8725 6.27187C97.3143 6.36136 97.1794 6.76075 97.574 7.16013L100.861 10.4762C101.257 10.8756 101.508 11.6528 101.424 12.203L100.707 16.7786C100.643 17.1846 100.815 17.4282 101.114 17.4282C101.22 17.4282 101.341 17.3967 101.475 17.3338L105.7 15.2871C105.952 15.1661 106.282 15.1032 106.613 15.1032C106.95 15.1032 107.289 15.1678 107.545 15.2954L111.753 17.3752C111.888 17.4415 112.009 17.473 112.117 17.473C112.412 17.473 112.584 17.2327 112.525 16.8283L111.849 12.2461C111.768 11.6943 112.028 10.9203 112.427 10.5243L115.743 7.23471C116.14 6.83863 116.011 6.43925 115.451 6.34479L110.808 5.55927C110.25 5.46481 109.581 4.9809 109.321 4.48705L107.162 0.372192C107.034 0.125267 106.862 0.000976562 106.689 0.000976562Z" fill="url(#paint9_radial_347_4765)"/>
<defs>
<radialGradient id="paint0_radial_347_4765" cx="0" cy="0" r="1" gradientUnits="userSpaceOnUse" gradientTransform="translate(3.15966 17.6869) scale(19.4809 19.1446)">
<stop offset="0.3548" stop-color="#FFC200"/>
<stop offset="0.5084" stop-color="#FFBD07"/>
<stop offset="0.7249" stop-color="#FFAF19"/>
<stop offset="0.9777" stop-color="#FF9737"/>
<stop offset="1" stop-color="#FF953A"/>
</radialGradient>
<radialGradient id="paint1_radial_347_4765" cx="0" cy="0" r="1" gradientUnits="userSpaceOnUse" gradientTransform="translate(1.67851 22.4323) scale(28.1671 27.6809)">
<stop offset="0.3548" stop-color="#FFC200"/>
<stop offset="0.5084" stop-color="#FFBD07"/>
<stop offset="0.7249" stop-color="#FFAF19"/>
<stop offset="0.9777" stop-color="#FF9737"/>
<stop offset="1" stop-color="#FF953A"/>
</radialGradient>
<radialGradient id="paint2_radial_347_4765" cx="0" cy="0" r="1" gradientUnits="userSpaceOnUse" gradientTransform="translate(27.496 17.6869) scale(19.4803 19.144)">
<stop offset="0.3548" stop-color="#FFC200"/>
<stop offset="0.5084" stop-color="#FFBD07"/>
<stop offset="0.7249" stop-color="#FFAF19"/>
<stop offset="0.9777" stop-color="#FF9737"/>
<stop offset="1" stop-color="#FF953A"/>
</radialGradient>
<radialGradient id="paint3_radial_347_4765" cx="0" cy="0" r="1" gradientUnits="userSpaceOnUse" gradientTransform="translate(26.0153 22.4323) scale(28.1663 27.68)">
<stop offset="0.3548" stop-color="#FFC200"/>
<stop offset="0.5084" stop-color="#FFBD07"/>
<stop offset="0.7249" stop-color="#FFAF19"/>
<stop offset="0.9777" stop-color="#FF9737"/>
<stop offset="1" stop-color="#FF953A"/>
</radialGradient>
<radialGradient id="paint4_radial_347_4765" cx="0" cy="0" r="1" gradientUnits="userSpaceOnUse" gradientTransform="translate(51.8339 17.6869) scale(19.4804 19.1441)">
<stop offset="0.3548" stop-color="#FFC200"/>
<stop offset="0.5084" stop-color="#FFBD07"/>
<stop offset="0.7249" stop-color="#FFAF19"/>
<stop offset="0.9777" stop-color="#FF9737"/>
<stop offset="1" stop-color="#FF953A"/>
</radialGradient>
<radialGradient id="paint5_radial_347_4765" cx="0" cy="0" r="1" gradientUnits="userSpaceOnUse" gradientTransform="translate(50.3523 22.4323) scale(28.1665 27.6802)">
<stop offset="0.3548" stop-color="#FFC200"/>
<stop offset="0.5084" stop-color="#FFBD07"/>
<stop offset="0.7249" stop-color="#FFAF19"/>
<stop offset="0.9777" stop-color="#FF9737"/>
<stop offset="1" stop-color="#FF953A"/>
</radialGradient>
<radialGradient id="paint6_radial_347_4765" cx="0" cy="0" r="1" gradientUnits="userSpaceOnUse" gradientTransform="translate(76.169 17.6869) scale(19.4806 19.1442)">
<stop offset="0.3548" stop-color="#FFC200"/>
<stop offset="0.5084" stop-color="#FFBD07"/>
<stop offset="0.7249" stop-color="#FFAF19"/>
<stop offset="0.9777" stop-color="#FF9737"/>
<stop offset="1" stop-color="#FF953A"/>
</radialGradient>
<radialGradient id="paint7_radial_347_4765" cx="0" cy="0" r="1" gradientUnits="userSpaceOnUse" gradientTransform="translate(74.6881 22.4323) scale(28.1667 27.6804)">
<stop offset="0.3548" stop-color="#FFC200"/>
<stop offset="0.5084" stop-color="#FFBD07"/>
<stop offset="0.7249" stop-color="#FFAF19"/>
<stop offset="0.9777" stop-color="#FF9737"/>
<stop offset="1" stop-color="#FF953A"/>
</radialGradient>
<radialGradient id="paint8_radial_347_4765" cx="0" cy="0" r="1" gradientUnits="userSpaceOnUse" gradientTransform="translate(100.506 17.6869) scale(19.4807 19.1444)">
<stop offset="0.3548" stop-color="#FFC200"/>
<stop offset="0.5084" stop-color="#FFBD07"/>
<stop offset="0.7249" stop-color="#FFAF19"/>
<stop offset="0.9777" stop-color="#FF9737"/>
<stop offset="1" stop-color="#FF953A"/>
</radialGradient>
<radialGradient id="paint9_radial_347_4765" cx="0" cy="0" r="1" gradientUnits="userSpaceOnUse" gradientTransform="translate(99.0251 22.4323) scale(28.1668 27.6805)">
<stop offset="0.3548" stop-color="#FFC200"/>
<stop offset="0.5084" stop-color="#FFBD07"/>
<stop offset="0.7249" stop-color="#FFAF19"/>
<stop offset="0.9777" stop-color="#FF9737"/>
<stop offset="1" stop-color="#FF953A"/>
</radialGradient>
</defs>
</svg>
