<svg width="47" height="31" viewBox="0 0 47 31" fill="none" xmlns="http://www.w3.org/2000/svg">
<path d="M44.2584 0.00746636C44.769 -0.0291547 45.2919 0.0669757 45.7641 0.339345C46.5158 0.773648 46.793 1.50092 46.5484 2.44735C46.298 3.41666 46.0209 4.37968 45.7402 5.34156C45.08 7.60405 44.4115 9.86426 43.7437 12.1245C43.3489 13.4606 42.9466 14.7944 42.55 16.1299C42.0971 17.6577 41.6505 19.1872 41.1934 20.7138C41.0484 21.1979 40.9174 21.6877 40.7084 22.1512C40.3905 22.8556 39.4175 23.362 38.6385 23.2315C37.0501 22.9649 35.4954 22.5495 33.9228 22.213C32.1795 21.8399 30.4374 21.4651 28.679 21.1636C28.3663 21.1098 28.1823 21.2666 27.9936 21.4451C27.2175 22.1781 26.4413 22.9117 25.6716 23.651C23.8055 25.4425 21.9463 27.2404 20.0773 29.0285C19.5358 29.547 18.957 30.0287 18.4208 30.5517C18.0044 30.958 17.5089 31.0118 16.9925 30.9008C16.2053 30.7314 15.4687 30.185 15.2836 29.2689C15.0134 27.9328 14.6856 26.6081 14.3752 25.2806C13.8955 23.2281 13.3906 21.1813 12.9359 19.1237C12.7839 18.4353 12.5557 18.0331 11.7324 17.8952C9.56405 17.5318 7.40737 17.0958 5.23846 16.7244C3.83464 16.4841 2.425 16.2712 1.03457 15.9588C0.159436 15.762 -0.277256 14.7103 0.190296 13.9601C0.442413 13.5561 0.770223 13.2712 1.24651 13.1207C3.27742 12.4792 5.2996 11.8115 7.3276 11.1609C9.35502 10.5103 11.3848 9.86541 13.4157 9.22396C15.4373 8.58596 17.4624 7.9571 19.4851 7.32196C21.1475 6.80011 22.8081 6.27196 24.4716 5.7524C26.5968 5.08864 28.7226 4.42832 30.8496 3.77086C33.153 3.0596 35.4553 2.34607 37.7633 1.64798C39.5147 1.11869 41.2662 0.588254 43.0397 0.132779C43.4287 0.0326434 43.8229 -0.00683875 44.2584 0.00746636ZM44.1169 3.7102C44.0977 3.69761 44.0779 3.68502 44.0587 3.67244C43.9492 3.74854 43.8386 3.82293 43.7303 3.90017C42.0994 5.06575 40.4685 6.23133 38.8382 7.39691C36.933 8.75876 35.0267 10.1195 33.1233 11.4836C31.737 12.4775 30.3553 13.4777 28.9701 14.4734C27.405 15.5977 25.8393 16.7216 24.3068 17.8894C24.1589 18.0022 23.8782 18.0908 23.9184 18.2596C23.9574 18.4216 24.2503 18.4004 24.4355 18.4319C25.8009 18.6653 27.1715 18.8713 28.5334 19.1231C30.1812 19.4275 31.8249 19.7537 33.4645 20.0981C35.1234 20.4466 36.7735 20.8323 38.4288 21.1956C38.9127 21.3015 38.9581 21.262 39.0984 20.7836C39.4763 19.4927 39.8554 18.203 40.2367 16.9132C40.6181 15.6235 41.0059 14.3349 41.3867 13.0451C42.0534 10.7855 42.7177 8.52473 43.3803 6.26395C43.6301 5.41251 43.8718 4.56107 44.1169 3.7102ZM40.9809 2.68138C40.9745 2.65735 40.9681 2.63331 40.9617 2.60928C40.3544 2.79525 39.7459 2.97835 39.1398 3.16775C36.848 3.88358 34.5563 4.60112 32.2651 5.3181C30.2417 5.95153 28.2178 6.5821 26.1956 7.21953C23.9615 7.92449 21.7297 8.63745 19.4956 9.3447C17.2527 10.0548 15.007 10.7563 12.7659 11.4704C10.1463 12.3053 7.52848 13.1464 4.91298 13.9939C4.54616 14.1129 4.1642 14.2107 3.76652 14.4459C3.95109 14.4871 4.06172 14.5163 4.17351 14.5357C5.06146 14.6891 5.95114 14.8321 6.83792 14.9941C8.89678 15.3712 10.958 15.7385 13.0058 16.1734C13.2689 16.2295 13.51 16.2163 13.7598 16.0761C14.4247 15.703 15.1013 15.3488 15.7796 14.9992C17.8234 13.9464 19.8682 12.8952 21.9166 11.8515C23.6727 10.9572 25.4276 10.0594 27.1959 9.18963C29.6146 8.00002 32.0438 6.83043 34.4724 5.66027C36.0136 4.91813 37.5648 4.19658 39.1316 3.50764C39.75 3.23699 40.3648 2.95718 40.9809 2.68138ZM38.1552 5.65398C38.1464 5.63796 38.1377 5.62194 38.129 5.60592C38.0783 5.6248 38.0253 5.6391 37.9776 5.66371C36.961 6.18041 35.9426 6.69253 34.9301 7.21667C32.8706 8.28211 30.8147 9.35214 28.7581 10.4227C27.0527 11.3102 25.3479 12.1989 23.6442 13.0898C22.1117 13.8909 20.5786 14.6908 19.0502 15.4988C17.7011 16.2123 16.359 16.9384 15.0105 17.6531C14.8108 17.759 14.7333 17.8843 14.7851 18.112C15.17 19.8143 15.5421 21.5189 15.9275 23.2212C16.235 24.5791 16.5535 25.9346 16.8714 27.2902C16.9669 27.6982 17.0775 28.1033 17.1811 28.5095C17.2062 28.5084 17.2318 28.5067 17.2568 28.5055C17.4036 28.0049 17.5549 27.5048 17.697 27.0024C18.1098 25.5432 18.5116 24.0807 18.932 22.6233C19.2971 21.3581 19.6831 20.0987 20.0581 18.8364C20.1396 18.5629 20.284 18.3455 20.5274 18.1727C21.1952 17.6977 21.8409 17.1942 22.5088 16.7198C24.5997 15.2355 26.6964 13.7587 28.7919 12.2801C31.3602 10.4679 33.9297 8.65805 36.4975 6.84531C37.0536 6.45278 37.6032 6.05109 38.1552 5.65398ZM20.1483 26.0479C20.2508 26.0731 20.2892 26.0062 20.3352 25.9632C22.107 24.2832 23.8911 22.6158 25.6145 20.8872C25.6669 20.8346 25.7584 20.7865 25.7415 20.7064C25.7193 20.6023 25.6011 20.616 25.5231 20.6034C24.4052 20.4203 23.2855 20.2475 22.1682 20.0609C21.8695 20.0112 21.7268 20.1124 21.6499 20.3985C21.1836 22.1289 20.7044 23.8558 20.2339 25.585C20.1926 25.7355 20.1303 25.8877 20.1483 26.0479Z" fill="#0049A3"/>
</svg>
