<svg width="64" height="55" viewBox="0 0 64 55" fill="none" xmlns="http://www.w3.org/2000/svg">
<path d="M31.6538 0.0475451C38.9325 0.0475451 46.2045 0.0541926 53.4831 0.0342511C54.1944 0.0342511 54.6198 0.273549 54.9987 0.845205C56.9397 3.78325 58.7145 6.82765 60.5491 9.83217C61.2869 11.042 62.1643 12.1653 62.736 13.4682C62.9952 14.0664 63.1215 14.678 63.1215 15.3294C63.1149 28.1983 63.1082 40.4025 63.1282 53.2714C63.1282 53.9494 62.2707 54.8534 61.5727 54.8667C48.5111 55.0927 36.1074 54.9731 23.0458 54.9265C19.7288 54.9132 16.4119 54.8268 13.095 54.8933C10.2101 54.9531 7.33186 54.9531 4.44699 54.9598C3.23721 54.9598 2.69214 54.8667 1.47571 54.8667C0.830935 54.8667 -0.00660785 53.9295 3.93184e-05 53.3246C0.0199808 49.0504 0.00668648 45.441 0.00668648 41.1669C0.00668648 32.5455 0.00668648 23.9308 3.93184e-05 15.3094C3.93184e-05 14.5317 0.132983 13.8138 0.545107 13.1491C2.85167 9.4134 5.21806 5.71758 7.43157 1.92869C8.28905 0.466316 9.28613 -0.0255735 10.9878 0.00101515C17.8809 0.10737 24.7674 0.0475451 31.6538 0.0475451ZM31.5608 52.1813C40.807 52.1813 49.3818 52.1813 58.628 52.1813C59.5453 52.1813 60.2765 51.4634 60.2765 50.5527C60.2832 39.0531 60.2765 28.2182 60.2898 16.7186C60.2898 16.1669 60.0904 16.0207 59.5653 16.014C55.9958 16.0007 52.4262 16.0273 48.8567 15.9143C45.7458 15.808 42.635 15.9941 39.5241 16.014C38.9059 16.0207 38.7464 16.2467 38.753 16.825C38.773 18.879 38.7464 20.9396 38.7597 23.0002C38.7663 23.5918 38.5868 23.8577 37.9354 23.8577C34.3459 23.8311 30.7498 23.8311 27.1604 23.851C26.5688 23.851 26.3494 23.6649 26.3627 23.06C26.3893 21.0459 26.3693 19.0385 26.3693 17.0244C26.3693 16.0273 26.3693 16.0273 25.339 16.0273C18.2199 16.0273 11.1075 16.0273 3.98834 16.0273C2.93809 16.0273 2.93809 16.0273 2.93809 17.0776C2.94473 28.4442 2.95138 39.1395 2.95803 50.4995C2.95803 51.5165 3.62274 52.1813 4.63311 52.1813C13.8328 52.1813 22.3611 52.1813 31.5608 52.1813ZM14.9362 13.0627C14.9362 13.0693 14.9362 13.0693 14.9362 13.076C18.5057 13.076 22.0686 13.0627 25.6382 13.0893C26.263 13.0959 26.4691 12.8699 26.5156 12.265C26.7815 9.26716 27.0806 6.26929 27.3731 3.27142C27.4528 2.44717 27.4728 2.44717 26.6219 2.44717C21.1314 2.44717 15.6475 2.45382 10.1569 2.43388C9.60519 2.43388 9.29278 2.61335 9.0136 3.09195C7.22551 6.14964 5.61689 9.30705 3.88198 12.3913C3.50974 13.0627 3.5031 13.0627 4.30076 13.0627C7.85034 13.0693 11.3933 13.0627 14.9362 13.0627ZM49.0362 13.076C52.3265 13.076 55.6235 13.0826 58.9139 13.076C59.1997 13.076 59.7381 13.2289 59.3858 12.5775C57.6243 9.34693 55.9027 6.09647 54.0348 2.92577C53.8155 2.55353 53.543 2.44717 53.1375 2.44717C48.0856 2.45382 43.0271 2.45382 37.9753 2.43388C37.5033 2.43388 37.3305 2.54023 37.397 3.05206C37.7825 6.1297 38.1548 9.21399 38.4738 12.2983C38.5403 12.9298 38.7663 13.0826 39.3579 13.0826C42.5818 13.0627 45.8123 13.076 49.0362 13.076Z" fill="#DA0B0B"/>
</svg>
