<svg version="1.2" xmlns="http://www.w3.org/2000/svg" viewBox="0 0 64 55" width="64" height="55">
	<title>stockBox-svg</title>
	<style>
		.s0 { fill: #fe9800 } 
	</style>
	<path id="Layer" fill-rule="evenodd" class="s0" d="m31.7 0q10.9 0.1 21.8 0c0.7 0 1.1 0.3 1.5 0.8 1.9 3 3.7 6 5.5 9 0.8 1.2 1.7 2.4 2.2 3.7q0.4 0.9 0.4 1.8c0 12.9 0 25.1 0 38 0 0.6-0.8 1.6-1.5 1.6-13.1 0.2-25.5 0.1-38.6 0-3.3 0-6.6-0.1-9.9 0-2.9 0.1-5.8 0.1-8.7 0.1-1.2 0-1.7-0.1-2.9-0.1-0.7 0-1.5-1-1.5-1.6 0-4.2 0-7.9 0-12.1q0-13 0-25.9c0-0.8 0.1-1.5 0.5-2.2 2.4-3.7 4.7-7.4 6.9-11.2 0.9-1.4 1.9-1.9 3.6-1.9 6.9 0.1 13.8 0 20.7 0zm-0.1 52.2c9.2 0 17.8 0 27 0 0.9 0 1.7-0.7 1.7-1.6 0-11.5 0-22.4 0-33.9 0-0.5-0.2-0.7-0.7-0.7-3.6 0-7.2 0-10.7-0.1-3.2-0.1-6.3 0.1-9.4 0.1-0.6 0-0.8 0.2-0.7 0.8 0 2.1-0.1 4.1 0 6.2 0 0.6-0.2 0.9-0.9 0.9q-5.4-0.1-10.7 0c-0.6 0-0.9-0.2-0.8-0.8 0-2.1 0-4.1 0-6.1 0-1 0-1-1.1-1q-10.6 0-21.3 0c-1.1 0-1.1 0-1.1 1.1 0 11.3 0.1 22 0.1 33.4 0 1 0.6 1.7 1.6 1.7 9.2 0 17.8 0 27 0zm-16.7-39.1q0 0 0 0 5.4 0 10.7 0c0.7 0 0.9-0.2 0.9-0.8q0.4-4.5 0.9-9c0.1-0.9 0.1-0.9-0.8-0.9q-8.2 0.1-16.4 0c-0.6 0-0.9 0.2-1.2 0.7-1.8 3-3.4 6.2-5.1 9.3-0.4 0.7-0.4 0.7 0.4 0.7q5.3 0 10.6 0zm34.1 0q5 0 9.9 0c0.3 0 0.8 0.1 0.5-0.5-1.8-3.3-3.5-6.5-5.4-9.7-0.2-0.3-0.5-0.5-0.9-0.5q-7.5 0.1-15.1 0c-0.5 0-0.7 0.1-0.6 0.7q0.6 4.6 1.1 9.2c0 0.6 0.3 0.8 0.9 0.8q4.8 0 9.6 0z"/>
</svg>