<svg width="34" height="38" viewBox="0 0 34 38" fill="none" xmlns="http://www.w3.org/2000/svg">
<path d="M30.6572 9.40971C30.6732 9.92306 30.5292 10.4105 30.4812 10.9109C30.3972 11.791 30.7852 12.6279 31.5052 13.0636C31.7652 13.2232 32.0332 13.3699 32.2932 13.5209C33.5692 14.2758 33.9492 15.941 33.1412 17.2438C32.9692 17.5199 32.7852 17.783 32.6172 18.0591C32.1172 18.8701 32.1372 19.858 32.6652 20.6431C32.8252 20.8804 32.9892 21.1177 33.1492 21.3549C34.0012 22.6362 33.6812 24.2927 32.4212 25.1037C32.1812 25.259 31.9332 25.4057 31.6852 25.5524C30.8532 26.0442 30.4572 26.963 30.6292 27.9725C30.7132 28.4686 30.8252 28.9604 30.8092 29.4737C30.7692 30.6471 29.8252 31.7385 28.7372 31.8377C28.3292 31.8766 27.9172 31.8766 27.5132 31.9413C26.6252 32.0879 26.0852 32.6703 25.8412 33.5849C25.7652 33.8653 25.7052 34.1543 25.6252 34.4347C25.1972 35.9618 23.7612 36.7038 22.3852 36.1171C21.9972 35.9532 21.6292 35.7289 21.2132 35.6469C20.4732 35.5046 19.8492 35.7461 19.3292 36.3156C19.0292 36.6434 18.7892 37.0274 18.4652 37.3293C17.5332 38.1964 16.1572 38.1576 15.2812 37.2258C15.0492 36.9799 14.8412 36.7125 14.6252 36.4493C13.9972 35.6857 13.1092 35.4657 12.2292 35.8497C11.8012 36.0352 11.3972 36.2811 10.9372 36.3717C9.74116 36.6089 8.60116 35.8713 8.23716 34.6159C8.16116 34.3528 8.09316 34.0853 8.02116 33.8221C7.71316 32.6876 7.00516 32.0966 5.90516 32.0577C5.59716 32.0491 5.29316 32.0621 4.98516 32.0103C3.62916 31.7773 2.75316 30.4616 2.98916 28.9949C3.04116 28.6756 3.08916 28.3607 3.13316 28.0415C3.24916 27.1356 2.83716 26.2642 2.09316 25.8241C1.83716 25.6732 1.58116 25.5308 1.32916 25.3798C0.0211628 24.5947 -0.334837 22.9123 0.525163 21.5879C0.725163 21.2773 0.945163 20.9796 1.10916 20.6518C1.51716 19.8407 1.44516 19.0384 0.973163 18.2791C0.805163 18.0116 0.617163 17.7614 0.445163 17.4983C-0.362837 16.2645 -0.0388373 14.5993 1.15716 13.8228C1.41316 13.6589 1.67716 13.5036 1.93716 13.3483C2.76516 12.8565 3.16516 11.9247 2.99316 10.9239C2.90916 10.4364 2.80116 9.95326 2.81316 9.44853C2.84516 8.26221 3.78916 7.15784 4.88516 7.05431C5.29316 7.01548 5.70516 7.01117 6.10916 6.94646C6.92916 6.81705 7.46516 6.29938 7.73316 5.46248C7.83716 5.13462 7.90916 4.78951 7.99716 4.45302C8.39316 2.96041 9.84516 2.1839 11.1892 2.75334C11.5532 2.90864 11.9012 3.11571 12.2852 3.21493C13.0852 3.422 13.7692 3.18042 14.3292 2.53333C14.6252 2.19253 14.8772 1.80428 15.2172 1.50662C16.1412 0.695603 17.4692 0.751684 18.3252 1.64466C18.5892 1.92075 18.8212 2.22704 19.0732 2.51607C19.6892 3.21924 20.5692 3.41337 21.3932 3.03806C21.7172 2.89138 22.0332 2.73177 22.3652 2.60667C23.5572 2.15802 24.8452 2.79648 25.3132 4.06046C25.4132 4.33223 25.4772 4.62126 25.5572 4.90167C25.9292 6.25624 26.5612 6.78253 27.8732 6.82999C28.1372 6.83861 28.4012 6.8343 28.6652 6.87744C29.8252 7.09745 30.6572 8.1371 30.6572 9.40971ZM21.3092 26.0787C23.1172 26.083 24.5772 24.53 24.5852 22.593C24.5932 20.6216 23.1412 19.0384 21.3212 19.0297C19.5412 19.0211 18.0572 20.6173 18.0572 22.5413C18.0532 24.5084 19.4972 26.0787 21.3092 26.0787ZM12.2572 19.8494C14.0852 19.858 15.5612 18.305 15.5652 16.3637C15.5692 14.4225 14.1172 12.8436 12.3212 12.8306C10.4932 12.822 9.04516 14.3448 9.03316 16.2947C9.01716 18.2834 10.4332 19.8407 12.2572 19.8494ZM11.6452 25.272C11.6452 25.7292 11.9332 26.0269 12.3292 26.0226C12.5652 26.0183 12.7332 25.8975 12.8732 25.712C13.4172 25.0045 13.9612 24.297 14.5052 23.5895C16.1452 21.4585 17.7852 19.3317 19.4252 17.2006C20.2092 16.1825 20.9972 15.1688 21.7732 14.1421C22.0612 13.7624 22.0292 13.3181 21.7252 13.0636C21.3972 12.7832 21.0092 12.8479 20.7132 13.2318C19.2572 15.1213 17.8012 17.0065 16.3492 18.896C14.8452 20.8502 13.3452 22.8044 11.8412 24.7543C11.7212 24.9139 11.6292 25.0865 11.6452 25.272Z" fill="#7A43AA"/>
<path d="M21.3143 20.8672C22.1943 20.8629 22.9183 21.6394 22.9103 22.5798C22.9063 23.4858 22.1823 24.2623 21.3343 24.2709C20.4903 24.2795 19.7463 23.503 19.7383 22.6014C19.7303 21.648 20.4343 20.8715 21.3143 20.8672Z" fill="#7A43AA"/>
<path d="M12.299 18.042C11.423 18.042 10.719 17.2913 10.711 16.3509C10.703 15.432 11.431 14.6469 12.291 14.6426C13.179 14.6383 13.883 15.4234 13.875 16.3984C13.867 17.2913 13.147 18.042 12.299 18.042Z" fill="#7A43AA"/>
</svg>
