<svg width="57" height="52" viewBox="0 0 57 52" fill="none" xmlns="http://www.w3.org/2000/svg">
<path d="M22.3901 46.0354C22.1755 46.0354 21.9647 45.9794 21.7785 45.8727C21.5924 45.7661 21.4373 45.6127 21.3287 45.4277C17.2392 38.4607 6.33667 23.6258 6.22714 23.4768C6.05199 23.2387 5.96839 22.9455 5.99159 22.6509C6.0148 22.3562 6.14328 22.0797 6.35354 21.872L9.70603 18.559C9.91078 18.3567 10.18 18.2325 10.4668 18.2081C10.7536 18.1837 11.0399 18.2606 11.2759 18.4255L22.134 26.007C29.3997 16.6901 36.1487 10.2532 40.5889 6.45489C45.5878 2.17945 48.7699 0.254646 48.9031 0.175385C49.0944 0.0606184 49.3132 -3.57445e-06 49.5363 2.49218e-09H54.9601C55.2096 -1.58719e-05 55.4532 0.0758047 55.6586 0.217409C55.8641 0.359014 56.0216 0.559714 56.1104 0.792901C56.1992 1.02609 56.215 1.28075 56.1557 1.52312C56.0964 1.76549 55.9649 1.98412 55.7785 2.15003C40.3763 15.8687 23.6269 45.1199 23.4595 45.4138C23.3526 45.6014 23.1983 45.7576 23.012 45.8667C22.8257 45.9757 22.614 46.0339 22.3981 46.0353L22.3901 46.0354Z" fill="#10B921"/>
<path d="M22.1538 51.1632C9.93822 51.1632 0 41.2251 0 29.0093C0 16.7936 9.93822 6.85548 22.1538 6.85548C24.6032 6.85277 27.0359 7.25704 29.3527 8.05179C29.6615 8.15788 29.9154 8.38226 30.0587 8.67558C30.202 8.9689 30.2229 9.30712 30.1168 9.61585C30.0107 9.92458 29.7863 10.1785 29.493 10.3218C29.1997 10.4651 28.8615 10.486 28.5527 10.3799C26.493 9.67358 24.3302 9.31439 22.1527 9.31702C11.2943 9.31702 2.46043 18.151 2.46043 29.0093C2.46043 39.8677 11.2943 48.7016 22.1527 48.7016C33.0112 48.7016 41.845 39.8677 41.845 29.0093C41.8454 27.677 41.7115 26.348 41.4455 25.0424C41.4132 24.884 41.4123 24.7208 41.443 24.5621C41.4737 24.4034 41.5354 24.2523 41.6245 24.1174C41.7137 23.9825 41.8285 23.8665 41.9624 23.7759C42.0964 23.6854 42.2468 23.6222 42.4052 23.5898C42.5636 23.5575 42.7268 23.5566 42.8856 23.5873C43.0443 23.618 43.1954 23.6797 43.3303 23.7688C43.4652 23.8579 43.5812 23.9727 43.6717 24.1067C43.7622 24.2406 43.8255 24.3911 43.8578 24.5495C44.1569 26.0173 44.3075 27.5114 44.3072 29.0093C44.3077 41.2251 34.3695 51.1632 22.1538 51.1632Z" fill="#10B921"/>
</svg>
