<svg width="49" height="48" viewBox="0 0 49 48" fill="none" xmlns="http://www.w3.org/2000/svg">
<g clip-path="url(#clip0_1195_7390)">
<mask id="mask0_1195_7390" style="mask-type:luminance" maskUnits="userSpaceOnUse" x="0" y="0" width="49" height="48">
<path d="M0.772461 3.8147e-06H48.7725V48H0.772461V3.8147e-06Z" fill="white"/>
</mask>
<g mask="url(#mask0_1195_7390)">
<path d="M9.16653 2.01557L19.6138 12.4629C18.2577 13.8177 16.1613 15.9103 14.4209 17.6414C13.4159 18.6409 13.3212 20.2164 14.1741 21.3485C15.9722 23.7358 18.6196 26.9075 20.9102 29.1981C22.8638 31.1517 25.3755 32.985 27.6528 34.5988C28.7532 35.3785 30.2696 35.2 31.2206 34.2438C32.8219 32.6339 34.7417 30.7093 36.3566 29.0926L46.8038 39.5398C46.8038 39.5398 45.4173 40.9262 41.7649 44.5787C37.9707 48.3729 30.9953 46.414 24.1308 41.807C11.4486 33.2959 -2.95356 14.1357 4.05378 7.12832L9.16653 2.01557Z" stroke="#0686D8" stroke-width="3" stroke-miterlimit="10"/>
<path d="M29.085 4.21875C37.6144 4.21875 44.5537 11.158 44.5537 19.6875" stroke="#0686D8" stroke-width="3" stroke-miterlimit="10"/>
<path d="M29.085 9.84375C34.5122 9.84375 38.9287 14.2602 38.9287 19.6875" stroke="#0686D8" stroke-width="3" stroke-miterlimit="10"/>
<path d="M29.085 15.4688C31.4149 15.4688 33.3037 17.3575 33.3037 19.6875" stroke="#0686D8" stroke-width="3" stroke-miterlimit="10"/>
</g>
</g>
<defs>
<clipPath id="clip0_1195_7390">
<rect width="48" height="48" fill="white" transform="translate(0.772461)"/>
</clipPath>
</defs>
</svg>
