<svg width="21" height="20" viewBox="0 0 21 20" fill="none" xmlns="http://www.w3.org/2000/svg">
<path d="M16.5 5V4C16.5 1.794 14.706 0 12.5 0H4.5C2.294 0 0.5 1.794 0.5 4V14C0.5 14.406 0.746009 14.772 1.12201 14.926C1.24401 14.976 1.372 15 1.5 15C1.764 15 2.02199 14.896 2.21399 14.7L3.88 13H4.5V14C4.5 16.206 6.294 18 8.5 18H17.12L18.786 19.7C18.978 19.895 19.237 20 19.5 20C19.627 20 19.756 19.976 19.878 19.926C20.254 19.773 20.5 19.406 20.5 19V9C20.5 6.794 18.706 5 16.5 5ZM3.45999 11C3.19099 11 2.934 11.108 2.746 11.3L2.5 11.551V4C2.5 2.897 3.397 2 4.5 2H12.5C13.603 2 14.5 2.897 14.5 4V9C14.5 10.103 13.603 11 12.5 11H3.45999ZM18.5 16.551L18.254 16.3C18.066 16.109 17.808 16 17.54 16H8.5C7.397 16 6.5 15.103 6.5 14V13H12.5C14.706 13 16.5 11.206 16.5 9V7C17.603 7 18.5 7.897 18.5 9V16.551Z" fill="#0049A3"/>
</svg>
