<svg width="54" height="54" viewBox="0 0 54 54" fill="none" xmlns="http://www.w3.org/2000/svg">
<path d="M12.1275 15.7501C11.565 14.6476 10.215 14.1976 9.11254 14.7376C7.67254 15.4576 6.27754 16.6501 5.22004 17.6401C4.29754 18.4726 4.25252 19.9126 5.08502 20.8126C5.53502 21.2851 6.14252 21.5326 6.75002 21.5326C7.29002 21.5326 7.83002 21.3301 8.28002 20.9476C8.73002 20.5426 10.08 19.2826 11.1375 18.7651C12.24 18.2026 12.69 16.8526 12.15 15.7501H12.1275Z" fill="#FF0000"/>
<path d="M48.735 17.2349C42.7275 11.9249 35.0775 8.99998 27.2025 8.99998C23.49 8.99998 19.8675 9.63002 16.4025 10.8675C16.335 10.89 16.2675 10.9575 16.2 11.0025L12.8925 7.47C12.0375 6.57 10.62 6.50252 9.71998 7.35752C8.81998 8.21252 8.77497 9.62998 9.60747 10.53L41.1075 44.2799C41.5575 44.7524 42.1425 44.9999 42.75 44.9999C43.29 44.9999 43.8525 44.7974 44.28 44.3924C45.18 43.5374 45.2249 42.1199 44.3925 41.2199L27.7875 23.4224C32.76 23.5799 37.395 25.6724 40.9275 29.3849C41.3775 29.8574 41.9625 30.0824 42.5475 30.0824C43.11 30.0824 43.6725 29.8802 44.1 29.4527C45 28.5977 45.0449 27.1799 44.1899 26.2799C39.6674 21.51 33.615 18.9 27.2025 18.9C26.0775 18.9 24.9525 18.99 23.85 19.1475C23.85 19.1475 23.8275 19.1475 23.805 19.1475L19.5525 14.58C22.0275 13.86 24.5925 13.4775 27.2025 13.4775C33.975 13.4775 40.5675 15.9975 45.765 20.5875C46.1925 20.97 46.7325 21.15 47.25 21.15C47.88 21.15 48.4875 20.9025 48.9375 20.385C49.77 19.4625 49.68 18.0225 48.735 17.2125V17.2349Z" fill="#FF0000"/>
<path d="M18.6301 22.86C18.0001 21.78 16.6276 21.42 15.5476 22.05C13.7026 23.1075 12.0151 24.435 10.5076 25.965C9.63013 26.8425 9.65263 28.2825 10.5076 29.1375C10.9576 29.565 11.5201 29.79 12.0826 29.79C12.6451 29.79 13.2526 29.565 13.6801 29.115C14.9176 27.855 16.2901 26.7975 17.7751 25.92C18.8551 25.29 19.2151 23.9175 18.5851 22.8375L18.6301 22.86Z" fill="#FF0000"/>
<path d="M25.5151 30.7125C25.1551 29.52 23.8951 28.8675 22.7026 29.2275C20.3626 29.9475 18.0676 32.1075 16.9201 33.3225C16.0651 34.2225 16.0876 35.6398 17.0101 36.4948C17.4376 36.8998 18.0001 37.125 18.5626 37.125C19.1476 37.125 19.7551 36.9 20.1826 36.4275C21.5776 34.965 23.0851 33.84 24.0301 33.5475C25.2226 33.1875 25.8751 31.9275 25.5151 30.735V30.7125Z" fill="#FF0000"/>
<path d="M27 44.9099C28.5534 44.9099 29.8125 43.6508 29.8125 42.0974C29.8125 40.5442 28.5534 39.2849 27 39.2849C25.4466 39.2849 24.1875 40.5442 24.1875 42.0974C24.1875 43.6508 25.4466 44.9099 27 44.9099Z" fill="#FF0000"/>
</svg>
