<svg width="20" height="16" viewBox="0 0 20 16" fill="none" xmlns="http://www.w3.org/2000/svg">
<path d="M15 0H5C2.243 0 0 2.243 0 5V11C0 13.757 2.243 16 5 16H15C17.757 16 20 13.757 20 11V5C20 2.243 17.757 0 15 0ZM5 2H15C16.178 2 17.189 2.68798 17.68 3.67798L11.664 7.68799C10.653 8.36199 9.347 8.36199 8.336 7.68799L2.32001 3.67798C2.81101 2.68798 3.822 2 5 2ZM15 14H5C3.346 14 2 12.654 2 11V5.86804L7.22601 9.35205C8.06901 9.91405 9.034 10.1951 10 10.1951C10.965 10.1951 11.931 9.91405 12.773 9.35205L18 5.86804V11C18 12.654 16.654 14 15 14Z" fill="#4D80C9"/>
</svg>
