<svg width="45" height="51" viewBox="0 0 45 51" fill="none" xmlns="http://www.w3.org/2000/svg">
<path d="M21.8675 30.5893L19.843 28.5648C18.7248 27.4467 18.7248 25.6339 19.843 24.5158L15.7939 20.4668L13.7694 22.4913C11.5333 24.7275 11.5333 28.3531 13.7694 30.5893L19.843 36.6628C22.0791 38.899 25.7047 38.899 27.941 36.6628L29.9655 34.6383L25.9165 30.5893C24.7984 31.7074 22.9856 31.7074 21.8675 30.5893Z" stroke="#FE9800" stroke-width="4" stroke-miterlimit="10"/>
<path d="M42.083 27.9584C42.083 36.5094 36.7524 44.3616 28.605 46.9574C14.7522 51.3708 2 41.1539 2 27.9585C2 22.5102 4.17412 17.5696 7.70219 13.957C9.75702 11.8528 10.8031 8.72574 10.0616 5.87965C9.54439 3.89478 8.69443 2.96829 7.72614 2C17.2135 2 24.9046 4.1558 24.9046 13.6432V15.0747C24.9046 17.4466 26.8273 19.3693 29.1992 19.3693C31.571 19.3693 33.4938 17.4466 33.4938 15.0747V10.7801C38.8599 14.3575 42.083 20.38 42.083 26.8292V27.9584Z" stroke="#FE9800" stroke-width="4" stroke-miterlimit="10"/>
</svg>
