<svg width="54" height="54" viewBox="0 0 54 54" fill="none" xmlns="http://www.w3.org/2000/svg">
<path d="M27 2.25C22.1049 2.25 17.3198 3.70156 13.2496 6.42113C9.17953 9.14069 6.00726 13.0061 4.13399 17.5286C2.26072 22.0511 1.77059 27.0275 2.72558 31.8285C3.68056 36.6295 6.03777 41.0396 9.49912 44.5009C12.9605 47.9622 17.3705 50.3195 22.1715 51.2744C26.9726 52.2294 31.949 51.7393 36.4714 49.866C40.9939 47.9928 44.8593 44.8205 47.5789 40.7504C50.2985 36.6803 51.75 31.8951 51.75 27C51.7423 20.4383 49.1322 14.1475 44.4924 9.50766C39.8525 4.86781 33.5617 2.25774 27 2.25ZM27 47.25C22.9949 47.25 19.0798 46.0624 15.7497 43.8373C12.4196 41.6122 9.82413 38.4495 8.29145 34.7493C6.75878 31.0491 6.35776 26.9775 7.13911 23.0494C7.92046 19.1213 9.84908 15.5131 12.6811 12.6811C15.5131 9.84907 19.1213 7.92045 23.0494 7.1391C26.9775 6.35775 31.0491 6.75877 34.7494 8.29144C38.4496 9.82411 41.6122 12.4196 43.8373 15.7497C46.0624 19.0798 47.25 22.9949 47.25 27C47.2441 32.3688 45.1087 37.516 41.3123 41.3123C37.516 45.1087 32.3688 47.244 27 47.25Z" fill="#9B9B9B"/>
<path d="M27 11.25C26.4033 11.25 25.831 11.4871 25.409 11.909C24.9871 12.331 24.75 12.9033 24.75 13.5V31.5C24.75 32.0967 24.9871 32.669 25.409 33.091C25.831 33.5129 26.4033 33.75 27 33.75C27.5967 33.75 28.169 33.5129 28.591 33.091C29.0129 32.669 29.25 32.0967 29.25 31.5V13.5C29.25 12.9033 29.0129 12.331 28.591 11.909C28.169 11.4871 27.5967 11.25 27 11.25Z" fill="#9B9B9B"/>
<path d="M27 40.5C28.2426 40.5 29.25 39.4926 29.25 38.25C29.25 37.0074 28.2426 36 27 36C25.7574 36 24.75 37.0074 24.75 38.25C24.75 39.4926 25.7574 40.5 27 40.5Z" fill="#9B9B9B"/>
</svg>
