<svg width="19" height="20" viewBox="0 0 19 20" fill="none" xmlns="http://www.w3.org/2000/svg">
<path d="M18.2084 12.7361L13.1845 17.7781C11.7776 19.1901 9.82025 20 7.8139 20C5.83852 20 3.99904 19.244 2.63316 17.873C-0.247474 14.981 -0.205477 10.234 2.72811 7.29102L8.45138 1.547C9.44556 0.548997 10.7665 0 12.1734 0C13.5802 0 14.9011 0.548997 15.8953 1.547C17.9456 3.605 17.9456 6.95201 15.8953 9.01001L10.145 14.781C8.96296 15.969 6.89768 15.969 5.71565 14.781C4.49665 13.558 4.49665 11.567 5.71565 10.344L10.7665 5.27502C11.1552 4.88302 11.7877 4.88295 12.1793 5.27295C12.57 5.66295 12.571 6.29601 12.1813 6.68701L7.13044 11.756C6.6878 12.2 6.6878 12.9239 7.13044 13.3679C7.55909 13.7979 8.30151 13.7979 8.72916 13.3679L14.4794 7.59705C15.7534 6.31805 15.7534 4.23801 14.4794 2.95801C13.2475 1.72201 11.0982 1.72201 9.86623 2.95801L4.1429 8.70203C2.02165 10.83 1.97871 14.383 4.04801 16.46C5.0362 17.452 6.37408 17.999 7.8139 17.999C9.29268 17.999 10.7345 17.403 11.7696 16.365L16.7935 11.323C17.1832 10.931 17.8147 10.931 18.2064 11.321C18.597 11.712 18.5981 12.3461 18.2084 12.7361Z" fill="#41416E"/>
</svg>
