<svg width="54" height="54" viewBox="0 0 54 54" fill="none" xmlns="http://www.w3.org/2000/svg">
<path d="M26.9552 50.2339C23.8989 50.2396 20.8717 49.6412 18.0475 48.4732C15.2233 47.3053 12.6577 45.5907 10.4982 43.428C1.42248 34.3523 1.42248 19.5861 10.4982 10.5104C12.6545 8.34199 15.2195 6.62281 18.0446 5.45235C20.8697 4.28188 23.899 3.68338 26.9571 3.69149C33.1745 3.69149 39.0195 6.11217 43.414 10.5104C47.8104 14.9067 50.2329 20.7517 50.2329 26.9692C50.2329 33.1867 47.8121 39.0317 43.414 43.428C41.2541 45.5907 38.6881 47.3053 35.8637 48.4732C33.0391 49.6412 30.0117 50.2395 26.9552 50.2339ZM26.9571 7.41562C24.3882 7.40833 21.8434 7.91083 19.4702 8.89402C17.0969 9.87721 14.9423 11.3215 13.1312 13.1433C9.43868 16.8359 7.4053 21.7461 7.4053 26.9692C7.4053 32.1923 9.43868 37.1007 13.1312 40.7951C20.7545 48.4184 33.1596 48.4203 40.7811 40.7951C44.4735 37.1026 46.5088 32.1923 46.5088 26.9692C46.5088 21.7461 44.4753 16.8377 40.7811 13.1433C38.9699 11.3221 36.8156 9.87812 34.4427 8.89496C32.0698 7.9118 29.5256 7.40899 26.9571 7.41562Z" fill="#843C9F"/>
<path d="M19.0557 36.7295C18.6871 36.7303 18.3265 36.6216 18.0198 36.4172C17.7131 36.2127 17.474 35.9217 17.333 35.5811C17.1919 35.2406 17.1553 34.8657 17.2275 34.5043C17.2999 34.1429 17.478 33.8111 17.7393 33.551L33.5389 17.7513C33.7118 17.5785 33.917 17.4414 34.1429 17.3477C34.3687 17.2541 34.6109 17.2061 34.8554 17.2061C35.0998 17.2061 35.342 17.2541 35.5678 17.3477C35.7937 17.4414 35.999 17.5785 36.1718 17.7513C36.3447 17.9242 36.4819 18.1294 36.5755 18.3553C36.669 18.5813 36.7172 18.8233 36.7172 19.0678C36.7172 19.3123 36.669 19.5544 36.5755 19.7803C36.4819 20.0061 36.3447 20.2114 36.1718 20.3842L20.3722 36.184C20.1997 36.3575 19.9946 36.495 19.7686 36.5887C19.5427 36.6823 19.3003 36.7302 19.0557 36.7295Z" fill="#843C9F"/>
<path d="M34.8563 36.7295C34.6117 36.7298 34.3696 36.6817 34.1437 36.588C33.9176 36.4945 33.7125 36.3571 33.5398 36.184L17.7401 20.3842C17.5672 20.2114 17.4301 20.0061 17.3366 19.7803C17.243 19.5544 17.1948 19.3123 17.1948 19.0678C17.1948 18.8233 17.243 18.5813 17.3366 18.3553C17.4301 18.1294 17.5672 17.9242 17.7401 17.7513C17.9131 17.5785 18.1183 17.4414 18.3441 17.3477C18.57 17.2541 18.8122 17.2061 19.0567 17.2061C19.3011 17.2061 19.5432 17.2541 19.7691 17.3477C19.995 17.4414 20.2003 17.5785 20.3731 17.7513L36.1728 33.551C36.434 33.8111 36.6122 34.1429 36.6844 34.5043C36.7567 34.8657 36.72 35.2406 36.579 35.5811C36.4379 35.9217 36.1989 36.2127 35.8922 36.4172C35.5854 36.6216 35.2249 36.7303 34.8563 36.7295Z" fill="#843C9F"/>
</svg>
