<svg width="58" height="58" viewBox="0 0 58 58" fill="none" xmlns="http://www.w3.org/2000/svg">
<path d="M37.4789 44.0534C37.5382 44.4966 37.5685 44.9487 37.5685 45.4086C37.5685 51.0746 32.9756 55.6675 27.3097 55.6675H12.2589C9.42641 55.6675 6.86147 54.5193 5.00484 52.6626C3.14832 50.8061 2 48.2422 2 45.4086C2 39.7438 6.59284 35.151 12.2589 35.151H20.9309M47.3624 22.7068C48.9459 24.6024 49.7376 26.9372 49.7376 29.2697C49.7376 31.8958 48.7355 34.5207 46.7327 36.5237M46.7327 36.5237C42.7268 40.5295 36.2307 40.5295 32.2248 36.5237L21.5827 25.8804C19.5785 23.8775 18.5776 21.2525 18.5776 18.6276C18.5776 16.0015 19.5785 13.3766 21.5827 11.3736M46.7327 36.5237L41.7718 41.4845C39.5674 43.6889 36.6085 44.68 33.7251 44.4588M21.5827 11.3736C22.9702 9.98613 24.6554 9.07939 26.4329 8.6534M21.5827 11.3736L16.6217 16.3345C12.616 20.3403 12.616 26.8354 16.6217 30.8412L27.2651 41.4845C28.2429 42.4624 29.3688 43.2016 30.57 43.701M35.3984 10.7429C33.7339 9.35431 31.7341 8.5746 29.6919 8.40486M38.8269 25.6212L42.2651 22.1831C45.9788 23.5249 50.2941 22.7225 53.2874 19.7713C57.4513 15.6657 57.4762 8.89929 53.3413 4.76442C49.2118 0.635131 42.5177 0.635131 38.3883 4.76464C35.3933 7.75973 34.5729 12.1049 35.9228 15.8408L32.4848 19.2791C30.7334 21.0305 30.7334 23.8699 32.4848 25.6212C34.2361 27.3726 37.0755 27.3726 38.8269 25.6212ZM17.8664 45.4091L20.5617 42.7137C21.0165 42.2589 21.0165 41.5216 20.5617 41.0668L19.0543 39.5594C18.5994 39.1046 17.8622 39.1046 17.4074 39.5594L14.712 42.2548L12.0167 39.5594C11.562 39.1046 10.8246 39.1046 10.3698 39.5594L8.86235 41.0668C8.40756 41.5216 8.40756 42.2589 8.86235 42.7137L11.5577 45.4091L8.86235 48.1044C8.40756 48.5592 8.40756 49.2966 8.86235 49.7514L10.3698 51.2588C10.8246 51.7136 11.562 51.7136 12.0167 51.2588L14.712 48.5634L17.4074 51.2588C17.8622 51.7136 18.5994 51.7136 19.0543 51.2588L20.5617 49.7514C21.0165 49.2966 21.0165 48.5592 20.5617 48.1044L17.8664 45.4091Z" stroke="#F56C6C" stroke-width="3" stroke-miterlimit="10" stroke-linecap="round" stroke-linejoin="round"/>
</svg>
