<svg width="48" height="48" viewBox="0 0 48 48" fill="none" xmlns="http://www.w3.org/2000/svg">
<path d="M13.9146 20.0389C13.0411 20.0389 12.0426 19.7553 11.2939 19.3128L10.4316 21.2642C11.2258 21.7521 12.5645 22.0811 13.892 22.0811C16.3539 22.0811 17.5906 20.8557 17.5906 19.4035C17.5906 16.4764 13.2 17.2706 13.2 16.3175C13.2 16.0452 13.4495 15.8183 14.2325 15.8183C14.9245 15.8183 15.662 16.0111 16.4448 16.4082L17.2503 14.4682C16.4221 14.0031 15.3215 13.7761 14.255 13.7761C11.7931 13.7761 10.5564 14.9787 10.5564 16.4536C10.5564 19.4147 14.9471 18.6092 14.9471 19.6077C14.9471 19.8801 14.6749 20.0389 13.9146 20.0389Z" fill="#FE9800"/>
<path d="M21.3905 18.4052L23.115 21.1848H24.2948L26.0194 18.2803L26.042 21.8995H28.4813L28.4586 13.9578H26.2576L23.739 18.1895L21.1522 13.9578H18.9512V21.8995H21.3905V18.4052Z" fill="#FE9800"/>
<path d="M33.3258 20.0389C32.4522 20.0389 31.4538 19.7553 30.705 19.3128L29.8428 21.2642C30.6369 21.7521 31.9757 22.0811 33.3031 22.0811C35.7651 22.0811 37.0017 20.8557 37.0017 19.4035C37.0017 16.4764 32.6111 17.2706 32.6111 16.3175C32.6111 16.0452 32.8607 15.8183 33.6436 15.8183C34.3356 15.8183 35.0731 16.0111 35.8559 16.4082L36.6614 14.4682C35.8332 14.0031 34.7327 13.7761 33.6662 13.7761C31.2042 13.7761 29.9676 14.9787 29.9676 16.4536C29.9676 19.4147 34.3582 18.6092 34.3582 19.6077C34.3582 19.8801 34.086 20.0389 33.3258 20.0389Z" fill="#FE9800"/>
<path d="M0 3.69751V33.3275H8.27653V44.3024L18.9059 33.3275H48V3.69751H0ZM45.1875 30.5149H17.7145L11.089 37.3557V30.5149H2.8125V6.51001H45.1875V30.5149Z" fill="#FE9800"/>
</svg>
