<svg width="24" height="24" viewBox="0 0 24 24" fill="none" xmlns="http://www.w3.org/2000/svg">
<path d="M18 7V6C18 3.794 16.206 2 14 2H6C3.794 2 2 3.794 2 6V16C2 16.406 2.24601 16.772 2.62201 16.926C2.74401 16.976 2.872 17 3 17C3.264 17 3.52199 16.896 3.71399 16.7L5.38 15H6V16C6 18.206 7.794 20 10 20H18.62L20.286 21.7C20.478 21.895 20.737 22 21 22C21.127 22 21.256 21.976 21.378 21.926C21.754 21.773 22 21.406 22 21V11C22 8.794 20.206 7 18 7ZM4.95999 13C4.69099 13 4.434 13.108 4.246 13.3L4 13.551V6C4 4.897 4.897 4 6 4H14C15.103 4 16 4.897 16 6V11C16 12.103 15.103 13 14 13H4.95999ZM20 18.551L19.754 18.3C19.566 18.109 19.308 18 19.04 18H10C8.897 18 8 17.103 8 16V15H14C16.206 15 18 13.206 18 11V9C19.103 9 20 9.897 20 11V18.551Z" fill="#0049A3"/>
</svg>
