<svg width="54" height="54" viewBox="0 0 54 54" fill="none" xmlns="http://www.w3.org/2000/svg">
<path d="M27 2.25C22.1049 2.25 17.3198 3.70156 13.2496 6.42113C9.17953 9.14069 6.00726 13.0061 4.13399 17.5286C2.26072 22.0511 1.77059 27.0275 2.72558 31.8285C3.68056 36.6295 6.03777 41.0395 9.49912 44.5009C12.9605 47.9622 17.3705 50.3195 22.1715 51.2744C26.9726 52.2294 31.949 51.7393 36.4714 49.866C40.9939 47.9928 44.8593 44.8205 47.5789 40.7504C50.2985 36.6803 51.75 31.8951 51.75 27C51.7423 20.4383 49.1322 14.1475 44.4924 9.50766C39.8525 4.86781 33.5617 2.25774 27 2.25ZM27 47.25C22.9949 47.25 19.0798 46.0624 15.7497 43.8373C12.4196 41.6122 9.82413 38.4495 8.29145 34.7493C6.75878 31.0491 6.35776 26.9775 7.13911 23.0494C7.92046 19.1213 9.84908 15.5131 12.6811 12.6811C15.5131 9.84907 19.1213 7.92045 23.0494 7.1391C26.9775 6.35775 31.0491 6.75877 34.7494 8.29144C38.4496 9.82411 41.6122 12.4196 43.8373 15.7497C46.0624 19.0798 47.25 22.9949 47.25 27C47.2441 32.3688 45.1087 37.516 41.3123 41.3123C37.516 45.1087 32.3688 47.244 27 47.25Z" fill="#0686D8"/>
<path fill-rule="evenodd" clip-rule="evenodd" d="M25.4402 23.637C23.5342 23.2925 21.4725 23.7766 19.8633 25.2292L17.6203 27.254C17.1558 27.6734 16.4115 27.4367 16.2746 26.8259C15.5799 23.7262 12.1279 22.1356 9.3202 23.6215L10.2214 25.3244L9.3202 23.6215L4 26.4369L5.87099 29.9724L11.1912 27.1569C11.6677 26.9047 12.2536 27.1747 12.3715 27.7008C13.178 31.2992 17.5633 32.6943 20.3007 30.2232L22.5437 28.1984C22.9571 27.8252 23.4466 27.6149 23.9453 27.5523L25.4402 23.637ZM27.1583 30.3511C28.7796 34.0319 33.187 35.6042 36.7843 33.7392L36.8037 33.7291L36.8228 33.7187L50.0148 26.5101L48.0968 23L34.9263 30.1968C33.3599 30.9966 31.4423 30.2829 30.7815 28.6501L30.3751 27.6459C30.0422 26.8231 29.5701 26.1133 29.0006 25.526L27.1583 30.3511Z" fill="#0686D8"/>
</svg>
